<svg width="119" height="54" viewBox="0 0 119 74" fill="none" xmlns="http://www.w3.org/2000/svg">
<path d="M38.6097 43.6343H34.5342C33.779 43.6343 33.0836 43.2248 32.7198 42.5658C31.9208 41.1244 30.1087 40.6874 28.3358 40.6874C26.5628 40.6874 24.7484 41.1221 23.9517 42.5658C23.5879 43.2248 22.8926 43.6343 22.1373 43.6343H18.0618V45.9979H22.1373C22.8926 45.9979 23.5879 46.4074 23.9517 47.0664C24.7507 48.5078 26.5628 48.9448 28.3358 48.9448C30.1087 48.9448 31.9231 48.5101 32.7198 47.0664C33.0836 46.4074 33.779 45.9979 34.5342 45.9979H38.6097V43.6343Z" fill="#596E81"/>
<path fill-rule="evenodd" clip-rule="evenodd" d="M11.1308 53.4472H11.9623V53.4451C12.5359 53.4433 13.0009 53.0802 13.0009 52.6329V36.7769C13.0009 36.3296 12.5359 35.9665 11.9623 35.9647V35.0199H7.60647V35.967H7.49782C6.92219 35.9647 6.45477 36.3285 6.45477 36.7792V52.6352C6.45477 53.0836 6.92219 53.4474 7.49782 53.4474H7.64288C7.64668 53.4474 7.65044 53.4473 7.65417 53.4472H8.32932C8.33303 53.4473 8.33678 53.4474 8.34055 53.4474H8.80337C8.80707 53.4474 8.81075 53.4473 8.8144 53.4472H9.4875C9.49121 53.4473 9.49496 53.4474 9.49873 53.4474H9.96154C9.96525 53.4474 9.96893 53.4473 9.97258 53.4472H10.6457C10.6494 53.4473 10.6531 53.4474 10.6569 53.4474H11.1197C11.1234 53.4474 11.1271 53.4473 11.1308 53.4472ZM17.9489 53.4472H18.8509V53.4432C19.3926 53.414 19.8211 53.0623 19.8211 52.6329V36.7769C19.8211 36.3476 19.3926 35.9958 18.8509 35.9666V35.0199H14.3093V35.967C13.7354 35.9683 13.275 36.3307 13.275 36.7792V52.6352C13.275 53.0836 13.7424 53.4474 14.3181 53.4474H14.4631L14.4744 53.4472H15.1449L15.1562 53.4474H15.619L15.6303 53.4472H16.3054L16.3167 53.4474H16.7795L16.7908 53.4472H17.4636L17.4748 53.4474H17.9376L17.9489 53.4472ZM37.8535 35.0199H42.3377V35.9647H42.3565C42.9322 35.9647 43.3996 36.3285 43.3996 36.7769V52.6329C43.3996 53.0814 42.9322 53.4452 42.3565 53.4452H42.3377V53.4472H41.5274L41.5161 53.4474H41.0533L41.042 53.4472H40.3692L40.3579 53.4474H39.8951L39.8838 53.4472H39.211L39.1997 53.4474H38.7369L38.7256 53.4472H38.0528L38.0416 53.4474H37.8965L37.8688 53.4472H37.8535V53.4468C37.2978 53.4292 36.8534 53.0724 36.8534 52.6352V36.7792C36.8534 36.3398 37.2978 35.9829 37.8535 35.9675V35.0199ZM49.0678 35.0199H44.6575V35.968C44.1068 35.9894 43.6726 36.3437 43.6726 36.7792V52.6352C43.6726 53.0684 44.1089 53.4227 44.6575 53.4462V53.4472H44.6879L44.7157 53.4474H44.8607L44.872 53.4472H45.5427L45.5538 53.4474H46.0166L46.0279 53.4472H46.7009L46.712 53.4474H47.1748L47.1861 53.4472H47.8611L47.8724 53.4474H48.3353L48.3465 53.4472H49.0678V53.4452H49.1757C49.7513 53.4452 50.2187 53.0814 50.2187 52.6329V36.7769C50.2187 36.3285 49.7513 35.9647 49.1757 35.9647H49.0678V35.0199Z" fill="#22282F"/>
<path d="M50.2195 35.0199H6.45477V39.6267H50.2195V35.0199Z" fill="#3D7915"/>
<path d="M5.87315 46.537H50.8011C51.1162 46.537 51.3712 46.2665 51.3712 45.9323V37.9281C51.3712 37.5938 51.1162 37.3234 50.8011 37.3234H5.87315C5.55802 37.3234 5.30304 37.5938 5.30304 37.9281V45.9323C5.30304 46.2665 5.55802 46.537 5.87315 46.537Z" fill="#64B82A"/>
<path fill-rule="evenodd" clip-rule="evenodd" d="M50.401 6.9067H49.701V5.75354H50.401C50.599 5.75354 50.7579 5.91141 50.7579 6.10818V6.55206C50.7579 6.74883 50.599 6.9067 50.401 6.9067ZM55.1351 17.532H52.3973C51.9322 17.532 51.5546 17.1568 51.5546 16.6946V9.74131C51.5546 9.27913 51.9322 8.9039 52.3973 8.9039H55.1351C55.6002 8.9039 55.9778 9.27913 55.9778 9.74131V16.6946C55.9778 17.1568 55.6002 17.532 55.1351 17.532ZM50.2195 20.7517H50.9195C51.1175 20.7517 51.2764 20.5939 51.2764 20.3971V19.9532C51.2764 19.7564 51.1175 19.5986 50.9195 19.5986H50.2195V20.7517ZM1.53933 17.532H4.27705C4.74216 17.532 5.11978 17.1568 5.11978 16.6946V9.74131C5.11978 9.27913 4.74216 8.9039 4.27705 8.9039H1.53933C1.07421 8.9039 0.696594 9.27913 0.696594 9.74131V16.6946C0.696594 17.1568 1.07421 17.532 1.53933 17.532ZM6.97329 6.9067H6.27332C6.0753 6.9067 5.91642 6.74883 5.91642 6.55206V6.10818C5.91642 5.91141 6.0753 5.75354 6.27332 5.75354H6.97329V6.9067ZM5.75479 20.7517H6.45476V19.5986H5.75479C5.55677 19.5986 5.39789 19.7564 5.39789 19.9532V20.3971C5.39789 20.5939 5.55677 20.7517 5.75479 20.7517Z" fill="#596E81"/>
<path d="M50.2172 18.8086L49.9613 3.52804C49.9544 3.1091 49.5934 2.77222 49.15 2.77222H7.52427C7.08093 2.77222 6.71986 3.1091 6.71301 3.52804L6.45706 18.8086H6.45477V35.0199H50.2195L50.2172 18.8086Z" fill="#64B82A"/>
<path d="M7.87252 16.5925C7.80051 16.5925 7.73075 16.5665 7.68125 16.5206C7.62949 16.4726 7.60249 16.4107 7.60699 16.3448L7.83202 5.54092C7.83652 5.28321 8.07504 5.07544 8.36532 5.07544H48.5569C48.7009 5.07544 48.8202 5.17932 48.8224 5.30718L49.0677 16.3488C49.07 16.4147 49.043 16.4746 48.9912 16.5206C48.9417 16.5665 48.8742 16.5905 48.8022 16.5905L7.87252 16.5925Z" fill="#22282F"/>
<path opacity="0.2" d="M34.3157 16.5925H30.2267C32.6379 13.0468 35.3567 9.05421 38.0676 5.07544H42.1576C39.4671 9.02377 36.7502 13.0131 34.3157 16.5925ZM35.4444 5.07544H28.2825H22.3567C19.6207 9.09134 16.8995 13.088 14.5167 16.5925H27.6023C30.0373 13.0131 32.7539 9.02398 35.4444 5.07544Z" fill="white"/>
<path fill-rule="evenodd" clip-rule="evenodd" d="M7.60919 25.1653H9.5028L9.90991 28.1096H8.24396C7.89309 28.1096 7.60919 27.977 7.60919 27.8138V25.1653ZM8.24128 18.896H8.63768L9.04212 21.8403H7.60651V19.1918C7.60651 19.0286 7.89042 18.896 8.24128 18.896ZM7.60651 22.0375H9.07158L9.47334 24.9682H7.60651V22.0375ZM19.9228 44.2335H36.7519C36.9823 44.2335 37.1795 44.0002 37.2108 43.6838L37.5466 40.348C37.5837 39.9672 37.3689 39.6267 37.0877 39.6267H19.5869C19.3057 39.6267 19.089 39.9672 19.1281 40.348L19.4639 43.6838C19.4951 44.0002 19.6924 44.2335 19.9228 44.2335ZM48.4323 28.1096C48.7836 28.1096 49.0678 27.977 49.0678 27.8139V25.1654H47.172L46.7644 28.1096H48.4323ZM47.6278 21.8403H49.0651V19.1918C49.0651 19.0286 48.7809 18.896 48.4296 18.896H48.0327L47.6278 21.8403ZM47.1961 24.9682H49.0651V22.0375H47.5983L47.1961 24.9682ZM41.8517 32.7165H14.8249C14.1149 32.7165 13.2566 32.0866 13.204 31.201L12.2133 18.896H44.461L43.4702 31.201C43.42 32.0842 42.5617 32.7165 41.8517 32.7165Z" fill="#3D7915"/>
<path fill-rule="evenodd" clip-rule="evenodd" d="M40.3869 44.2335H48.4111C48.7574 44.2335 49.0417 44.0225 49.0449 43.7629L49.0678 40.0973C49.0678 39.8378 48.8195 39.6267 48.5091 39.6267H41.3801C41.0697 39.6267 40.7691 39.8378 40.7103 40.0973L39.8641 43.7629C39.802 44.0225 40.0373 44.2335 40.3869 44.2335ZM16.2876 44.2336H8.26625C7.91678 44.2336 7.63263 44.0225 7.62937 43.7629L7.60651 40.0974C7.60651 39.8378 7.85472 39.6267 8.165 39.6267H15.2948C15.605 39.6267 15.9055 39.8378 15.9643 40.0974L16.8102 43.7629C16.8723 44.0225 16.6371 44.2336 16.2876 44.2336Z" fill="white"/>
<path d="M14.9325 27.4714H41.7417L41.768 27.0833H14.9062L14.9325 27.4714ZM15.1273 30.4132H41.547L41.5732 30.0251H15.101L15.1273 30.4132ZM14.7377 24.5295H41.9365L41.9628 24.1414H14.7114L14.7377 24.5295ZM14.5429 21.5877H42.1313L42.1576 21.1996H14.5167L14.5429 21.5877Z" fill="#22282F"/>
<path fill-rule="evenodd" clip-rule="evenodd" d="M27.4585 2.77216H29.2158C29.3667 2.77216 29.4888 2.72764 29.4888 2.67257V0.568338C29.4888 0.513271 29.3667 0.46875 29.2158 0.46875H27.4585C27.3075 0.46875 27.1854 0.513271 27.1854 0.568338V2.67257C27.1854 2.72764 27.3075 2.77216 27.4585 2.77216ZM22.8517 2.77217H24.609C24.7599 2.77217 24.882 2.72765 24.882 2.67258V0.568352C24.882 0.513285 24.7599 0.468764 24.609 0.468764H22.8517C22.7007 0.468764 22.5786 0.513285 22.5786 0.568352V2.67258C22.5786 2.72765 22.7007 2.77217 22.8517 2.77217ZM33.8226 2.77216H32.0653C31.9144 2.77216 31.7923 2.72764 31.7923 2.67257V0.568338C31.7923 0.513271 31.9144 0.46875 32.0653 0.46875H33.8226C33.9736 0.46875 34.0957 0.513271 34.0957 0.568338V2.67257C34.0957 2.72764 33.9736 2.77216 33.8226 2.77216ZM7.33338 32.7167H5.57611C5.42512 32.7167 5.30304 32.6721 5.30304 32.6171V30.5128C5.30304 30.4578 5.42512 30.4133 5.57611 30.4133H7.33338C7.48437 30.4133 7.60645 30.4578 7.60645 30.5128V32.6171C7.60645 32.6721 7.48437 32.7167 7.33338 32.7167ZM49.3409 32.7167H51.0982C51.2492 32.7167 51.3712 32.6721 51.3712 32.6171V30.5128C51.3712 30.4578 51.2492 30.4133 51.0982 30.4133H49.3409C49.1899 30.4133 49.0678 30.4578 49.0678 30.5128V32.6171C49.0678 32.6721 49.1899 32.7167 49.3409 32.7167Z" fill="#DE700A"/>
<path d="M67 17V39L56 28L67 17Z" fill="#64B82A"/>
<rect x="64.0351" y="2.56873" width="54.8902" height="50.9313" rx="8.39952" fill="#64B82A"/>
<path opacity="0.95" d="M88.8605 37.1681H79.7699V35.4537H83.2662V24.1976H79.7699V22.6638C80.2436 22.6638 80.7511 22.6262 81.2925 22.551C81.8339 22.4683 82.2436 22.3517 82.5219 22.2013C82.8677 22.0133 83.1384 21.7765 83.3339 21.4908C83.5369 21.1975 83.6535 20.8065 83.6836 20.3178H85.4317V35.4537H88.8605V37.1681ZM103.919 22.8893L96.3173 37.1681H93.9036L101.99 22.3479H92.4261V20.3742H103.919V22.8893Z" fill="white"/>
</svg>