<svg xmlns="http://www.w3.org/2000/svg" viewBox="0 0 1920 1920">
  <defs>
    <clipPath id="logo">
      <rect x="0" y="0" width="1920" height="1920" />
    </clipPath>
  </defs>
  <g clip-path="url(#logo)">
          <rect fill="none" width="1920" height="1920"/>
    <g transform="scale(4.8)">
      <g fill="none" font-family="none" font-size="none" font-weight="none" stroke-miterlimit="10" style="mix-blend-mode:normal" text-anchor="none">
<rect fill="none" height="400" width="400"/>
<rect fill="none" height="400" width="400"/>
<rect fill="none" height="400" width="400"/>
<rect fill="none" height="400" width="400"/>
<rect fill="none" height="400" width="400"/>
<rect fill="none" height="400" width="400"/>
<g id="symbol">
<g fill="none" font-family="none" font-size="none" font-weight="none" text-anchor="start">
<g id="construct"/>
</g>
<path d="m64.441 127.67h8.6103v144.65h-8.6103z" fill="#000000" stroke="#fff" stroke-opacity="1e-4"/>
<path d="m47.221 127.67h8.6103v144.65h-8.6103z" fill="#000000" stroke="#fff" stroke-opacity="1e-4"/>
<path d="m30 127.67h8.6103v144.65h-8.6103z" fill="#000000" stroke="#fff" stroke-opacity="1e-4"/>
<path d="m114.38 175.89h-27.553c22.817 0 41.33 21.595 41.33 48.218 0 26.623-18.512 48.218-41.33 48.218h27.553c22.817 0 41.33-21.595 41.33-48.218 0-26.623-18.512-48.218-41.33-48.218z" fill="#000000" stroke="#fff" stroke-opacity="1e-4"/>
<path d="m105.77 224.11c0 13.315-9.2519 24.109-20.665 24.109s-20.665-10.794-20.665-24.109c0-13.315 9.2519-24.109 20.665-24.109s20.665 10.794 20.665 24.109z" fill="#000000" stroke="#fff" stroke-opacity="1e-4"/>
<path d="m73.052 167.28 84.381-39.608h-84.381z" fill="#000000" stroke="#fff" stroke-opacity="1e-4"/>
</g>
<g fill="#000000" id="text">
<path d="m188.08 193.2h-12.995v-0.76719h3.836v-33.421h-3.836v-0.76719h23.4v3.3086h-3.2127l-0.14385-2.4455h-12.803v14.049h6.6651c3.9639 0 7.0008 1.023 9.1106 3.0688 1.6623 1.7582 2.4934 3.9479 2.4934 6.5692 0 3.0049-0.8791 5.4024-2.6373 7.1925-1.0549 1.023-2.3655 1.8061-3.9319 2.3496-1.6303 0.5754-3.6123 0.86311-5.9458 0.86311zm-5.754-19.276v18.413h4.7471c2.1738 0 3.868-0.23975 5.0827-0.71926 0.83114-0.31966 1.5504-0.81515 2.1578-1.4864 1.6303-1.6303 2.4774-4.0278 2.5414-7.1925-0.03195-2.7492-0.86311-4.9389-2.4934-6.5692-0.70329-0.70329-1.5344-1.2787-2.4934-1.7262-1.1188-0.4795-2.6852-0.71926-4.6991-0.71926zm32.318 30.496h-9.8298v-0.71926h3.1168v-31.072h-3.1168v-0.76719h6.1856v3.3086c0.25574-0.38361 0.59139-0.7832 1.007-1.1988 1.918-1.918 4.3795-2.877 7.3843-2.877 3.1008 0 5.7061 1.0549 7.8159 3.1647 2.1738 2.1738 3.2606 4.8909 3.2606 8.1516 0 3.3565-1.1348 6.1696-3.4045 8.4392-2.0778 2.0778-4.6352 3.1168-7.672 3.1168-2.941 0-5.3704-0.95901-7.2884-2.877-0.19179-0.19179-0.55941-0.62336-1.1029-1.2947v13.906h3.6442zm-3.6442-28.53v13.234c0.12789 0.15982 0.36764 0.41558 0.71926 0.76719 1.6303 1.6942 3.7082 2.5414 6.2335 2.5414 2.6532 0 4.7631-0.7832 6.3294-2.3496 1.8541-1.8541 2.7811-4.4114 2.7811-7.672 0-3.0369-0.91105-5.4983-2.7332-7.3843-1.6623-1.5984-3.7241-2.3975-6.1856-2.3975-2.6532 0-4.795 0.81515-6.4253 2.4455-0.15982 0.15982-0.39959 0.43155-0.71926 0.81515zm30.353 17.31h-6.5212v-0.76719h2.877v-19.803h-2.877v-0.76719h9.0146v0.76719h-3.0688v19.468l13.33-20.043v-0.19179h6.3294v0.76719h-2.8291v19.803h2.8291v0.76719h-8.9667v-0.76719h3.0688v-19.18l-13.186 19.803zm25.078 5.0827h-2.4455v-5.9458h1.966l10.118-19.708h-4.1237v-0.76719h10.885v20.475h3.6442v5.9458h-2.4455v-5.0827h-17.598zm10.789-25.653-9.8298 19.708h12.371v-19.708zm17.933 20.571h-5.3225v-0.76719h1.8701l11.46-11.172-8.4392-8.5352h-3.3565v-0.86311h7.8638v0.86311h-3.0209l9.686 9.8778-10.741 10.453zm17.646 0h-8.7749v-0.76719h2.877v-19.803h-2.877v-0.76719h8.7749v0.76719h-2.8291v19.803h2.8291zm8.9667-0.14384-10.741-10.453 9.686-9.8778h-3.0209v-0.86311h7.8638v0.86311h-3.3565l-8.4872 8.5352 11.508 11.172h1.8701v0.76719h-5.3225z"/>
<path d="m185.15 240.98h-10.07v-0.86311h3.3565v-33.23h-3.3565v-0.86311h10.07v0.86311h-3.3086v33.23h3.3086zm14.529-0.19178-15.967-17.166 14.721-16.735h-3.9319v-0.86311h9.686v0.86311h-4.1237l-13.33 15.008 17.022 18.317h2.0139v0.76719h-6.0897zm6.6172-10.597c0-3.2606 1.0869-5.9778 3.2606-8.1516 2.1098-2.1098 4.7311-3.1647 7.8638-3.1647 2.9729 0 5.4184 0.95901 7.3364 2.877 0.31966 0.28771 0.65531 0.68728 1.007 1.1988v-3.3086h3.0688v20.571h3.5004v0.76719h-6.5692v-3.4045c-0.28771 0.41558-0.65531 0.84711-1.1029 1.2947-1.8541 1.918-4.2676 2.877-7.2405 2.877-3.0688 0-5.6422-1.0389-7.72-3.1168-2.2696-2.2696-3.4045-5.0827-3.4045-8.4392zm3.4045 0c0 3.2606 0.92703 5.818 2.7811 7.672 1.5984 1.5984 3.6602 2.3815 6.1856 2.3496 2.5254 0.03195 4.6512-0.81515 6.3774-2.5414 0.22377-0.19179 0.46352-0.44753 0.71926-0.76719v-13.234c-0.31966-0.38361-0.55941-0.65531-0.71926-0.81515-1.6303-1.6303-3.7561-2.4455-6.3774-2.4455-2.4934 0-4.5713 0.79917-6.2335 2.3975-1.8221 1.886-2.7332 4.3475-2.7332 7.3843zm34.956 10.789h-8.7749v-0.76719h2.877v-19.803h-2.877v-0.76719h25.605v0.76719h-2.8291v19.803h2.8291v0.76719h-8.727v-0.76719h2.8291v-19.66h-13.762v19.66h2.8291zm28.291 0h-6.4733v-0.76719h2.877v-19.803h-2.877v-0.76719h8.9667v0.76719h-3.0209v19.468l13.33-20.043v-0.19179h6.3294v0.76719h-2.877v19.803h2.877v0.76719h-8.9667v-0.76719h3.0688v-19.18l-13.234 19.803zm24.694-16.495h-2.3975v-4.843h23.112v4.843h-2.3975v-4.1237h-7.6241v19.851h3.7881v0.76719h-10.501v-0.76719h3.6442v-19.851h-7.6241zm23.304 5.7061c0-3.2606 1.0869-5.9778 3.2606-8.1516 2.0778-2.1098 4.6832-3.1647 7.8159-3.1647 3.0049 0 5.4663 0.95901 7.3843 2.877 0.31966 0.28771 0.63934 0.68728 0.95901 1.1988v-3.3086h3.0688v20.571h3.5004v0.76719h-6.5692v-3.4045c-0.25574 0.41558-0.60737 0.84711-1.0549 1.2947-1.8541 1.918-4.2836 2.877-7.2884 2.877-3.0688 0-5.6262-1.0389-7.672-3.1168-2.2696-2.2696-3.4045-5.0827-3.4045-8.4392zm3.4045 0c0 3.2606 0.91105 5.818 2.7332 7.672 1.5984 1.5984 3.6602 2.3815 6.1856 2.3496 2.5574 0.03195 4.6991-0.81515 6.4253-2.5414 0.22377-0.19179 0.44753-0.44753 0.6713-0.76719v-13.234c-0.28771-0.38361-0.51146-0.65531-0.6713-0.81515-1.6303-1.6303-3.7721-2.4455-6.4253-2.4455-2.4934 0-4.5713 0.79917-6.2335 2.3975-1.7901 1.886-2.6852 4.3475-2.6852 7.3843zm30.832 10.789h-7.0487v-0.76719h2.3496l9.8298-19.803h-4.5553v-0.76719h11.172v20.571h3.0688v0.76719h-9.4462v-0.76719h3.3565v-19.612h-2.4934l-9.3982 19.612h3.1647z"/>
</g>
</g>
    </g>
  </g>
</svg>