<svg width="82" height="82" fill="none" xmlns="http://www.w3.org/2000/svg"><rect width="82" height="82" rx="20.5" fill="#3DBC5D"/><path fill-rule="evenodd" clip-rule="evenodd" d="M13.82 32.846c-4.503 4.503-4.503 11.805 0 16.308l19.026 19.025c4.503 4.504 11.805 4.504 16.308 0l19.025-19.025c4.504-4.504 4.504-11.805 0-16.308L49.154 13.821c-4.503-4.504-11.805-4.504-16.308 0L13.821 32.846Z" fill="#fff"/><g stroke="#222" stroke-width="2.819"><path clip-rule="evenodd" d="M60.6 36.831a5.252 5.252 0 0 0-5.253-5.253 5.252 5.252 0 0 0-5.253 5.253 5.252 5.252 0 0 0 5.253 5.253 5.252 5.252 0 0 0 5.253-5.253ZM45.942 52.242a5.927 5.927 0 1 0-11.853.002 5.927 5.927 0 0 0 11.853-.002ZM31.104 40.66a5.252 5.252 0 0 0-5.253-5.253 5.252 5.252 0 0 0-5.253 5.253 5.252 5.252 0 0 0 5.253 5.253 5.252 5.252 0 0 0 5.253-5.253Z"/><path d="m44.25 48.09 7.467-7.467M34.922 49.213l-5.141-5.141"/></g></svg>