<svg width="23" height="18" viewBox="0 0 23 18" fill="none" xmlns="http://www.w3.org/2000/svg">
<path d="M5.625 9.11523H8.397V17.8344H5.625V9.11523Z" fill="#C91D44"/>
<path d="M10.9746 0H5.625V2.772H10.9746C11.3911 2.772 11.8035 2.85404 12.1883 3.01342C12.5731 3.17281 12.9227 3.40643 13.2173 3.70094C13.5118 3.99545 13.7454 4.34509 13.9048 4.72988C14.0642 5.11468 14.1462 5.5271 14.1462 5.9436C14.1462 6.3601 14.0642 6.77252 13.9048 7.15732C13.7454 7.54212 13.5118 7.89175 13.2173 8.18626C12.9227 8.48077 12.5731 8.71439 12.1883 8.87378C11.8035 9.03316 11.3911 9.1152 10.9746 9.1152H5.625L8.397 11.8872H10.9746C12.5175 11.853 13.9867 11.2204 15.0718 10.1231C16.1569 9.02569 16.7729 7.54948 16.7898 6.00629C16.8066 4.46311 16.2229 2.97382 15.162 1.85305C14.101 0.732276 12.646 0.0678003 11.1042 0L10.9746 0Z" fill="url(#paint0_linear)"/>
<path opacity="0.2" d="M14.5457 11.8872C13.6143 12.4487 12.5633 12.7818 11.4785 12.8592L13.7897 17.8344H17.3897L14.6249 11.8872H14.5457Z" fill="#423E3E"/>
<defs>
<linearGradient id="paint0_linear" x1="11.0174" y1="1.49515" x2="11.0174" y2="13.2635" gradientUnits="userSpaceOnUse">
<stop stop-color="#E65B29"/>
<stop offset="1" stop-color="#D8174E"/>
</linearGradient>
</defs>
</svg>
