<svg width="23" height="18" viewBox="0 0 23 18" fill="none" xmlns="http://www.w3.org/2000/svg">
<g clip-path="url(#clip0)">
<path fill-rule="evenodd" clip-rule="evenodd" d="M21.9159 8.28848V8.1154V6.75242C21.9159 6.60098 21.9159 6.44953 21.8942 6.29809C21.7861 5.69232 21.375 5.34617 20.7909 5.19473C20.25 5.06492 19.6875 5.06492 19.1466 5.17309C18.8654 5.21636 18.6058 5.28127 18.3678 5.41107C18.3876 5.53956 18.4118 5.66804 18.4365 5.79859C18.4658 5.95381 18.4957 6.11194 18.5192 6.27646C18.8005 6.12502 19.1034 6.06011 19.4062 6.03848C19.7308 6.01684 20.0553 6.01684 20.3798 6.12502C20.5529 6.18992 20.7043 6.29809 20.726 6.4928C20.7405 6.56569 20.7355 6.64839 20.7306 6.72768C20.7283 6.76607 20.726 6.80367 20.726 6.83896C19.9904 6.57934 19.8173 6.55771 19.2548 6.64425C18.3462 6.77405 17.8918 7.44473 18.0649 8.35338C18.1731 8.89425 18.6923 9.37021 19.3846 9.41348C20.012 9.45675 20.5745 9.3053 20.9639 8.7428C20.9639 8.80771 20.9639 8.82934 20.9856 8.87261C21.0288 9.06732 21.1154 9.21876 21.2885 9.3053C21.613 9.45675 21.9375 9.41348 22.262 9.32694V8.6779C21.9591 8.63463 21.9375 8.613 21.9159 8.28848ZM20.2716 8.39665C20.0769 8.48319 19.8822 8.50482 19.6875 8.48319C19.4712 8.46155 19.2981 8.33175 19.2332 8.13703C19.1683 7.89905 19.2332 7.68271 19.4279 7.5529C19.6226 7.40146 19.8606 7.37982 20.0986 7.42309C20.3149 7.44473 20.5313 7.50963 20.726 7.63944C20.7476 8.02886 20.6178 8.24521 20.2716 8.39665ZM4.73798 8.87263C5.17067 9.26206 5.71154 9.43513 6.29567 9.43513C6.90144 9.43513 7.44231 9.26206 7.875 8.82936C8.3726 8.3534 8.52404 7.76927 8.5024 7.12022C8.45914 6.36301 8.13462 5.77887 7.46394 5.41109C6.94471 5.1082 6.36058 5.0433 5.77644 5.1731C5.30048 5.28128 4.88942 5.49762 4.58654 5.84378C4.24039 6.25484 4.08894 6.7308 4.08894 7.25004C4.04567 7.89908 4.24038 8.43994 4.73798 8.87263ZM5.32212 6.88224C5.45192 6.44955 5.79808 6.18993 6.31731 6.1683C6.6851 6.1683 6.98798 6.34137 7.16106 6.70916C7.35577 7.14186 7.35577 7.55292 7.09615 7.96398C6.87981 8.31013 6.51202 8.43994 6.1226 8.39667C5.71154 8.33177 5.45192 8.09379 5.34375 7.70436C5.23558 7.42311 5.23558 7.14186 5.32212 6.88224ZM15.0361 7.59617C14.9279 7.59076 14.8197 7.58535 14.7115 7.59617H14.7332V9.32694H13.6514V5.21636H14.7332V6.70915C14.8094 6.70915 14.8912 6.71474 14.9747 6.72046C15.1759 6.73421 15.3872 6.74865 15.5553 6.68752C15.8582 6.57934 16.0745 6.363 16.1611 6.06011C16.2168 5.89282 16.2456 5.72552 16.2765 5.54665C16.2934 5.44794 16.3111 5.3457 16.3341 5.238H17.4159C17.4375 6.08175 17.2861 6.79569 16.4639 7.27165C16.4748 7.29328 16.491 7.32033 16.5072 7.34737C16.5234 7.37441 16.5397 7.40146 16.5505 7.42309C16.6425 7.57637 16.7362 7.73141 16.8306 7.88767L16.8307 7.88778C17.0695 8.28287 17.3131 8.6859 17.5457 9.08896C17.5709 9.12677 17.5887 9.17193 17.6078 9.22015C17.6215 9.2547 17.6358 9.29081 17.6538 9.32694H16.399C16.0745 8.78607 15.75 8.22357 15.4255 7.66109L15.4255 7.66107L15.3606 7.59617C15.2524 7.60699 15.1442 7.60158 15.0361 7.59617ZM11.6827 9.32694H12.7644V5.21636H11.6827V6.94713C11.4309 7.10208 11.3005 7.10097 11.0741 7.09904C11.0476 7.09881 11.0198 7.09857 10.9904 7.09857C10.5577 7.09857 10.2115 6.81732 10.1899 6.38463C10.1683 6.06011 10.1683 5.43271 10.1683 5.21636H9.08654V6.73078C9.08654 7.14184 9.32452 7.50963 9.64904 7.79088C10.0817 8.13703 10.5577 8.22357 11.0769 8.15867C11.2213 8.14262 11.3538 8.11469 11.5009 8.08366C11.5522 8.07284 11.6052 8.06168 11.6611 8.0505V9.32694H11.6827ZM2.37981 9.32694H1.29808V6.29809H0V5.21636H3.67788V6.29809H2.37981V9.32694ZM0.497596 12.3558C0.367788 12.3558 0.259615 12.4207 0.194712 12.4856C0.213796 12.2566 0.418061 12.2128 0.659003 12.161L0.659053 12.161C0.691237 12.1541 0.724074 12.1471 0.757212 12.1394V11.9231C0.237981 12.0313 0 12.1611 0 12.6154C0 12.9399 0.151442 13.1563 0.432692 13.1563C0.670673 13.1563 0.84375 12.9832 0.84375 12.7236C0.865385 12.4856 0.713942 12.3558 0.497596 12.3558ZM0.432692 12.9399C0.302885 12.9399 0.216346 12.8317 0.216346 12.6587C0.259615 12.5938 0.346154 12.5289 0.432692 12.5289C0.540865 12.5289 0.627404 12.5938 0.627404 12.7236C0.627404 12.8534 0.5625 12.9399 0.432692 12.9399ZM6.36058 12.8101C6.27404 12.7885 6.20914 12.7019 6.20914 12.5721C6.20914 12.4207 6.29567 12.2909 6.51202 12.3125H6.94471V13.1346H6.72837V12.8534H6.59856L6.40385 13.1346H6.14423L6.36058 12.8101ZM6.72837 12.6803V12.4856V12.464H6.55529C6.46875 12.464 6.42548 12.5072 6.42548 12.5721C6.42548 12.637 6.49038 12.6803 6.55529 12.6803H6.72837ZM1.6875 12.875V12.5938C1.6875 12.3774 1.53606 12.2692 1.29808 12.2692C1.17221 12.2692 1.09118 12.2991 1.03013 12.3216C1.01773 12.3262 1.00615 12.3305 0.995194 12.3341V12.5289C1.0601 12.4856 1.14664 12.464 1.23318 12.464C1.34135 12.464 1.44952 12.4856 1.44952 12.6154V12.637C1.40625 12.6154 1.31971 12.5938 1.21154 12.5938C1.0601 12.5938 0.887021 12.6803 0.887021 12.875C0.887021 13.0481 1.01683 13.1563 1.18991 13.1563C1.31067 13.1563 1.39398 13.1001 1.45726 13.0574L1.47116 13.0481C1.49279 13.113 1.57933 13.1563 1.64423 13.1563C1.6875 13.1563 1.73077 13.1346 1.77404 13.113V12.9399H1.73077C1.70914 12.9399 1.6875 12.9183 1.6875 12.875ZM1.47116 12.875C1.42789 12.9183 1.36298 12.9616 1.29808 12.9616C1.21154 12.9616 1.14664 12.9399 1.14664 12.8534C1.14664 12.7885 1.21154 12.7452 1.29808 12.7452C1.36298 12.7452 1.42789 12.7668 1.47116 12.7885V12.875ZM5.21394 12.9183C5.32212 12.9183 5.34375 12.7668 5.34375 12.5289L5.32212 12.3125H6.01442V13.1346H5.79808V12.5072H5.5601V12.6154C5.5601 12.8534 5.51683 13.1346 5.25721 13.1346C5.23558 13.1346 5.19231 13.1346 5.17067 13.113V12.9183H5.21394ZM7.52885 13.113H7.76683V12.4856H8.09135V13.113H8.30769V12.2909H7.52885V13.113ZM3.375 12.2909H3.65625L3.3101 12.6587L3.69952 13.113H3.41827L3.09375 12.7668V13.113H2.8774V12.2909H3.09375V12.5937L3.375 12.2909ZM4.9976 12.2909H4.32692V12.4423C4.32692 12.6803 4.28365 12.8101 4.24038 12.9183H4.11058V13.3293H4.32692V13.113H4.91106V13.3293H5.1274V12.9183H4.9976V12.2909ZM4.78125 12.9183H4.45673C4.52164 12.7668 4.52163 12.637 4.52163 12.4856H4.78125V12.9183ZM2.14182 12.5937H2.46635V12.2909H2.68269V13.113H2.46635V12.7885H2.14182V13.113H1.90384V12.2909H2.14182V12.5937ZM18.1514 12.4856H18.4111V13.113H18.6274V12.4856H18.887V12.2909H18.1514V12.4856ZM16.4856 12.2909L16.7019 12.5937L16.9399 12.2909H17.1779V13.113H16.9615V12.6154L16.7668 12.875H16.6587L16.4639 12.6154V13.113H16.2476V12.2909H16.4856ZM19.3413 12.2692C19.0817 12.2692 18.9303 12.464 18.9303 12.7019C18.9303 12.9616 19.125 13.1346 19.3846 13.1346C19.5144 13.1346 19.6226 13.0914 19.6875 13.0481V12.8534C19.6226 12.8966 19.5361 12.9183 19.4279 12.9183C19.2981 12.9183 19.1899 12.8534 19.1683 12.7452H19.7524V12.6803C19.7308 12.4856 19.5793 12.2692 19.3413 12.2692ZM19.1466 12.6154C19.1466 12.5289 19.2332 12.4423 19.3197 12.4423C19.4279 12.4423 19.4928 12.5289 19.4928 12.6154H19.1466ZM18.0649 12.5938V12.875C18.0649 12.9183 18.0865 12.9399 18.1082 12.9399H18.1514V13.113C18.1082 13.1346 18.0649 13.1563 18.0216 13.1563C17.9567 13.1563 17.8702 13.113 17.8486 13.0481L17.8347 13.0574C17.7714 13.1001 17.6881 13.1563 17.5673 13.1563C17.3942 13.1563 17.2644 13.0481 17.2644 12.875C17.2644 12.6803 17.4375 12.5938 17.5889 12.5938C17.6971 12.5938 17.7837 12.6154 17.8269 12.637V12.6154C17.8269 12.4856 17.7188 12.464 17.6106 12.464C17.524 12.464 17.4375 12.4856 17.3726 12.5289V12.3341C17.3835 12.3305 17.3949 12.3263 17.4072 12.3218L17.4075 12.3217L17.4075 12.3216C17.4686 12.2991 17.5496 12.2692 17.6755 12.2692C17.9135 12.2692 18.0649 12.3774 18.0649 12.5938ZM17.6538 12.9616C17.7188 12.9616 17.7837 12.9183 17.8269 12.875V12.7885C17.7837 12.7668 17.7188 12.7452 17.6538 12.7452C17.5673 12.7452 17.5024 12.7885 17.5024 12.8534C17.5024 12.9399 17.5673 12.9616 17.6538 12.9616ZM19.9471 12.5289C19.9471 12.7668 19.9255 12.9183 19.8173 12.9183H19.774V13.113C19.7957 13.1346 19.8389 13.1346 19.8606 13.1346C20.1202 13.1346 20.1635 12.8534 20.1635 12.6154V12.5072H20.4014V13.1346H20.6178V12.3125H19.9255L19.9471 12.5289ZM22.2188 11.9231H22.3918C22.3918 12.0962 22.262 12.2043 22.0889 12.2043C21.9375 12.2043 21.8077 12.0962 21.8077 11.9231H21.9808C21.9808 12.0096 22.0457 12.0529 22.1106 12.0529C22.1755 12.0529 22.2188 11.988 22.2188 11.9231ZM21.1803 12.2692C20.9207 12.2692 20.7692 12.464 20.7692 12.7019C20.7692 12.9616 20.9639 13.1346 21.2236 13.1346C21.3534 13.1346 21.4615 13.0914 21.5264 13.0481V12.8534C21.4615 12.8966 21.375 12.9183 21.2668 12.9183C21.137 12.9183 21.0288 12.8534 21.0072 12.7452H21.5913V12.6803C21.5697 12.4856 21.4399 12.2692 21.1803 12.2692ZM20.9856 12.6154C20.9856 12.5289 21.0721 12.4423 21.1587 12.4423C21.2668 12.4423 21.3317 12.5289 21.3317 12.6154H20.9856ZM21.9159 12.2909V12.7885L22.2837 12.2909H22.5V13.113H22.2837V12.637L21.9159 13.113H21.6995V12.2909H21.9159ZM14.8846 12.5937H14.5385V12.2909H14.3221V13.113H14.5385V12.7885H14.8846V13.113H15.101V12.2909H14.8846V12.5937ZM10.4928 12.2909H11.1635H11.1851V12.9183H11.3149V13.3293H11.0986V13.113H10.5144V13.3293H10.2981V12.9183H10.4062C10.4495 12.8101 10.4928 12.6803 10.4928 12.4423V12.2909ZM10.601 12.9183H10.9255V12.4856H10.6659C10.6659 12.637 10.6659 12.7668 10.601 12.9183ZM15.512 12.7885V12.2909H15.274V13.113H15.4904L15.8582 12.637V13.113H16.0745V12.2909H15.8582L15.512 12.7885ZM11.6178 13.113H11.4014V12.2909H12.1803V13.113H11.9423V12.4856H11.6178V13.113ZM9.84375 12.2692C9.58414 12.2692 9.43269 12.464 9.43269 12.7019C9.43269 12.9616 9.6274 13.1346 9.88702 13.1346C10.0168 13.1346 10.125 13.0914 10.1899 13.0481V12.8534C10.125 12.8966 10.0385 12.9183 9.93029 12.9183C9.80048 12.9183 9.69231 12.8534 9.67067 12.7452H10.2548V12.6803C10.2332 12.4856 10.0817 12.2692 9.84375 12.2692ZM9.64904 12.6154C9.64904 12.5289 9.73558 12.4423 9.82212 12.4423C9.93029 12.4423 9.99519 12.5289 9.99519 12.6154H9.64904ZM12.5697 12.3991C12.613 12.3341 12.6995 12.2692 12.8293 12.2692C13.0673 12.2692 13.1971 12.4856 13.1971 12.7236C13.1971 12.9616 13.0457 13.1563 12.8293 13.1563C12.6995 13.1563 12.613 13.0914 12.5697 13.0265V13.4591H12.3534V12.2909H12.5697V12.3991ZM12.5913 12.8101C12.613 12.875 12.6995 12.9399 12.7861 12.9399C12.8942 12.9399 13.0024 12.8317 13.0024 12.7019C13.0024 12.5721 12.9159 12.464 12.7861 12.464C12.6995 12.464 12.6346 12.5289 12.5913 12.5938V12.8101ZM8.97837 12.2692C8.84856 12.2692 8.76202 12.3341 8.71875 12.3991V12.2909H8.5024V13.4591H8.71875V13.0265C8.76202 13.0914 8.84856 13.1563 8.97837 13.1563C9.19471 13.1563 9.34615 12.9616 9.34615 12.7236C9.34615 12.4856 9.19471 12.2692 8.97837 12.2692ZM8.91346 12.9399C8.82692 12.9399 8.74039 12.875 8.71875 12.8101V12.5938C8.76202 12.5289 8.82692 12.464 8.91346 12.464C9.04327 12.464 9.12981 12.5721 9.12981 12.7019C9.12981 12.8317 9.04327 12.9399 8.91346 12.9399ZM13.5649 12.2909V12.7885L13.9327 12.2909H14.149V13.113H13.9111V12.637L13.5433 13.113H13.3486V12.2909H13.5649Z" fill="#231F20"/>
</g>
<defs>
<clipPath id="clip0">
<rect y="5" width="22.5" height="8.65384" fill="white"/>
</clipPath>
</defs>
</svg>
