<svg width="23" height="18" viewBox="0 0 23 18" fill="none" xmlns="http://www.w3.org/2000/svg">
<circle cx="11.25" cy="9" r="9" fill="url(#paint0_linear)"/>
<path fill-rule="evenodd" clip-rule="evenodd" d="M15.4005 10.8101L15.4002 10.8105C15.311 10.963 15.2136 11.1095 15.1096 11.2507L12.6832 14.9261L12.3324 14.9283L12.3414 14.9423L11.2487 14.9353L10.156 14.9422L10.165 14.9282L9.81422 14.9259L9.81341 14.9244L13.2923 9.71891L13.2912 9.71778C13.5829 9.29454 13.756 8.77651 13.756 8.2174C13.756 6.78747 12.634 5.62477 11.2499 5.62477C9.86587 5.62477 8.74384 6.82208 8.74384 8.25201C8.74384 8.80773 8.91484 9.36346 9.20315 9.77427H9.20079L9.27872 9.84739C9.29396 9.86742 9.30808 9.87964 9.32383 9.89926L10.183 11.0387L8.88232 12.9434C8.70579 12.7674 8.52508 12.5844 8.37371 12.4336C8.01555 12.0766 7.61055 11.554 7.42871 11.313L7.37175 11.2264C7.28594 11.1085 7.20566 10.9861 7.13008 10.8604L7.09694 10.8101L7.09858 10.8085C6.65655 10.0533 6.4021 9.16781 6.4021 8.22089C6.4021 5.45469 8.57253 3.21228 11.2499 3.21228C13.9273 3.21228 16.0979 5.45469 16.0979 8.22089C16.0979 9.16853 15.843 10.0545 15.4005 10.8101Z" fill="white"/>
<defs>
<linearGradient id="paint0_linear" x1="11.25" y1="0" x2="11.25" y2="18" gradientUnits="userSpaceOnUse">
<stop stop-color="#3CA7EA"/>
<stop offset="1" stop-color="#176CCC"/>
</linearGradient>
</defs>
</svg>
