<svg width="23" height="18" viewBox="0 0 23 18" fill="none" xmlns="http://www.w3.org/2000/svg">
<path d="M8.36291 11.2253C8.14241 11.1713 7.94216 11.151 7.75091 11.1893C7.93091 9.64805 6.69116 8.8403 6.69116 7.38906C6.69116 5.70832 7.98266 5.07832 8.04341 5.04907C8.02091 5.07832 7.49891 5.73982 7.52366 6.66681C7.54841 7.61406 8.36066 7.81881 8.53841 8.9753C8.66666 9.8123 8.47766 10.764 8.36291 11.2253Z" fill="url(#paint0_linear)"/>
<path d="M7.39323 11.3423C7.50798 10.9823 7.47648 10.6605 7.05572 10.5795C6.05672 10.3815 4.11496 9.92703 4.56721 8.10903C4.72246 7.48353 5.01046 6.97953 5.35471 6.57678C5.02171 7.21803 4.84621 8.03928 5.37046 8.86728C6.49097 10.6403 7.88148 9.86853 7.39323 11.3423Z" fill="url(#paint1_linear)"/>
<path d="M6.69117 7.38906C6.69117 8.8403 7.93092 9.64805 7.75092 11.1893C7.65642 11.2073 7.56642 11.241 7.47642 11.2905C7.44942 11.3063 7.42242 11.3243 7.39542 11.34C7.88367 9.86629 6.49092 10.638 5.37267 8.8673C4.85067 8.03931 5.02392 7.21806 5.35692 6.57681C6.40317 5.35732 7.97817 5.06032 8.04342 5.04907C7.98267 5.07832 6.69117 5.71057 6.69117 7.38906Z" fill="url(#paint2_linear)"/>
<path d="M12.1677 16.4545C12.0102 16.4702 11.8549 16.4815 11.6997 16.4905C11.657 16.4927 11.6142 16.495 11.5715 16.495C11.5535 16.2137 11.5107 15.9617 11.45 15.7277C11.5175 15.7075 11.5872 15.6895 11.6525 15.667C11.6772 15.6602 11.702 15.6512 11.7245 15.6445C11.7672 15.631 11.81 15.6152 11.8527 15.6017C11.8617 15.5995 11.8707 15.595 11.8797 15.5927C11.9202 15.5792 11.9607 15.5657 12.0012 15.55C12.0327 15.5387 12.0619 15.5275 12.0912 15.5162C12.0912 15.5275 12.0934 15.5387 12.0934 15.55C12.0979 15.622 12.1025 15.694 12.107 15.766C12.107 15.7817 12.1092 15.7997 12.1092 15.8155C12.1092 15.8447 12.1114 15.874 12.1159 15.9032C12.1249 16.0607 12.1362 16.2092 12.1519 16.3442C12.1542 16.3645 12.1564 16.387 12.1587 16.4095C12.1632 16.423 12.1654 16.4387 12.1677 16.4545Z" fill="url(#paint3_linear)"/>
<path d="M11.4522 15.7277C11.5129 15.9617 11.5557 16.2137 11.5737 16.4949C9.2314 16.5759 7.0984 15.7704 7.0354 15.7479C7.13665 15.7704 7.2379 15.7929 7.3369 15.8109C7.3864 15.8199 7.4359 15.8312 7.4854 15.8402C7.4854 15.8402 7.4854 15.8402 7.48765 15.8402C7.6159 15.8627 7.74415 15.8852 7.87015 15.9032C8.08615 15.9347 8.2999 15.9617 8.5069 15.9774C8.59015 15.9842 8.67115 15.9909 8.75215 15.9954C9.08515 16.0157 9.4069 16.0179 9.7174 16.0022C9.8074 15.9977 9.89515 15.9932 9.9829 15.9864C10.1584 15.9729 10.3317 15.9527 10.4982 15.9279C10.5814 15.9167 10.6647 15.9032 10.7479 15.8874C10.7884 15.8807 10.8289 15.8717 10.8694 15.8649C10.9504 15.8492 11.0314 15.8334 11.1102 15.8132C11.1889 15.7952 11.2677 15.7772 11.3442 15.7547C11.3802 15.7479 11.4162 15.7367 11.4522 15.7277Z" fill="url(#paint4_linear)"/>
<path d="M17.7343 17.0192C17.4688 17.2419 16.7848 16.7199 16.4788 16.4837C16.1728 16.2474 15.851 15.9617 15.5608 15.6872C15.4753 15.6017 15.3673 15.4779 15.2525 15.3339C14.6653 15.7727 14.0105 16.0629 13.3333 16.2452C13.3333 16.2452 13.016 16.3284 12.656 16.3892C12.5548 16.4072 12.449 16.4229 12.3455 16.4342C12.3433 16.4342 12.341 16.4342 12.3388 16.4342C12.2825 16.4409 12.224 16.4477 12.1678 16.4544C12.1655 16.4387 12.1633 16.4229 12.161 16.4072C12.1588 16.3869 12.1565 16.3644 12.1543 16.3419C12.1385 16.2069 12.1273 16.0584 12.1183 15.9009C12.116 15.8717 12.1138 15.8424 12.1115 15.8132C12.1115 15.7974 12.1093 15.7817 12.1093 15.7637C12.1048 15.6917 12.1003 15.6197 12.0958 15.5477C12.0958 15.5364 12.0958 15.5252 12.0935 15.5139C12.1138 15.5072 12.134 15.4982 12.1565 15.4892C12.1925 15.4757 12.2308 15.4599 12.2668 15.4442C12.2758 15.4397 12.2848 15.4374 12.2938 15.4329C12.323 15.4217 12.35 15.4104 12.377 15.3992C12.3905 15.3924 12.404 15.3879 12.4175 15.3812C12.4558 15.3654 12.494 15.3474 12.53 15.3317C12.566 15.3159 12.6043 15.2979 12.6403 15.2799C12.6853 15.2574 12.7303 15.2372 12.7753 15.2147C12.8203 15.1922 12.863 15.1697 12.9058 15.1472C12.9373 15.1314 12.9665 15.1157 12.9958 15.0999C13.034 15.0797 13.0723 15.0572 13.1105 15.0347C13.142 15.0167 13.1735 14.9987 13.205 14.9807C13.2298 14.9649 13.2545 14.9514 13.2815 14.9357C13.3153 14.9154 13.349 14.8952 13.3828 14.8727C13.4165 14.8524 13.4503 14.8299 13.4818 14.8074C13.511 14.7894 13.5403 14.7692 13.5695 14.7489C13.5988 14.7309 13.628 14.7107 13.655 14.6904C13.6978 14.6612 13.7405 14.6319 13.781 14.6004C13.8215 14.5712 13.862 14.5419 13.9003 14.5127C13.9025 14.5104 13.9025 14.5104 13.9048 14.5082C13.9363 14.4857 13.9655 14.4609 13.997 14.4384C14.0465 14.4002 14.096 14.3619 14.1433 14.3214C14.1748 14.2944 14.2063 14.2697 14.2378 14.2427C14.3368 14.1594 14.4335 14.0739 14.528 13.9862C14.5438 13.9704 14.5595 13.9569 14.5753 13.9412C14.5955 13.9232 14.6158 13.9052 14.6338 13.8849C14.6653 13.8534 14.6968 13.8242 14.7283 13.7927C14.7598 13.7612 14.7913 13.7319 14.8205 13.7004C14.8475 13.6712 14.8768 13.6442 14.9038 13.6149C14.933 13.5857 14.96 13.5542 14.9893 13.5249C15.0095 13.5047 15.0275 13.4822 15.0478 13.4597C15.0658 13.4394 15.0838 13.4192 15.1018 13.3989C15.1018 13.3989 15.104 13.3967 15.104 13.3944C15.1198 13.3764 15.1378 13.3562 15.1535 13.3382C15.1715 13.3179 15.1895 13.2977 15.2075 13.2752C15.23 13.2482 15.2525 13.2234 15.275 13.1964C15.293 13.1762 15.311 13.1537 15.329 13.1334C15.347 13.1132 15.365 13.0907 15.3808 13.0682C15.3988 13.0457 15.4168 13.0232 15.437 12.9984C15.4393 12.9962 15.4415 12.9917 15.4438 12.9894C15.4528 12.9782 15.4618 12.9669 15.4685 12.9579C15.4843 12.9377 15.5023 12.9152 15.518 12.8949C15.5225 12.8904 15.527 12.8837 15.5315 12.8792C15.5383 12.8724 15.545 12.8634 15.5495 12.8567C15.5833 12.8117 15.617 12.7689 15.6508 12.7239C15.653 12.7194 15.6575 12.7127 15.662 12.7082C15.6958 12.6609 15.7295 12.6137 15.7633 12.5664C15.7925 12.5259 15.8195 12.4854 15.8465 12.4449C15.8713 12.4089 15.896 12.3729 15.9208 12.3347C15.9365 12.3099 15.9545 12.2852 15.9703 12.2582C15.986 12.2334 16.0018 12.2087 16.0175 12.1839C16.0378 12.1524 16.0558 12.1209 16.076 12.0917C16.0918 12.0647 16.1075 12.0377 16.1255 12.0107C16.1413 11.9837 16.1593 11.9567 16.175 11.9297C16.1908 11.9027 16.2065 11.8779 16.22 11.8532C16.3213 11.6799 16.4113 11.5157 16.4878 11.3649C16.499 11.3447 16.508 11.3244 16.5193 11.3042C16.5395 11.2637 16.5575 11.2254 16.5755 11.1894C16.5958 11.1467 16.616 11.1062 16.634 11.0679C16.6408 11.0544 16.6475 11.0409 16.652 11.0297C16.6588 11.0139 16.6678 10.9959 16.6745 10.9802C16.7038 10.9149 16.7308 10.8542 16.7533 10.8002C16.76 10.7867 16.7645 10.7709 16.7713 10.7574C16.7713 10.7552 16.7713 10.7552 16.7735 10.7529C16.7825 10.7282 16.7938 10.7057 16.8028 10.6832C16.8253 10.6247 16.8455 10.5774 16.859 10.5392C16.8635 10.5234 16.8703 10.5099 16.8748 10.4986C16.8883 10.4649 16.8928 10.4469 16.8928 10.4469C16.931 10.9622 16.9873 12.5484 16.4495 14.0627C16.7218 14.4159 17.228 15.1022 17.5475 15.7277C17.8198 16.2902 17.9998 16.7987 17.7343 17.0192Z" fill="url(#paint5_linear)"/>
<path d="M16.6789 8.09564C16.6429 8.09114 16.6069 8.08664 16.5709 8.08439H16.5687C16.4921 8.07539 16.4201 8.06864 16.3481 8.06414L16.4066 7.47464L16.4494 7.05164C16.4494 7.05164 16.6384 7.46789 16.6677 7.73789C16.6812 7.86164 16.6812 7.99214 16.6789 8.09564Z" fill="url(#paint6_linear)"/>
<path d="M12.0933 15.5161C12.0641 15.5274 12.0326 15.5386 12.0033 15.5499C11.9628 15.5656 11.9223 15.5791 11.8818 15.5926C11.8728 15.5949 11.8638 15.5994 11.8548 15.6016C11.8121 15.6174 11.7693 15.6309 11.7266 15.6444C11.7018 15.6511 11.6793 15.6601 11.6546 15.6669C11.5871 15.6871 11.5196 15.7074 11.4521 15.7276C11.2293 14.8771 10.7456 14.2651 10.1493 13.3404C9.65205 12.5664 9.4338 11.9341 9.34155 11.5516C9.48105 11.5989 9.62955 11.6461 9.78705 11.6911C9.80955 11.6979 9.83205 11.7069 9.8568 11.7114C9.8793 11.7676 9.90405 11.8239 9.93105 11.8779C9.94455 11.9049 9.95805 11.9319 9.97155 11.9589C9.9783 11.9746 9.9873 11.9881 9.99405 12.0016C10.0076 12.0264 10.0211 12.0534 10.0346 12.0781C10.0503 12.1074 10.0661 12.1344 10.0818 12.1614C10.0841 12.1659 10.0863 12.1704 10.0908 12.1749C10.1088 12.2064 10.1268 12.2379 10.1471 12.2671C10.1696 12.3009 10.1921 12.3369 10.2123 12.3684C10.2348 12.4021 10.2573 12.4359 10.2798 12.4674C10.3023 12.4989 10.3271 12.5326 10.3496 12.5619C10.3721 12.5934 10.3968 12.6249 10.4216 12.6541C10.4328 12.6699 10.4463 12.6834 10.4576 12.6991C10.4823 12.7284 10.5071 12.7576 10.5296 12.7869C10.5543 12.8161 10.5791 12.8431 10.6038 12.8701C10.6173 12.8836 10.6286 12.8971 10.6421 12.9106C10.6533 12.9241 10.6668 12.9376 10.6781 12.9511C10.6961 12.9691 10.7141 12.9894 10.7321 13.0074C10.7456 13.0231 10.7613 13.0366 10.7748 13.0524C10.8783 13.1581 10.9818 13.2549 11.0808 13.3426C11.1033 13.3629 11.1281 13.3854 11.1506 13.4056C11.2901 13.5294 11.4206 13.6396 11.5331 13.7386C11.5488 13.7521 11.5623 13.7634 11.5758 13.7769C11.6186 13.8151 11.6591 13.8534 11.6928 13.8894C11.7018 13.8984 11.7086 13.9074 11.7176 13.9141C11.7333 13.9299 11.7491 13.9456 11.7626 13.9614C11.7738 13.9726 11.7828 13.9861 11.7918 13.9974C11.8008 14.0086 11.8098 14.0221 11.8166 14.0356C11.8256 14.0514 11.8346 14.0671 11.8436 14.0829C11.8481 14.0919 11.8526 14.0986 11.8571 14.1076C11.8616 14.1166 11.8661 14.1234 11.8683 14.1324C11.8796 14.1571 11.8908 14.1841 11.9021 14.2111C11.9066 14.2246 11.9133 14.2381 11.9178 14.2539C11.9223 14.2674 11.9268 14.2809 11.9313 14.2944C11.9358 14.3124 11.9426 14.3304 11.9471 14.3484C11.9606 14.3934 11.9718 14.4406 11.9808 14.4879C11.9853 14.5036 11.9876 14.5216 11.9921 14.5374C11.9988 14.5689 12.0033 14.5981 12.0101 14.6296C12.0236 14.7061 12.0348 14.7871 12.0461 14.8704C12.0461 14.8816 12.0483 14.8929 12.0506 14.9041C12.0528 14.9311 12.0551 14.9559 12.0596 14.9829C12.0618 15.0099 12.0641 15.0369 12.0686 15.0639C12.0708 15.0909 12.0731 15.1156 12.0753 15.1449C12.0776 15.1719 12.0798 15.1989 12.0821 15.2259C12.0866 15.2799 12.0911 15.3339 12.0933 15.3879C12.0888 15.4284 12.0911 15.4734 12.0933 15.5161Z" fill="url(#paint7_linear)"/>
<path d="M10.1495 13.3404C10.7457 14.2674 11.2295 14.8794 11.4522 15.7276C11.4162 15.7366 11.3802 15.7479 11.3442 15.7569C11.2677 15.7771 11.189 15.7974 11.1102 15.8154C11.0315 15.8334 10.9505 15.8514 10.8695 15.8671C10.829 15.8761 10.7885 15.8829 10.748 15.8896C10.667 15.9054 10.5837 15.9166 10.4982 15.9301C10.3317 15.9549 10.1585 15.9729 9.98298 15.9886C9.89523 15.9954 9.80523 16.0021 9.71748 16.0044C9.40698 16.0201 9.08748 16.0179 8.75223 15.9976C8.67123 15.9931 8.59023 15.9864 8.50698 15.9796C8.29998 15.9616 8.08623 15.9369 7.87023 15.9054C7.74423 15.8874 7.61598 15.8649 7.48773 15.8424C7.48773 15.8424 7.48773 15.8424 7.48548 15.8424C7.43598 15.8334 7.38648 15.8244 7.33698 15.8131C7.23798 15.7929 7.13673 15.7726 7.03548 15.7501C7.03548 15.7501 7.03548 15.7501 7.03323 15.7501C6.68448 16.0764 6.29973 16.4116 5.94873 16.6569C5.65623 16.8436 5.28048 16.7806 5.12973 16.6569C5.00823 16.5579 4.83948 16.2226 5.05323 15.8109C5.43573 15.0414 6.13323 14.2134 6.13323 14.2134C5.88123 13.1311 6.31998 12.0196 7.39098 11.3469C7.41798 11.3311 7.44498 11.3131 7.47198 11.2974C7.56198 11.2479 7.65423 11.2141 7.74648 11.1961C7.93773 11.1579 8.13798 11.1781 8.35848 11.2321C8.56098 11.2816 8.78148 11.3604 9.02223 11.4459C9.12123 11.4819 9.22698 11.5179 9.33498 11.5561C9.43398 11.9341 9.64998 12.5664 10.1495 13.3404Z" fill="url(#paint8_linear)"/>
<path d="M18.4633 9.64148C18.3125 9.70449 18.0605 9.62348 17.84 9.81248C17.696 9.93398 17.4215 10.3457 16.8883 10.4582C16.8883 10.4582 16.8815 10.4762 16.8703 10.51C16.8658 10.5212 16.8613 10.5347 16.8545 10.5505C16.841 10.5887 16.823 10.636 16.7983 10.6945C16.7893 10.717 16.7803 10.7395 16.769 10.7642C16.769 10.7665 16.769 10.7665 16.7668 10.7687C16.76 10.7822 16.7555 10.7957 16.7488 10.8115C16.7263 10.8655 16.6993 10.9262 16.67 10.9915C16.6633 11.0072 16.6543 11.0252 16.6475 11.041C16.6408 11.0545 16.634 11.068 16.6295 11.0792C16.6115 11.1175 16.5913 11.1602 16.571 11.2007C16.553 11.239 16.535 11.2772 16.5148 11.3155C16.5058 11.3357 16.4945 11.356 16.4833 11.3762C16.4068 11.527 16.3168 11.6912 16.2155 11.8645C16.1998 11.8892 16.1863 11.914 16.1705 11.941C16.1548 11.968 16.139 11.995 16.121 12.022C16.1053 12.049 16.0895 12.076 16.0715 12.103C16.0535 12.1345 16.0333 12.1637 16.013 12.1952C15.9973 12.22 15.9815 12.2447 15.9658 12.2695C15.95 12.2942 15.9343 12.319 15.9163 12.346C15.8915 12.382 15.8668 12.418 15.842 12.4562C15.815 12.4967 15.788 12.5372 15.7588 12.5777C15.7273 12.625 15.6935 12.6722 15.6575 12.7195C15.653 12.724 15.6508 12.7285 15.6463 12.7352C15.6148 12.7802 15.581 12.823 15.545 12.868C15.5405 12.8747 15.5338 12.8837 15.527 12.8905C15.5225 12.895 15.518 12.9017 15.5135 12.9062C15.4978 12.9265 15.482 12.949 15.464 12.9692C15.455 12.9805 15.4483 12.9917 15.4393 13.0007C15.437 13.003 15.4348 13.0075 15.4325 13.0097C15.4145 13.0322 15.3965 13.057 15.3763 13.0795C15.3605 13.0997 15.3425 13.1222 15.3245 13.1447C15.3065 13.165 15.2885 13.1875 15.2705 13.2077C15.248 13.2347 15.2255 13.2617 15.203 13.2865C15.185 13.3067 15.167 13.327 15.149 13.3495C15.1333 13.3675 15.1153 13.3877 15.0995 13.4057C15.0995 13.4057 15.0973 13.408 15.0973 13.4102C15.0793 13.4305 15.0613 13.4507 15.0433 13.471C15.023 13.4935 15.005 13.5137 14.9848 13.5362C14.9555 13.5677 14.9285 13.597 14.8993 13.6262C14.8723 13.6555 14.8453 13.6847 14.816 13.7117C14.7868 13.7432 14.7553 13.7725 14.7238 13.804C14.6923 13.8355 14.6608 13.8647 14.6293 13.8962C14.609 13.9142 14.591 13.9345 14.5708 13.9525C14.555 13.9682 14.5393 13.9817 14.5235 13.9975C14.429 14.0852 14.3345 14.1707 14.2333 14.254C14.2018 14.281 14.1703 14.3057 14.1388 14.3327C14.0915 14.371 14.042 14.4115 13.9925 14.4497C13.9633 14.4722 13.9318 14.497 13.9003 14.5195C13.898 14.5195 13.898 14.5217 13.8958 14.524C13.8553 14.5532 13.8148 14.5825 13.7765 14.6117C13.7338 14.6432 13.6933 14.6725 13.6505 14.7017C13.6213 14.722 13.5943 14.7422 13.565 14.7602C13.5358 14.7805 13.5065 14.7985 13.4773 14.8187C13.4458 14.8412 13.412 14.8615 13.3783 14.884C13.3445 14.9042 13.3108 14.9267 13.277 14.947C13.2523 14.9627 13.2275 14.9785 13.2005 14.992C13.169 15.01 13.1375 15.028 13.106 15.046C13.0678 15.0685 13.0295 15.0887 12.9913 15.1112C12.962 15.127 12.9328 15.145 12.9013 15.1585C12.8585 15.181 12.8135 15.2035 12.7708 15.226C12.7258 15.2485 12.6808 15.271 12.6358 15.2912C12.5998 15.3092 12.5615 15.325 12.5255 15.343C12.4873 15.361 12.4513 15.3767 12.413 15.3925C12.3995 15.3992 12.386 15.4037 12.3725 15.4105C12.3455 15.4217 12.3163 15.433 12.2893 15.4442C12.2803 15.4487 12.2713 15.4532 12.2623 15.4555C12.2263 15.4712 12.1903 15.4847 12.152 15.5005C12.1318 15.5095 12.1115 15.5162 12.089 15.5252C12.0868 15.4825 12.0845 15.4397 12.08 15.3947C12.0755 15.3407 12.0733 15.2867 12.0688 15.2327C12.0665 15.2057 12.0643 15.1787 12.062 15.1517C12.0598 15.1247 12.0575 15.0977 12.0553 15.0707C12.053 15.0437 12.0508 15.0167 12.0463 14.9897C12.044 14.9627 12.0418 14.938 12.0373 14.911C12.0373 14.8997 12.035 14.8885 12.0328 14.8772C12.0238 14.794 12.0103 14.7152 11.9968 14.6365C11.9923 14.605 11.9855 14.5735 11.9788 14.5442C11.9765 14.5262 11.972 14.5105 11.9675 14.4947C11.9563 14.4452 11.945 14.4002 11.9338 14.3552C11.9293 14.3372 11.9225 14.3192 11.918 14.3012C11.9135 14.2877 11.909 14.2742 11.9045 14.2607C11.9 14.2472 11.8955 14.2315 11.8888 14.218C11.8775 14.191 11.8685 14.164 11.855 14.1392C11.8505 14.1302 11.8483 14.1235 11.8438 14.1145C11.8393 14.1055 11.837 14.0987 11.8303 14.0897C11.8213 14.074 11.8123 14.0582 11.8033 14.0425C11.7943 14.029 11.7875 14.0177 11.7785 14.0042C11.7695 13.9907 11.7605 13.9772 11.7493 13.9682C11.7358 13.9525 11.72 13.9367 11.7043 13.921C11.6975 13.912 11.6885 13.9052 11.6795 13.8962C11.6435 13.8602 11.6053 13.8242 11.5625 13.7837C11.549 13.7702 11.5355 13.759 11.5198 13.7455C11.4073 13.6465 11.2768 13.5362 11.1373 13.4125C11.1125 13.3922 11.09 13.3697 11.0675 13.3495C10.9685 13.2595 10.865 13.1627 10.7615 13.0592C10.7458 13.0457 10.7323 13.03 10.7188 13.0142C10.7008 12.9962 10.6828 12.976 10.6648 12.958C10.6513 12.9445 10.64 12.931 10.6288 12.9175C10.6153 12.904 10.604 12.8905 10.5905 12.877C10.5658 12.85 10.541 12.8207 10.5163 12.7937C10.4915 12.7645 10.469 12.7375 10.4443 12.706C10.433 12.6902 10.4195 12.6767 10.4083 12.661C10.3835 12.6317 10.361 12.6002 10.3363 12.5687C10.3138 12.5372 10.289 12.5057 10.2665 12.4742C10.244 12.4427 10.2215 12.409 10.199 12.3752C10.1765 12.3415 10.154 12.3077 10.1338 12.274C10.1158 12.2447 10.0955 12.2132 10.0775 12.1817C10.0753 12.1772 10.0708 12.1727 10.0685 12.1682C10.0528 12.1412 10.037 12.1142 10.0213 12.085C10.0078 12.0602 9.99426 12.0355 9.98076 12.0085C9.97401 11.995 9.96501 11.9815 9.95826 11.9657C9.94476 11.9387 9.93126 11.9117 9.91776 11.8847C9.89301 11.8307 9.86826 11.7745 9.84351 11.7182C9.98976 11.7587 10.1765 11.7925 10.3858 11.8172C10.3903 11.8172 10.397 11.8172 10.4015 11.8195C11.1215 11.905 12.0823 11.9005 12.494 11.7902C12.5255 11.7812 12.5548 11.7722 12.5773 11.7632C12.98 11.6417 13.3198 11.4482 13.6078 11.2052C13.8598 10.996 14.0713 10.753 14.249 10.4965C14.249 10.4965 14.636 9.90024 14.8048 9.47273C14.843 9.38049 14.8813 9.29048 14.9173 9.20048C14.951 9.11498 14.9825 9.03173 15.0118 8.95298L15.1198 8.66048C15.212 8.41298 15.284 8.23073 15.356 8.16323C15.383 8.13848 15.4213 8.11823 15.4708 8.10248C15.4685 7.94048 15.4708 7.71998 15.4978 7.57148C15.5428 7.31498 15.6013 7.17773 15.6013 7.17773L15.842 8.05298C15.986 8.04848 16.1548 8.05523 16.3325 8.06873C16.4045 8.07323 16.4788 8.07998 16.553 8.08898H16.5553C16.589 8.09123 16.6273 8.09573 16.6633 8.10023C17.5205 8.19923 18.488 8.42198 18.5915 8.53898C18.7828 8.73698 18.614 9.57849 18.4633 9.64148Z" fill="url(#paint9_linear)"/>
<path d="M16.4067 7.47455L16.3482 8.06406C16.1705 8.05056 16.0017 8.04381 15.8577 8.04831L15.617 7.17305C15.617 7.17305 15.5585 7.3103 15.5135 7.5668C15.4865 7.71305 15.4842 7.93581 15.4865 8.09781C15.4865 8.09781 14.9802 7.04705 13.8755 7.86606C13.8845 7.85031 13.8912 7.83456 13.9002 7.81881C14.402 6.7433 15.9072 6.73205 16.4067 7.47455Z" fill="url(#paint10_linear)"/>
<path d="M15.4842 8.09558C15.4347 8.11133 15.3942 8.13158 15.3695 8.15633C15.2975 8.22383 15.2255 8.40608 15.1332 8.65358L15.0252 8.94608C14.996 9.02483 14.9645 9.10808 14.9307 9.19358C14.8947 9.28133 14.8587 9.37133 14.8182 9.46583C14.6495 9.89333 14.2625 10.4896 14.2625 10.4896C14.0847 10.7461 13.8732 10.9891 13.6212 11.1983C13.3355 11.4391 12.9957 11.6348 12.5907 11.7563C12.566 11.7653 12.539 11.7743 12.5075 11.7833C12.4512 11.6888 12.3972 11.5966 12.3432 11.5021C12.3185 11.4571 12.2937 11.4121 12.2712 11.3693C12.2442 11.3198 12.2195 11.2681 12.1947 11.2186C12.1812 11.1893 12.1677 11.1623 12.1542 11.1331C12.1205 11.0588 12.089 10.9801 12.062 10.9036C12.0575 10.8923 12.0552 10.8811 12.0507 10.8698C12.035 10.8226 12.0192 10.7731 12.008 10.7236C11.99 10.6808 11.9742 10.6336 11.9585 10.5841C12.773 10.5368 13.718 10.1318 13.7765 10.1071C13.745 10.1183 13.709 10.1251 13.673 10.1341C13.6527 10.1386 13.6302 10.1408 13.6077 10.1453C13.5492 10.1543 13.4862 10.1611 13.421 10.1633C13.403 10.1656 13.385 10.1656 13.3647 10.1656C13.3265 10.1656 13.286 10.1656 13.2455 10.1656C13.0295 10.1611 12.791 10.1318 12.557 10.0823C12.3905 10.0486 12.224 10.0058 12.0687 9.95633C12.0665 9.92483 12.0665 9.89108 12.0665 9.85733C12.1295 9.81233 12.1947 9.76508 12.26 9.71558C12.2645 9.71108 12.2712 9.70658 12.2757 9.70208C12.5997 9.46133 12.962 9.17108 13.1667 8.94158C13.187 8.91683 13.2072 8.89433 13.2252 8.87183C13.259 8.83808 13.2905 8.80208 13.313 8.77058C13.3895 8.66933 13.4637 8.56358 13.5357 8.45333C13.5605 8.41508 13.5852 8.37908 13.6077 8.34083C13.6325 8.30258 13.655 8.26433 13.6775 8.22608C13.6887 8.20808 13.7 8.18783 13.7112 8.16758C13.7472 8.10683 13.7787 8.04608 13.8102 7.98309C13.8305 7.94484 13.8507 7.90434 13.8687 7.86609C14.978 7.04484 15.4842 8.09558 15.4842 8.09558Z" fill="url(#paint11_linear)"/>
<path d="M13.7787 10.1049C13.7202 10.1296 12.7752 10.5346 11.9607 10.5819C11.9067 10.3929 11.8775 10.1566 11.8662 9.8844C11.9315 9.90915 12.0012 9.9339 12.071 9.9564C12.2262 10.0059 12.3927 10.0486 12.5592 10.0824C12.7932 10.1319 13.0317 10.1611 13.2477 10.1656C13.2882 10.1656 13.3287 10.1656 13.367 10.1656C13.3872 10.1656 13.4052 10.1657 13.4232 10.1634C13.4885 10.1612 13.5515 10.1544 13.61 10.1454C13.6325 10.1409 13.655 10.1387 13.6752 10.1342C13.7112 10.1229 13.7472 10.1161 13.7787 10.1049Z" fill="url(#paint12_linear)"/>
<path d="M13.0924 15.2055C13.0924 15.1965 13.0947 15.1875 13.0969 15.1808C13.0947 15.1875 13.0924 15.1965 13.0924 15.2055C13.0879 15.2505 13.0812 15.2955 13.0744 15.3428C13.0677 15.3878 13.0609 15.4328 13.0542 15.4778C13.0609 15.4328 13.0677 15.3878 13.0744 15.3428C13.0789 15.2955 13.0857 15.2505 13.0924 15.2055Z" fill="url(#paint13_linear)"/>
<path d="M13.16 14.3911C13.16 14.4001 13.16 14.4091 13.16 14.4181C13.16 14.4339 13.16 14.4474 13.1577 14.4631C13.1577 14.4474 13.16 14.4339 13.16 14.4181C13.16 14.4114 13.16 14.4001 13.16 14.3911Z" fill="url(#paint14_linear)"/>
<path d="M12.0438 14.9039C12.0416 14.8927 12.0393 14.8814 12.0393 14.8679C12.0393 14.8814 12.0416 14.8927 12.0438 14.9039Z" fill="url(#paint15_linear)"/>
<path d="M13.1645 14.3145C13.1645 14.3212 13.1645 14.3302 13.1645 14.337C13.1645 14.355 13.1622 14.373 13.1622 14.3932C13.1622 14.4022 13.1622 14.4112 13.1622 14.4202C13.1622 14.436 13.1622 14.4495 13.16 14.4652V14.4697C13.1577 14.4967 13.1555 14.526 13.1555 14.5552C13.1555 14.5665 13.1555 14.5777 13.1532 14.589C13.151 14.616 13.1487 14.6452 13.1487 14.6722C13.1442 14.7285 13.1397 14.7847 13.1352 14.841C13.1285 14.913 13.1217 14.985 13.115 15.057C13.1105 15.0975 13.106 15.1357 13.1015 15.1762V15.1785C13.1015 15.183 13.0992 15.1875 13.0992 15.192C13.0992 15.1965 13.0992 15.201 13.097 15.2055C13.0925 15.2505 13.0857 15.2955 13.079 15.3427C13.0745 15.3652 13.0722 15.3877 13.0677 15.4102C13.0632 15.4327 13.061 15.4552 13.0565 15.4777C13.0565 15.48 13.0565 15.4845 13.0542 15.4867C13.0497 15.5227 13.043 15.5565 13.0362 15.5902C13.034 15.606 13.0317 15.6217 13.0272 15.6375C13.0227 15.6577 13.0205 15.6802 13.016 15.7005C13.0115 15.723 13.007 15.7455 13.0025 15.768C12.9575 16.011 12.9012 16.2337 12.8382 16.4205C12.8315 16.4407 12.8247 16.4587 12.818 16.479C12.7122 16.7782 12.5862 16.974 12.4535 16.992C12.4062 16.9987 12.3657 16.9852 12.332 16.9537C12.3252 16.9492 12.3207 16.9425 12.314 16.9357C12.3095 16.929 12.3027 16.9222 12.2982 16.9155C12.2937 16.9087 12.2892 16.8997 12.2825 16.893C12.368 16.3327 12.4625 15.4642 12.386 14.7532C12.665 14.6182 12.9215 14.472 13.1645 14.3145Z" fill="url(#paint16_linear)"/>
<path d="M12.0528 10.8699C12.037 10.8226 12.0213 10.7731 12.01 10.7236C12.0213 10.7709 12.0348 10.8204 12.0528 10.8699Z" fill="url(#paint17_linear)"/>
<path d="M12.0642 10.9036C12.0597 10.8924 12.0552 10.8811 12.053 10.8699C12.0552 10.8811 12.0597 10.8924 12.0642 10.9036Z" fill="url(#paint18_linear)"/>
<path d="M12.0528 10.8699C12.037 10.8226 12.0213 10.7731 12.01 10.7236C12.0213 10.7709 12.0348 10.8204 12.0528 10.8699Z" fill="url(#paint19_linear)"/>
<path d="M12.0642 10.9036C12.0597 10.8924 12.0552 10.8811 12.053 10.8699C12.0552 10.8811 12.0597 10.8924 12.0642 10.9036Z" fill="url(#paint20_linear)"/>
<path d="M12.2847 16.8908C12.2802 16.8818 12.2735 16.8728 12.269 16.8638C12.2645 16.8525 12.2577 16.8413 12.2532 16.8323C12.2487 16.821 12.2442 16.8098 12.2397 16.7963C12.2352 16.785 12.2307 16.7715 12.2285 16.758C12.2127 16.704 12.197 16.6433 12.1857 16.578C12.1767 16.5263 12.1677 16.4678 12.161 16.4093C12.1587 16.389 12.1565 16.3665 12.1542 16.3463C12.1385 16.2113 12.1272 16.0628 12.1182 15.9053C12.116 15.876 12.1137 15.8468 12.1115 15.8175C12.1115 15.8018 12.1092 15.786 12.1092 15.768C12.1047 15.696 12.1002 15.6263 12.0957 15.552C12.0935 15.498 12.089 15.444 12.0845 15.3878C12.08 15.3338 12.0777 15.2798 12.0732 15.2258C12.071 15.1988 12.0687 15.1718 12.0665 15.1448C12.0642 15.1178 12.062 15.0908 12.0597 15.0638C12.0575 15.0368 12.0552 15.0098 12.0507 14.985C12.0485 14.958 12.0462 14.9333 12.0417 14.9063C12.0507 14.9018 12.0597 14.8995 12.0665 14.895C12.1767 14.85 12.2825 14.8028 12.386 14.7533C12.467 15.4598 12.3702 16.3305 12.2847 16.8908Z" fill="url(#paint21_linear)"/>
<path d="M13.1688 14.0894C13.1688 14.1434 13.1688 14.1974 13.1666 14.2537C13.1666 14.2739 13.1666 14.2942 13.1644 14.3144C12.9214 14.4742 12.6649 14.6204 12.3904 14.7509C12.3566 14.4539 12.2959 14.1839 12.1879 13.9769C11.8234 13.2749 10.8739 12.9284 10.4171 11.8124C10.3474 11.6437 10.2889 11.4547 10.2461 11.2454C10.2349 11.1982 10.2259 11.1509 10.2169 11.1037C10.2079 11.0564 10.1989 11.0092 10.1899 10.9642C10.1876 10.9529 10.1854 10.9417 10.1831 10.9304C10.1719 10.8719 10.1629 10.8157 10.1516 10.7572C10.1471 10.7257 10.1404 10.6942 10.1359 10.6627C10.1314 10.6312 10.1246 10.5997 10.1201 10.5682C10.1134 10.5299 10.1089 10.4939 10.1044 10.4557C10.0999 10.4197 10.0931 10.3814 10.0886 10.3432C10.0864 10.3229 10.0841 10.3049 10.0819 10.2847C10.0819 10.2802 10.0819 10.2779 10.0819 10.2734C10.0796 10.2509 10.0751 10.2284 10.0729 10.2059C10.0706 10.1812 10.0661 10.1564 10.0639 10.1294C10.0594 10.0912 10.0549 10.0529 10.0526 10.0169C10.0459 9.95841 10.0414 9.89991 10.0369 9.84141C10.0346 9.82341 10.0346 9.80541 10.0324 9.78741C10.0279 9.72891 10.0234 9.67041 10.0211 9.60966C10.0211 9.58491 10.0189 9.56016 10.0166 9.53766C10.0166 9.52416 10.0144 9.51066 10.0144 9.49716C10.0121 9.45441 10.0099 9.41166 10.0099 9.36666C10.0076 9.30141 10.0054 9.23391 10.0054 9.16641C10.0054 9.13941 10.0054 9.11241 10.0054 9.08316C10.0054 9.06066 10.0054 9.03816 10.0054 9.01566C10.0054 8.96166 10.0054 8.90766 10.0054 8.85141V8.83116C10.0054 8.81091 10.0054 8.79066 10.0054 8.76816C10.0054 8.71641 10.0076 8.66466 10.0076 8.61066C10.0076 8.58366 10.0076 8.55666 10.0099 8.52966C10.0121 8.44866 10.0144 8.36316 10.0189 8.27541C10.0301 8.00541 10.0504 7.71516 10.0751 7.40016C10.0774 7.35516 10.0819 7.31016 10.0864 7.26291C10.0931 7.17966 10.1021 7.09191 10.1089 7.00416C10.1179 6.91641 10.1269 6.82416 10.1359 6.73191C10.1449 6.64191 10.1539 6.54741 10.1651 6.45291C10.1674 6.41691 10.1719 6.38091 10.1764 6.34491C10.1809 6.29766 10.1876 6.24816 10.1921 6.20091C10.1966 6.15816 10.2011 6.11541 10.2079 6.07041C10.2124 6.02316 10.2191 5.97366 10.2236 5.92416C10.2281 5.87691 10.2349 5.82966 10.2394 5.78241C10.2551 5.63841 10.2731 5.48991 10.2934 5.33691C10.5679 5.45166 10.8919 5.54616 11.1259 5.63166C11.8346 5.89266 12.0124 6.90066 12.0236 6.96141V6.96366C12.0034 7.25166 11.9809 7.53066 11.9606 7.80066C11.9359 7.71516 11.9111 7.62516 11.8864 7.53516C11.6569 6.67791 11.4116 5.60916 10.8199 5.78241C10.7996 5.78691 10.7794 5.79591 10.7614 5.80491C10.7524 5.80716 10.7456 5.81166 10.7366 5.81841C10.7276 5.82291 10.7186 5.82741 10.7096 5.83416C10.6781 5.85441 10.6511 5.87691 10.6241 5.90616C10.6129 5.91516 10.6039 5.92641 10.5949 5.93766C10.5859 5.94891 10.5769 5.96016 10.5679 5.97141C10.5589 5.98266 10.5499 5.99616 10.5409 6.00741C10.5341 6.01866 10.5251 6.03216 10.5161 6.04566C10.5004 6.07266 10.4869 6.10191 10.4734 6.13116C10.4689 6.14241 10.4621 6.15591 10.4576 6.16716C10.4486 6.18741 10.4419 6.20766 10.4329 6.23016C10.4306 6.23916 10.4261 6.24816 10.4239 6.25941C10.4216 6.26841 10.4171 6.27741 10.4149 6.28866C10.3946 6.35391 10.3789 6.42141 10.3654 6.49341V6.49566C10.3631 6.52041 10.3586 6.54291 10.3541 6.56541V6.56991C10.3541 6.56991 10.3541 6.56991 10.3541 6.57216C10.3541 6.57216 10.3541 6.57666 10.3541 6.58341C10.3519 6.59016 10.3519 6.59916 10.3496 6.61266C10.3451 6.64641 10.3429 6.68466 10.3384 6.72291C10.3361 6.75891 10.3339 6.79491 10.3316 6.83091V6.83541C10.3316 6.85116 10.3316 6.86916 10.3316 6.88491V6.93666C10.3316 6.98391 10.3316 7.03341 10.3339 7.08291C10.3361 7.12341 10.3384 7.16391 10.3429 7.20666C10.3429 7.22916 10.3451 7.24941 10.3474 7.27191C10.3496 7.28991 10.3496 7.30566 10.3519 7.32591C10.3541 7.35516 10.3586 7.38666 10.3631 7.41591C10.3676 7.45416 10.3744 7.49241 10.3789 7.53291C10.3879 7.58466 10.3969 7.63866 10.4081 7.69041C10.4149 7.73091 10.4239 7.76916 10.4329 7.80966C10.4419 7.85016 10.4509 7.88841 10.4644 7.92891C10.4779 7.98291 10.4936 8.03691 10.5094 8.09091C10.5274 8.14491 10.5431 8.20116 10.5634 8.25516C10.5814 8.30916 10.6016 8.36541 10.6219 8.41941C10.6376 8.45991 10.6534 8.50041 10.6714 8.54316C10.7051 8.62416 10.7434 8.70741 10.7839 8.78841C10.8041 8.82891 10.8244 8.86941 10.8469 8.90991C10.8761 8.96391 10.9054 9.01791 10.9346 9.07191C10.9661 9.12591 10.9999 9.17766 11.0314 9.23166C11.0651 9.28566 11.0989 9.33741 11.1349 9.38916C11.1529 9.41616 11.1731 9.43866 11.1911 9.46566C11.2316 9.51966 11.2924 9.57366 11.3711 9.62766C11.4026 9.65016 11.4409 9.67266 11.4791 9.69516C11.5894 9.75816 11.7221 9.81666 11.8661 9.87066C11.8796 10.2149 11.9224 10.5007 12.0101 10.7077C12.0214 10.7572 12.0371 10.8067 12.0529 10.8539C12.0551 10.8652 12.0596 10.8764 12.0641 10.8877C12.0911 10.9642 12.1226 11.0407 12.1564 11.1172C12.1699 11.1464 12.1834 11.1734 12.1969 11.2027C12.2216 11.2544 12.2464 11.3039 12.2734 11.3534C12.2959 11.3984 12.3206 11.4434 12.3454 11.4862C12.3971 11.5807 12.4534 11.6752 12.5096 11.7674C12.7414 12.1589 12.9799 12.5414 13.0766 12.9509C13.1441 13.2637 13.1733 13.6597 13.1688 14.0894Z" fill="url(#paint22_linear)"/>
<path d="M10.1045 7.00645C10.1135 6.9187 10.1225 6.8287 10.1315 6.73645C10.1225 6.8287 10.1135 6.9187 10.1045 7.00645Z" fill="url(#paint23_linear)"/>
<path d="M11.8595 9.52649C11.8595 9.53549 11.8595 9.54674 11.8595 9.55574C11.8595 9.67049 11.8595 9.78074 11.864 9.88649C11.7178 9.83249 11.5873 9.77174 11.477 9.71099C11.4388 9.68849 11.4028 9.66599 11.369 9.64349C11.2903 9.59174 11.2273 9.53549 11.189 9.48149C11.171 9.45449 11.153 9.43199 11.1328 9.40499C11.0968 9.35324 11.0608 9.30149 11.027 9.24748C10.9933 9.19573 10.9618 9.14173 10.9303 9.08773C10.8988 9.03373 10.8695 8.98198 10.8425 8.92573C10.82 8.88523 10.802 8.84473 10.7795 8.80423C10.739 8.72323 10.703 8.63998 10.6693 8.55898C10.6513 8.51848 10.6355 8.47573 10.6198 8.43522C10.5995 8.38122 10.5793 8.32497 10.5613 8.27097C10.5433 8.21697 10.5253 8.16072 10.5073 8.10672C10.4915 8.05272 10.4758 7.99872 10.4623 7.94247C10.451 7.90197 10.442 7.86147 10.433 7.82322C10.424 7.78272 10.415 7.74447 10.4083 7.70397C10.397 7.65222 10.388 7.59821 10.379 7.54646C10.3723 7.50821 10.3678 7.46771 10.3633 7.42946C10.3588 7.39796 10.3543 7.36871 10.352 7.33946C10.3498 7.32146 10.3475 7.30346 10.3475 7.28546C10.3453 7.26296 10.343 7.24046 10.343 7.22021C10.3385 7.17746 10.3363 7.13696 10.334 7.09646C10.3318 7.04696 10.3318 6.99746 10.3318 6.95021V6.94796C10.3318 6.93221 10.3318 6.91421 10.3318 6.89846C10.3318 6.88271 10.3318 6.86471 10.3318 6.84896V6.83996C10.334 6.80396 10.3363 6.7657 10.3385 6.73195C10.3408 6.69595 10.343 6.6577 10.3475 6.6217C10.3498 6.61045 10.3498 6.5992 10.352 6.59245C10.352 6.5857 10.352 6.5812 10.352 6.5812C10.352 6.57895 10.352 6.57895 10.352 6.57895V6.57445C10.3565 6.5497 10.3588 6.5272 10.3633 6.5047C10.3633 6.5047 10.3633 6.50245 10.3633 6.5002C10.3768 6.4282 10.3925 6.35845 10.4128 6.29545C10.415 6.28645 10.4195 6.2752 10.4218 6.2662C10.424 6.25495 10.4285 6.24595 10.4308 6.23695C10.4375 6.21445 10.4465 6.1942 10.4533 6.17395C10.4578 6.16045 10.4645 6.1492 10.469 6.13795C10.4825 6.1087 10.4983 6.07945 10.5118 6.05245C10.5208 6.03895 10.5275 6.02545 10.5365 6.0142C10.5455 6.0007 10.5523 5.98945 10.5635 5.9782C10.5725 5.96695 10.5815 5.9557 10.5905 5.94445C10.5995 5.93545 10.6085 5.92419 10.6175 5.91294C10.6445 5.88594 10.6715 5.86119 10.703 5.84094C10.712 5.83644 10.721 5.82969 10.73 5.82519C10.739 5.81844 10.7458 5.81619 10.7548 5.81169C10.7728 5.80269 10.793 5.79369 10.8133 5.78919C11.4073 5.61594 11.6503 6.68245 11.8798 7.54196C11.9045 7.63422 11.9293 7.72422 11.954 7.80747C11.9068 8.44197 11.864 9.02923 11.8595 9.52649Z" fill="url(#paint24_linear)"/>
<path d="M12.044 6.61949C12.0372 6.73649 12.0282 6.85124 12.0215 6.96599C12.0102 6.90299 11.8325 5.89724 11.1238 5.63624C10.8898 5.55074 10.5658 5.45624 10.2913 5.34149C10.3093 5.18624 10.3295 5.02649 10.3498 4.86C10.7998 4.716 11.342 4.8195 11.6908 5.24249C11.7358 5.29424 11.7763 5.35274 11.8123 5.41574C11.945 5.64299 12.0327 5.93549 12.0485 6.29999C12.0507 6.40124 12.0507 6.50699 12.044 6.61949Z" fill="url(#paint25_linear)"/>
<path d="M12.3904 14.751C12.3386 14.7757 12.2846 14.8005 12.2329 14.8252C12.1789 14.8477 12.1249 14.8725 12.0709 14.895C12.0619 14.8995 12.0529 14.9017 12.0461 14.9062C12.0439 14.895 12.0439 14.8837 12.0416 14.8702C12.0326 14.787 12.0191 14.7082 12.0056 14.6317C12.0011 14.6002 11.9944 14.5687 11.9876 14.5395C11.9854 14.5215 11.9809 14.5057 11.9764 14.49C11.9651 14.4427 11.9539 14.3955 11.9426 14.3505C11.9381 14.3325 11.9314 14.3145 11.9269 14.2965C11.9224 14.283 11.9179 14.2695 11.9134 14.256C11.9089 14.2425 11.9044 14.2267 11.8976 14.2132C11.8864 14.1862 11.8751 14.1592 11.8639 14.1345C11.8594 14.1255 11.8549 14.1165 11.8526 14.1097C11.8481 14.1007 11.8436 14.094 11.8391 14.085C11.8301 14.0692 11.8211 14.0535 11.8121 14.0377C11.8031 14.0242 11.7964 14.013 11.7874 13.9995C11.7784 13.986 11.7671 13.9725 11.7581 13.9635C11.7446 13.9477 11.7289 13.932 11.7131 13.914C11.7064 13.905 11.6974 13.8982 11.6884 13.8892C11.6524 13.8532 11.6141 13.815 11.5714 13.7767C11.5579 13.7632 11.5444 13.752 11.5286 13.7385C11.4184 13.6395 11.2856 13.5292 11.1461 13.4055C11.1236 13.3852 11.0989 13.365 11.0764 13.3425C10.9774 13.2525 10.8739 13.1557 10.7704 13.0522C10.7569 13.0387 10.7411 13.023 10.7276 13.0072C10.7096 12.9892 10.6916 12.969 10.6736 12.951C10.6601 12.9375 10.6489 12.924 10.6376 12.9105C10.6241 12.897 10.6129 12.8835 10.6016 12.87C10.5769 12.843 10.5521 12.816 10.5274 12.7867C10.5026 12.7575 10.4779 12.7305 10.4554 12.699C10.4441 12.6832 10.4306 12.6697 10.4194 12.654C10.3946 12.6247 10.3721 12.5932 10.3474 12.5617C10.3249 12.5302 10.3001 12.4987 10.2776 12.4672C10.2551 12.4357 10.2326 12.402 10.2101 12.3682C10.1876 12.3345 10.1651 12.3007 10.1449 12.267C10.1269 12.2377 10.1066 12.2062 10.0886 12.1747C10.0864 12.1702 10.0841 12.1657 10.0796 12.1612C10.0639 12.1342 10.0481 12.1072 10.0346 12.078C10.0211 12.0532 10.0076 12.0285 9.99414 12.0015C9.98739 11.988 9.97839 11.9745 9.97164 11.9587C9.95814 11.9317 9.94464 11.9047 9.93114 11.8777C9.88164 11.7697 9.83439 11.6572 9.79164 11.5402C9.78039 11.5087 9.76914 11.475 9.75789 11.4412C9.75339 11.4255 9.74889 11.412 9.74439 11.3962C9.74439 11.394 9.74439 11.394 9.74214 11.3917C9.68589 11.1757 9.63189 10.8675 9.58464 10.5007C9.39339 9.05849 9.29664 6.72974 9.57564 5.74649C9.67014 5.41574 9.77589 5.24249 9.89739 5.12549C9.93114 5.09174 9.96714 5.06249 10.0031 5.03774C10.1089 4.96124 10.2259 4.90049 10.3496 4.85999C10.3294 5.02424 10.3091 5.18624 10.2911 5.34149C10.2731 5.49449 10.2551 5.64299 10.2371 5.78699C10.2304 5.83424 10.2259 5.88149 10.2214 5.92874C10.2146 5.97824 10.2101 6.02774 10.2056 6.07499C10.2011 6.11999 10.1966 6.16274 10.1921 6.20549C10.1876 6.25274 10.1809 6.30224 10.1764 6.34949C10.1719 6.38549 10.1674 6.42374 10.1651 6.45749C10.1561 6.55199 10.1449 6.64649 10.1359 6.73649C10.1269 6.82874 10.1179 6.91874 10.1089 7.00649C10.0999 7.09424 10.0931 7.17974 10.0864 7.26524C10.0819 7.31024 10.0774 7.35749 10.0751 7.40249C10.0481 7.71974 10.0301 8.00999 10.0189 8.27774C10.0144 8.36549 10.0121 8.44874 10.0099 8.53199C10.0099 8.55899 10.0076 8.58599 10.0076 8.61299C10.0054 8.66699 10.0054 8.71874 10.0054 8.77049C10.0054 8.79074 10.0054 8.81099 10.0054 8.83349V8.85374C10.0054 8.90999 10.0054 8.96399 10.0054 9.01799C10.0054 9.04049 10.0054 9.06299 10.0054 9.08549C10.0054 9.11249 10.0054 9.14174 10.0054 9.16874C10.0054 9.23849 10.0076 9.30374 10.0099 9.37124C10.0121 9.41399 10.0144 9.45899 10.0144 9.50174C10.0144 9.51524 10.0166 9.52874 10.0166 9.54224C10.0166 9.56699 10.0189 9.59174 10.0211 9.61649C10.0256 9.67499 10.0279 9.73574 10.0324 9.79424C10.0346 9.81224 10.0346 9.83024 10.0369 9.84824C10.0414 9.90674 10.0459 9.96749 10.0526 10.0237C10.0571 10.062 10.0594 10.098 10.0639 10.1362C10.0661 10.161 10.0684 10.1857 10.0729 10.2127C10.0751 10.2352 10.0774 10.2577 10.0819 10.2802C10.0819 10.2847 10.0819 10.287 10.0841 10.2915C10.0864 10.3117 10.0886 10.3297 10.0909 10.35C10.0954 10.3882 10.0999 10.4242 10.1066 10.4602C10.1111 10.4962 10.1179 10.5345 10.1246 10.5727C10.1291 10.6042 10.1336 10.6357 10.1404 10.6672C10.1449 10.6987 10.1516 10.7302 10.1561 10.7617C10.1651 10.818 10.1764 10.8765 10.1876 10.935C10.1899 10.9462 10.1921 10.9575 10.1944 10.9687C10.2034 11.016 10.2124 11.061 10.2214 11.1082C10.2304 11.1555 10.2394 11.2027 10.2506 11.25C10.5746 12.834 11.7716 13.1715 12.1924 13.9815C12.2936 14.184 12.3566 14.454 12.3904 14.751Z" fill="url(#paint26_linear)"/>
<path d="M14.1343 9.76719C14.1343 9.76944 14.1343 9.77169 14.1343 9.77394C14.1343 9.77394 14.1343 9.77844 14.1321 9.78069C14.1298 9.78969 14.1276 9.79644 14.1253 9.80544C14.1231 9.81219 14.1208 9.81894 14.1186 9.82569V9.82794C14.1141 9.84144 14.1073 9.85269 14.1028 9.86619C14.1028 9.86619 14.1028 9.86844 14.1006 9.87069C14.0938 9.88419 14.0871 9.89769 14.0781 9.90894C14.0781 9.91119 14.0758 9.91344 14.0736 9.91344C14.0668 9.92469 14.0578 9.93594 14.0488 9.94494C14.0466 9.94944 14.0421 9.95169 14.0398 9.95619C14.0308 9.96744 14.0196 9.97869 14.0061 9.98769C13.9948 9.99669 13.9858 10.0057 13.9723 10.0124C13.9723 10.0124 13.9701 10.0147 13.9678 10.0147C13.9611 10.0192 13.9521 10.0237 13.9453 10.0304C13.9341 10.0372 13.9228 10.0439 13.9116 10.0507C13.8981 10.0574 13.8823 10.0642 13.8688 10.0709C13.8441 10.0822 13.8171 10.0912 13.7901 10.1002C13.7878 10.1002 13.7833 10.1024 13.7811 10.1024C13.7586 10.0979 13.3716 10.0169 12.8811 9.88194C12.8563 9.87519 12.8316 9.86844 12.8091 9.86169C12.7843 9.85494 12.7596 9.84819 12.7348 9.84144C12.6853 9.82569 12.6336 9.81219 12.5841 9.79644C12.5346 9.78069 12.4806 9.76494 12.4288 9.74919C12.3973 9.73794 12.3636 9.72894 12.3321 9.71769C12.3163 9.71319 12.2983 9.70644 12.2803 9.70194C12.2691 9.69969 12.2601 9.69519 12.2488 9.69069C12.2038 9.67494 12.1588 9.66144 12.1161 9.64569C12.0733 9.62994 12.0306 9.61644 11.9901 9.60069C11.9541 9.58719 11.9181 9.57594 11.8843 9.56244C11.8776 9.56019 11.8708 9.55794 11.8641 9.55344C11.8528 9.54894 11.8416 9.54444 11.8303 9.53994C11.7718 9.51744 11.7156 9.49494 11.6593 9.47244C10.7548 9.09444 10.5703 5.97368 10.5703 5.97368C10.5793 5.96243 10.5883 5.95118 10.5973 5.93993C10.6063 5.93093 10.6153 5.91968 10.6266 5.90843C10.6536 5.88143 10.6806 5.85668 10.7121 5.83643C10.7211 5.83193 10.7301 5.82518 10.7391 5.82068C10.7481 5.81393 10.7548 5.81168 10.7638 5.80718C10.7818 5.79818 10.8021 5.78918 10.8223 5.78468C11.4163 5.61143 11.6616 6.67793 11.8888 7.53743C11.9136 7.62968 11.9383 7.71968 11.9631 7.80293C12.0036 7.94693 12.0463 8.07968 12.0913 8.19219C12.1476 8.33619 12.2106 8.44644 12.2803 8.50494C12.2938 8.51619 12.3096 8.52744 12.3253 8.53869C12.3298 8.54319 12.3366 8.54544 12.3411 8.54994C12.3546 8.55894 12.3681 8.56794 12.3838 8.57694C12.4041 8.59044 12.4266 8.60394 12.4491 8.61744C12.4716 8.63094 12.4963 8.64219 12.5188 8.65569C12.6426 8.71869 12.7866 8.77944 12.9373 8.84244C13.0161 8.87394 13.0971 8.90769 13.1758 8.94144C13.2906 8.98869 13.4076 9.03819 13.5156 9.08994C13.5448 9.10344 13.5741 9.11694 13.6033 9.13269C13.6326 9.14619 13.6596 9.16194 13.6866 9.17544C13.6888 9.17544 13.6911 9.17769 13.6933 9.17994C13.7181 9.19344 13.7428 9.20694 13.7653 9.22269C14.0106 9.37344 14.1748 9.54669 14.1343 9.76719Z" fill="url(#paint27_linear)"/>
<path d="M13.781 10.1025C13.7473 10.1137 13.7113 10.1227 13.6753 10.1317C13.655 10.1362 13.6325 10.1385 13.61 10.143C13.5515 10.152 13.4885 10.1587 13.4233 10.161C13.4053 10.1632 13.3873 10.1632 13.367 10.1632C13.3288 10.1632 13.2883 10.1632 13.2478 10.1632C13.0318 10.1587 12.7933 10.1295 12.5593 10.08C12.3928 10.0462 12.2263 10.0035 12.071 9.95397C12.0013 9.93147 11.9315 9.90672 11.8663 9.88197C11.72 9.82797 11.5895 9.76722 11.4793 9.70647C11.441 9.68397 11.4028 9.66147 11.3713 9.63897C11.2903 9.58722 11.2295 9.53097 11.1913 9.47697C11.1733 9.44997 11.1553 9.42747 11.135 9.40047C11.099 9.34872 11.063 9.29697 11.0315 9.24297C10.9978 9.19122 10.9663 9.13722 10.9348 9.08322C10.9033 9.02922 10.874 8.97747 10.847 8.92122C10.8245 8.88072 10.8043 8.84022 10.784 8.79972C10.7435 8.71872 10.7075 8.63772 10.6715 8.55447C10.6535 8.51397 10.6378 8.47122 10.622 8.43072C10.6018 8.37672 10.5815 8.32047 10.5635 8.26647C10.5455 8.21247 10.5275 8.15622 10.5095 8.10222C10.4938 8.04822 10.478 7.99422 10.4645 7.94022C10.4533 7.89972 10.4443 7.85922 10.433 7.82097C10.424 7.78047 10.415 7.73997 10.4083 7.70172C10.397 7.64997 10.388 7.59597 10.379 7.54422C10.3723 7.50597 10.3678 7.46547 10.3633 7.42722C10.3588 7.39572 10.3543 7.36647 10.352 7.33722C10.3498 7.31922 10.3475 7.30122 10.3475 7.28322C10.3453 7.26072 10.343 7.23822 10.343 7.21797C10.3385 7.17522 10.3363 7.13472 10.334 7.09422C10.3318 7.04472 10.3318 6.99522 10.3318 6.94797V6.89622C10.3318 6.88047 10.3318 6.86247 10.3318 6.84672V6.83997C10.334 6.80172 10.3363 6.76572 10.3385 6.73197C10.3408 6.69372 10.343 6.65772 10.3498 6.62172C10.3498 6.61047 10.352 6.59922 10.3543 6.59247C10.3543 6.58572 10.3543 6.58122 10.3543 6.58122C10.3543 6.57897 10.3543 6.57897 10.3543 6.57897V6.57447C10.3588 6.54972 10.361 6.52722 10.3655 6.50472V6.50247C10.379 6.43047 10.3948 6.36072 10.415 6.29772C10.4173 6.28647 10.4218 6.27747 10.424 6.26847C10.4263 6.25722 10.4308 6.24822 10.433 6.23922C10.4398 6.21672 10.4488 6.19647 10.4578 6.17622C10.4623 6.16272 10.469 6.15147 10.4735 6.14022C10.487 6.11097 10.5028 6.08172 10.5163 6.05472C10.5253 6.04122 10.532 6.02772 10.541 6.01647C10.55 6.00297 10.5568 5.99172 10.568 5.98047C10.568 5.98047 10.7548 9.09897 11.657 9.47922C11.7133 9.50172 11.7695 9.52422 11.828 9.54672C11.8393 9.55122 11.8505 9.55572 11.8618 9.56022C11.8685 9.56247 11.8753 9.56472 11.882 9.56922C11.918 9.58272 11.9518 9.59622 11.9878 9.60747C12.0283 9.62322 12.071 9.63897 12.1138 9.65247C12.1588 9.66822 12.2015 9.68397 12.2465 9.69747C12.2578 9.69972 12.269 9.70422 12.278 9.70872C12.296 9.71322 12.3118 9.71997 12.3298 9.72447C12.3613 9.73572 12.395 9.74472 12.4265 9.75597C12.4783 9.77172 12.53 9.78747 12.5818 9.80322C12.6335 9.81897 12.683 9.83247 12.7325 9.84822C12.7573 9.85497 12.782 9.86397 12.8068 9.86847C12.8315 9.87522 12.8563 9.88197 12.8788 9.88872C13.3738 10.0192 13.7608 10.1002 13.781 10.1025Z" fill="url(#paint28_linear)"/>
<path d="M12.0191 6.96819C12.0191 6.96819 12.0191 6.96819 12.0191 6.96594C12.0078 6.90294 11.8301 5.89719 11.1213 5.63619C10.8873 5.5507 10.5633 5.4562 10.2888 5.34145C10.1336 5.2762 9.99408 5.20645 9.89508 5.12545C9.63183 4.9117 9.66558 4.6372 10.4801 4.2592C10.5071 4.2457 10.5363 4.2322 10.5656 4.22095C11.2631 3.91271 11.6726 4.1197 11.8998 4.5427C12.2576 5.21095 12.1631 6.41244 12.0191 6.96819Z" fill="url(#paint29_linear)"/>
<path d="M12.1657 1.89675C12.1927 2.115 12.2152 2.38725 12.2332 2.72925C11.9722 2.6865 11.7067 2.62575 11.4412 2.55825C10.9417 2.43225 10.4512 2.286 10.0146 2.20725C10.0146 2.20725 10.2127 0.890995 10.6402 0.926995C11.0677 0.962995 11.3512 1.46925 11.6167 1.2555C11.8147 1.09575 12.0352 0.841494 12.1657 1.89675Z" fill="url(#paint30_linear)"/>
<path d="M12.233 2.72923C12.233 2.72923 12.2398 2.82147 12.242 2.96772C11.8798 2.98347 10.4038 3.09822 10.2823 3.99596C10.2013 3.87446 10.136 3.75971 10.0888 3.66296C10.0843 3.65171 10.0775 3.64046 10.073 3.62921C10.0708 3.62471 10.0685 3.62246 10.0685 3.62021C10.0618 3.60446 10.055 3.59097 10.0483 3.57747C10.0415 3.56397 10.037 3.55047 10.0325 3.53922C10.0303 3.53697 10.0303 3.53472 10.0303 3.53022C10.028 3.52122 10.0235 3.51222 10.0213 3.50547C10.019 3.50097 10.0168 3.49422 10.0168 3.48972C10.0123 3.47397 10.01 3.46047 10.0078 3.44922C10.0078 3.44922 9.95153 3.07347 10.1203 2.92722C10.2643 2.80347 10.7593 2.61673 11.441 2.55823C11.7065 2.62573 11.972 2.68648 12.233 2.72923Z" fill="url(#paint31_linear)"/>
<path d="M12.2422 2.9679C12.2422 3.01514 12.2422 3.06914 12.2422 3.12539C12.24 3.18839 12.24 3.25364 12.2355 3.32339C12.2332 3.35264 12.231 3.37964 12.231 3.40889C12.2287 3.43139 12.2287 3.45164 12.2265 3.47414C12.2242 3.50564 12.2197 3.53939 12.2152 3.57314C12.213 3.59114 12.2107 3.61139 12.2085 3.63164C12.2085 3.64514 12.2062 3.65864 12.204 3.67214C12.2017 3.68564 12.1995 3.69914 12.1995 3.71264C12.1972 3.73288 12.1927 3.75088 12.1904 3.76888C12.1904 3.77563 12.1882 3.78463 12.186 3.79138C12.1837 3.80938 12.1792 3.82738 12.177 3.84538C12.177 3.84988 12.1747 3.85438 12.1747 3.85888C12.168 3.89038 12.1634 3.91963 12.1567 3.94888C12.1522 3.97138 12.1455 3.99163 12.141 4.01413C12.1319 4.04788 12.1229 4.07938 12.1139 4.11313C12.1117 4.11763 12.1117 4.12213 12.1094 4.12663C12.1004 4.15363 12.0914 4.18063 12.0824 4.20763C12.0689 4.25038 12.0509 4.29313 12.0307 4.33363C12.0194 4.36063 12.0059 4.38538 11.9924 4.41013C11.9902 4.41463 11.9857 4.42138 11.9834 4.42588C11.9722 4.44388 11.9609 4.46187 11.9497 4.48212C11.9429 4.49337 11.9362 4.50237 11.9294 4.51362C11.9227 4.52487 11.9137 4.53612 11.9047 4.54737C11.8912 4.56312 11.8799 4.57887 11.8664 4.59237C11.8619 4.59687 11.8574 4.60137 11.8552 4.60587C11.8417 4.61937 11.8282 4.63287 11.8124 4.64637C11.7989 4.65987 11.7854 4.67112 11.7697 4.68237C11.7562 4.69362 11.7404 4.70262 11.7247 4.71162C11.7157 4.71837 11.7067 4.72287 11.6954 4.72962C11.6842 4.73637 11.6729 4.74087 11.6594 4.74762C11.6504 4.75212 11.6414 4.75662 11.6324 4.75887C11.6122 4.76787 11.5897 4.77462 11.5649 4.78137C11.5402 4.78812 11.5154 4.79262 11.4907 4.79487C11.4749 4.79712 11.4592 4.79937 11.4457 4.79937C11.4119 4.80162 11.3804 4.80387 11.3467 4.80162C11.3354 4.80162 11.3219 4.79937 11.3107 4.79937C11.3039 4.79937 11.2994 4.79937 11.2927 4.79712C11.2747 4.79487 11.2567 4.79262 11.2409 4.78812C11.2297 4.78587 11.2184 4.78362 11.2072 4.77912C11.1869 4.77462 11.1644 4.76787 11.1442 4.76112C11.1307 4.75662 11.1172 4.75212 11.1037 4.74537C11.0924 4.74087 11.0812 4.73637 11.0699 4.73187C11.0474 4.72287 11.0249 4.71162 11.0024 4.70037C10.9867 4.69137 10.9709 4.68237 10.9552 4.67337C10.9439 4.66662 10.9304 4.65987 10.9192 4.65312C10.9034 4.64412 10.8877 4.63512 10.8719 4.62387C10.8494 4.61037 10.8292 4.59462 10.8089 4.57887C10.7842 4.56087 10.7594 4.54287 10.7369 4.52037C10.7257 4.50912 10.7122 4.50012 10.7009 4.48887C10.6987 4.48662 10.6942 4.48212 10.6897 4.47762C10.6739 4.46187 10.6559 4.44612 10.6379 4.43037C10.5997 4.39213 10.5614 4.35163 10.5232 4.31113C10.5052 4.29088 10.4894 4.27063 10.4714 4.25038C10.4534 4.23013 10.4377 4.20988 10.4219 4.18963C10.3994 4.16263 10.3792 4.13338 10.3567 4.10638C10.3477 4.09288 10.3387 4.08163 10.3297 4.06813C10.3162 4.05013 10.3027 4.03213 10.2914 4.01413C10.2892 4.00963 10.2869 4.00738 10.2847 4.00288C10.4039 3.09839 11.8822 2.98365 12.2422 2.9679Z" fill="url(#paint32_linear)"/>
<path d="M11.441 2.55824C9.41374 2.36249 9.16849 3.13648 9.16174 3.49873C9.15949 3.49873 9.15949 3.49873 9.15724 3.49873C9.12799 3.49648 9.10099 3.49198 9.07174 3.48973C9.04474 3.48523 9.01549 3.48298 8.98849 3.47623C8.94574 3.46723 8.90524 3.45823 8.86474 3.44698C8.84899 3.44248 8.83099 3.43573 8.81524 3.43123C8.79049 3.42223 8.76799 3.41323 8.74549 3.40198C8.70949 3.38623 8.67799 3.36598 8.64874 3.34348C8.61499 3.31873 8.58574 3.29173 8.56324 3.26023C8.55649 3.25123 8.54974 3.23998 8.54299 3.23098C8.54074 3.22648 8.53849 3.22423 8.53624 3.21973C8.53174 3.21523 8.52949 3.20848 8.52724 3.20398C8.52274 3.19723 8.51824 3.18823 8.51599 3.17923C8.51374 3.17248 8.51149 3.16798 8.50924 3.15898C8.49124 3.10723 8.48224 3.05098 8.48674 2.98348C8.48899 2.94974 8.49349 2.91374 8.50249 2.87549C8.50699 2.85524 8.51374 2.83499 8.51824 2.81474C8.53174 2.77424 8.54524 2.72924 8.56549 2.68424C8.57449 2.66174 8.58574 2.63699 8.59924 2.61449C8.83774 2.13074 9.36424 2.09249 10.0145 2.20949C10.451 2.28599 10.9415 2.42999 11.441 2.55824Z" fill="url(#paint33_linear)"/>
<path d="M13.2725 2.76295C12.9508 2.81245 12.5975 2.78995 12.233 2.7292C12.215 2.38719 12.1925 2.11494 12.1655 1.89669C13.4885 1.57944 14.1028 2.6437 13.2725 2.76295Z" fill="url(#paint34_linear)"/>
<path d="M11.4409 2.55821C10.7591 2.61671 10.2641 2.80346 10.1201 2.92722C9.95137 3.07347 10.0076 3.44923 10.0076 3.44923C10.0076 3.44923 9.89737 3.46948 9.73537 3.48748C9.70387 3.48973 9.66787 3.49423 9.63187 3.49648C9.59587 3.49873 9.55987 3.50098 9.52162 3.50323C9.50587 3.50548 9.49237 3.50548 9.47662 3.50548C9.45187 3.50548 9.42487 3.50773 9.40012 3.50773C9.39562 3.50773 9.39112 3.50773 9.38662 3.50773C9.36412 3.50773 9.34387 3.50773 9.32137 3.50773C9.26737 3.50773 9.21562 3.50548 9.16162 3.50098C9.16837 3.13647 9.41362 2.36246 11.4409 2.55821Z" fill="url(#paint35_linear)"/>
<path d="M11.9606 10.5818C11.8526 10.5885 11.7491 10.5885 11.6478 10.5818C11.2766 10.5525 10.9548 10.3073 10.8175 9.96077C10.1628 8.29802 10.3225 6.81527 10.345 6.63977C10.3428 6.66902 10.3405 6.70052 10.336 6.73202C10.3338 6.76802 10.3315 6.80402 10.3293 6.84002V6.84452C10.3293 6.86027 10.3293 6.87827 10.3293 6.89402V6.94577C10.3293 6.99302 10.3293 7.04252 10.3315 7.09202C10.3338 7.13252 10.336 7.17302 10.3405 7.21577C10.3405 7.23827 10.3428 7.25852 10.345 7.28102C10.3473 7.29902 10.3473 7.31477 10.3495 7.33502C10.3518 7.36427 10.3563 7.39577 10.3608 7.42502C10.3653 7.46327 10.372 7.50152 10.3765 7.54202C10.3855 7.59377 10.3945 7.64777 10.4058 7.69952C10.4125 7.74002 10.4215 7.77827 10.4305 7.81877C10.4395 7.85927 10.4485 7.89752 10.462 7.93802C10.4755 7.99202 10.4913 8.04602 10.507 8.10002C10.525 8.15402 10.5408 8.21027 10.561 8.26427C10.579 8.31827 10.5993 8.37452 10.6195 8.42852C10.6353 8.46902 10.651 8.50952 10.669 8.55227C10.7028 8.63327 10.741 8.71652 10.7815 8.79752C10.8018 8.83802 10.822 8.87852 10.8445 8.91902C10.8738 8.97302 10.903 9.02702 10.9323 9.08102C10.9638 9.13502 10.9975 9.18677 11.029 9.24077C11.0628 9.29477 11.0965 9.34652 11.1325 9.39827C11.1505 9.42527 11.1708 9.44777 11.1888 9.47477C11.2293 9.52877 11.2901 9.58277 11.3688 9.63677C11.4003 9.65927 11.4386 9.68177 11.4768 9.70427C11.5871 9.76727 11.7198 9.82577 11.8638 9.87977C11.8773 10.1565 11.9043 10.3928 11.9606 10.5818Z" fill="url(#paint36_linear)"/>
<defs>
<linearGradient id="paint0_linear" x1="8.47265" y1="11.0011" x2="7.95733" y2="8.83919" gradientUnits="userSpaceOnUse">
<stop stop-color="#1D0833"/>
<stop offset="1" stop-color="#4A1B5B"/>
</linearGradient>
<linearGradient id="paint1_linear" x1="6.0239" y1="9.19363" x2="4.85497" y2="9.97292" gradientUnits="userSpaceOnUse">
<stop stop-color="#1D0833"/>
<stop offset="1" stop-color="#4A1B5B"/>
</linearGradient>
<linearGradient id="paint2_linear" x1="8.52162" y1="8.95998" x2="6.1588" y2="6.71025" gradientUnits="userSpaceOnUse">
<stop stop-color="#1D0833"/>
<stop offset="1" stop-color="#4A1B5B"/>
</linearGradient>
<linearGradient id="paint3_linear" x1="12.248" y1="15.9503" x2="11.1065" y2="16.2855" gradientUnits="userSpaceOnUse">
<stop stop-color="#1D0833"/>
<stop offset="1" stop-color="#E55C68"/>
</linearGradient>
<linearGradient id="paint4_linear" x1="8.78485" y1="13.0139" x2="9.61377" y2="17.8651" gradientUnits="userSpaceOnUse">
<stop stop-color="#1D0833"/>
<stop offset="1" stop-color="#E55C68"/>
</linearGradient>
<linearGradient id="paint5_linear" x1="8.45619" y1="9.50912" x2="16.2154" y2="14.5506" gradientUnits="userSpaceOnUse">
<stop stop-color="#1D0833"/>
<stop offset="1" stop-color="#E55C68"/>
</linearGradient>
<linearGradient id="paint6_linear" x1="16.1089" y1="8.32746" x2="16.7249" y2="7.30828" gradientUnits="userSpaceOnUse">
<stop stop-color="#1D0833"/>
<stop offset="1" stop-color="#E55C68"/>
</linearGradient>
<linearGradient id="paint7_linear" x1="11.5855" y1="12.534" x2="9.68303" y2="14.7218" gradientUnits="userSpaceOnUse">
<stop stop-color="#1D0833"/>
<stop offset="1" stop-color="#E55C68"/>
</linearGradient>
<linearGradient id="paint8_linear" x1="3.03047" y1="13.874" x2="10.7308" y2="14.0734" gradientUnits="userSpaceOnUse">
<stop stop-color="#1D0833"/>
<stop offset="1" stop-color="#E55C68"/>
</linearGradient>
<linearGradient id="paint9_linear" x1="10.5774" y1="9.32171" x2="15.646" y2="12.1889" gradientUnits="userSpaceOnUse">
<stop stop-color="#1D0833"/>
<stop offset="1" stop-color="#E55C68"/>
</linearGradient>
<linearGradient id="paint10_linear" x1="15.9583" y1="8.31708" x2="14.8102" y2="7.37012" gradientUnits="userSpaceOnUse">
<stop stop-color="#1D0833"/>
<stop offset="1" stop-color="#4A1B5B"/>
</linearGradient>
<linearGradient id="paint11_linear" x1="13.9741" y1="7.60652" x2="13.5529" y2="10.5077" gradientUnits="userSpaceOnUse">
<stop stop-color="#1D0833"/>
<stop offset="1" stop-color="#4A1B5B"/>
</linearGradient>
<linearGradient id="paint12_linear" x1="12.8101" y1="9.99491" x2="13.0276" y2="11.5078" gradientUnits="userSpaceOnUse">
<stop stop-color="#1D0833"/>
<stop offset="1" stop-color="#4A1B5B"/>
</linearGradient>
<linearGradient id="paint13_linear" x1="13.0285" y1="15.3365" x2="13.1039" y2="15.3221" gradientUnits="userSpaceOnUse">
<stop stop-color="#1D0833"/>
<stop offset="1" stop-color="#E55C68"/>
</linearGradient>
<linearGradient id="paint14_linear" x1="13.1516" y1="14.4296" x2="13.1645" y2="14.4271" gradientUnits="userSpaceOnUse">
<stop stop-color="#1D0833"/>
<stop offset="1" stop-color="#E55C68"/>
</linearGradient>
<linearGradient id="paint15_linear" x1="12.046" y1="14.8819" x2="12.0289" y2="14.8982" gradientUnits="userSpaceOnUse">
<stop stop-color="#1D0833"/>
<stop offset="0.585" stop-color="#923952"/>
<stop offset="1" stop-color="#E55C68"/>
</linearGradient>
<linearGradient id="paint16_linear" x1="12.5473" y1="17.0047" x2="12.7172" y2="15.2437" gradientUnits="userSpaceOnUse">
<stop stop-color="#1D0833"/>
<stop offset="1" stop-color="#15B3DE"/>
</linearGradient>
<linearGradient id="paint17_linear" x1="12.0088" y1="10.7954" x2="12.0517" y2="10.7954" gradientUnits="userSpaceOnUse">
<stop stop-color="#1D0833"/>
<stop offset="1" stop-color="#15B3DE"/>
</linearGradient>
<linearGradient id="paint18_linear" x1="12.0519" y1="10.8859" x2="12.0634" y2="10.8859" gradientUnits="userSpaceOnUse">
<stop stop-color="#1D0833"/>
<stop offset="1" stop-color="#15B3DE"/>
</linearGradient>
<linearGradient id="paint19_linear" x1="12.0088" y1="10.7954" x2="12.0517" y2="10.7954" gradientUnits="userSpaceOnUse">
<stop stop-color="#1D0833"/>
<stop offset="1" stop-color="#4A1B5B"/>
</linearGradient>
<linearGradient id="paint20_linear" x1="12.0519" y1="10.8859" x2="12.0634" y2="10.8859" gradientUnits="userSpaceOnUse">
<stop stop-color="#1D0833"/>
<stop offset="1" stop-color="#4A1B5B"/>
</linearGradient>
<linearGradient id="paint21_linear" x1="12.5781" y1="16.2025" x2="11.582" y2="14.6197" gradientUnits="userSpaceOnUse">
<stop stop-color="#1D0833"/>
<stop offset="1" stop-color="#15B3DE"/>
</linearGradient>
<linearGradient id="paint22_linear" x1="11.7321" y1="17.9179" x2="11.4566" y2="6.03273" gradientUnits="userSpaceOnUse">
<stop stop-color="#1D0833"/>
<stop offset="1" stop-color="#15B3DE"/>
</linearGradient>
<linearGradient id="paint23_linear" x1="10.1439" y1="7.07063" x2="10.1048" y2="6.76447" gradientUnits="userSpaceOnUse">
<stop stop-color="#1D0833"/>
<stop offset="1" stop-color="#15B3DE"/>
</linearGradient>
<linearGradient id="paint24_linear" x1="11.5921" y1="11.0115" x2="10.9731" y2="6.16384" gradientUnits="userSpaceOnUse">
<stop stop-color="#1D0833"/>
<stop offset="1" stop-color="#15B3DE"/>
</linearGradient>
<linearGradient id="paint25_linear" x1="11.4054" y1="7.64713" x2="11.0633" y2="4.96812" gradientUnits="userSpaceOnUse">
<stop stop-color="#1D0833"/>
<stop offset="1" stop-color="#15B3DE"/>
</linearGradient>
<linearGradient id="paint26_linear" x1="9.58155" y1="5.36983" x2="11.2974" y2="14.262" gradientUnits="userSpaceOnUse">
<stop stop-color="#1D0833"/>
<stop offset="1" stop-color="#15B3DE"/>
</linearGradient>
<linearGradient id="paint27_linear" x1="11.1084" y1="6.34142" x2="15.4796" y2="14.6051" gradientUnits="userSpaceOnUse">
<stop stop-color="#1D0833"/>
<stop offset="1" stop-color="#15B3DE"/>
</linearGradient>
<linearGradient id="paint28_linear" x1="14.0492" y1="12.8495" x2="5.3616" y2="-3.83064" gradientUnits="userSpaceOnUse">
<stop stop-color="#1D0833"/>
<stop offset="1" stop-color="#15B3DE"/>
</linearGradient>
<linearGradient id="paint29_linear" x1="11.0086" y1="5.08753" x2="11.5471" y2="6.1082" gradientUnits="userSpaceOnUse">
<stop stop-color="#1D0833"/>
<stop offset="1" stop-color="#4A1B5B"/>
</linearGradient>
<linearGradient id="paint30_linear" x1="11.1166" y1="2.53253" x2="11.2112" y2="1.61164" gradientUnits="userSpaceOnUse">
<stop stop-color="#1D0833"/>
<stop offset="1" stop-color="#4A1B5B"/>
</linearGradient>
<linearGradient id="paint31_linear" x1="11.0821" y1="2.60945" x2="11.3476" y2="6.01221" gradientUnits="userSpaceOnUse">
<stop stop-color="#1D0833"/>
<stop offset="1" stop-color="#E55C68"/>
</linearGradient>
<linearGradient id="paint32_linear" x1="10.5253" y1="4.54694" x2="12.1325" y2="3.36167" gradientUnits="userSpaceOnUse">
<stop stop-color="#1D0833"/>
<stop offset="1" stop-color="#E55C68"/>
</linearGradient>
<linearGradient id="paint33_linear" x1="8.46509" y1="2.47959" x2="10.2175" y2="3.02125" gradientUnits="userSpaceOnUse">
<stop stop-color="#1D0833"/>
<stop offset="1" stop-color="#4A1B5B"/>
</linearGradient>
<linearGradient id="paint34_linear" x1="12.1781" y1="2.30255" x2="13.5461" y2="2.3323" gradientUnits="userSpaceOnUse">
<stop stop-color="#1D0833"/>
<stop offset="1" stop-color="#4A1B5B"/>
</linearGradient>
<linearGradient id="paint35_linear" x1="10.182" y1="3.0058" x2="8.95447" y2="2.77425" gradientUnits="userSpaceOnUse">
<stop stop-color="#1D0833"/>
<stop offset="1" stop-color="#4A1B5B"/>
</linearGradient>
<linearGradient id="paint36_linear" x1="10.9499" y1="9.64589" x2="10.5876" y2="11.503" gradientUnits="userSpaceOnUse">
<stop stop-color="#1D0833"/>
<stop offset="1" stop-color="#15B3DE"/>
</linearGradient>
</defs>
</svg>
