<svg width="23" height="18" viewBox="0 0 23 18" fill="none" xmlns="http://www.w3.org/2000/svg">
<circle cx="11.25" cy="9" r="9" fill="#408CCB"/>
<path d="M8.24627 7.20875C8.43708 7.20875 8.58973 7.29462 8.65969 7.44091C8.68831 7.49497 9.26711 9.07871 9.95085 10.9582L9.97133 11.0145C10.6459 12.8685 11.2008 14.3833 11.2102 14.3896C11.2357 14.4151 11.2357 14.4151 11.4742 13.76C11.595 13.4197 11.9003 12.5896 12.1484 11.9154C12.3964 11.2412 12.7113 10.3826 12.848 10.0073C13.4936 8.23914 13.7671 7.49815 13.7957 7.44409C13.8752 7.2978 13.9897 7.22783 14.1773 7.21511C14.4063 7.19921 14.559 7.28826 14.6226 7.47907C14.6671 7.60628 14.6607 7.619 14.2632 8.70345C14.0406 9.30768 13.7067 10.2299 13.5159 10.7547C11.7922 15.5377 11.9035 15.2547 11.7 15.3564C11.6141 15.4009 11.5123 15.4137 11.2102 15.4137C10.7968 15.4105 10.66 15.3755 10.5774 15.2483C10.5519 15.207 10.3929 14.7967 10.2243 14.3324C10.0558 13.8681 9.77594 13.1048 9.60421 12.631C9.43248 12.1603 9.1558 11.4003 8.98725 10.9455C8.82188 10.4907 8.54838 9.74019 8.37983 9.27588C7.76924 7.60628 7.77242 7.619 7.871 7.43137C7.95051 7.27872 8.06818 7.20875 8.24627 7.20875ZM10.7364 5.466C11.242 5.20841 11.9003 5.3865 12.2088 5.86671C12.5841 6.45187 12.3551 7.22465 11.7222 7.51405C11.2611 7.72395 10.7077 7.60628 10.3706 7.22147C10.1894 7.01476 10.113 6.79215 10.113 6.46777C10.113 6.24833 10.1258 6.17837 10.2053 6.01618C10.3039 5.80629 10.5328 5.57095 10.7364 5.466ZM7.7597 5.38332C8.30669 3.24623 10.6569 2.11726 12.7113 3.00453C13.1215 3.17944 13.4236 3.39252 13.8053 3.77414C14.4349 4.40064 14.7879 5.16707 14.842 6.01618C14.8579 6.28014 14.8515 6.35328 14.807 6.43915C14.7434 6.56317 14.6098 6.63632 14.4445 6.63632C14.2028 6.63632 14.0565 6.43597 14.0565 6.10522C14.0565 5.88579 13.9611 5.46919 13.853 5.20841C13.5667 4.53421 12.9911 3.96177 12.3296 3.69463C11.9226 3.52926 11.6077 3.47838 11.118 3.49746C10.7809 3.51018 10.6505 3.52926 10.4311 3.59923C9.31163 3.96177 8.57383 4.84905 8.45616 5.9812C8.41164 6.42006 8.40528 6.44233 8.30033 6.54409C8.224 6.62042 8.18266 6.63632 8.05227 6.63632C7.86782 6.63632 7.7438 6.55681 7.67383 6.39144C7.61977 6.26105 7.66111 5.76176 7.7597 5.38332Z" fill="white"/>
</svg>
