<svg width="67" height="67" viewBox="0 0 67 67" fill="none" xmlns="http://www.w3.org/2000/svg">
<circle cx="33.0001" cy="33.0702" r="32.25" fill="#3A7BBF" stroke="#3167B5" stroke-width="1.5"/>
<circle cx="33.0001" cy="33.0702" r="27.5" fill="#E8F4FF"/>
<g clip-path="url(#clip0_89_2826)">
<path d="M30.7408 18.2787L32.3815 18.2787L32.3815 22.5306L30.7408 22.5306L30.7408 18.2787Z" fill="#39444F"/>
<path d="M34.0358 18.2787L35.6764 18.2787L35.6764 22.5306L34.0358 22.5306L34.0358 18.2787Z" fill="#39444F"/>
<path d="M30.7408 42.0267L32.3815 42.0267L32.3815 46.2787L30.7408 46.2787L30.7408 42.0267Z" fill="#39444F"/>
<path d="M34.0358 42.0267L35.6764 42.0267L35.6764 46.2787L34.0358 46.2787L34.0358 42.0267Z" fill="#39444F"/>
<path d="M43.0934 31.4584L47.2086 31.4584L47.2086 33.099L43.0934 33.099L43.0934 31.4584Z" fill="#39444F"/>
<path d="M19.2086 31.4584L23.3239 31.4584L23.3239 33.099L19.2086 33.099L19.2086 31.4584Z" fill="#39444F"/>
<path d="M19.2086 26.516L24.6466 26.516L24.6466 28.1566L19.2086 28.1566L19.2086 26.516Z" fill="#39444F"/>
<path d="M19.2086 36.4009L24.6466 36.4009L24.6466 38.0415L19.2086 38.0415L19.2086 36.4009Z" fill="#39444F"/>
<path d="M41.7706 26.516L47.2086 26.516L47.2086 28.1566L41.7706 28.1566L41.7706 26.516Z" fill="#39444F"/>
<path d="M41.7706 36.4008L47.2086 36.4008L47.2086 38.0414L41.7706 38.0414L41.7706 36.4008Z" fill="#39444F"/>
<path d="M28.0016 24.8198L25.7325 20.849L21.6488 20.849L21.6488 19.2084L26.6846 19.2084L29.426 24.0058L28.0016 24.8198Z" fill="#39444F"/>
<path d="M38.4157 24.8198L36.9912 24.0058L39.7326 19.2084L44.7684 19.2084L44.7684 20.849L40.6847 20.849L38.4157 24.8198Z" fill="#39444F"/>
<path d="M20.9586 21.7787C21.9251 21.7787 22.7086 20.9952 22.7086 20.0287C22.7086 19.0622 21.9251 18.2787 20.9586 18.2787C19.9921 18.2787 19.2086 19.0622 19.2086 20.0287C19.2086 20.9952 19.9921 21.7787 20.9586 21.7787Z" fill="#478CC8"/>
<path d="M26.6846 45.3491L21.6488 45.3491L21.6488 43.7084L25.7325 43.7084L28.0016 39.7377L29.426 40.5516L26.6846 45.3491Z" fill="#39444F"/>
<path d="M44.7684 45.3491L39.7326 45.3491L36.9912 40.5516L38.4157 39.7377L40.6847 43.7084L44.7684 43.7084L44.7684 45.3491Z" fill="#39444F"/>
<path d="M45.4586 21.7787C46.4251 21.7787 47.2086 20.9952 47.2086 20.0287C47.2086 19.0622 46.4251 18.2787 45.4586 18.2787C44.4921 18.2787 43.7086 19.0622 43.7086 20.0287C43.7086 20.9952 44.4921 21.7787 45.4586 21.7787Z" fill="#478CC8"/>
<path d="M20.9586 46.2787C21.9251 46.2787 22.7086 45.4952 22.7086 44.5287C22.7086 43.5622 21.9251 42.7787 20.9586 42.7787C19.9921 42.7787 19.2086 43.5622 19.2086 44.5287C19.2086 45.4952 19.9921 46.2787 20.9586 46.2787Z" fill="#478CC8"/>
<path d="M33.2086 42.7787C39.0076 42.7787 43.7086 38.0777 43.7086 32.2787C43.7086 26.4797 39.0076 21.7787 33.2086 21.7787C27.4096 21.7787 22.7086 26.4797 22.7086 32.2787C22.7086 38.0777 27.4096 42.7787 33.2086 42.7787Z" fill="#E8F4FF"/>
<path d="M34.8547 28.9843L32.3883 28.9843L32.3883 35.573L34.0289 35.573L34.0289 33.9225L34.8547 33.9225C36.2164 33.9225 37.3239 32.8146 37.3239 31.4534C37.3239 30.0917 36.2164 28.9843 34.8547 28.9843ZM34.8547 32.2819L34.0289 32.2819L34.0289 30.6249L34.8547 30.6249C35.3114 30.6249 35.6832 30.9962 35.6832 31.4534C35.6832 31.91 35.3114 32.2819 34.8547 32.2819Z" fill="#478CC8"/>
<path d="M28.5944 28.9843C27.2336 28.9843 26.1266 30.0913 26.1266 31.452L26.1266 35.5733L27.7672 35.5733L27.7672 33.9225L29.4215 33.9225L29.4215 35.5737L31.0621 35.5737L31.0621 31.452C31.0621 30.0913 29.9551 28.9843 28.5944 28.9843ZM27.7672 32.2819L27.7672 31.452C27.7672 30.9959 28.1383 30.6249 28.5944 30.6249C29.0505 30.6249 29.4215 30.9959 29.4215 31.452L29.4215 32.2819L27.7672 32.2819Z" fill="#478CC8"/>
<path d="M38.3962 28.9838L40.0369 28.9838L40.0369 35.5736L38.3962 35.5736L38.3962 28.9838Z" fill="#478CC8"/>
<path d="M45.4586 46.2787C46.4251 46.2787 47.2086 45.4952 47.2086 44.5287C47.2086 43.5622 46.4251 42.7787 45.4586 42.7787C44.4921 42.7787 43.7086 43.5622 43.7086 44.5287C43.7086 45.4952 44.4921 46.2787 45.4586 46.2787Z" fill="#478CC8"/>
</g>
<defs>
<clipPath id="clip0_89_2826">
<rect width="28" height="28" fill="white" transform="translate(19.2086 18.2787)"/>
</clipPath>
</defs>
</svg>
