<svg width="67" height="67" viewBox="0 0 67 67" fill="none" xmlns="http://www.w3.org/2000/svg">
<circle cx="33" cy="33.0702" r="32.25" fill="#3A7BBF" stroke="#3167B5" stroke-width="1.5"/>
<circle cx="33" cy="33.0702" r="27.5" fill="#E8F4FF"/>
<g clip-path="url(#clip0_89_2756)">
<path d="M47.1726 45.7085L43.1378 35.941C43.0744 35.7874 42.9255 35.6874 42.7604 35.6874H23.6568C23.4917 35.6874 23.3428 35.7875 23.2794 35.941L19.2446 45.7085C19.192 45.8356 19.206 45.9808 19.2819 46.0953C19.3578 46.2099 19.4853 46.2787 19.622 46.2787H46.7952C46.9318 46.2787 47.0595 46.2099 47.1353 46.0953C47.2112 45.9809 47.2251 45.8357 47.1726 45.7085Z" fill="#478CC8"/>
<path d="M25.9439 39.3712L27.3361 35.6782H23.6306C23.4655 35.6782 23.3166 35.7783 23.2532 35.9318L21.8324 39.3712H25.9439Z" fill="#5D9628"/>
<path d="M42.7341 35.6783H29.8674L33.6203 38.9508H44.3586L43.1115 35.932C43.0481 35.7785 42.8992 35.6783 42.7341 35.6783Z" fill="#5D9628"/>
<path d="M44.4551 39.1841L44.5324 39.3712L44.4551 39.1841Z" fill="#4CE166"/>
<path d="M45.5999 41.9544L44.3592 38.9507H33.6208L29.868 35.6782H27.3505H27.0302L25.6717 38.9498H22.0071L21.1839 40.9424L20.7659 41.9544H24.4344L22.652 46.2696H25.9868L28.8497 39.26L37.1056 46.2696H41.9798L37.0457 41.9544H45.5999Z" fill="#FFEAB8"/>
<path d="M33.1826 18.2787C28.3137 18.2787 24.3525 22.2696 24.3525 27.1751C24.3525 28.8663 24.8093 30.6605 25.7103 32.508C26.4232 33.97 27.4151 35.4699 28.6585 36.9661C30.7679 39.5044 32.845 41.1341 32.9324 41.2023C33.0061 41.2597 33.0943 41.2883 33.1826 41.2883C33.2709 41.2883 33.3591 41.2596 33.4328 41.2023C33.5202 41.1341 35.5973 39.5044 37.7067 36.9661C38.9501 35.4699 39.9421 33.97 40.6549 32.508C41.5559 30.6605 42.0127 28.8663 42.0127 27.1751C42.0127 22.2696 38.0515 18.2787 33.1826 18.2787ZM33.1826 23.7911C35.0376 23.7911 36.5414 25.3062 36.5414 27.1751C36.5414 29.0441 35.0376 30.5592 33.1826 30.5592C31.3276 30.5592 29.8238 29.0441 29.8238 27.1751C29.8238 25.3062 31.3276 23.7911 33.1826 23.7911Z" fill="#485D66"/>
<path d="M25.9868 46.2696H37.1057L28.8497 39.26L25.9868 46.2696Z" fill="#5D9628"/>
</g>
<defs>
<clipPath id="clip0_89_2756">
<rect width="28" height="28" fill="white" transform="translate(19.2085 18.2787)"/>
</clipPath>
</defs>
</svg>
