<svg width="90" height="90" viewBox="0 0 90 90" fill="none" xmlns="http://www.w3.org/2000/svg">
<circle cx="44.7153" cy="44.8812" r="43.25" fill="#3A7BBF" stroke="#3167B5" stroke-width="1.5"/>
<circle cx="44.7154" cy="44.8811" r="37.4977" fill="#E8F4FF"/>
<mask id="mask0_89_2812" style="mask-type:alpha" maskUnits="userSpaceOnUse" x="37" y="31" width="26" height="29">
<path fill-rule="evenodd" clip-rule="evenodd" d="M62.9933 45.1594V31.1594H37.3976V45.1594V59.1593H62.9933V45.1594Z" fill="white"/>
</mask>
<g mask="url(#mask0_89_2812)">
<path fill-rule="evenodd" clip-rule="evenodd" d="M46.9014 31.1609C46.8781 31.1601 46.8541 31.1593 46.8301 31.1593H46.8285H46.8261H38.9742C38.1027 31.1593 37.3976 31.8752 37.3976 32.7591C37.3976 33.647 38.1003 34.3558 38.9686 34.359V55.9599C38.0995 55.9623 37.3976 56.6774 37.3976 57.5597C37.3976 58.4492 38.1035 59.1595 38.9742 59.1595H46.8261H46.8293H46.8301C52.8557 59.1595 62.9933 56.799 62.9933 44.8914C62.9933 32.9839 52.6756 31.1609 47.0846 31.1609H46.9014ZM46.9555 34.3548C46.9131 34.3588 46.869 34.3604 46.8258 34.3604L45.3965 34.3636V55.9613H45.3324C45.7782 55.9437 46.276 55.9349 46.8298 55.9349C52.2536 55.9349 56.5385 50.1755 56.3928 44.6217C56.26 39.5303 52.2352 34.438 46.9555 34.3548Z" fill="#99C85B"/>
</g>
<path fill-rule="evenodd" clip-rule="evenodd" d="M37.4079 55.2676V51.5408C37.3487 51.5424 37.2919 51.5496 37.2319 51.5496C33.624 51.5496 30.6989 48.7395 30.6989 45.2735C30.6989 41.8067 33.624 38.9966 37.2319 38.9966C37.2919 38.9966 37.3487 39.0038 37.4079 39.0054V35.2698C37.4071 35.2698 37.4063 35.2698 37.4055 35.2698C36.7333 35.2698 36.0746 35.3314 35.4368 35.449L35.2143 35.9177C34.7101 36.9792 33.3871 37.4919 32.2579 37.0656L31.7497 36.8728C30.5668 37.6095 29.5496 38.5702 28.7629 39.6933L28.9542 40.1845C29.3792 41.2771 28.8205 42.5394 27.7081 43.0041L27.2159 43.2105C27.0694 43.8761 26.9934 44.5664 26.9934 45.2735C26.9934 45.9494 27.063 46.6094 27.1959 47.2477L27.6681 47.4541C28.7725 47.938 29.3071 49.2091 28.8621 50.2946L28.6813 50.7353C29.4616 51.884 30.482 52.8687 31.6729 53.6246L32.109 53.4686C33.2463 53.0599 34.5596 53.5966 35.0438 54.6653L35.2207 55.0557C35.9257 55.2004 36.6564 55.2764 37.4055 55.2764C37.4672 55.2764 37.5264 55.2684 37.5872 55.2676H37.4079ZM37.2318 41.6057C37.2927 41.6057 37.3495 41.6169 37.4079 41.6225V40.2802C37.3487 40.2778 37.2919 40.2714 37.2318 40.2714C34.3571 40.2714 32.0258 42.5112 32.0258 45.2733C32.0258 47.4514 33.4751 49.304 35.4967 49.9904V45.9396H37.4079V44.9229C37.3495 44.9285 37.2927 44.9397 37.2318 44.9397C36.2739 44.9397 35.4967 44.1934 35.4967 43.2727C35.4967 42.352 36.2739 41.6057 37.2318 41.6057Z" fill="#394042"/>
</svg>
