<svg width="89" height="90" viewBox="0 0 89 90" fill="none" xmlns="http://www.w3.org/2000/svg">
<path d="M87.3958 44.8812C87.3958 68.7675 68.0321 88.1312 44.1458 88.1312C20.2594 88.1312 0.895752 68.7675 0.895752 44.8812C0.895752 20.9949 20.2594 1.63123 44.1458 1.63123C68.0321 1.63123 87.3958 20.9949 87.3958 44.8812Z" fill="#3A7BBF" stroke="#3167B5" stroke-width="1.5"/>
<circle cx="44.1458" cy="44.8813" r="37.4977" fill="#E8F4FF"/>
<path d="M27.4786 62.1594L46.6036 62.1594C47.1862 62.1594 47.6583 61.6873 47.6583 61.1047L47.6583 59.9797C47.6583 58.8146 46.714 57.8704 45.5489 57.8704L45.5489 56.6094C45.5489 54.9398 44.1905 53.5813 42.5208 53.5813L31.5614 53.5813C29.8918 53.5813 28.5333 54.9398 28.5333 56.6094L28.5333 57.8704C27.3682 57.8704 26.424 58.8146 26.424 59.9797L26.424 61.1047C26.424 61.687 26.8964 62.1594 27.4786 62.1594Z" fill="#82635A"/>
<path d="M39.6237 49.3866C40.3246 50.3169 41.6474 50.5028 42.5776 49.8016C43.5082 49.1007 43.6938 47.7779 42.9929 46.8474L36.6456 38.4244C35.9444 37.4939 34.6219 37.3082 33.6916 38.0092C32.7611 38.7104 32.5752 40.0328 33.2764 40.9634L39.6237 49.3866Z" fill="#394042"/>
<path d="M54.7851 37.9615C55.4863 38.8918 56.8088 39.0777 57.7393 38.3765C58.6696 37.6756 58.8555 36.3531 58.1543 35.4226L51.807 26.9996C51.106 26.0691 49.7833 25.8831 48.853 26.5843C47.9227 27.2855 47.7368 28.608 48.438 29.5386L54.7851 37.9615Z" fill="#394042"/>
<path d="M50.1588 44.089C51.7178 42.9143 52.8881 41.4556 53.62 39.9197L46.2345 30.1188C44.5563 30.3992 42.8318 31.1218 41.2725 32.2968C39.7136 33.4715 38.5432 34.9302 37.8113 36.4658L45.1968 46.2673C46.875 45.9869 48.5996 45.264 50.1588 44.089Z" fill="#EEAB44"/>
<path d="M53.007 44.3636C52.5159 44.8641 51.9987 45.3439 51.4286 45.7737C50.8581 46.2033 50.2541 46.5683 49.6381 46.9026L51.0133 48.7277L54.3825 46.189L53.007 44.3636Z" fill="#394042"/>
<path d="M55.6516 47.8735L52.2823 50.4122L58.6297 58.8354C59.3309 59.766 60.6534 59.9517 61.5837 59.2507C62.5142 58.5495 62.6999 57.227 61.999 56.2965L55.6516 47.8735Z" fill="#394042"/>
</svg>

