<svg xmlns="http://www.w3.org/2000/svg" xmlns:xlink="http://www.w3.org/1999/xlink" width="160" height="160" fill="none"><g clip-path="url(#F)"><path d="M94 26.5h39.6v80.73a1.17 1.17 0 0 1-1.17 1.17H95.17a1.17 1.17 0 0 1-1.17-1.17V26.5z" class="C D"/><g fill="#232729"><path d="M117.4 108.4h-7.2V202h7.2v-93.6z"/><path d="M122.8 108.4h-18v2.7h18v-2.7z"/></g><g class="C"><path d="M94 26.5l3.393-2.25h32.12l4.086 2.25v80.73a1.17 1.17 0 0 1-1.17 1.17H95.17a1.17 1.17 0 0 1-1.17-1.17V26.5z" fill="#394042"/><path d="M100.988 22h24.46l8.153 4.5H94l6.988-4.5z" fill="#232729"/></g><g filter="url(#E)"><use xlink:href="#G" fill="#000"/></g><use xlink:href="#G" fill="#64b82a"/><path d="M117.64 87.694v.001a.9.9 0 0 1 .002 1.272l-4.16 4.177a.9.9 0 0 1-1.217.054l-2.208-1.857c-.364-.307-.41-.85-.105-1.215l.025-.028.032-.035a.9.9 0 0 1 1.235-.087l1.245 1.022a.45.45 0 0 0 .604-.03l3.274-3.275a.9.9 0 0 1 1.273 0z" class="B C"/><mask id="A" mask-type="alpha" maskUnits="userSpaceOnUse" x="103" y="33" width="21" height="21"><path d="M113.8 53.5a9.9 9.9 0 1 0 0-19.8 9.9 9.9 0 1 0 0 19.8z" class="B"/></mask><g mask="url(#A)"><path d="M113.8 53.5a9.9 9.9 0 1 0 0-19.8 9.9 9.9 0 1 0 0 19.8z" fill="#d0021b"/><path d="M115.708 40.444a.9.9 0 1 1 1.273 1.273l-1.9 1.91 1.9 1.91a.9.9 0 1 1-1.273 1.273l-1.91-1.91-1.9 1.91a.9.9 0 0 1-1.272 0 .9.9 0 0 1 0-1.273l1.91-1.91-1.91-1.91a.9.9 0 0 1 0-1.273.9.9 0 0 1 1.272 0l1.9 1.91 1.91-1.91z" class="B C"/></g><mask id="B" mask-type="alpha" maskUnits="userSpaceOnUse" x="103" y="33" width="21" height="12"><use xlink:href="#H" class="B"/></mask><g mask="url(#B)" class="D"><use xlink:href="#H" opacity=".2"/></g><mask id="C" mask-type="alpha" maskUnits="userSpaceOnUse" x="103" y="57" width="21" height="20"><path d="M113.8 76.9a9.9 9.9 0 0 0 0-19.8 9.9 9.9 0 0 0 0 19.8z" class="B"/></mask><g mask="url(#C)"><path d="M113.8 76.9a9.9 9.9 0 0 0 0-19.8 9.9 9.9 0 0 0 0 19.8z" fill="#e6ba4d"/><path d="M113.73 62.5c2.34 0 2.784 1.723 2.784 2.53 0 2.16-1.8 2.24-1.8 3.77h-1.8c0-2.34 1.8-1.877 1.8-3.77 0-.358-.18-1.18-.9-1.18-.27 0-.9.09-.9 1.35h-1.8s-.355-2.7 2.616-2.7zm-.816 8.1a.9.9 0 0 1 1.8 0 .9.9 0 1 1-1.8 0z" class="B C"/></g><mask id="D" mask-type="alpha" maskUnits="userSpaceOnUse" x="103" y="57" width="21" height="12"><use xlink:href="#I" class="B"/></mask><g mask="url(#D)" class="D"><use xlink:href="#I" opacity=".2"/></g></g><defs><filter id="E" x="96.9" y="73.5" width="33.8" height="33.8" filterUnits="userSpaceOnUse" color-interpolation-filters="sRGB"><feFlood flood-opacity="0" result="A"/><feColorMatrix in="SourceAlpha" values="0 0 0 0 0 0 0 0 0 0 0 0 0 0 0 0 0 0 127 0"/><feOffset/><feGaussianBlur stdDeviation="3.5"/><feColorMatrix values="0 0 0 0 0.392157 0 0 0 0 0.721569 0 0 0 0 0.164706 0 0 0 1 0"/><feBlend in2="A"/><feBlend in="SourceGraphic"/></filter><clipPath id="F"><path d="M0 0h160v160H0z" class="B"/></clipPath><path id="G" d="M113.8 100.3a9.9 9.9 0 0 0 0-19.8 9.9 9.9 0 0 0 0 19.8z"/><path id="H" d="M103.99 44.95a10.02 10.02 0 0 1-.091-1.35 9.9 9.9 0 0 1 19.8 0 10.02 10.02 0 0 1-.091 1.35c-.66-4.83-4.8-8.55-9.81-8.55s-9.15 3.72-9.81 8.55z"/><path id="I" d="M103.99 68.35A10.02 10.02 0 0 1 103.9 67a9.9 9.9 0 0 1 19.8 0 10.02 10.02 0 0 1-.091 1.35c-.66-4.83-4.8-8.55-9.81-8.55s-9.15 3.72-9.81 8.55z"/></defs></svg>