<svg xmlns="http://www.w3.org/2000/svg" xmlns:xlink="http://www.w3.org/1999/xlink" width="160" height="160" fill="none"><g clip-path="url(#A)"><path d="M107.253 83.438L74.567 99.22l.12 1.244 35.23 17.495 32.714-16.804-35.376-17.716z" class="N"/><path d="M142.104 98.077l.055-1.308-36.39-17.393-.093 1.336.387.194.203.1v2.828l-1.262-.627.046 1.4.258.12 36.436 17.77.71-1.068-1.62-.72.175-3.15 1.096.507zm-30.862-14.713l10.226 4.873-.092 3.095-10.143-5.04v-2.93h.01zm24.7 15.2l-9.462-4.698v-3.243l9.554 4.55-.092 3.4z" class="O"/><path d="M75.267 95.737V94.53l30.54-15.164 7.757 3.73-.147 1.234L82.572 99.22l-7.306-3.482z" class="E"/><path d="M75.267 94.53l30.54-15.164 7.757 3.73-30.98 15.136-7.315-3.703z" class="B"/><path d="M84.23 100.076l.175-.912 31.672-14.61 7.527 3.344v1.07L91.71 103.853l-7.48-3.777z" class="E"/><path d="M84.406 99.164l31.498-15.035 7.702 3.768-31.885 14.97-7.315-3.704z" class="B"/><path d="M93.618 104.7l.175-.903L125.678 88.8l7.36 3.61V93.5l-31.93 14.988-7.5-3.777z" class="E"/><path d="M93.793 103.807L125.678 88.8l7.36 3.61-31.922 15.09-7.324-3.695z" class="B"/><path d="M102.987 109.344l.175-.912 34.124-14.114 5.343 2.46v1.373l-32.16 14.97-7.48-3.777z" class="C"/><path d="M103.162 108.432l32.54-14.814 6.928 3.16-32.152 15.357-7.315-3.703z" class="B"/><g class="G"><path d="M75.8 100.058l4.864 2.45v-3.6l-4.864-2.93v4.1zm14.76 7.37l4.975 2.533v-3.63l-4.864-2.92-.1 4.017zm14.316 2.976l-.1 4.025 4.763 2.285.203-3.897-4.855-2.413z"/></g><g class="C"><path d="M75.267 100.058v-4.1l4.864 2.93v3.6l-4.864-2.45zm14.75 7.37l.1-4.017L95 106.01v3.952l-4.975-2.533zm14.206 7.002l.1-4.025 4.855 2.413-.202 3.897-4.763-2.285z"/></g><g class="P"><path d="M74.567 99.035l-.083 1.327 35.43 17.596v-1.032l-35.348-17.9zm.21-4.072l-.092 1.327.378.194 35.192 17.08.055-1.013-35.533-17.587z"/></g><path d="M74.778 94.963l.488-.166 35.2 17.338-.166.415-35.533-17.587z" class="C"/><path d="M75.267 98.676l35.2 17.983-.562.267-35.348-17.89.7-.36z" class="Q"/><path d="M109.915 116.926l32.714-15.772v.986l-32.714 15.818v-1.032z" class="C"/><path d="M110.31 112.55l32.318-15.43v1.032l-32.373 15.412.055-1.013z" class="G"/><path opacity=".2" d="M115.84 155.812l10.493 1.6 16.73-8.02 1.272-1.446 64.654-31.857-90.394-42.682-75.36 46.367 72.605 36.04z" fill="#2d2d2d" class="D"/><path d="M146.93 103.476l-33.92 16.582-.028 1.16 36.72 18.232 34.096-17.513-36.87-18.462z" class="N"/><path d="M183.625 118.898v-1.428L146.7 99.146l-.138 2 .645.295-.23 2.902-1.3-.608-.1 1.41 37.3 18.186.535-1.207-.903-.396v-3.132l1.096.304zm-32.53-15.496l10.66 5.085-.093 3.225-10.566-5.26v-3.05zm25.73 15.846l-9.857-4.9v-3.38l9.96 4.744-.102 3.538z" class="O"/><path d="M113.59 116.3v-1.253l33.1-15.89 7.564 3.758-.102 1.3L121.2 119.92l-7.62-3.63z" class="E"/><path d="M113.59 115.037l33.1-16.066 7.462 3.887-32.944 16.04-7.628-3.86z" class="B"/><path d="M122.933 120.814l.184-.95 33.432-15.818 7.74 3.85v1.17l-33.56 15.68-7.794-3.934z" class="E"/><path d="M123.117 119.865l33.267-15.9 7.904 3.934-33.552 15.827-7.62-3.86z" class="B"/><path d="M132.726 125.65l.175-.95 33.23-15.633 7.922 3.685v1.188l-33.533 15.643-7.794-3.934z" class="E"/><path d="M132.9 124.7l33.478-15.772 7.674 3.824-33.524 15.808-7.628-3.86z" class="B"/><path d="M142.49 130.47l.184-.94 34.133-15.45 6.817 3.38v1.438l-33.34 15.504-7.794-3.933z" class="C"/><path d="M142.675 129.53l34.133-15.45 6.817 3.38-33.33 15.93-7.62-3.86z" class="B"/><g class="G"><path d="M114.162 120.795l5.067 2.552v-3.768l-5.067-3.05v4.265zm15.368 7.685l5.187 2.634v-3.777l-5.067-3.05-.12 4.192zm14.923 3.103l-.12 4.192 4.974 2.386.212-4.063-5.067-2.515z"/></g><g class="C"><path d="M113.6 120.795v-4.265l5.067 3.05v3.768l-5.058-2.552zm15.367 7.685l.12-4.192 5.067 2.708v4.118l-5.187-2.634zm14.805 7.295l.1-4.192 5.067 2.515-.212 4.063-4.965-2.386z"/></g><g class="P"><path d="M112.78 120.058v1.06l36.924 18.333v-1.07l-36.924-18.324zm.304-4.568l-.073 1.06 37.053 18.324.055-1.06-37.035-18.324z"/></g><path d="M113.084 115.49l.507-.175 36.703 18.075-.175.424-37.035-18.324z" class="C"/><path d="M113.38 119.773l36.915 18.324-.59.285-36.925-18.324.6-.285z" class="Q"/><path d="M149.704 138.382l34.096-16.444v1.032l-34.096 16.48v-1.07z" class="C"/><path d="M150.12 133.813l33.506-16.002v1.087l-33.56 15.974.055-1.06z" class="G"/><path d="M149.336 137.618l33.515-16.16.95.48-33.386 16.223-.894-.45-.184-.092z" fill="#bc915c"/><path d="M76.16 101.523l-34.077 16.444.13 1.3 36.712 18.223 34.096-17.504-36.86-18.462z" class="N"/><path d="M112.476 116.77l.056-1.363-37.93-18.13-.1 1.39.405.194.212.1v2.948l-1.317-.655.046 1.465.267.13 37.993 18.527.737-1.115-1.695-.755.175-3.28 1.15.543zm-32.16-15.33l10.66 5.085-.092 3.224-10.567-5.25v-3.058zm25.73 15.845l-9.858-4.9v-3.38l9.96 4.745-.1 3.537z" class="O"/><path d="M42.81 114.337v-1.253l31.83-15.808 8.09 3.887-.147 1.28-32.152 15.523-7.62-3.63z" class="E"/><path d="M42.81 113.084l31.83-15.808 8.09 3.887-32.3 15.772-7.628-3.85z" class="B"/><path d="M52.152 118.86l.184-.95 33.018-15.238 7.84 3.492v1.105l-33.24 15.523-7.803-3.933z" class="E"/><path d="M52.337 117.912l32.834-15.68 8.024 3.934-33.23 15.606-7.628-3.86z" class="B"/><path d="M61.945 123.697l.175-.95 33.23-15.643 7.683 3.76v1.143l-33.285 15.615-7.803-3.925z" class="E"/><path d="M62.12 122.748l33.23-15.643 7.683 3.76L69.758 126.6l-7.637-3.85z" class="B"/><path d="M71.71 128.515l.184-.94 35.56-14.722 5.564 2.57v1.428L79.505 132.45l-7.794-3.934z" class="C"/><path d="M71.895 127.576l33.91-15.45 7.214 3.298-33.506 16.003-7.62-3.85z" class="B"/><g class="G"><path d="M43.382 118.842l5.067 2.552v-3.768l-5.067-3.05v4.265zm15.376 7.683l5.187 2.635v-3.777l-5.076-3.05-.1 4.2zm14.915 3.095l-.1 4.2 4.966 2.377.212-4.054-5.067-2.524z"/></g><g class="C"><path d="M42.82 118.842l-.01-4.265 5.076 3.05v3.768l-5.067-2.552zm15.367 7.683l.12-4.2 5.067 2.708v4.118l-5.187-2.635zM73 133.822l.12-4.2 5.058 2.524-.212 4.054L73 133.823z"/></g><g class="P"><path d="M42.083 117.774L42 119.156l36.924 18.333v-1.06l-36.84-18.655zm.22-4.238l-.092 1.382.396.193 36.675 17.808.055-1.06-37.035-18.324z"/></g><path d="M42.304 113.536l.507-.175 36.703 18.066-.175.433-37.035-18.324z" class="C"/><path d="M42.82 117.405l36.694 18.738-.6.286-36.84-18.655.737-.37z" class="Q"/><path d="M78.924 136.43l34.096-16.444v1.022L78.924 137.49v-1.06z" class="C"/><path d="M79.34 131.86l33.68-16.086v1.078L79.283 132.92l.055-1.06z" class="G"/><path d="M113.075 119.837l-33.92 16.592-.028 1.16 36.712 18.222 34.105-17.504-36.87-18.47z" class="N"/><path d="M149.76 135.26v-1.428l-36.915-18.324-.138 2 .644.295-.23 2.902-1.3-.608-.1 1.4 37.302 18.185.534-1.206-.903-.397v-3.132l1.097.304zm-32.52-15.495l10.66 5.085-.092 3.224-10.567-5.26v-3.05zm25.722 15.845l-9.858-4.9v-3.38l9.96 4.745-.1 3.537z" class="O"/><path d="M79.735 132.66v-1.253l33.1-15.9 7.563 3.768-.1 1.28-32.953 15.726-7.62-3.62z" class="E"/><path d="M79.735 131.408l33.1-16.066 7.462 3.878-32.944 16.04-7.628-3.85z" class="B"/><path d="M89.076 137.185l.184-.95 33.432-15.828 7.74 3.85v1.17l-33.562 15.69-7.794-3.933z" class="E"/><path d="M89.26 136.236l33.266-15.91 7.905 3.934-33.553 15.827-7.62-3.85z" class="B"/><path d="M98.86 142.012l.184-.95 33.23-15.634 7.923 3.694v1.18l-33.534 15.643-7.803-3.934z" class="E"/><path d="M99.044 141.063l33.47-15.763 7.683 3.824-33.525 15.8-7.628-3.86z" class="B"/><path d="M108.625 146.84l.185-.948 34.142-15.44 6.808 3.38v1.428l-33.332 15.514-7.803-3.934z" class="C"/><path d="M108.8 145.89l34.142-15.44 6.808 3.38-33.322 15.92-7.628-3.86z" class="B"/><g class="G"><path d="M80.306 137.157l5.067 2.56v-3.768l-5.076-3.058.01 4.265zm15.367 7.683l5.186 2.644v-3.777l-5.067-3.06-.12 4.192zm14.924 3.105l-.12 4.2 4.966 2.377.212-4.063-5.058-2.515z"/></g><g class="C"><path d="M79.735 137.157v-4.265l5.067 3.058v3.768l-5.067-2.56zM95.1 144.84l.1-4.192 5.076 2.718v4.118L95.1 144.84zm14.805 7.306l.1-4.2 5.067 2.515-.212 4.063-4.966-2.377z"/></g><g class="P"><path d="M78.924 136.43l-.01 1.05 36.924 18.334v-1.07L78.924 136.43zm.304-4.58l-.074 1.068 37.044 18.315.056-1.05-37.026-18.333z"/></g><path d="M79.228 131.85l.507-.165 36.703 18.065-.185.433-37.025-18.333z" class="C"/><path d="M79.514 136.144l36.924 18.314-.6.286-36.915-18.315.6-.285z" class="Q"/><path d="M115.84 154.744l34.105-16.435v1.022l-34.105 16.482v-1.07z" class="C"/><path d="M116.253 150.183l33.507-16.002v1.078l-33.562 15.975.055-1.05z" class="G"/><path d="M115.47 153.98l33.516-16.15.958.48-33.386 16.215-1.088-.544z" fill="#bc915c"/><path d="M126.332 146.35v2.7l.617.34 10.005-4.892v-3.335l-10.622 5.187z" class="G"/><path d="M126.95 146.12v3.27l10.623-5.122v-3.335l-10.623 5.187z" fill="#aa7f41"/><g class="D"><path d="M104.047 107.437l26.578-13.202V63.078l-26.578 13.533v30.825z" class="F"/><path d="M104.047 77.957l26.578-13.57v-1.308l-26.578 13.533v1.345z" class="M"/></g><path d="M130.625 63.08L109.29 52.152 82.72 65.75l21.327 10.862 26.578-13.533z" class="I"/><path d="M104.047 107.437L82.72 96.566V65.75l21.327 10.862v30.825z" class="R"/><path d="M104.047 106.654L82.72 95.72V67.252l21.327 10.705v28.697z" class="J"/><g class="D"><path d="M95.055 59.43l20.277 11.442 4.128-2.1-20.416-11.368-3.99 2.036z" class="H"/><path d="M115.332 70.872V86.59l4.128-1.833V68.763l-4.128 2.1z" class="S"/><path d="M115.332 72.183l4.128-2.1v-1.322l-4.128 2.1v1.31z" class="T"/></g><path d="M92.282 84.765l-7.674-3.934V70.596l7.674 3.85v10.318z" class="K"/><g class="L"><path d="M91.472 76.28l-5.63-2.755.01-.562 5.62 2.755v.562zm0 1.52l-5.63-2.764.01-.562 5.62 2.764v.562zm0 5.196l-5.63-2.755.01-.562 5.62 2.755v.562z"/></g><g class="D"><path d="M127.4 118.934l26.57-13.2V74.576L127.4 88.11v30.825z" class="F"/><path d="M127.4 89.454l26.57-13.58v-1.3L127.4 88.11v1.345z" class="M"/></g><path d="M153.97 74.576L132.643 63.65l-26.58 13.59L127.4 88.11l26.57-13.533z" class="I"/><path d="M127.4 118.935l-21.337-10.87V77.238L127.4 88.11v30.826z" class="R"/><path d="M127.4 118.15l-21.337-10.935V78.75L127.4 89.454v28.697z" class="J"/><g class="D"><path d="M118.41 70.928l20.268 11.433 4.136-2.1-20.415-11.378-3.99 2.045z" class="H"/><path d="M138.677 82.36v15.726l4.136-1.843V80.26l-4.136 2.1z" class="S"/><path d="M138.677 83.67l4.136-2.09V80.26l-4.136 2.1v1.308z" class="T"/></g><path d="M115.627 96.253l-7.665-3.925V82.084l7.665 3.85v10.318z" class="K"/><g class="L"><path d="M114.816 87.778l-5.63-2.755.02-.562 5.6 2.755v.562zm0 1.5l-5.63-2.755.02-.562 5.6 2.755v.562zm0 5.206l-5.63-2.764.02-.562 5.6 2.764v.562z"/></g><g class="D"><path d="M150.736 130.7l26.57-13.193V86.34l-26.57 13.533V130.7z" class="F"/><path d="M150.736 101.22l26.57-13.58v-1.3l-26.57 13.533v1.345z" class="M"/></g><path d="M177.305 86.34L155.97 75.405 129.4 89.003l21.336 10.87 26.57-13.533z" class="I"/><g class="D"><path d="M150.736 130.7L129.4 119.828V89.003l21.336 10.87V130.7z" class="F"/><path d="M150.736 129.907L129.4 118.98V90.504l21.336 10.715v28.688z" class="J"/><path d="M141.745 82.692l20.268 11.433 4.136-2.1-20.415-11.377-3.99 2.045z" class="H"/></g><path d="M138.963 108.017l-7.665-3.924V93.848l7.665 3.85v10.318z" class="K"/><g class="L"><use xlink:href="#B"/><path d="M138.152 101.053l-5.63-2.764.018-.562 5.6 2.764v.562zm0 5.205l-5.63-2.764.018-.562 5.6 2.764v.562z"/></g><g class="D"><path d="M70.227 122.988l26.57-13.202V78.63l-26.57 13.533v30.825z" class="F"/><path d="M70.227 93.508l26.57-13.57V78.63l-26.57 13.533v1.345z" class="M"/></g><path d="M96.797 78.63L75.47 67.703 48.89 81.292l21.336 10.87 26.57-13.533z" class="I"/><g class="D"><path d="M70.227 122.988l-21.336-10.87V81.292l21.336 10.87v30.825z" class="F"/><path d="M70.227 122.205L48.89 111.27V82.803l21.336 10.705v28.698z" class="J"/><g class="H"><path d="M61.236 74.98l20.268 11.442 4.136-2.1-20.415-11.368-3.99 2.036z"/></g></g><path d="M81.504 86.423v15.717l4.136-1.843V84.314l-4.136 2.1z" class="H"/><path d="M58.454 100.306l-7.665-3.924V86.147l7.665 3.85v10.308z" class="K"/><g class="L"><path d="M57.643 91.83l-5.63-2.754.018-.562 5.6 2.755v.562zm0 1.512l-5.63-2.754.018-.562 5.6 2.755v.562zm0 5.205l-5.63-2.764.018-.562 5.6 2.764v.562z"/></g><g class="F"><path d="M93.572 134.485l26.578-13.2V90.127L93.572 103.65v30.834z" class="D"/><path d="M93.572 105.005l26.578-13.58v-1.3L93.572 103.65v1.354z"/></g><path d="M120.15 90.127L98.814 79.19 72.245 92.79l21.327 10.862 26.578-13.525z" class="I"/><g class="D"><path d="M93.572 134.485l-21.327-10.87V92.79l21.327 10.862v30.834z" class="F"/><path d="M93.572 133.693l-21.327-10.926V94.29l21.327 10.714v28.688z" class="J"/></g><g class="H"><path d="M84.58 86.48l20.277 11.433 4.127-2.1L88.57 84.433l-3.99 2.045z"/><path d="M104.858 97.91v15.726l4.127-1.842V95.81l-4.127 2.1z"/></g><path d="M81.808 111.804l-7.674-3.925V97.635l7.674 3.85v10.318z" class="K"/><g class="L"><path d="M80.997 103.328l-5.63-2.764.02-.562 5.6 2.764v.562zm0 1.512l-5.63-2.764.02-.562 5.6 2.764v.562zm0 5.204l-5.63-2.764.02-.56 5.6 2.763v.562z"/></g><path d="M116.908 146.24l26.57-13.193V101.89l-26.57 13.533v30.817z" class="R"/><path d="M116.908 116.77l26.57-13.58v-1.3l-26.57 13.533v1.345z" class="F"/><path d="M143.477 101.89L122.15 90.956l-26.57 13.598 21.328 10.87 26.57-13.533z" class="I"/><g class="D"><path d="M116.908 146.24L95.58 135.38v-30.826l21.328 10.87v30.816z" class="F"/><path d="M116.908 145.457L95.58 134.53v-28.476l21.328 10.714v28.688z" class="J"/></g><g class="H"><path d="M107.916 98.243l20.277 11.433 4.127-2.1-20.415-11.377-3.99 2.045z"/><path d="M128.193 109.676v15.726l4.127-1.843v-15.984l-4.127 2.1z"/></g><path d="M105.143 123.568l-7.674-3.924V109.4l7.674 3.85v10.318z" class="K"/><g class="L"><path d="M104.333 115.093l-5.63-2.764.018-.562 5.6 2.764v.562zm0 1.51l-5.63-2.764.018-.562 5.6 2.764v.562zm0 5.206l-5.63-2.764.018-.562 5.6 2.764v.562z"/></g><g class="D"><path d="M85.824 97.285l26.57-13.202V52.926L85.824 66.46v30.825z" class="F"/><path d="M85.824 67.804l26.57-13.57v-1.308L85.824 66.46v1.345z" class="M"/></g><path d="M112.393 52.926L91.057 42l-26.57 13.598L85.824 66.46l26.57-13.533z" class="I"/><g class="D"><path d="M85.824 97.285L64.488 86.423V55.598L85.824 66.46v30.825z" class="F"/><path d="M85.824 96.502L64.488 85.576V57.1l21.336 10.705v28.697z" class="J"/></g><path d="M76.833 49.278L97.1 60.72l4.136-2.1-20.415-11.368-3.99 2.036z" class="H"/><path d="M97.1 60.72v15.717l4.136-1.833V58.6l-4.136 2.1z" class="S"/><path d="M74.05 74.613l-7.665-3.934V60.444l7.665 3.85v10.318z" class="K"/><g class="L"><path d="M73.24 66.137l-5.63-2.764.018-.562 5.6 2.754v.57zm0 1.51l-5.63-2.764.018-.562 5.6 2.764v.562zm0 5.196L67.6 70.09l.018-.562 5.6 2.755v.562z"/></g><g class="D"><path d="M97.1 62.033l4.136-2.1V58.6l-4.136 2.1v1.313z" class="T"/><path d="M95.81 96.117c6.923-.777 12.537-1.803 16.84-3.08s8.506-3.24 12.608-5.897c4.46 2.92 9.15 5.106 14.074 6.558s10.093 2.258 15.5 2.417c1.075 13.675-1.325 26.68-7.2 39.016s-13.336 19.9-22.384 22.698c-9.078-2.655-16.594-10.22-22.547-22.698s-8.254-25.482-6.9-39.016z" fill="#64b82a"/><path d="M99.08 99.013c6.062-.683 10.977-1.586 14.745-2.71s7.447-2.85 11.04-5.187c3.905 2.568 8.013 4.492 12.323 5.77s8.837 1.987 13.58 2.126c.94 12.03-1.16 23.47-6.304 34.322s-11.678 17.507-19.6 19.967c-7.95-2.335-14.53-8.99-19.742-19.967s-7.227-22.416-6.042-34.322zm3.274 3.198c-1.034 10.477.725 20.545 5.275 30.204s10.296 15.516 17.235 17.57c6.917-2.165 12.62-8.022 17.11-17.57s6.326-19.617 5.504-30.204c-4.14-.122-8.093-.746-11.856-1.87s-7.35-2.817-10.76-5.077c-3.135 2.055-6.347 3.577-9.637 4.565s-7.58 1.782-12.873 2.383zm0 0c5.293-.6 9.583-1.396 12.873-2.383.514-.154 1.026-.322 1.536-.502.04-.014 2.74 16.872 8.1 50.66-6.94-2.055-12.684-7.912-17.235-17.57s-6.31-19.727-5.275-30.204z" fill="#55a120"/><path d="M114.242 115.392l6.584 6.326 14.244-14.607a1.84 1.84 0 0 1 2.561-.075l3.777 3.448c.752.686.805 1.852.12 2.603l-.06.063-19.34 19.272c-.72.716-1.882.717-2.6.001l-11.17-11.123c-.72-.718-.723-1.885-.005-2.606l3.318-3.283c.71-.703 1.852-.712 2.573-.02z" fill="#fff"/></g></g><defs><clipPath id="A"><path fill="#fff" d="M0 0h160v160H0z"/></clipPath><path id="B" d="M138.152 99.542l-5.63-2.764.018-.562 5.61 2.764v.562z"/></defs></svg>