<svg xmlns="http://www.w3.org/2000/svg" width="160" height="160" fill="none"><g clip-path="url(#A)" fill-rule="evenodd"><path d="M178.358 125.035l-46.215 46.747v-.702l46.215-46.51v.464z" fill="#96a5a5"/><path d="M132.143 171.782L10 130.996v-.807l122.143 40.89v.702z" fill="#d7d9e3"/><path d="M178.36 124.57l-46.212 46.51L10 130.19l46.214-46.51 122.146 40.89z" fill="#fcfcfc"/><path d="M188.48 89.2l-.004 1.01-71.756 62.47.004-1.008L188.48 89.2z" fill="#bebec8"/><path d="M116.72 151.76l-78.2-30.522 71.712-62.398 78.248 30.523-71.76 62.397z" fill="#fcfcfc"/><path d="M38.52 122.105v-.867l78.2 30.522v.92l-78.2-30.575z" fill="#d8d8d8"/><path d="M129.486 61.177l-6.467-3.733c-.9-.52-1.714-.567-2.3-.226L67.175 88.333c.588-.34 1.402-.293 2.302.226l6.467 3.734c1.785 1.03 3.23 3.53 3.224 5.58l-.113 39.633c-.003 1.02-.363 1.737-.943 2.075l53.543-31.115c.58-.338.94-1.055.943-2.075l.113-39.633c.005-2.05-1.44-4.55-3.224-5.58z" fill="#394042"/><path d="M75.944 92.293c1.785 1.03 3.23 3.53 3.224 5.58l-.113 39.633c-.006 2.054-1.46 2.88-3.245 1.85l-6.466-3.734c-1.787-1.03-3.23-3.53-3.224-5.584l.112-39.633c.006-2.05 1.458-2.878 3.245-1.847l6.467 3.733z" fill="#717271"/><path d="M114.125 68.217l-.003-.001-3.278-1.906-.02-.01-.02-.008-.025-.006-.026-.002-.03-.001-.037.004-.045.01-.063.02-.078.04-25.45 14.694a.87.87 0 0 0-.179.138l-.053.057-.036.045-.03.04-.023.036-.02.033-.018.03-.015.03-.013.03-.012.03-.01.03-.01.03-.007.033-.007.04-.003.052.001.4 3.28 1.906-.001-.4.003-.052.007-.04.008-.034.01-.03.01-.03.012-.03.014-.03.015-.03.017-.032.02-.033.024-.035.03-.04.036-.044.054-.057a.88.88 0 0 1 .179-.138l25.45-14.693c.027-.016.052-.028.077-.04l.064-.022.045-.01.036-.004.032.001.027.003.023.005.023.007.017.01.004.002z" fill="#b9c3c8"/><path d="M113.777 68.264c.243-.14.442-.075.442.146v.4L87.9 84.012l-.001-.4c-.001-.22.197-.514.44-.654l25.45-14.693z" fill="#7d8c8c"/><path d="M80.7 83.715v-.002l-.02-.01-.022-.007-.023-.005h-.027l-.03-.001-.036.003-.045.01-.063.022a.64.64 0 0 0-.078.039l-4.327 2.498c-.064.037-.125.085-.18.138l-.053.057-.036.044-.03.04-.023.035-.02.033-.017.03-.015.03-.014.03-.012.03-.01.03-.01.03-.008.034-.007.04-.004.053v.4l3.28 1.905-.001-.4.003-.053.007-.04.008-.034.01-.03.01-.03.012-.03.014-.03.015-.03.017-.03.02-.033.023-.035.03-.04.037-.044.054-.057a.84.84 0 0 1 .179-.138l4.327-2.5a.77.77 0 0 1 .078-.039l.063-.022.044-.01.036-.004h.032l.027.004.023.006.022.007.02.01h.003l-3.28-1.905z" fill="#b9c3c8"/><path d="M83.634 85.667c.244-.14.44-.074.44.147l.001.4-5.206 3.006-.001-.4c-.001-.22.195-.514.44-.654l4.327-2.5z" fill="#7d8c8c"/><g fill="#b9c3c8"><path d="M120.395 61.4l-.53-.308-.02-.01-.022-.008-.025-.006-.026-.002h-.03l-.035.004-.046.01-.062.022c-.026.01-.052.023-.078.04l-4.327 2.498c-.064.037-.126.085-.18.14l-.055.058-.037.045-.028.038-.023.036-.02.033-.018.03-.015.03-.013.03-.013.028-.01.03-.01.03 3.28 1.906.01-.03.01-.03.01-.03.013-.03.016-.03.018-.032.02-.033.024-.036.03-.04.037-.044.054-.058a.9.9 0 0 1 .18-.139l4.327-2.498.078-.038.063-.022.045-.01.036-.004.03.001.027.003.024.005.022.008.02.01.002.002-2.75-1.6z"/><path d="M114.756 64.25l-.004.052.001.4 3.28 1.905-.001-.4.004-.053.007-.04.008-.033-3.28-1.906-.008.034-.007.04z"/></g><g fill="#7d8c8c"><path d="M122.798 63.055c.245-.14.44-.074.44.147v.4L118.03 66.6v-.4c-.001-.22.197-.515.44-.656l4.327-2.498zm-41.45 23.138c-.256.326-.82.55-1.473.55s-1.22-.225-1.473-.55c-.096-.12-.148-.253-.148-.393v.358c0 .522.725.943 1.62.943s1.62-.42 1.62-.943V85.8a.62.62 0 0 1-.148.393z"/></g><path d="M79.875 84.857c-.897 0-1.62.423-1.62.944 0 .14.052.274.148.393.254.326.817.55 1.473.55s1.217-.225 1.473-.55a.62.62 0 0 0 .148-.393c0-.52-.727-.944-1.62-.944z" fill="#555f5f"/><path d="M120.427 63.656c-.256.325-.82.55-1.473.55s-1.218-.225-1.473-.55c-.096-.12-.148-.254-.148-.394v.358c0 .522.725.943 1.62.943s1.62-.42 1.62-.943v-.358a.62.62 0 0 1-.148.394z" fill="#7d8c8c"/><path d="M118.954 62.32c-.896 0-1.62.423-1.62.943 0 .14.052.275.148.394.255.325.818.55 1.473.55s1.217-.225 1.473-.55a.62.62 0 0 0 .148-.394c0-.52-.726-.943-1.62-.943z" fill="#555f5f"/><g fill="#3c3c46"><path d="M109.053 64.595c-.001-.38-.136-.648-.353-.775l-1.75-1.017c.217.127.353.395.354.776l.015 5.647 1.75 1.016-.016-5.648zm-.7-4.205l-.017-.01a1.55 1.55 0 0 0-.162-.079 1.67 1.67 0 0 0-.168-.059c-.058-.017-.118-.03-.18-.04a1.71 1.71 0 0 0-.194-.023 1.85 1.85 0 0 0-.211-.001 2.02 2.02 0 0 0-.237.023c-.092.014-.186.033-.28.06a2.86 2.86 0 0 0-.377.13 3.83 3.83 0 0 0-.444.221l-14.96 8.637a5.34 5.34 0 0 0-1.064.824l-.35.372-.258.316-.214.288-.185.276-.164.27-.15.27-.138.272-.127.278-.117.287-.108.3-.1.326-.1.365-.076.442a4.99 4.99 0 0 0-.041.622l.016 5.648 1.75 1.016-.016-5.65c-.001-.202.013-.4.04-.622l.076-.44.1-.367.1-.325.108-.302.118-.286.127-.278.138-.272.15-.27.166-.27.185-.275.213-.3.26-.316.348-.37c.333-.328.7-.6 1.064-.824l14.96-8.637c.152-.088.3-.16.445-.222a3.02 3.02 0 0 1 .377-.128c.093-.027.187-.046.28-.06a2.18 2.18 0 0 1 .238-.024l.2.002a1.75 1.75 0 0 1 .193.023c.062.01.122.024.18.04a1.44 1.44 0 0 1 .169.06c.054.022.108.05.16.078l.018.01-1.75-1.017z"/></g><path d="M107.832 61.63c1.76-1.017 3.196-.198 3.202 1.823l.015 5.648-1.98 1.143-.016-5.648c-.001-.766-.547-1.077-1.214-.69L92.88 72.54c-.668.385-1.208 1.322-1.206 2.1l.016 5.647-1.98 1.144-.016-5.65c-.006-2.02 1.42-4.5 3.18-5.507l14.96-8.637z" fill="#0a0a14"/><path d="M77.294 143.95l-17.31 10.06c-.895.52-2.35.52-3.252 0l-23.966-13.837c-.453-.262-.68-.605-.68-.95l-.006 2c-.001.344.225.687.68.95L56.725 156c.9.52 2.357.52 3.252 0l17.3-10.06c.445-.26.668-.596.668-.936l.006-1.998c-.001.34-.224.677-.668.935z" fill="#28323c"/><path d="M77.284 142.067c.9.52.906 1.364.01 1.884l-17.31 10.06c-.894.52-2.35.52-3.252 0l-23.966-13.837c-.9-.52-.905-1.364-.01-1.884l17.31-10.06c.895-.52 2.35-.52 3.252 0l23.967 13.837z" fill="#14191e"/><path d="M52.84 129.192l-18.406 10.646 5.786 3.356 18.405-10.646-5.785-3.356z" fill="#000"/><g fill="#f0f0f5"><path d="M43.795 143.504l-1.188.687.195.114.965-.56c.104.324.234.6.392.793a1.96 1.96 0 0 0 .58.505l.24-.138c-.166-.096-.308-.2-.425-.313s-.218-.236-.302-.372-.174-.34-.27-.6l-.187-.108zm4.82-2.818c-.172.1-.268.205-.285.314s.042.202.18.282c.102.06.222.095.355.107a.88.88 0 0 0 .38-.047l.006.003c-.087.07-.124.148-.1.234s.077.162.195.23a.97.97 0 0 0 .551.131c.2-.01.396-.07.588-.18.198-.115.302-.23.314-.344s-.064-.22-.23-.317c-.118-.07-.25-.107-.392-.116s-.28.014-.413.07h-.005c.08-.068.108-.142.088-.22s-.08-.146-.185-.206c-.142-.082-.306-.118-.493-.107a1.21 1.21 0 0 0-.544.169zm.797.46a.67.67 0 0 1-.328.096.6.6 0 0 1-.323-.086c-.102-.058-.15-.12-.143-.182s.062-.124.17-.187c.223-.13.436-.135.64-.016.1.064.164.128.157.2s-.065.124-.172.186zm.892.512a.7.7 0 0 1-.75.004c-.107-.063-.158-.13-.153-.203s.064-.144.18-.2a.83.83 0 0 1 .365-.113.62.62 0 0 1 .352.09c.13.076.195.15.195.22s-.065.14-.2.214zm3.756-4.12c-.188.1-.282.225-.278.35s.097.24.285.35.38.162.588.17a1.01 1.01 0 0 0 .553-.128c.1-.057.166-.123.202-.2s.033-.143-.01-.207c.224.133.362.257.412.37s.01.208-.122.284c-.156.1-.333.105-.528.046l-.22.127c.17.055.36.095.504.08a1.07 1.07 0 0 0 .426-.144c.2-.12.286-.262.232-.424s-.235-.33-.544-.5c-.298-.173-.572-.273-.823-.3s-.477.02-.677.134zm1.02.605a.59.59 0 0 1-.373.083 1.05 1.05 0 0 1-.407-.125c-.13-.075-.2-.153-.2-.233s.038-.153.15-.217a.61.61 0 0 1 .4-.078c.156.022.304.062.45.146.07.04.118.087.14.138s.02.1-.007.152-.073.096-.14.134zm-2.82 10.59l-.2.122-.133.416.218.127.116-.404 1.58.917.23-.133-1.8-1.045zm5.115-2.975c-.166.096-.257.2-.278.3s.056.225.183.318l.235-.135c-.086-.063-.123-.128-.113-.196s.063-.13.16-.186.2-.1.322-.092a.71.71 0 0 1 .318.084.35.35 0 0 1 .148.143c.023.053.035.1.033.173s-.01.127-.025.197-.025.143-.033.22a.92.92 0 0 0 .01.234c.013.08.05.162.106.245l.162.094 1.2-.7-.195-.113-.937.543a.38.38 0 0 1-.062-.181 1.03 1.03 0 0 1 .017-.261c.033-.186.046-.318.04-.394a.42.42 0 0 0-.066-.203.44.44 0 0 0-.159-.148.92.92 0 0 0-.512-.128 1.17 1.17 0 0 0-.546.167zm5.427-3.154c-.165.095-.258.198-.282.307s.05.22.18.316l.23-.134c-.084-.06-.122-.124-.1-.2s.066-.13.167-.188c.112-.064.224-.096.337-.097s.216.028.313.084.14.12.124.2-.085.145-.2.218l-.124.072.2.116.13-.075c.142-.082.28-.13.4-.14a.59.59 0 0 1 .343.068c.112.065.164.133.155.204s-.07.14-.187.208a.75.75 0 0 1-.711.042l-.237.137a1.24 1.24 0 0 0 .58.112 1.31 1.31 0 0 0 .558-.18c.196-.114.302-.227.315-.34s-.06-.22-.228-.315a.8.8 0 0 0-.4-.102c-.152-.002-.3.034-.45.103l-.004-.003c.097-.086.142-.168.134-.247s-.07-.15-.185-.218a.89.89 0 0 0-.501-.117c-.184.01-.366.066-.547.17zm6.6-2.856l-.638.37.205.12.638-.37-.205-.12zM56.3 151.434c-.218.126-.3.263-.247.412s.235.3.544.5c.303.175.585.28.846.3s.496-.013.702-.133.283-.255.23-.408-.23-.317-.53-.492-.587-.282-.844-.315a1.09 1.09 0 0 0-.702.136zm1.66.97a.7.7 0 0 1-.476.07c-.18-.03-.4-.123-.655-.272-.264-.153-.423-.28-.475-.382s-.01-.195.132-.277a.66.66 0 0 1 .47-.07c.175.032.397.125.656.275.25.146.404.272.463.378s.02.2-.116.278zm4.68-3.734l-.248.144.28.163.25-.144-.28-.163zm4.914-3.42l-.188.108.547.317-.54.313.187.1.54-.313.547.317.188-.1-.547-.317.54-.313-.188-.1-.54.314-.546-.317zm6.202-3.334l-1.27.734.2.1 1.27-.735-.2-.1zm.655.378l-1.27.735.2.1 1.27-.735-.2-.1zm-13.236-7.954l-1.746 1 .265.154 1.746-1-.265-.154zm-1.535.122c-.117.067-.117.177 0 .245s.306.068.423 0 .117-.177 0-.245-.306-.068-.423 0zm1.166.676c-.117.068-.117.178.001.246s.306.068.423 0 .117-.177-.001-.245a.47.47 0 0 0-.423-.001zm-12.83 11l-.242.14.392 1.18.18.103.847-.5.408.237.217-.126-.408-.236.253-.146-.182-.106-.252.146-1.2-.702zm.36 1.196l-.005-.027-.025-.095-.22-.66c-.005-.017-.017-.043-.035-.078l-.03-.06.952.552-.635.368zm5.18-4.416l-1.082.627.97.562.225-.13c.007-.058.026-.108.06-.15a.48.48 0 0 1 .143-.118.76.76 0 0 1 .389-.103.74.74 0 0 1 .38.098c.13.076.2.156.203.24s-.054.16-.177.232a.75.75 0 0 1-.642.062l-.232.134c.166.065.364.105.54.088a1.29 1.29 0 0 0 .515-.17c.2-.116.302-.238.307-.367s-.1-.247-.28-.358a1.1 1.1 0 0 0-.563-.145 1.18 1.18 0 0 0-.58.155c-.147.085-.234.18-.256.282l-.572-.332.848-.5-.195-.114zm4.956-2.882c-.206.12-.28.26-.226.42s.24.332.552.513c.288.167.56.263.82.3s.488-.02.7-.138c.18-.104.268-.218.26-.342s-.106-.24-.296-.35a1.14 1.14 0 0 0-.564-.158 1.03 1.03 0 0 0-.552.138c-.098.056-.164.118-.2.185a.21.21 0 0 0 .001.205c-.232-.135-.372-.258-.423-.37s-.01-.207.12-.282c.153-.1.325-.103.517-.044l.22-.126c-.315-.102-.648-.097-.92.06zm1.643.982c-.107.062-.24.088-.397.076a1.02 1.02 0 0 1-.444-.14c-.1-.063-.163-.133-.16-.207s.058-.143.165-.205a.68.68 0 0 1 .372-.092c.134.005.267.043.398.12s.2.153.213.233-.04.152-.15.215zm4.544-4.246l.002.594-1.025-.002v.164l1.025.001.001.594h.282v-.593h1.024v-.165h-1.025l-.001-.594h-.284z"/></g><g fill="#32ff00"><path d="M37.958 139.358l-.3.18 3.122 1.805.3-.18-3.122-1.805zm3.145-1.826l-1.864 1.082.312.18 1.553-.902 1.093.632-1.553.902 1.717.993 1.7-.992-.312-.18-1.398.8-1.093-.632 1.553-.902-1.717-.993zm8.233-4.777l-1.708.992 1.717.992 1.553-.9 1.093.632-1.553.902.312.18 1.864-1.082-1.717-.993-1.553.902-1.093-.632 1.398-.8-.312-.18zM43.9 135.9l-1.7.992.312.18 1.398-.8 1.093.63-1.398.812.312.18 1.398-.8 1.093.632-1.398.8.312.18 1.7-.992L43.9 135.9zm2.795-1.612l-.3.18 1.405.812-1.243.722-1.405-.813-.3.18 1.717.993 1.553-.9 1.405.812.3-.18-3.122-1.805zm5.592-3.246l-1.864 1.082 3.123 1.805 1.864-1.08-1.717-.993-1.553.9-1.093-.632 1.553-.9-.312-.18zm1.257 2.526l-1.093-.63 1.242-.722 1.093.632-1.242.72z"/></g><path d="M32.764 140.174c-.298-.172-.498-.38-.6-.6.102.22.302.427.6.6zm-.68-.854c-.044-.37.177-.747.662-1.03l8.483-4.926-8.477 4.926c-.447.26-.67.6-.668.94v.09z" fill="#66a67b"/><path d="M41.23 133.364l-.004-.002.483-.28.004.001-.483.28z" fill="#fff"/><path d="M41.714 133.083l-.004-.001 5.35-3.106-5.348 3.107z" fill="#e5e5ea"/><path d="M47.06 129.976l.008-.008 3-1.738c.448-.26 1.035-.4 1.624-.4-.585 0-1.17.13-1.618.4l-3.003 1.746z" fill="#dde1e1"/><path d="M51.082 150.753l-18.323-10.58c-.412-.238-.636-.543-.673-.854v-.09a.83.83 0 0 0 .079.344c.102.22.302.427.6.6l18.317 10.58z" fill="#485159"/><path d="M40.218 143.194l-5.786-3.356 18.406-10.646 5.785 3.356-18.405 10.646zm-2.26-3.836l-.31.18 3.122 1.805.31-.18-3.122-1.805zm3.147-1.465l1.093.632-1.553.902 1.717.993 1.71-.992-.312-.18-1.398.81-1.093-.632 1.553-.902-1.717-.993-1.864 1.082.312.18 1.553-.902zm4.2-.8l1.093.632-1.398.81.312.18 1.71-.992L43.9 135.9l-1.71.992.312.18 1.398-.81 1.093.632-1.398.81.312.18 1.398-.81zm-.164-1.894l-.31.18 1.717.993 1.553-.9 1.405.812.31-.18-3.122-1.805-.31.18 1.405.812-1.243.72-1.405-.812zm5.756-1.35l1.093.632-1.553.902.312.18 1.864-1.082-1.717-.993-1.553.902-1.093-.632 1.398-.81-.312-.18-1.708.99 1.717.993 1.553-.9zm1.39-2.796l-1.864 1.082 3.123 1.805 1.864-1.08-1.717-.993-1.553.9-1.093-.632 1.553-.9-.312-.18z" fill="#262626"/><path d="M44.74 145.044a1.96 1.96 0 0 1-.58-.505c-.158-.204-.288-.47-.392-.793l-.965.56-.195-.114 1.188-.687.187.108c.097.27.188.473.27.61s.184.26.302.372.26.217.425.313l-.24.138z" fill="#f2f2f6"/><path d="M48.336 147.344l-.005-.027-.025-.095-.22-.66c-.005-.017-.017-.043-.035-.078l-.03-.06.952.552-.635.368zm1.587-5.576c-.124 0-.247-.036-.37-.107-.107-.063-.158-.13-.153-.203s.064-.144.18-.21.242-.107.365-.113h.028c.112 0 .22.03.324.09.13.076.196.15.196.22s-.065.14-.2.214-.255.11-.38.11zm-.855-.527c-.107 0-.21-.03-.31-.086s-.15-.12-.143-.182.062-.124.17-.187c.117-.067.23-.1.34-.1.102 0 .2.028.3.085.11.064.164.128.157.19s-.065.124-.172.186a.67.67 0 0 1-.328.096zm5.68-3.014c-.014 0-.028-.001-.042-.002-.14-.007-.276-.05-.407-.125s-.2-.153-.21-.233.038-.153.15-.217c.093-.054.2-.08.326-.08l.074.003c.154.013.304.062.45.146.07.04.118.087.14.138s.02.1-.007.152-.073.096-.14.134c-.098.057-.208.085-.33.085z" fill="#373b40"/><g fill="#f2f2f6"><path d="M49.83 141.942c-.18 0-.344-.044-.497-.133-.118-.068-.183-.145-.195-.23s.024-.164.1-.234l-.006-.003a.88.88 0 0 1-.294.051c-.028 0-.057-.002-.087-.004a.86.86 0 0 1-.355-.107c-.138-.08-.198-.174-.18-.282s.113-.214.285-.314a1.21 1.21 0 0 1 .544-.169c.022-.002.042-.002.063-.002.16 0 .304.036.43.1.104.06.165.128.185.206s-.01.15-.088.22h.005a.91.91 0 0 1 .351-.071l.062.002c.144.01.274.047.392.116.166.096.243.202.23.317s-.117.23-.314.344c-.192.1-.388.17-.588.18h-.055zm.143-.808h-.028c-.123.006-.245.044-.365.113s-.177.138-.18.2.046.14.153.203c.123.07.246.107.37.107s.253-.037.38-.1.188-.144.2-.214-.065-.144-.195-.22c-.104-.06-.2-.1-.324-.1zm-.847-.45c-.1 0-.225.034-.34.1-.108.063-.164.125-.17.187s.042.124.143.183.202.085.3.085a.68.68 0 0 0 .343-.096c.107-.062.166-.124.172-.186s-.046-.125-.157-.2c-.098-.057-.197-.085-.3-.085zm6.254-1.9c-.135 0-.295-.037-.44-.084l.22-.127a.76.76 0 0 0 .225.035c.108 0 .2-.027.303-.08.132-.076.172-.17.122-.284s-.188-.237-.412-.37c.043.064.046.134.01.207s-.103.142-.202.2a.99.99 0 0 1-.505.129c-.016 0-.033-.001-.05-.001-.2-.01-.404-.065-.588-.17s-.283-.227-.285-.35.1-.24.278-.35a1.06 1.06 0 0 1 .54-.14 1.29 1.29 0 0 1 .138.007c.25.027.525.127.823.3.3.18.5.35.544.5s-.024.304-.232.424a1.07 1.07 0 0 1-.426.144.64.64 0 0 1-.063.003zm-.818-1.215c-.125 0-.233.027-.326.08-.1.064-.16.136-.15.217s.082.16.2.233a.92.92 0 0 0 .407.125l.042.001c.123 0 .233-.027.33-.084.066-.038.112-.083.14-.134a.16.16 0 0 0 .007-.152c-.023-.052-.07-.098-.14-.138a1.07 1.07 0 0 0-.45-.146l-.074-.003zm-6.256 10l-.18-.103-.392-1.18.242-.14 1.2.702.252-.146.182.106-.253.146.408.236-.217.126-.408-.237-.847.5zm-.287-1.147c.003.004.014.024.03.06l.035.078.22.66.025.095.005.027.635-.368-.952-.552zm5.925-1.983a1.55 1.55 0 0 1-.189-.059l.232-.134.04.012-.082.18zm-.54-.322l-.97-.562 1.082-.627.195.114-.848.5.572.332c.022-.102.1-.197.256-.282.178-.102.37-.154.58-.155a1.04 1.04 0 0 1 .126.007l-.084.186-.1-.005c-.144 0-.273.034-.392.103a.48.48 0 0 0-.143.118.27.27 0 0 0-.06.15l-.225.13z"/></g><g fill="#51ff26"><path d="M40.77 141.343l-3.122-1.805.3-.18 3.122 1.805-.3.18zm1.592-.923l-1.717-.993 1.553-.902-1.093-.632-1.553.902-.312-.18 1.864-1.082 1.717.993-1.553.902 1.093.632 1.398-.8.313.18-1.7.992z"/></g><path d="M53.544 133.57l-1.093-.632 1.242-.72 1.093.63-1.242.722z" fill="#262626"/><g fill="#51ff26"><path d="M50.75 135.552l-.312-.18 1.553-.902-1.093-.632-1.553.9-1.717-.992 1.708-.992.312.18-1.398.8 1.093.632 1.553-.902 1.717.993-1.864 1.082zm-5.437 3.155l-.312-.18 1.398-.8-1.093-.632-1.398.8-.312-.18 1.398-.812-1.093-.63-1.398.8-.312-.18 1.7-.992 3.123 1.805-1.7.992zm1.237-2.345l-1.717-.993.3-.18 1.405.813 1.243-.722-1.405-.812.3-.18 3.122 1.805-.3.18-1.405-.812-1.553.9zm6.996-2.432l-3.123-1.805 1.864-1.082.312.18-1.553.9 1.093.632 1.553-.9 1.717.993-1.864 1.08zm.148-1.714l-1.242.722 1.093.63 1.242-.72-1.093-.632z"/></g><path d="M93.522 153.434c-1.2 1.527-3.843 2.582-6.913 2.582-3.077 0-5.72-1.055-6.915-2.582-.448-.562-.694-1.19-.694-1.846v1.683c0 2.45 3.4 4.427 7.61 4.427 4.198 0 7.61-1.977 7.61-4.427v-1.683c0 .657-.244 1.284-.696 1.846z" fill="#fad791"/><path d="M86.61 147.16c-4.208 0-7.61 1.985-7.61 4.428 0 .657.245 1.283.694 1.845 1.195 1.527 3.838 2.583 6.915 2.583 3.07 0 5.713-1.056 6.913-2.583.452-.562.696-1.188.696-1.845 0-2.443-3.41-4.428-7.61-4.428z" fill="#ffc85f"/><path d="M84.52 152.892c.3 0 .566-.036.766-.108s.366-.177.497-.313.285-.4.46-.796h-3.35c.043.392.203.693.48.903s.658.314 1.145.314zm4.682-2.816c-.282 0-.52.034-.716.104s-.36.173-.494.3-.268.36-.4.67h3.013c-.066-.724-.534-1.084-1.403-1.084zm-7.36 1.084c.085-1.184 1.207-1.873 2.834-2.068v.71c-.567.07-.994.214-1.28.436s-.45.528-.494.923h3.55c.2-.493.398-.832.565-1.02a2.09 2.09 0 0 1 .576-.455 2.64 2.64 0 0 1 .7-.25 4.49 4.49 0 0 1 .894-.077c.74 0 1.318.157 1.736.47s.65.756.7 1.332h.94v.515h-.94c-.04.52-.244.922-.604 1.205s-1.16.483-1.922.6v-.725c.447-.056.797-.17 1.048-.338s.402-.417.454-.742h-3.185c-.2.498-.384.85-.55 1.062s-.355.374-.565.497a2.61 2.61 0 0 1-.744.279c-.287.064-.623.096-1.01.096-.788 0-1.42-.168-1.898-.504a1.85 1.85 0 0 1-.794-1.43h-1.16v-.515h1.16z" fill="#e19b0a"/><path d="M139.78 115.64l-4.012-2.332-.1-35.577 4.012 2.33.1 35.578z" fill="#478cc8"/><path d="M139.68 80.063l-4.012-2.33 4.04-2.332 4.012 2.332-4.04 2.33z" fill="#59aef8"/><path d="M143.718 77.732l.1 35.577-4.04 2.332-.1-35.578 4.04-2.33z" fill="#3a7bbf"/><path d="M131.703 120.304l-4.012-2.332-.07-24.75 4.012 2.332.07 24.75z" fill="#eeab44"/><path d="M131.633 95.554l-4.012-2.332 4.038-2.332 4.013 2.332-4.04 2.332z" fill="#ffba4f"/><path d="M135.672 93.223l.07 24.75-4.04 2.332-.07-24.75 4.04-2.332z" fill="#d48e23"/><path d="M123.626 124.967l-4.012-2.332-.052-18.562 4.012 2.332.052 18.562z" fill="#478cc8"/><path d="M123.574 106.405l-4.012-2.332 4.038-2.33 4.012 2.33-4.038 2.332z" fill="#59aef8"/><path d="M127.612 104.073l.053 18.562-4.04 2.332-.052-18.562 4.038-2.332z" fill="#3a7bbf"/><path d="M115.55 129.63l-4.012-2.332-.066-23.202 4.013 2.332.065 23.202z" fill="#eeab44"/><path d="M115.484 106.427l-4.013-2.33 4.04-2.332 4.012 2.332-4.038 2.33z" fill="#ffba4f"/><path d="M119.522 104.096l.066 23.202-4.04 2.332-.065-23.202 4.038-2.332z" fill="#d48e23"/><path d="M107.472 134.293l-4.012-2.33-.048-17.016 4.012 2.332.048 17.015z" fill="#478cc8"/><path d="M107.424 117.278l-4.012-2.332 4.04-2.33 4.012 2.33-4.04 2.332z" fill="#59aef8"/><path d="M111.463 114.946l.048 17.016-4.04 2.33-.048-17.015 4.04-2.332z" fill="#3a7bbf"/><path d="M99.396 138.957l-4.012-2.332-.04-13.92 4.013 2.33.04 13.922z" fill="#eeab44"/><path d="M99.356 125.035l-4.013-2.332 4.04-2.33 4.012 2.33-4.038 2.332z" fill="#ffba4f"/><path d="M103.394 122.704l.04 13.92-4.038 2.332-.04-13.922 4.038-2.33z" fill="#d48e23"/><path d="M91.318 143.62l-4.012-2.332-.026-9.28 4.012 2.33.026 9.28z" fill="#478cc8"/><path d="M91.292 134.34l-4.012-2.332 4.038-2.33 4.012 2.33-4.038 2.332z" fill="#59aef8"/><path d="M95.33 132.008l.026 9.28-4.04 2.332-.026-9.28 4.038-2.33z" fill="#3a7bbf"/></g><defs><clipPath id="A"><path fill="#fff" d="M0 0h160v160H0z"/></clipPath></defs></svg>