<svg xmlns="http://www.w3.org/2000/svg" width="160" height="160" fill="none"><g clip-path="url(#A)" fill-rule="evenodd"><path opacity=".2" d="M124.6 133.235c-1.07-.024-34.635-15.26-25.808-20.22 7.028-3.95 35.908 15.148 35.908 15.148l-5.317 2.197-4.783 2.876z" fill="#2d2d2d"/><path d="M127.428 125.995l-1.568 1.39-.223.186c-.39.31-.732.56-.89.6-.508.134-2.175.368-2.93 1.07s-.738 1.664-.33 2.25c.4.584 2.246 1.17 4.218.993 1.958-.18 3.24-1.24 4.4-1.403s1.832.08 2.84-.282 1.615-1.3 1.615-1.3.038-2.416-.263-3.175-6.867-.328-6.867-.328z" fill="#664732"/><path d="M115.212 79.226c.705.55 1.09.877 2.005.758.556-.84 1.066-1.23 1.347-2.177.128-.432 1.04-5.645 1.456-7.26l.55-2.2c.063-.27-4.446-.17-4.74-.568-.11-.15-.3 1.575-.348 2.106-.07.936-.02 2.5-.028 3.808-.852-.17-3.742-4.543-4.395-5.573-.26-.416-1.087-.083-1.606.016-.293.055-.777.3-1.014.493-.297.223-.333.375-.373.82-.078.9 4.536 7.74 7.148 9.778z" class="F"/><path d="M117.757 69.56c.2.052 2.63.87 3.503 1.22l.238-.716c.78-2.187 1.313-4.467 1.39-6.298.037-.9-.21-2.644-2.14-3.35-1.87-.68-3.434 1.782-3.434 1.782l-2.104 6.012c.768.507.965.585 2.545 1.35z" class="G"/><path d="M115.886 68.653l2.17-5.892c.32-.92 1.563-2.46 3.43-1.784.09.034.16.082.243.12-.31-.33-.715-.626-1.27-.825-1.864-.677-3.105.86-3.43 1.78l-2.1 6.017c.29.178.695.37.967.584z" class="H"/><path d="M121.952 129.93c.336-.028.662.162 1.003.825.415.833.474 1.053 1.366 1.232.885.188 2.883-.3 4.112-.93 1.23-.61 1.627-.26 2.857-.47 1.526-.26 2.078-.57 2.176-1 0 0-.392-.63.34-1.047l.737-.413s.014 1.066.187 1.466c.048.104-.194.42-.194.42s-.745 1.105-2.977 1.237c-2.24.13-2.852.537-4.016 1.104s-3.822.513-4.912.138-1.31-1.017-1.427-1.61c-.086-.436.416-.92.747-.953z" class="I"/><path d="M117.34 122.42l-1.53 1.353-.218.18c-.376.3-.703.545-.87.585-.484.13-2.115.357-2.847 1.042-.738.686-.714 1.62-.322 2.186.395.57 2.193 1.14 4.098.967 1.918-.172 3.158-1.207 4.3-1.364s1.78.075 2.765-.28 1.568-1.262 1.568-1.262.045-2.348-.256-3.1-6.68-.317-6.68-.317z" fill="#664732"/><path d="M119.806 60.406l3.977-.042s.667 1.465 2.826 1.505c2.15.042 3.738-.75 3.738-.75l4.33 1.9-.77 15.404-1.82 5.756s-4.605.523-7.986.204c-3.39-.32-5.06-.913-5.06-.913l-.814-9.592s-.545-2.697-.326-5.398 1.905-8.062 1.905-8.062z" class="G"/><path d="M119.35 74.416s-.547-2.692-.33-5.397c.223-2.7 1.716-8.29 1.716-8.29l3.375.148c-.234-.263-.328-.472-.328-.472l-4.17-.178s-1.496 5.584-1.713 8.286.326 5.4.326 5.4l.814 9.59s.378.13 1.1.3l-.802-9.387z" class="H"/><path d="M134.164 93.518c1.204-5.06-.595-12.6-.595-12.6l.447-3.115c-3.188-1.025-3.528-5.91-3.512-6.55.023-1.575.237-4.106.232-5.923 0-1.235.505-2.623 1.352-3.5-.6-.37-1.26-.44-1.26-.44s-1.066 1.554-1.296 2.385c-.378 1.37-.885 4.06-1.17 5.45-.54 2.68-1.56 2.1-4.26 1.433-3.09-.77-2.93-1.902-2.93-1.902s.078-2 .41-4.098c.263-1.674.636-3.512 1.312-4.357 0 0-1.05-.028-1.36-.072-.308 0-1.094 2.664-1.168 3.155-.407 2.554-.416 3.22-.73 5.8-.164 1.385-1.004 4.244-1.667 5.092l.18 6.578c.056.357.073 1.52.138 2.93-.098.13-.197.255-.283.4l-1.013 17.31v21.148s.082.463 2.57 1.312c2.486.843 4.576-.497 4.576-.497l.307-19.25.72-11.136c.1.1-.18-.956-.062-.85l1.815 13.712-.295 20.735s.453.488 2.805.864 4.906-1.09 4.906-1.09l-.427-20.083s-.477-9.753.256-12.84z" fill="#478cc8"/><g fill="#5fa1da"><path d="M127.243 109.86l-.176-19.983-2.045 1.706.838 17-.075 17.52s.594.658 2.256.642l-.798-16.877zm-8.2-38.127c0 .08-.67 2.18-1.07 2.317l.08 6.855c.17 1.08-.64 7.44-.442 7.588-.288 4.713-1.142 13.906-1.142 14.725 0 1.37-.33 19.14-.33 19.14l2.115 1.097.2-20.097c0-.836 1.333-12.66 1.065-12.813.198-2.232-.438-15.57-.485-18.813z"/></g><g fill="#7992ba"><path d="M126.095 125.493a22.43 22.43 0 0 0 4.338.986c2.375.286 4.092-.952 4.07-.784s.152.35.157.575.32.8 0 .95c-.47.218-3.244 1.1-4.9.726l-3.95-1.03s-.096-.643 0-.78c.104-.14-.268-.885.296-.643zm-9.655-3.775s1.683.802 4.094 1.098 3.873-.44 3.852-.28 0 .7 0 .918c.005.22.24.608-.3.727s-1.935.536-3.627.165-4.322-1.205-4.322-1.205-.106-.645 0-.784-.275-.882.293-.64z"/></g><path d="M123.783 59.627v1.676s.885 1.756 3.136 1.364 3.428-1.55 3.428-1.55v-4.67l-6.564 3.18z" class="F"/><path d="M120.173 48.91s-.5 2.535 0 5.17c.502 2.64 1.514 5.47 4.54 6.064s5.634-2.636 5.634-2.636 1.74-1.84 1.74-4.122-1.737-4.886-6.07-5.677-5.845 1.2-5.845 1.2z" fill="#e2b171"/><path d="M121.112 54.103c-.29-1.495-.25-2.963-.165-3.946-.312-.09-.6-.202-.862-.338-.1.972-.192 2.596.125 4.263.503 2.637 1.514 5.47 4.547 6.064.388.078.774.087 1.15.055-.088-.017-.17-.02-.257-.033-3.032-.594-4.035-3.424-4.54-6.064z" fill="#edc18c"/><path d="M125.724 44.35c-1.542.01-2.864.726-4.284 1.79-1.852 1.392-1.826 3.806-1.93 4.68-.08.68-.065 1.48.357 2.04-.253-.962 1.2-1.106 1.9-1.138 1.273-.06 2.36-.242 3.24-1.11.457-.453.35-.446 1.05-.457.48-.003 1.05-.076 1.486.04 1.53.43 1.437 1.752 1.46 2.99a32.36 32.36 0 0 1-.028 1.314l.852.52s-.026-2.104 1.12-2.008c.873.078.852 1.203.732 1.506-.21.554-.957 1.71-.957 1.71l-.11 1.018s2.19-1.73 2.19-6.79c.004-2.57-1.794-4.545-4.214-5.52-.98-.392-1.937-.59-2.853-.585z" fill="#893f0c"/><path d="M111.933 126.105c.305 0 .563-.1.972.928.34.835.547 1.042 1.41 1.22s2.807-.3 4.002-.9 1.587-.264 2.78-.467c1.483-.25 2.023-.55 2.12-.965 0 0-.39-.617.326-1.024l.716-.4s.017 1.035.186 1.427c.05.096-.186.407-.186.407s-.727 1.08-2.902 1.204-2.776.526-3.906 1.073-3.716.502-4.78.136c-1.054-.37-1.43-1.06-1.547-1.635-.08-.424.47-1.004.8-1.004z" class="I"/><g fill="#876148"><path d="M115.008 124.45l2.3.956 1.95-1.177s-.294-2.462-1.968-2.286c-1.535.162-1.108 1.02-1.108 1.02l-1.164 1.488zm9.738 3.84l2.32 1.037 2.2-1.084s-.38-2.6-2.096-2.468c-1.585.127-1.17 1.017-1.17 1.017l-1.246 1.498z"/></g><g class="I"><path d="M115.13 124.155s.634-.017 1.366.516c.68.5.976 1.108.976 1.108s.323.26.51.13c.178-.132 0-.498 0-.498s-.296-.86-1.39-1.49c-.664-.387-.994-.37-.994-.37l-.468.607z"/><path d="M115.745 123.36s.64-.014 1.366.514c.684.503.984 1.1.984 1.1s.324.26.507.13 0-.497 0-.497-.293-.86-1.388-1.493c-.666-.388-.992-.37-.992-.37l-.477.608zm9.11 4.733s.66-.018 1.408.53c.7.512 1.005 1.143 1.005 1.143s.335.265.52.132c.192-.14 0-.517 0-.517s-.3-.882-1.425-1.528c-.684-.4-1.017-.387-1.017-.387l-.5.626z"/><path d="M125.5 127.278s.657-.02 1.404.526c.7.52 1.007 1.148 1.007 1.148s.33.26.523.127c.188-.14 0-.512 0-.512s-.304-.884-1.427-1.534c-.68-.392-1.02-.384-1.02-.384l-.486.63z"/></g><g fill="#f46c3d"><path d="M116.316 113.27s2.33.773 4.375.813c2.038.032 3.6-.3 3.6-.3l-.033 2.165s-2.16.7-4.518.53c-2.355-.164-3.47-.833-3.47-.833l.045-2.374zm9.582 1.936s2.338.78 4.383.812c2.037.038 3.883-.373 3.883-.373v2.232s-2.482.707-4.834.54c-2.362-.165-3.47-.83-3.47-.83l.038-2.38z"/></g><path d="M120.342 70.423l8.108 2.54v2.26l-8.108-2.57v-2.23z" fill="#e3692b"/><path d="M129.074 50.737s1.118 1.223 3.014 1.338c1.087.066 1.078-.158 1.078-.158v-1.18s-1.745.285-2.662-.213l-.923-.498-.507.71z" fill="#000"/><path d="M119.222 49.564s-1.744 1.33-1.204 2.396 4.805 2.214 6.525 2.193c1.22-.01 2.738-1.27 3.137-1.436 2.392-1.022 5.86-4.008 5.622-5.568-.252-1.56-2.305-5.37-5.677-5.085s-6.638 1.314-7.63 4.134c-.983 2.812-.513 3.145-.774 3.366z" fill="#fc921f"/><path d="M120.016 50.556l.182.152 1.226-2.105 1.284.683-.46 2.404.772.4.564-.014s-.123-4.742.87-5.465c1.423-1.03 4.223-1.764 4.223-1.764s1.144-.62-.474-1.364c-1.03-.467-1.812-.23-1.812-.23s-3.65 1.4-4.16 2.143c-.503.74-2.215 5.16-2.215 5.16z" class="J"/><path d="M127.625 42.063s1.43.43 2.492 1.293c.736.606 1.093 1.41 1.52 2.45 1.032 2.526.715 2.88.492 3.185-.58.77-1.077 1.352-2.967 2.624l-1.662 1.165s1.732-.7 2.54-1.282c1.723-1.235 3.554-2.535 3.502-3.9s-.366-1.686-.633-1.974c-.28-.292-.53-1.1-1.545-2.127-1.016-1.02-2.655-1.716-3.738-1.434z" fill="#f96310"/><g class="J"><path d="M118.898 50.056c0-.096-.622.9.1 1.8s3.273 1.444 4.033 1.66 2.573-.618 2.573-.618-1.242 1.02-2.263.974c-1.054-.047-4.425-1.05-4.88-1.8s.45-2.026.45-2.026zm11.606-2.364s-.622-.14-1.195.01c-.432.12-.843.406-.946 1.042l-.388 2s.7-1.758 1.247-2.108c.977-.64 1.784-.422 1.784-.422l-.502-.514z"/></g><g fill="#f96310"><path d="M119.806 50.037s.405-4.305 2.232-5.542c1.84-1.235 3.97-1.462 3.97-1.462s-3.12.962-3.946 1.988c-.826 1.02-2.046 5.535-2.046 5.535l-.2-.52zm.392.673l1.017-2.2 1.733.457-.7 2.726.263-2.507-1.083-.343-1.23 1.868z"/><path d="M123.243 51.96s-.35-3.967 1.486-5.206c1.83-1.235 3.96-1.465 3.96-1.465s-3.117.966-3.943 1.988-.963 5.07-.963 5.07l-.54-.388z"/></g><path d="M120.198 50.78l1.028-1.626 1.022.244-.29 2.293-1.76-.91z" class="J"/><path d="M129.903 84.198s-.76.07-1.907.425c-1.152.36-2.023 1.368-1.62 1.634.392.263 1.133-.742 1.62-.632.482.115-3.227 2.397-2.974 3.073.32.83 3.386 1.8 4.407 1.28 3.36-1.742 3.112-2.13 3.814-3.12 1.418-2.008 4.785-3.37 6.714-8.486.108-.29-.28-.986-.262-1.272.065-.928-.546-6.693-.618-6.796-.087-.135-4.088 2.46-4.498 2.187-.49-.326 1.246 4.54 1.016 4.85-1.162 1.56-3.807 7.472-4.425 7.188-.424-.195-.82-.425-1.267-.33z" class="F"/><path d="M139.76 69.625c-.916-2.173-1.502-3.125-2.4-4.7-.484-.84-1.71-2.317-3.853-1.972-2.074.327-2.074 3.393-2.074 3.393l2.678 6.368c1.458 0 4.737-1.908 5.648-3.1z" class="G"/><path d="M134.112 72.714l1.173-.254c-1.098-2.17-2.377-4.784-2.678-6.065-.24-1 0-3.06 2.07-3.388.106-.013.193-.01.29-.02-.462-.145-.998-.206-1.614-.107-2.076.33-2.318 2.383-2.076 3.392.33 1.416 1.606 4.07 2.836 6.444z" class="H"/><path d="M108.064 60.932s.225-1.688.984-1.847 10.932 3.44 10.785 3.744c-.148.3.16.774-.257 2.777-.354 1.705-.737 2.002-.737 2.002L107.562 63.2l.502-2.268z" fill="#e2e2e2"/><path d="M107.682 60l12.248 5.09 2.96 19.226-.468.51-11.93-4.235-3.696-20.193.886-.396z" fill="#b83331"/><path d="M106.796 60.406l12.61 4.836 3.016 19.592-11.93-4.235-3.696-20.193z" fill="#e94744"/><path d="M118.703 64.95l-.376 2.455-9.716-3.643-.14-3.066 10.233 4.253z" fill="#b73800"/><path d="M119.7 65.008s.35-1.925-.227-2.105-1.822 4.718-1.822 4.718l-12.6-3.878s2.25-4.876 3.296-4.92l1.05-.042s10.15 3.704 10.435 4.05-.133 2.18-.133 2.18z" fill="#fff"/><path d="M107.562 68.564s.746-1.122 1.3-1.244c1.27-.28 2.624.51 2.71 1.862s.524 2.887-.526 3.148l-2.033.406.275 1.52s-1.52-.85-1.956-2.328.22-3.364.22-3.364z" fill="#e2b171"/><path d="M92.185 116.71l-41.082 19.83.15 1.567 44.27 21.98 41.116-21.112-44.453-22.263z" fill="#965e0c"/><path d="M128.224 135.724l-11.9-5.912v-4.072l12.008 5.722-.118 4.262zM97.2 116.62l12.857 6.126-.1 3.89-12.747-6.338v-3.68zm38.778 18.483l.068-1.647-45.734-21.86-.118 1.678.5.238.257.124.004 3.554-1.585-.79.056 1.765.323.152 45.796 22.336.886-1.348-2.043-.906.215-3.96 1.385.662z" fill="#a56321"/><path d="M51.983 132.167v-1.513l38.38-19.06 9.75 4.682-.182 1.553-38.762 18.7-9.185-4.373z" class="D"/><path d="M51.983 130.654l38.38-19.06 9.75 4.682L61.18 135.3l-9.196-4.647z" class="B"/><path d="M63.244 137.62l.225-1.143 39.804-18.368 9.46 4.205v1.336L72.647 142.36l-9.402-4.742z" class="D"/><path d="M63.47 136.476l39.586-18.903 9.68 4.74-40.077 18.813-9.188-4.65z" class="B"/><path d="M75.047 143.447l.22-1.144 40.065-18.853 9.26 4.53v1.372l-40.138 18.836-9.408-4.74z" class="D"/><path d="M75.268 142.303l40.065-18.853 9.26 4.53-40.126 18.974-9.198-4.65z" class="B"/><path d="M86.824 149.263l.223-1.14 42.875-17.74 6.716 3.1v1.73l-40.41 18.806-9.403-4.745z" class="C"/><path d="M87.047 148.123L127.94 129.5l8.698 3.972-40.4 19.303-9.192-4.652z" class="B"/><g class="K"><path d="M52.67 137.596l6.1 3.08v-4.544l-6.113-3.68.004 5.145zm18.532 9.26l6.256 3.184v-4.56l-6.115-3.676-.14 5.05z"/></g><g class="C"><path d="M51.988 137.596l-.004-5.145 6.1 3.68v4.544l-6.106-3.08zm18.532 9.26l.14-5.05 6.115 3.266v4.97l-6.256-3.184z"/></g><path d="M89.703 150.357l-.138 5.06 6 2.873.256-4.896-6.107-3.037z" class="K"/><path d="M88.88 155.417l.14-5.06 6.107 3.037-.255 4.896-6-2.873z" class="C"/><g fill="#f2c77c"><path d="M51.103 136.3L51 137.982l44.522 22.104V158.8l-44.42-22.5zm.264-5.114l-.115 1.668.48.236 44.22 21.466.067-1.272-44.653-22.098z"/></g><path d="M51.367 131.196l.616-.207 44.256 21.786-.218.52-44.653-22.098z" class="C"/><path d="M51.986 135.86l44.253 22.596-.716.345-44.42-22.49.883-.45z" fill="#d3a666"/><path d="M95.523 158.8l41.116-19.826v1.237l-41.116 19.875V158.8z" class="C"/><path d="M96.02 153.294l40.618-19.398v1.306l-40.685 19.364.067-1.272z" class="K"/><path d="M95.796 149.98l-35.684-17.576v-42.08l35.684 17.958v41.697z" class="E"/><path d="M95.796 149.1l-35.684-17.576V90.326l35.684 17.958V149.1z" fill="#dbc2a1"/><path d="M95.796 110.514L60.112 92.086v-1.76l35.684 17.958v2.23z" class="E"/><path d="M60.112 90.326L88.7 75.663l36.03 17.92-28.924 14.7-35.684-17.958z" fill="#e5ceb1"/><path d="M95.796 149.98l28.924-14.7V93.584l-28.924 14.7v41.697z" fill="#a68f7c"/><path d="M95.796 149.1l28.924-14.762v-38.3l-28.924 14.486V149.1z" class="E"/><path d="M107.94 85.237l-27.486 15.335-5.6-2.816 27.65-15.226 5.436 2.708z" fill="#ccab7f"/><path d="M80.453 124.893l-5.6-2.854V99.71l5.6 2.855v22.327z" fill="#9e754b"/><path d="M80.453 102.566v-1.995l-5.6-2.815v1.956l5.6 2.855z" fill="#926a45"/><path d="M99.1 126.53l10.398-5.316v-13.848L99.1 112.574v13.957z" fill="#eae4dc"/><g fill="#b5aba0"><path d="M100.235 115.118l7.63-3.733-.022-.76-7.608 3.732v.76zm0 2.447l7.63-3.734-.022-.762-7.608 3.736v.76zm0 6.513l7.63-3.733-.022-.76-7.608 3.734v.76z"/></g><path d="M146.804 145.51l-41.082 19.83.15 1.566 44.27 21.98 41.116-21.112-44.453-22.264z" fill="#965e0c"/><path d="M182.843 164.523l-11.9-5.912v-4.073l12.008 5.722-.118 4.263zm-31.023-19.105l12.857 6.126-.1 3.9-12.747-6.338v-3.678zm38.778 18.482l.068-1.646-45.734-21.86-.12 1.677.5.24.258.123.004 3.555-1.585-.8.056 1.766.323.15 45.796 22.337.886-1.35-2.043-.906.215-3.96 1.385.662z" fill="#a56321"/><path d="M106.602 160.966v-1.514l38.38-19.058 9.75 4.682-.182 1.552-38.762 18.71-9.185-4.373z" class="D"/><path d="M106.602 159.452l38.38-19.058 9.75 4.682-38.933 19.023-9.196-4.647z" class="B"/><path d="M117.863 166.418l.225-1.144 39.804-18.368 9.46 4.205v1.337l-40.087 18.71-9.403-4.74z" class="D"/><path d="M118.088 165.274l39.586-18.902 9.68 4.74-40.077 18.814-9.188-4.65z" class="B"/><path d="M129.666 172.245l.22-1.143 40.065-18.853 9.26 4.53v1.372l-40.138 18.837-9.407-4.742z" class="D"/><path d="M129.887 171.102l40.065-18.853 9.26 4.53-40.126 18.974-9.198-4.65z" class="B"/><path d="M141.443 178.06l.223-1.14 42.875-17.74 6.716 3.09V164l-40.41 18.806-9.403-4.745z" class="C"/><path d="M141.666 176.92l40.893-18.623 8.698 3.972-40.4 19.304-9.192-4.653z" class="B"/><path d="M105.986 159.994l-.115 1.668.48.237 44.22 21.466.067-1.272-44.653-22.1z" fill="#f2c77c"/><path d="M105.986 159.994l.616-.207 44.256 21.787-.22.52-44.653-22.1z" class="C"/><path d="M151.707 180.54l-35.684-17.576v-42.08l35.684 17.958v41.697z" class="E"/><path d="M151.707 179.66l-35.684-17.576v-41.198l35.684 17.958v40.816z" fill="#dbc2a1"/><path d="M151.707 141.074l-35.684-18.428v-1.76l35.684 17.958v2.23z" class="E"/><path d="M116.023 120.886l28.578-14.663 36.03 17.92-28.924 14.7-35.684-17.958z" fill="#e5ceb1"/><path d="M151.707 180.54l28.924-14.7v-41.698l-28.924 14.7v41.697z" fill="#a68f7c"/><path d="M151.707 179.66l28.924-14.762v-38.3l-28.924 14.486v38.586z" class="E"/><path d="M163.85 115.797l-27.486 15.335-5.6-2.816 27.65-15.227 5.436 2.708z" fill="#ccab7f"/><path d="M136.364 155.453l-5.6-2.854V130.27l5.6 2.855v22.327z" fill="#9e754b"/><path d="M136.364 133.126v-1.994l-5.6-2.816v1.955l5.6 2.855z" fill="#926a45"/><path d="M155.01 157.09l10.398-5.316v-13.848l-10.398 5.207v13.957z" fill="#eae4dc"/><g fill="#b5aba0"><path d="M156.146 145.678l7.63-3.733-.022-.76-7.608 3.732v.76zm0 2.447l7.63-3.734-.022-.762-7.608 3.736v.76zm0 6.513l7.63-3.733-.022-.76-7.608 3.733v.76z"/></g></g><defs><clipPath id="A"><path fill="#fff" d="M0 0h160v160H0z"/></clipPath></defs></svg>