<svg xmlns="http://www.w3.org/2000/svg" xmlns:xlink="http://www.w3.org/1999/xlink" width="160" height="160" fill="none"><g clip-path="url(#G)"><g class="I"><path opacity=".2" d="M328.73 142.33c0 .626-66.105 1.132-147.65 1.132s-147.65-.506-147.65-1.132 66.106-1.13 147.65-1.13l147.65 1.13z" fill="#2d2d2d"/><g fill="#e36646"><path d="M167.264 127.18h-8.562l.177-5.646h8.562l-.177 5.646zm-35.48 0h-8.563l.178-5.646h8.562l-.177 5.646z"/></g><path d="M122.325 120.63h42.5V63.237h-42.5v57.392z" fill="#555856"/><path d="M146.972 128.863l-.05 1.047a12.02 12.02 0 0 0 12.017 12.017 12.02 12.02 0 0 0 12.017-12.017l-.05-1.047h-23.936z" class="G"/><g class="L"><path d="M157.563 116.12h19.903v-1.366h-19.903v1.366zm0 4.5h19.903v-1.366h-19.903v1.366z"/><path d="M157.652 119.263h3.892v-3.143h-3.892v3.143z"/></g><g class="M"><path d="M157.652 116.925h3.892v-.805h-3.892v.805zm0 2.338h3.892v-.805h-3.892v.805z"/></g><path d="M157.652 114.664h10.534V104.13h-10.534v10.533z" class="D"/><path d="M157.74 114.575h10.355V104.22H157.74v10.355zm-.178.18h10.712v-10.712h-10.712v10.712z" class="C"/><path d="M158.196 113.295h4.207v-1.406h-4.207v1.406z" class="E"/><path d="M158.196 114.055h4.207v-.492h-4.207v.492z" class="B"/><path d="M157.652 103.953h10.534V93.42h-10.534v10.534z" class="D"/><path d="M157.74 103.863h10.355V93.508H157.74v10.355zm-.178.18h10.712V93.33h-10.712v10.712z" class="C"/><path d="M158.196 102.584h4.207v-1.407h-4.207v1.407z" class="E"/><path d="M158.196 103.342h4.207v-.5h-4.207v.5z" class="B"/><path d="M157.652 93.33h10.534V82.796h-10.534V93.33z" class="D"/><path d="M157.74 93.24h10.355V82.886H157.74V93.24zm-.178.178h10.712V82.707h-10.712V93.42z" class="C"/><path d="M158.196 91.96h4.207v-1.406h-4.207v1.406z" class="E"/><g class="B"><path d="M158.196 92.72h4.207v-.5h-4.207v.5zm19.29 35.844a15.27 15.27 0 0 1 .803-4.889h-61.134v5.86h60.365l-.034-.97z"/></g><path d="M179.702 120.63h-60.396v3.33h58.886c.37-1.177.88-2.294 1.5-3.33z" fill="#a5a6a4"/><path d="M120.762 62v58.63h1.563V63.237h42.5v57.392h14.876c2.683-4.413 7.537-7.36 13.08-7.36s10.396 2.947 13.08 7.36h35.64V62h-120.74z" fill="#dedfde"/><path d="M124.224 126.068h7v-3.405h-7v3.405z" class="N"/><path opacity=".2" d="M139.305 150.612c0 .46-25.81.836-57.652.836S24 151.073 24 150.612s25.812-.836 57.653-.836l57.652.836z" fill="#2d2d2d"/><g fill="#a37849"><path d="M126.794 115.147h25.52V113.9h-25.52v1.248zm0 4.117h25.52v-1.247h-25.52v1.247z"/></g><g class="L"><path d="M103.408 115.147h29.283V113.9h-29.283v1.248zm0 4.117h29.283v-1.247h-29.283v1.247z"/><path d="M103.49 118.016h3.555v-2.87h-3.555v2.87z"/></g><g class="M"><path d="M103.5 115.88h3.555v-.734H103.5v.734zm0 2.136h3.555v-.734H103.5v.734z"/></g><path d="M115.83 118.016h3.554v-2.87h-3.554v2.87z" class="L"/><g class="M"><path d="M115.83 115.88h3.554v-.734h-3.554v.734zm0 2.136h3.554v-.734h-3.554v.734z"/></g><path d="M125.17 115.57H110.42V94.893h-3.377v22.178h3.377v-.01h40.595a1.49 1.49 0 0 0 1.491-1.491H125.17z" class="B"/><path d="M129.137 118.016h3.554v-2.87h-3.554v2.87z" class="L"/><g fill="#a37849"><path d="M123.04 118.016h3.554v-2.87h-3.554v2.87zm12.343 0h3.554v-2.87h-3.554v2.87zm13.305 0h3.555v-2.87h-3.555v2.87z"/></g><g class="M"><path d="M129.137 115.88h3.554v-.734h-3.554v.734zm0 2.136h3.554v-.734h-3.554v.734z"/></g><path d="M103.49 113.818h9.618V104.2h-9.618v9.618z" class="D"/><use xlink:href="#H" class="C"/><path d="M106.94 106.234h2.285v-1.952h-2.285v1.952z" class="F"/><use xlink:href="#I" class="E"/><path d="M103.986 113.26h3.84v-.448h-3.84v.448z" class="B"/><path d="M113.27 113.818h9.618V104.2h-9.618v9.618z" class="D"/><path d="M113.352 113.736h9.455v-9.454h-9.455v9.454zm-.163.163h9.78v-9.78h-9.78v9.78z" class="C"/><path d="M116.722 106.234h2.285v-1.952h-2.285v1.952z" class="F"/><path d="M113.767 112.568h3.84v-1.284h-3.84v1.284z" class="E"/><path d="M113.767 113.26h3.84v-.448h-3.84v.448z" class="B"/><path d="M123.05 113.818h9.62V104.2h-9.62v9.618z" class="D"/><path d="M123.133 113.736h9.455v-9.454h-9.455v9.454zm-.163.163h9.78v-9.78h-9.78v9.78z" class="C"/><path d="M126.503 106.234h2.285v-1.952h-2.285v1.952z" class="F"/><path d="M123.548 112.568h3.84v-1.284h-3.84v1.284z" class="E"/><path d="M123.548 113.26h3.84v-.448h-3.84v.448z" class="B"/><path d="M103.49 104.037h9.618V94.42h-9.618v9.618z" class="D"/><use xlink:href="#J" class="C"/><path d="M106.94 96.453h2.285V94.5h-2.285v1.952z" class="F"/><path d="M103.986 102.787h3.84v-1.284h-3.84v1.284z" class="E"/><path d="M103.986 103.48h3.84v-.45h-3.84v.45z" class="B"/><path d="M113.27 104.037h9.618V94.42h-9.618v9.618z" class="D"/><path d="M113.352 103.956h9.455V94.5h-9.455v9.456zm-.163.163h9.78v-9.782h-9.78v9.782z" class="C"/><path d="M116.722 96.453h2.285V94.5h-2.285v1.952z" class="F"/><path d="M113.767 102.787h3.84v-1.284h-3.84v1.284z" class="E"/><path d="M113.767 103.48h3.84v-.45h-3.84v.45z" class="B"/><path d="M123.05 104.037h9.62V94.42h-9.62v9.618z" class="D"/><path d="M123.133 103.956h9.455V94.5h-9.455v9.456zm-.163.163h9.78v-9.782h-9.78v9.782z" class="C"/><path d="M126.503 96.453h2.285V94.5h-2.285v1.952z" class="F"/><path d="M123.548 102.787h3.84v-1.284h-3.84v1.284z" class="E"/><path d="M123.548 103.48h3.84v-.45h-3.84v.45z" class="B"/><path d="M132.833 113.818h9.618V104.2h-9.618v9.618z" class="H"/><path d="M132.914 113.736h9.455v-9.454h-9.455v9.454zm-.163.163h9.78v-9.78h-9.78v9.78z" class="C"/><path d="M132.833 104.037h9.618V94.42h-9.618v9.618z" class="H"/><path d="M132.914 103.956h9.455V94.5h-9.455v9.456zm-.163.163h9.78v-9.782h-9.78v9.782z" class="C"/><path d="M142.614 113.818h9.618V104.2h-9.618v9.618z" class="H"/><path d="M142.695 113.736h9.455v-9.454h-9.455v9.454zm-.163.163h9.78v-9.78h-9.78v9.78z" class="C"/><path d="M142.614 104.037h9.618V94.42h-9.618v9.618z" class="H"/><path d="M142.695 103.956h9.455V94.5h-9.455v9.456zm-.163.163h9.78v-9.782h-9.78v9.782z" class="C"/><path d="M103.49 84.557h9.618V74.94h-9.618v9.618z" class="D"/><use xlink:href="#K" class="C"/><path d="M106.94 76.972h2.285V75.02h-2.285v1.952z" class="F"/><path d="M103.986 83.307h3.84v-1.285h-3.84v1.285z" class="E"/><path d="M103.986 84h3.84v-.448h-3.84V84z" class="B"/><path d="M113.27 84.557h9.618V74.94h-9.618v9.618z" class="D"/><path d="M113.352 84.475h9.455V75.02h-9.455v9.455zm-.163.163h9.78v-9.78h-9.78v9.78z" class="C"/><path d="M116.722 76.972h2.285V75.02h-2.285v1.952z" class="F"/><path d="M113.767 83.307h3.84v-1.285h-3.84v1.285z" class="E"/><path d="M113.767 84h3.84v-.448h-3.84V84z" class="B"/><path d="M123.05 84.557h9.62V74.94h-9.62v9.618z" class="D"/><path d="M123.133 84.475h9.455V75.02h-9.455v9.455zm-.163.163h9.78v-9.78h-9.78v9.78z" class="C"/><path d="M126.503 76.972h2.285V75.02h-2.285v1.952z" class="F"/><path d="M123.548 83.307h3.84v-1.285h-3.84v1.285z" class="E"/><path d="M123.548 84h3.84v-.448h-3.84V84z" class="B"/><path d="M132.833 84.557h9.618V74.94h-9.618v9.618z" class="H"/><path d="M132.914 84.475h9.455V75.02h-9.455v9.455zm-.163.163h9.78v-9.78h-9.78v9.78z" class="C"/><path d="M142.614 84.557h9.618V74.94h-9.618v9.618z" class="H"/><path d="M142.695 84.475h9.455V75.02h-9.455v9.455zm-.163.163h9.78v-9.78h-9.78v9.78z" class="C"/><path d="M103.49 94.337h9.618V84.72h-9.618v9.618z" class="D"/><use xlink:href="#L" class="C"/><path d="M106.94 86.753h2.285V84.8h-2.285v1.952z" class="F"/><path d="M103.986 93.088h3.84v-1.284h-3.84v1.284z" class="E"/><path d="M103.986 93.78h3.84v-.448h-3.84v.448z" class="B"/><path d="M113.27 94.337h9.618V84.72h-9.618v9.618z" class="D"/><path d="M113.352 94.256h9.455V84.8h-9.455v9.455zm-.163.163h9.78v-9.78h-9.78v9.78z" class="C"/><path d="M116.722 86.753h2.285V84.8h-2.285v1.952z" class="F"/><path d="M113.767 93.088h3.84v-1.284h-3.84v1.284z" class="E"/><path d="M113.767 93.78h3.84v-.448h-3.84v.448z" class="B"/><path d="M123.05 94.337h9.62V84.72h-9.62v9.618z" class="D"/><path d="M123.133 94.256h9.455V84.8h-9.455v9.455zm-.163.163h9.78v-9.78h-9.78v9.78z" class="C"/><path d="M126.503 86.753h2.285V84.8h-2.285v1.952z" class="F"/><path d="M123.548 93.088h3.84v-1.284h-3.84v1.284z" class="E"/><path d="M123.548 93.78h3.84v-.448h-3.84v.448z" class="B"/><path d="M132.833 94.337h9.618V84.72h-9.618v9.618z" class="H"/><path d="M132.914 94.256h9.455V84.8h-9.455v9.455zm-.163.163h9.78v-9.78h-9.78v9.78z" class="C"/><path d="M142.614 94.337h9.618V84.72h-9.618v9.618z" class="H"/><path d="M142.695 94.256h9.455V84.8h-9.455v9.455zm-.163.163h9.78v-9.78h-9.78v9.78z" class="C"/><path d="M115.155 146.23h6.763v-10.563h-6.763v10.563z" class="P"/><path d="M89.818 129.144l-1.707 1.16-1.478-2.368 1.707-1.158 1.478 2.367z" fill="#dea37a"/><path d="M78.38 102.017l1.158-.262s-.114-.594.305-.23c-.205-.205-1.488-.06-1.488-.06l-.464.408.49.143z" class="Q"/><g class="R"><path d="M79.356 101.56l.576 2.1c-.014.065.093.836.17 1.383.04.288-.182.545-.473.545h-1.36c-.24 0-2.39-.785-2.748-1.417s-.8-2.995.955-3.55c1.93-.613 2.877.94 2.877.94z"/><path d="M78.562 106.937l-2.303 1.174-.974-4.69 2.8.273.477 3.244z"/></g><path d="M92.404 130.635h-5.946l.192-1.772h4.42a1.34 1.34 0 0 1 1.36 1.525l-.027.247z" class="K"/><path d="M95.756 128.418l-1.525 1.233-1.846-2.283 1.525-1.233 1.845 2.283z" class="R"/><path d="M103 137.03h5.174V87.388H103v49.643z" class="O"/><g class="G"><path d="M106.862 133.102h-6.458c-2.692 0-5.406-2.183-6.062-4.875l-1.038-4.262c-.656-2.692.995-4.874 3.687-4.874h6.457c2.692 0 5.406 2.182 6.062 4.874l1.038 4.262c.656 2.692-.994 4.875-3.686 4.875z"/><path d="M97.06 131.12L90.675 116.8l3.943-2.308.963 1.14-.66.732 3.53 3.762 9.79 10.12-5.458.88-5.724-.004z"/></g><path d="M92.803 116.025l-2.485-4.564-.017.012c-.078-.082-.187-.14-.338-.14-.376 0-.8.298-.97.665-.065.15-.06.283-.023.395l-.015.01 2.484 4.563 1.36-.94z" fill="#1a1919"/><path d="M98.802 126.697l-4.58 3.792-1.13-1.366 3.988-3.3a.77.77 0 0 1 1.082.101l.64.774z" class="K"/><path d="M86.563 129.627l-3.244-8.46c-.408-1.038.057-2.247 1.037-2.7s2.105.022 2.513 1.06l3.243 8.46-3.55 1.64z" class="Q"/><path d="M90.133 122.104H76.017c-1.007 0-1.822-.816-1.822-1.823V117.9H88.31c1.007 0 1.823.816 1.823 1.823v2.382z" class="K"/><path d="M86.95 114.16s.83.155 1.496-.197c.337-.757 1.14-.405 1.14-.405s-.457.12-.382.453 1.732.595 1.782.814-1.443 1.047-2.035 1.083-2.022-.567-2.022-.567l.02-1.18z" fill="#dea37a"/><path d="M91.64 129.143l-5.792-7.44c-.72-.9-.567-2.233.343-2.954s2.233-.567 2.954.343l5.792 7.44-3.296 2.61z" class="K"/><g class="Q"><path d="M83.883 114.96l-1.177 1.028a.6.6 0 0 1-.844-.057l-5.242-6.005 2.078-1.815 5.242 6.005a.6.6 0 0 1-.057.844z"/><path d="M80.987 114.47a1.38 1.38 0 0 1 1.402-1.357l5.284.804-.087 1.926-5.242.028a1.38 1.38 0 0 1-1.357-1.401z"/></g><path d="M90.928 109.904c-1.532 0-3.28 1.02-3.954 2.27-.278.515-.324.98-.13 1.314.2.344.67.548 1.288.56l.06.001c1.472 0 3.22-1.018 3.895-2.27.278-.515.324-.982.13-1.315-.2-.343-.67-.547-1.288-.56zm-2.735 5.22l-.08-.001c-1.016-.02-1.797-.408-2.197-1.093-.4-.67-.35-1.51.112-2.367.858-1.59 2.985-2.834 4.843-2.834 1.097.02 1.878.41 2.278 1.093.4.67.35 1.5-.112 2.367-.858 1.6-2.985 2.835-4.842 2.835z" class="B"/><path d="M87.837 113.345s.9.386 1.726.162c.57-.762 1.2-.314 1.2-.314s-.486.19-.354.56c.245.687 1.528.127 1.528.385s-1.623 1.785-2.296 1.675-2.118-1.152-2.118-1.152l.325-1.317z" class="R"/><g class="K"><path d="M78.838 106.233h-3.142a1.5 1.5 0 0 0-1.502 1.501v10.33a.29.29 0 0 0 .29.289h4.967a.29.29 0 0 0 .29-.289v-10.93a.9.9 0 0 0-.902-.901z"/><path d="M83.812 114.02a1.38 1.38 0 0 1-1.947-.132l-4.728-5.417 2.056-1.586 4.75 5.188a1.38 1.38 0 0 1-.132 1.947z"/><path d="M81.52 112.86a1.38 1.38 0 0 1 1.555-1.177l5.15 1.436-.32 1.9-5.207-.604a1.38 1.38 0 0 1-1.178-1.556zm-2.124-11.237c-.32-1.152-1.492-1.86-2.67-1.587s-1.92 1.423-1.7 2.6l4.37-1.012z"/><path d="M77.45 102.074l2.393-.548s-.112-.584-.486-.497l-1.312.304-.596.74z"/></g><path d="M53.674 142.893a7.28 7.28 0 0 0-7.276-7.276 7.28 7.28 0 0 0-7.276 7.276c0 4.02 3.257 7.276 7.276 7.276h2.623v-.495c2.72-1.054 4.653-3.688 4.653-6.78z" class="G"/><path d="M42.24 142.893a7.28 7.28 0 0 1 7.276-7.276 7.28 7.28 0 0 1 7.276 7.276 7.28 7.28 0 0 1-7.276 7.276c-4.018 0-7.276-3.257-7.276-7.276z" class="B"/><g class="G"><path d="M70.388 142.893a7.28 7.28 0 0 0-7.276-7.276 7.28 7.28 0 0 0-7.276 7.276 7.28 7.28 0 0 0 7.276 7.276h2.623v-.495c2.72-1.054 4.653-3.688 4.653-6.78z"/><path d="M67.01 131.554c3.966 8.703.59 11.98 9.94 10.705a.71.71 0 0 0 .488-.261l3.814 1.74H47.67l-6.478-10.912 25.82-1.272z"/></g><path d="M75.068 130.6c-.228-2.56-2.356-4.536-4.927-4.57h-13.17l3.566-31.604a2.61 2.61 0 0 1 2.683-2.302l13.322.625c3.683.13 6.814 2.733 7.615 6.33l6.785 30.438-.027.01c-3.506 1.28-15.848 1.074-15.848 1.074zm10.336-33.17c-.883-3.96-4.328-6.824-8.383-6.968l-19.43-.69a2.87 2.87 0 0 0-2.953 2.535l-3.9 33.2 6.526 7.192h10.523v6.167l13.566 2.153 4.186-7.402 7.326-2.676-7.47-33.512z" class="B"/><path d="M76.07 126.437h10.796v-2.567H76.07v2.567z" class="G"/><path d="M69.486 105.956l9.473.001 2.5 18.44H71.3l-1.803-18.44z" fill="#2f3435"/><path d="M82.23 141.857c0-4.835 3.92-8.755 8.755-8.755s8.755 3.92 8.755 8.755-.164 8.755-8.755 8.755c-4.835 0-8.755-3.92-8.755-8.755z" class="G"/><path d="M84.8 141.857c0-4.835 3.92-8.755 8.755-8.755s8.755 3.92 8.755 8.755-3.92 8.755-8.755 8.755-8.755-3.92-8.755-8.755z" class="B"/><use xlink:href="#M" class="J"/><use xlink:href="#N" class="O"/><path d="M89.204 141.857c0-2.41 1.953-4.362 4.362-4.362s4.362 1.953 4.362 4.362a4.36 4.36 0 1 1-8.723 0z" class="J"/></g><mask id="A" mask-type="alpha" maskUnits="userSpaceOnUse" x="92" y="140" width="3" height="3"><use xlink:href="#O" fill="#fff"/></mask><g mask="url(#A)" class="I"><use xlink:href="#O" fill="url(#D)"/></g><g class="I"><g class="B"><path d="M92.874 139.556a.64.64 0 1 1 1.283 0 .64.64 0 0 1-.641.642c-.354 0-.642-.288-.642-.642z"/><use xlink:href="#P"/><path d="M90.518 141.834a.642.642 0 1 1 1.283 0 .642.642 0 1 1-1.283 0zm5.452-1.59a.641.641 0 1 0-1.282 0 .641.641 0 1 0 1.282 0z"/><use xlink:href="#Q"/><path d="M91.16 143.514a.642.642 0 1 0 1.283 0 .642.642 0 1 0-1.283 0zm4.8 0a.641.641 0 1 1-1.282 0 .641.641 0 1 1 1.282 0zm.642-1.68a.642.642 0 1 0-1.283 0 .642.642 0 1 0 1.283 0z"/></g><path d="M53.63 135.122c1.73-.686 3.542-1.154 5.283-1.8.23-.512.605-.946 1.075-1.176-2.723-3.765-3.998-8.604-8.31-10.274-7.418-2.875-9.824-1.643-9.824-1.643-1.908.17-2.123 7.528-.874 16.233a9.28 9.28 0 0 1 6.483-2.631c2.024 0 3.888.658 5.414 1.756.208-.2.452-.356.752-.475z" class="D"/><g class="N"><path d="M39.385 132.278h3.6v-3.592h-3.6v3.592zm0-5.022h3.6v-3.592h-3.6v3.592z"/></g><g class="P"><path d="M44.656 131.554h8.76v-.433h-8.76v.433zm0-1.444h8.76v-.434h-8.76v.434zm0-1.444h8.76v-.433h-8.76v.433zm0-1.443h8.76v-.433h-8.76v.433z"/></g><path d="M85.664 129.327l.405.488c.17.207.477.236.683.065l2.414-1.998c.207-.17.235-.477.064-.684l-.404-.488-3.162 2.617z" class="D"/><path d="M97.86 130.635l-1.225-1.704 1.455-.95.286.413-.228.27 1.055 1.366.43-.01.123.614H97.86z" class="B"/><path d="M69.958 131.554c3.966 8.703 15.62 11.98 24.968 10.705a.71.71 0 0 0 .488-.261l3.814 1.74H65.644l-6.478-10.912 10.792-1.272z" class="G"/><path d="M58.368 142.893a7.28 7.28 0 0 1 7.276-7.276 7.28 7.28 0 0 1 7.276 7.276 7.28 7.28 0 0 1-7.276 7.276c-4.02 0-7.276-3.257-7.276-7.276z" class="B"/><path d="M60.5 142.893c0-2.84 2.303-5.143 5.143-5.143s5.143 2.303 5.143 5.143-2.302 5.144-5.143 5.144-5.143-2.303-5.143-5.144z" class="J"/><path d="M61.634 142.893a4.01 4.01 0 0 1 8.02 0 4.01 4.01 0 1 1-8.02 0z" class="O"/><path d="M62.02 142.893c0-2.002 1.623-3.625 3.625-3.625s3.625 1.623 3.625 3.625-1.623 3.625-3.625 3.625-3.625-1.623-3.625-3.625z" class="J"/></g><mask id="B" mask-type="alpha" maskUnits="userSpaceOnUse" x="64" y="142" width="3" height="2"><use xlink:href="#R" fill="#fff"/></mask><g mask="url(#B)" class="I"><use xlink:href="#R" fill="url(#E)"/></g><g class="I"><g class="B"><path d="M65.07 140.982c0-.295.24-.534.533-.534s.533.24.533.534-.24.533-.533.533-.533-.24-.533-.533zm-1.425.572c0-.295.24-.533.533-.533s.533.238.533.533-.24.533-.533.533-.533-.24-.533-.533zm-.533 1.32c0-.294.24-.533.533-.533s.533.24.533.533-.24.533-.533.533-.533-.238-.533-.533zm4.53-1.32c0-.295-.24-.533-.533-.533s-.533.238-.533.533.24.533.533.533.533-.24.533-.533zm-2.573 3.29c0 .295.24.533.533.533s.533-.238.533-.533-.24-.533-.533-.533-.533.24-.533.533zm-1.425-.573c0 .294.24.533.533.533s.533-.24.533-.533-.24-.533-.533-.533-.533.238-.533.533zm3.998 0c0 .294-.24.533-.533.533s-.533-.24-.533-.533.24-.533.533-.533.533.238.533.533zm.533-1.396c0-.294-.24-.533-.533-.533s-.533.24-.533.533.24.533.533.533.533-.238.533-.533z"/></g><path d="M108.164 145.376h7.938V87.388h-7.938v57.988z" class="G"/><g class="B"><path d="M74.947 126.03l3.567-31.604a2.61 2.61 0 0 1 2.682-2.302l13.322.625c3.683.13 6.813 2.733 7.615 6.33l6.785 30.438-.027.01c-3.506 1.28-15.848 1.074-15.848 1.074a5.02 5.02 0 0 0-4.928-4.571h-13.17zm-6.225-.52l11.292 12.445 19.323 3.067 4.186-7.402 7.326-2.676-7.47-33.512c-.883-3.96-4.33-6.824-8.384-6.968l-19.43-.7a2.87 2.87 0 0 0-2.953 2.535l-3.9 33.2zm53.332-8.44h3.378V94.893h-3.378v22.178z"/><path d="M123.744 117.06h5.46v-1.5h-5.46v1.5zm24.956-1.5h-16v1.5h16c-.057-.496.008-.992 0-1.5zm3.488 0a11.42 11.42 0 0 0 .088 1.491h1.034a1.49 1.49 0 0 0 1.491-1.491h-2.613z"/></g><g class="G"><path d="M117.702 141.3a8.75 8.75 0 0 0-8.727-8.208c-4.836 0-8.755 3.92-8.755 8.755s3.92 8.755 8.755 8.755a74.01 74.01 0 0 0 3.553-.078c-.96-3.504 1.735-7.19 5.174-9.224z"/><path d="M98.44 138.088c-.253.33-.53.647-.825.948-.783.8.446 2.03 1.23 1.23 1.136-1.162 2.034-2.496 2.35-4.06a70.88 70.88 0 0 1 10.738-5.735c3.148 1.037 5.992 2.634 8.67 4.683l-8.754 8.523-20.278.06a68.54 68.54 0 0 1 6.87-5.649z"/></g><path d="M102.786 141.857c0-4.835 3.92-8.755 8.755-8.755a8.76 8.76 0 0 1 8.755 8.755 8.76 8.76 0 0 1-8.755 8.755c-4.836 0-8.755-3.92-8.755-8.755z" class="B"/><path d="M105.352 141.857a6.19 6.19 0 0 1 6.189-6.189 6.19 6.19 0 0 1 6.189 6.189 6.19 6.19 0 0 1-6.189 6.188 6.19 6.19 0 0 1-6.189-6.188z" class="J"/><path d="M106.716 141.857c0-2.665 2.16-4.826 4.825-4.826s4.825 2.16 4.825 4.826-2.16 4.825-4.825 4.825-4.825-2.16-4.825-4.825z" class="O"/><path d="M107.18 141.857c0-2.41 1.953-4.362 4.362-4.362a4.36 4.36 0 1 1 0 8.723 4.36 4.36 0 0 1-4.362-4.361z" class="J"/></g><mask id="C" mask-type="alpha" maskUnits="userSpaceOnUse" x="110" y="140" width="3" height="3"><use xlink:href="#S" fill="#fff"/></mask><g mask="url(#C)" class="I"><use xlink:href="#S" fill="url(#F)"/></g><g class="I"><g class="B"><path d="M110.85 139.556a.642.642 0 1 1 1.283 0 .642.642 0 1 1-1.283 0zm-1.715.69a.642.642 0 1 1 1.283 0 .642.642 0 1 1-1.283 0zm-.64 1.59a.642.642 0 1 1 1.283 0 .642.642 0 1 1-1.283 0zm5.452-1.59a.641.641 0 1 0-1.282 0 .641.641 0 1 0 1.282 0zm-3.096 3.958a.642.642 0 1 0 1.283 0 .642.642 0 1 0-1.283 0zm-1.715-.69a.642.642 0 1 0 1.283 0 .642.642 0 1 0-1.283 0zm4.81 0a.641.641 0 1 1-1.282 0 .641.641 0 1 1 1.282 0zm.642-1.68a.641.641 0 1 0-1.283 0 .641.641 0 1 0 1.283 0z"/></g><g class="D"><path d="M74.75 143.152c0-5.142-4.17-9.31-9.31-9.31-2.52 0-4.806 1.004-6.483 2.632-1.25-8.706-1.035-16.065.874-16.234 0 0 2.406-1.232 9.824 1.643s5.82 15.15 18.136 15.15 12.852-.384 12.852-.384 10.208-14.304 22.066.384c0 0-.054-.028-1.355.83-1.328-1.64-2.614-2.88-3.85-3.797a9.15 9.15 0 0 0-.56-.398c-3.83-2.57-7.145-2.04-9.652-.653a9.87 9.87 0 0 0-3.676 3.052c-.877 1.006-1.354 1.796-1.354 1.796l-.05.92a9.84 9.84 0 0 0-.501 3.1c0 .72.08 1.418.225 2.092l-.12 2.248H74.23a9.3 9.3 0 0 0 .519-3.067z"/><path d="M120.358 146.23a9.79 9.79 0 0 0 1.015-4.351c0-5.43-4.402-9.833-9.832-9.833s-9.832 4.402-9.832 9.832a9.79 9.79 0 0 0 1.015 4.352h-2.584c-.516-1.352-.802-2.818-.802-4.35 0-6.74 5.463-12.203 12.203-12.203s12.203 5.464 12.203 12.203c0 1.533-.286 3-.802 4.35h-2.584z"/></g><g class="B"><path d="M80.422 124.396h11.04v-1.5a1.15 1.15 0 0 0-1.148-1.148h-11.04v1.5a1.15 1.15 0 0 0 1.148 1.148zm7.914-15.568a.621.621 0 1 1 1.243 0 .621.621 0 1 1-1.243 0z"/><path d="M79.35 122.76l-.526-16.798 1.722-.055a1.32 1.32 0 0 1 1.358 1.277l.485 15.48-3.04.095zm16.026 8.75l-1.002.132-1.858-14.166 1.002-.132 1.858 14.166z"/><path d="M91.824 117.343a1.05 1.05 0 0 1 1.047-1.047c.58 0 1.047.47 1.047 1.047s-.47 1.048-1.047 1.048a1.05 1.05 0 0 1-1.048-1.048z"/></g><path d="M110.91 89.645h2.833v-.996h-2.833v.996z" class="N"/><g class="P"><path d="M62.63 131.554h8.76v-.433h-8.76v.433zm0-1.444h8.76v-.434h-8.76v.434zm0-1.444h8.76v-.433h-8.76v.433zm0-1.443h8.76v-.433h-8.76v.433zm11.755 19.68h28.292v-.672H74.385v.672z"/></g><g class="D"><path d="M95.34 129.555l.404.488c.17.207.477.235.683.064l2.414-1.997c.206-.17.235-.477.064-.683l-.404-.5-3.162 2.617zm-54.36 6.918h17.975l2.266-16.496-18.224.025-2.017 16.47z"/></g><g class="N"><path d="M57.36 132.278h3.608v-3.592H57.36v3.592zm0-5.022h3.608v-3.592H57.36v3.592z"/></g><path d="M75.565 89.774H56.792v2.996l19.75-.02-.978-2.975z" class="B"/></g></g><defs><radialGradient id="D" cx="0" cy="0" r="1" gradientUnits="userSpaceOnUse" gradientTransform="matrix(3.41989,0,0,3.41989,93.8538,141.368)"><stop stop-color="#9e9f9e"/><stop offset="1" stop-color="#696a68"/></radialGradient><radialGradient id="E" cx="0" cy="0" r="1" gradientUnits="userSpaceOnUse" gradientTransform="matrix(2.84212,0,0,2.84212,65.8836,142.487)"><stop stop-color="#9e9f9e"/><stop offset="1" stop-color="#696a68"/></radialGradient><radialGradient id="F" cx="0" cy="0" r="1" gradientUnits="userSpaceOnUse" gradientTransform="matrix(3.41991,0,0,3.41991,111.829,141.368)"><stop stop-color="#9e9f9e"/><stop offset="1" stop-color="#696a68"/></radialGradient><clipPath id="G"><path fill="#fff" d="M0 0h160v160H0z"/></clipPath><path id="H" d="M103.57 113.736h9.455v-9.454h-9.455v9.454zm-.163.163h9.78v-9.78h-9.78v9.78z"/><path id="I" d="M103.986 112.568h3.84v-1.284h-3.84v1.284z"/><path id="J" d="M103.57 103.956h9.455V94.5h-9.455v9.456zm-.163.163h9.78v-9.782h-9.78v9.782z"/><path id="K" d="M103.57 84.475h9.455V75.02h-9.455v9.455zm-.163.163h9.78v-9.78h-9.78v9.78z"/><path id="L" d="M103.57 94.256h9.455V84.8h-9.455v9.455zm-.163.163h9.78v-9.78h-9.78v9.78z"/><path id="M" d="M87.377 141.857a6.19 6.19 0 0 1 6.189-6.189 6.19 6.19 0 0 1 6.189 6.189 6.19 6.19 0 0 1-6.189 6.188 6.19 6.19 0 0 1-6.189-6.188z"/><path id="N" d="M88.74 141.857c0-2.665 2.16-4.826 4.825-4.826s4.825 2.16 4.825 4.826-2.16 4.825-4.825 4.825-4.825-2.16-4.825-4.825z"/><path id="O" d="M92.618 141.88a.95.95 0 0 1 .947-.948.95.95 0 0 1 .948.948.95.95 0 0 1-.948.947c-.523 0-.947-.424-.947-.947z"/><path id="P" d="M91.16 140.245a.64.64 0 1 1 1.283 0 .64.64 0 1 1-1.283 0z"/><path id="Q" d="M92.874 144.203a.64.64 0 1 0 1.283 0 .64.64 0 1 0-1.283 0z"/><path id="R" d="M64.857 142.912c0-.435.353-.787.787-.787s.787.352.787.787-.352.787-.787.787-.787-.352-.787-.787z"/><path id="S" d="M110.594 141.88c0-.524.424-.948.947-.948s.947.424.947.948-.424.947-.947.947-.947-.424-.947-.947z"/></defs></svg>