<?xml version="1.0" encoding="UTF-8"?>
<svg fill="none" viewBox="0 0 150 151" xmlns="http://www.w3.org/2000/svg">
<path d="m28.814 158.93v-3.39l10.487 1.391v-8.167h3.5707v-4.136s9.6498-0.956 9.6512-1.05c0.0034-0.232 0-4.677 0-4.677s0.1861-1.448-0.0713-1.453c-0.1718-4e-3 -0.3433-8e-3 -0.5738-0.07-0.5705-0.155-2.1197-0.629-2.3707-0.73-0.0517-0.022-0.1264-0.049-0.2138-0.081h-4e-4c-0.2404-0.088-0.5763-0.211-0.7921-0.335-0.127-0.119-0.2199-0.248-0.3066-0.369h-2e-4 -1e-4c-0.1117-0.155-0.2132-0.296-0.3641-0.383-0.1426-0.082-0.3288-0.115-0.5811-0.046-0.2715 0.075-0.4619 0.159-0.6214 0.23h-1e-4c-0.2642 0.117-0.4438 0.197-0.7666 0.134-0.238-0.046-0.4266-0.068-0.6095-0.09h-4e-4c-0.2137-0.025-0.4195-0.05-0.687-0.11-0.5019-0.109-1.083-0.445-1.1134-0.463-0.0317-0.019-0.6115-0.398-0.7845-0.784-0.0794-0.176-0.037-0.335 0.0046-0.491 0.0505-0.19 0.1-0.376-0.0693-0.583-0.1466-0.182-0.3368-0.364-0.56-0.494-0.2417-0.139-0.5203-0.215-0.8373-0.157-0.3368 0.061-0.6744 0.183-1.045 0.318h-0.0011c-0.2976 0.108-0.6165 0.224-0.9733 0.321-0.8003 0.221-2.2861 0.555-2.5886 0.599-0.2522 0.036-0.6577 0.058-1.0499-0.168-0.4795-0.395-0.6934-0.546-0.9272-0.68-0.2159-0.124-0.4491-0.236-0.7268-0.368h-0.0011l-0.0896-0.043c-0.4673-0.221-0.8378-0.304-1.1991-0.384h-3e-4c-0.1287-0.029-0.2563-0.057-0.3868-0.092-0.2153-0.058-0.5553-0.105-0.8968-0.152h-8e-4c-0.448-0.063-0.8983-0.125-1.0729-0.213-0.04-0.021-0.087-0.043-0.1379-0.068-0.1037-0.049-0.2237-0.106-0.3336-0.17-0.2456-0.143-0.4424-0.313-0.2918-0.491 0.1013-0.125 0.2932-0.21 0.4949-0.299 0.2817-0.123 0.5825-0.256 0.6818-0.519 0.173-0.454-0.1796-1.383-0.3724-1.716-0.1942-0.33-0.4795-0.718-0.9034-0.962-0.42-0.243-2.7312-0.806-3.1922-0.873-0.2855-0.041-0.9456-0.052-1.4228-0.06h-0.0016c-0.2901-5e-3 -0.5123-8e-3 -0.5408-0.017-0.0114-3e-3 -0.0448-9e-3 -0.0939-0.017-0.2189-0.037-0.9059-0.127-1.1713-0.28v-5.539c0.8151-0.209-0.4425-0.77-1.2428-0.706-0.8017 0.067-2.2162 0.158-2.5041 0.109-0.1867-0.033-0.6167-0.12-1.0894-0.215h-0.0011c-0.2458-0.05-0.5033-0.102-0.744-0.15-0.7039-0.141-1.606-0.166-2.2333-2e-3 -0.3282 0.089-0.465 0.146-0.6307 0.216-0.1497 0.062-0.3229 0.135-0.6821 0.25-0.3906 0.123-0.5413 0.188-0.6938 0.192-0.1435 4e-3 -0.2885-0.046-0.6362-0.15-0.5631-0.169-1.3121-0.363-1.6351-0.447l-0.0029-1e-3 -0.0151-4e-3c-0.0786-0.02-0.1284-0.033-0.1391-0.037-0.0468-0.026-0.1441-0.515-0.2213-0.902-0.0251-0.126-0.0481-0.242-0.0666-0.327-0.0792-0.354-0.066-1.028 0.4266-1.559 0.4953-0.532-0.6551-2.588-0.6551-2.588v-4.911c0.2004-0.165 5.6465 0.763 6.1348 0.765-0.0066-0.05-0.1321-0.998-1.2204-1.627-0.6477-0.339-1.0692-0.499-1.3606-0.609-0.175-0.067-0.3031-0.115-0.4052-0.174-0.4398-0.47-0.4279-1.092-0.3156-1.342 0.1096-0.25-0.1651-1.1-0.3659-1.334-0.2007-0.232-0.6115-0.712-0.2047-1.014 0.123-0.09-0.3168-4.8105-0.1515-4.9101l-1.9814-0.5025c-0.43545 0-0.76074 0.016-1.0126 0.0284h-2.7e-4c-0.41107 0.0203-0.62646 0.0309-0.8058-0.0535l-0.06995-0.0309-8.9e-4 -4e-4c-0.10795-0.0474-0.21186-0.0931-0.30953-0.1496-0.13471-0.0779-0.2615-0.1796-0.36848-0.3487-0.06117-0.0962-0.10516-0.2023-0.14947-0.3091-0.09249-0.2231-0.18639-0.4495-0.44088-0.5968-0.26258-0.126-0.74464-0.1361-1.2158-0.1459h-1.7e-4c-0.45773-0.0096-0.90514-0.019-1.131-0.1342-0.14528-0.0726-0.25755-0.1347-0.35924-0.1928-0.12755-0.0744-0.23283-0.1418-0.34797-0.2155-0.08516-0.0546-0.17572-0.1125-0.28465-0.1793-0.41471-0.2391-1.8133-0.4742-1.8873-0.4861l-0.00477-0.0018h-2e-4c-0.04437-0.0167-0.33871-0.1276-0.58672-0.2716-0.23508-0.136-0.25357-0.4094-0.25357-0.4094v-5.0353l-0.30784-0.8374v-3.741c0.27321-0.2046 0.65187 0.0118 0.81963-0.1787 0.11716-0.1315-0.05583-2.9893 0.08908-3.118 0.25856-0.2298 3.7764 0.4942 3.7773 0.3385-0.02592-0.18-0.00976-3.9521 0-4.0163l3.9159-0.7845c-0.47677-0.2324-0.58416-5.551-0.52605-5.617 0.05964-0.0701 3.0986 0.143 3.3272 0l-0.196-5.4573c0.3421-0.0674 17.479-6.7507 17.735-6.8656-0.1958-0.1311-0.3417-8.2565-0.412-8.3054 0.1007-0.0365 0.6886-0.1259 0.8324-0.1683l-0.0978-3.6168 0.1587-0.2538s-0.8381-2.9024-0.7886-3.1126c0.0312-0.1325 2.3868-0.5653 2.3868-0.5653v-2.666h0.5585v-6.4692l1.4102-0.4951v-8.9416l54 22.826v-19.052l11.09 4.9806s-0.343 9.8165 0 9.8193 20.63-12.676 20.63-12.676v-2.5298s1.888 0.4083 5.268-1.6376l1.474-0.2616v4.9091l15.099-2.5043 1.981-2.8605v2.4128h1.128v-2.1456h0.329v-4.8911h13.089v137.17h-129.05z" fill="url(#bd)"/>
<path d="m32.002 157.44-3.1882-1.875 0.0248-0.015c0.1601-0.098 0.9853-0.6 1.1163-0.648 0.0442-0.015 0.1042-0.07 0.1745-0.135l6e-4 -1e-3c0.1587-0.146 0.3692-0.341 0.5658-0.227 0.2866 0.166 0.7489 0.499 1.0949 0.796 0.1011 0.088 0.1926 0.188 0.2778 0.281 0.1119 0.121 0.2131 0.231 0.3112 0.288l0.0876-0.024c0.5807-0.164 2.075-0.585 2.7295-0.43 0.6881 0.167 1.4343 0.267 1.7751 0.069 0.342-0.198 0.5639-1.194 0.4213-1.276s0.482-0.815 0.7409-0.93c0.2457-0.113 0.6312-0.453 0.6777-0.494l0.0038-4e-3 0.0013-5e-3c0.0162-0.062 0.1501-0.577 0.4279-0.609 0.2827-0.032 1.1134-0.179 1.5981-0.363 0.4887-0.182 0.7449-0.264 1.2322-0.085 0.4874 0.184 0.9734 0.184 0.7409-0.081-0.2258-0.265-0.8439-0.872-1.2177-1.153-0.0479-0.037-0.0916-0.071-0.1319-0.102-0.0977-0.077-0.1763-0.138-0.2511-0.181-0.1366 9e-3 -0.2651 0.019-0.3851 0.028h-2e-4c-0.614 0.045-1.0062 0.075-1.1388-2e-3 -0.1584-0.091-0.3341-0.323-0.2483-0.738 0.0859-0.415 0.041-0.639-0.1598-0.755-0.0952-0.48 0.8145-0.462 1.3985-0.45 0.0724 2e-3 0.1397 3e-3 0.1996 3e-3 0.1181 0 0.2558-4e-3 0.4027-8e-3 0.5299-0.014 1.1807-0.032 1.4754 0.098 0.3698 0.166 0.8597 0.251 0.9297 0.041 0.0357-0.103 0.0169-0.27 1e-4 -0.42-0.0169-0.15-0.0318-0.283 0.0118-0.317 0.0382-0.03 0.2917-0.03 0.6094-0.03h6e-4c0.3643 1e-3 0.8128 1e-3 1.1175-0.044 0.2972-0.042 0.6113-0.114 0.9211-0.185 0.289-0.066 0.5742-0.131 0.8381-0.17 0.2408-0.037 0.4617-0.04 0.6641-0.042h8e-4c0.2547-3e-3 0.4803-6e-3 0.6796-0.076 0.2564-0.087 0.4961-0.22 0.7117-0.338l2e-4 -1e-3c0.0863-0.047 0.1688-0.093 0.2469-0.132 0.0597-0.032 0.137-0.062 0.2131-0.093h3e-4c0.1902-0.076 0.3726-0.149 0.2529-0.218l-0.2988-0.055c-0.8748-0.164-1.3863-0.259-1.7484-0.215-0.1502 0.018-0.3481 0.055-0.5667 0.096h-3e-4c-0.3654 0.069-0.789 0.148-1.1459 0.169-0.168 9e-3 -0.3211 0.029-0.4779 0.049h-3e-4 -1e-4c-0.3795 0.048-0.7813 0.099-1.4698 0.016-0.2127-0.025-0.4055-0.044-0.576-0.061-0.4192-0.041-0.7043-0.07-0.8226-0.137 0.0133-0.132 0.043-0.267 0.0734-0.406 0.0481-0.218 0.0977-0.444 0.0864-0.673-0.0037-0.094-0.0359-0.189-0.0673-0.282-0.0925-0.272-0.1782-0.524 0.4912-0.678 0.4263-0.098 0.9732-0.137 1.4756-0.173h6e-4c0.5618-0.039 1.0678-0.075 1.2868-0.185 0.4147-0.206 0.8664-0.572 1.0539-0.846 0.1823-0.274 0.4094-0.557 0.8704-0.49 0.0416 6e-3 0.104 0.016 0.1836 0.028h4e-4c0.7962 0.123 3.2992 0.51 3.7266 0.262 0.4354-0.254 0.4355-0.775 0.4356-1.088 0-0.023 1e-4 -0.045 2e-4 -0.065-3e-4 -0.068-0.0132-0.124-0.024-0.172-0.0369-0.162-0.0499-0.219 0.5391-0.225 0.7554-8e-3 1.4818-0.495 1.0817-0.746-1.4224-1.052-1.7249-1.294-1.5862-1.723 0.0411-0.125 0.0427-0.236 0.0441-0.33 0.0034-0.232 0.0053-0.358 0.5978-0.31 0.2251 0.018 0.4052 0.042 0.556 0.062h4e-4c0.4046 0.052 0.5989 0.078 0.8884-0.105 0.0521-0.033 0.1059-0.065 0.1593-0.097 0.3558-0.213 0.695-0.416 0.3941-0.59-0.0852-0.049-0.1761-0.096-0.2629-0.14h-0.0014c-0.0795-0.041-0.1555-0.08-0.2204-0.117-0.0247-0.086-0.0553-0.174-0.0855-0.261-0.1183-0.341-0.2319-0.668 0.0247-0.817 0.1002-0.058 0.1859-0.087 0.2614-0.112h3e-4c0.1683-0.055 0.2865-0.094 0.404-0.409 0.0343-0.09 0.0761-0.188 0.1191-0.288 0.1718-0.401 0.3629-0.848 0.1781-1.061-0.21-0.237-1.4528-1.291-2.1105-1.671-0.4586-0.203-0.7168-0.208-0.9741-0.214-0.1718-4e-3 -0.3433-8e-3 -0.5738-0.07-0.5706-0.154-2.1198-0.629-2.3707-0.73-0.0518-0.021-0.1265-0.049-0.2139-0.081h-4e-4c-0.2404-0.088-0.5762-0.21-0.7921-0.335-0.1269-0.119-0.2199-0.248-0.3066-0.369h-1e-4 -1e-4c-0.1117-0.155-0.2133-0.296-0.3641-0.383-0.1426-0.082-0.3289-0.115-0.5811-0.046-0.2715 0.075-0.4619 0.159-0.6215 0.23h-1e-4c-0.2642 0.117-0.4437 0.197-0.7665 0.134-0.238-0.046-0.4267-0.068-0.6095-0.09h-4e-4c-0.2137-0.025-0.4195-0.05-0.6871-0.11-0.4872-0.105-1.0491-0.426-1.1093-0.46l-4e-3 -3e-3c-0.0317-0.019-0.6115-0.398-0.7845-0.784-0.0794-0.176-0.0371-0.335 0.0046-0.491 0.0505-0.19 0.1-0.376-0.0693-0.583-0.1466-0.182-0.3368-0.364-0.56-0.494-0.2417-0.138-0.5204-0.215-0.8373-0.157-0.3368 0.061-0.6744 0.183-1.045 0.318h-9e-4c-0.2977 0.108-0.6166 0.224-0.9735 0.321-0.8004 0.221-2.2862 0.555-2.5886 0.599-0.2523 0.037-0.6577 0.058-1.05-0.168-0.4794-0.395-0.6934-0.546-0.9271-0.68-0.2159-0.124-0.4491-0.235-0.7267-0.368h-0.0013l-0.0896-0.043c-0.4673-0.221-0.8377-0.304-1.1991-0.384h-0.0013c-0.1284-0.029-0.2557-0.057-0.3857-0.091-0.2153-0.059-0.5554-0.106-0.8968-0.153h-6e-4c-0.448-0.062-0.8985-0.125-1.0731-0.213-0.04-0.021-0.087-0.043-0.1379-0.067-0.1038-0.05-0.2238-0.107-0.3336-0.171-0.2457-0.143-0.4425-0.313-0.2919-0.491 0.1014-0.125 0.2933-0.21 0.4949-0.298l1e-4 -1e-3c0.2817-0.123 0.5825-0.256 0.6818-0.519 0.173-0.454-0.1797-1.383-0.3725-1.715-0.1941-0.331-0.4794-0.719-0.9034-0.963-0.42-0.243-2.7312-0.806-3.1921-0.873-0.2856-0.04-0.9457-0.052-1.4228-0.06h-0.0016c-0.2902-5e-3 -0.5124-8e-3 -0.5409-0.017-0.0113-3e-3 -0.0448-9e-3 -0.0938-0.017h-2e-4c-0.219-0.037-0.7487-0.127-1.014-0.28-0.0376-0.082-0.0757-0.15-0.1084-0.208-0.1534-0.274-0.188-0.335 0.5033-0.611 0.8386-0.33 2.2848-0.903 2.5291-1.225 0.0484-0.063 0.0975-0.114 0.1402-0.158 0.1765-0.181 0.2441-0.251-0.296-0.616-0.3487-0.208-0.5296-0.282-0.6868-0.342-0.5342-0.732-0.5834-1.205-0.6051-1.415-0.0049-0.046-0.0084-0.08-0.0156-0.1-7e-3 -0.021-0.0032-0.059 0.0019-0.111 0.0209-0.212 0.0641-0.65-0.5289-0.992-1.0169-0.498-1.5333-0.531-2.3337-0.466-0.8017 0.066-2.2162 0.157-2.5041 0.108-0.1868-0.033-0.6173-0.12-1.0904-0.215l-0.0042-1e-3c-0.2446-0.049-0.5005-0.101-0.7398-0.149-0.704-0.141-1.606-0.166-2.2334-2e-3 -0.3282 0.089-0.465 0.146-0.6307 0.216-0.1497 0.063-0.3229 0.135-0.6821 0.25-0.3905 0.123-0.5413 0.188-0.6938 0.192-0.1435 4e-3 -0.2885-0.045-0.6361-0.15-0.5634-0.169-1.3127-0.363-1.6354-0.447l-0.0027-1e-3c-0.0873-0.023-0.1428-0.037-0.1541-0.04-0.0469-0.027-0.1441-0.515-0.2214-0.903-0.0251-0.126-0.0481-0.242-0.0665-0.327-0.0793-0.354-0.0661-1.027 0.4265-1.558 0.4953-0.533 0.4161-1.086 0.0687-1.595-0.1249-0.183-0.2952-0.327-0.4398-0.449-0.2544-0.214-0.4296-0.362-0.14-0.545 0.1327-0.083 0.2253-0.159 0.3062-0.226 0.2005-0.166 0.3296-0.273 0.8178-0.271 0.6894 0 2.1805 0.263 2.8844 0.518 0.1774 0.064 0.3357 0.126 0.4807 0.183h1e-4c0.4347 0.172 0.7506 0.296 1.108 0.271 0.4755-0.034 0.7792-0.1 1.3511-0.433 0.5679-0.33 1.046-0.609 1.5809-0.939 0.1263-0.079 0.2406-0.139 0.3367-0.19h3e-4c0.3097-0.165 0.4301-0.229 0.153-0.475-0.3632-0.32-0.4794-0.452-0.5375-0.617-0.0568-0.167-0.214-0.41-0.7093-0.695-0.2434-0.141-0.4991-0.232-0.7283-0.313h-2e-4 -3e-4c-0.1846-0.065-0.3521-0.125-0.4823-0.199-0.375-0.295-0.5613-0.736-0.5705-0.76-0.0066-0.05-0.1321-0.998-1.2203-1.627-0.6478-0.339-1.0692-0.499-1.3606-0.609-0.175-0.067-0.3032-0.115-0.4052-0.174-0.4398-0.47-0.428-1.092-0.3157-1.342 0.1096-0.25-0.1651-1.1-0.3658-1.334-0.2008-0.2322-0.6115-0.7117-0.2048-1.0142 0.123-0.09 0.2846-0.1874 0.4499-0.287l2e-4 -1e-4 1e-4 -1e-4c0.3919-0.2361 0.8038-0.4842 0.7676-0.6755-0.0191-0.1024-0.1471-0.2676-0.2871-0.4482h-1e-4c-0.2285-0.295-0.4889-0.6309-0.3587-0.8013 0.0775-0.0984 0.1937-0.2215 0.3179-0.353l6e-4 -6e-4c0.2206-0.2336 0.4663-0.4938 0.5651-0.6897 0.1004-0.1981 0.1413-0.4517-0.033-0.7079h0.0013c-0.0845-0.1268-0.2219-0.2523-0.4292-0.3712l-0.0756-0.0402-3e-4 -1e-4c-0.778-0.4148-1.9457-1.0374-3.0516-1.0374-0.43541 0-0.7607 0.016-1.0126 0.0284h-2.7e-4c-0.41107 0.0203-0.62646 0.0309-0.80581-0.0535l-0.06994-0.0309-7.2e-4 -3e-4c-0.10802-0.0475-0.21198-0.0932-0.3097-0.1497-0.13472-0.0779-0.2615-0.1796-0.36848-0.3487-0.06117-0.0962-0.10516-0.2023-0.14947-0.3091-0.0925-0.2231-0.18639-0.4495-0.44088-0.5968-0.26259-0.126-0.74464-0.1361-1.2158-0.1459h-7e-5c-0.45776-0.0096-0.90522-0.019-1.1311-0.1342-0.14528-0.0726-0.25754-0.1347-0.35924-0.1928-0.12754-0.0744-0.23283-0.1418-0.34796-0.2155-0.08517-0.0546-0.17572-0.1125-0.28466-0.1793-0.4147-0.2391-1.8133-0.4742-1.8873-0.4861l-0.00478-0.0017-2e-4 -1e-4c-0.04436-0.0167-0.3387-0.1276-0.58671-0.2716-0.23509-0.136-0.4147-0.2958-0.25358-0.4094 0.33943-0.2443 1.1781-0.9522 1.3511-1.3616 0.16509-0.4121 0.21792-1.1715-0.12414-1.5493-0.12613-0.1362-0.36842-0.3628-0.62593-0.6036l-1.2e-4 -1e-4c-0.45163-0.4224-0.95005-0.8885-0.95089-0.9877 0.001321-0.1519 0.24301-0.4742 0.70262-0.56 0.45829-0.0898 1.0856-0.2536 1.12-0.4992 0.04094-0.2417-0.5032-1.3709-0.67357-1.6496-0.17434-0.276-0.31169-0.6392-0.11886-0.8836 0.08888-0.1159 0.31736-0.287 0.56682-0.4737 0.27321-0.2046 0.5716-0.4279 0.73936-0.6185 0.11716-0.1314 0.26772-0.2652 0.41263-0.3939l9e-5 -1e-4c0.25852-0.2297 0.49905-0.4434 0.4999-0.5991-0.00128-0.2392 0.10146-0.3632 0.11277-0.3768l4e-5 -1e-4 7.6e-4 -9e-4c0.01321 0.0146 0.26415 0.309 0.40282 0.4953 0.05452 0.0785 0.21705 0.2526 0.4001 0.4487l4e-5 1e-4h8e-5c0.26038 0.279 0.56222 0.6024 0.65372 0.7583 0.0423 0.0723 0.07615 0.1663 0.11113 0.2635l1e-4 2e-4 4e-5 1e-4c0.06655 0.1848 0.1373 0.3813 0.27833 0.4626 0.60489-0.0211 1.3696-0.4411 1.2705-0.8267-0.07973-0.3157-0.59278-0.9417-0.89525-1.3108l-4.6e-4 -5e-4c-0.0681-0.0831-0.1255-0.1532-0.16482-0.2036-0.05479-0.0725-0.13224-0.158-0.21568-0.2501l-3.3e-4 -4e-4c-0.23431-0.2585-0.51561-0.5689-0.47472-0.7889 0.05415-0.2985 0.32093-0.4953 0.74356-0.741 0.41603-0.2416 0.66167-0.585 0.67884-0.7963 0.00987-0.1308 0.15494-0.4674 0.26682-0.7271h3e-5c0.06779-0.1573 0.12339-0.2864 0.12937-0.3242 0.00685-0.0468-0.01513-0.1995-0.03831-0.3605l-1e-5 -1e-4c-0.02592-0.18-0.05333-0.3704-0.04357-0.4345 0.01677-0.1029 0.3865-0.4271 0.71832-0.7181l2e-4 -2e-4c0.06012-0.0527 0.11899-0.1043 0.17429-0.1534 0.35923-0.3235 0.31829-0.4556 0.31565-0.4622l0.01452 0.0022 0.00236 3e-4c0.11193 0.0167 0.70636 0.1055 0.97498 0.1362 0.28263 0.033 1.6601 0.1004 1.8146-0.041 0.1598-0.1426 0.0423-0.2403-0.2998-0.4583-0.6062-0.3526-1.2824-0.7066-1.536-0.7845-0.47678-0.2324-0.58903-0.3433-0.53092-0.4094 0.05964-0.07 0.29635-0.2181 0.52488-0.3611h8e-5c0.09029-0.0565 0.17929-0.1122 0.25558-0.1619 0.10707-0.0679 0.20753-0.187 0.31021-0.3088 0.15694-0.1861 0.31904-0.3783 0.51784-0.4031 0.3263-0.0396 0.6578 0.0859 0.9457 0.2008s0.7739 0.0488 0.8452-8e-3c0.0179-0.0137 0.036-0.0571 0.0589-0.1123 0.072-0.1732 0.1923-0.4627 0.5077-0.3195 0.173 0.095 0.2536 0.1703 0.3236 0.2403 1.0014-0.0073 2.6661-0.2433 2.9573-0.2846h3e-4l0.0417-0.0059c0.0687-0.0066 1.0011 0.0013 1.2138 0.0581 0.2166 0.0568 1.4118 0.3843 1.8516 0.6379 0.103 0.0592 0.2209 0.1291 0.3445 0.2023l0.0043 0.0025 5e-3 3e-3c0.1384 0.0819 0.2836 0.168 0.4228 0.2479 0.2668 0.1545 0.5085 0.2866 0.622 0.3301 0.2298 0.0885 1.3379 0.5389 1.396 0.5627 0.041-0.0198 0.8176-0.4095 0.7212-0.5957-0.0483-0.0945-0.3081-0.2831-0.5867-0.4853-0.2779-0.2017-0.5744-0.4169-0.6984-0.566-0.057-0.068-0.1209-0.1663-0.1954-0.2807-0.2103-0.3234-0.5048-0.776-0.9642-1.0413-1.1239-0.4121-1.9203-0.4121-2.4367-0.4015-0.1323 0.0031-0.2818 0.012-0.4339 0.021l-6e-4 1e-4h-4e-4c-0.4204 0.0249-0.8611 0.0509-1.0152-0.0382-0.1916-0.1585-0.5759-0.4689-1.0183-0.7238-0.1468-0.0846-0.3344-0.1658-0.5156-0.2441l-8e-4 -3e-4c-0.1691-0.0731-0.3326-0.1438-0.4517-0.2126-0.136-0.0779-0.214-0.1558-0.1809-0.2285 0.0412-0.0899 0.1864-0.2527 0.3478-0.4338h1e-4c0.2156-0.2418 0.4601-0.516 0.525-0.6927 0.0912-0.2523 0.0436-0.4398-0.0383-0.4874-0.1107 0.0069-0.6995 0.1722-1.212 0.3161l-0.0013 3e-4c-0.2756 0.0774-0.529 0.1486-0.674 0.1855-0.4147 0.1096-1.1793-0.1096-1.219-0.1215l2.6428-1.1873 0.0763-0.0322 3e-4 -1e-4c0.4157-0.1754 2.2937-0.9679 2.6071-1.027 0.342-0.0673 1.4871-0.4477 1.7433-0.5626 0.0942-0.0432 0.6432-0.2731 1.3015-0.5487l7e-3 -0.0029c1.1307-0.4735 2.5796-1.0802 2.6021-1.1085 0.0265-0.0273 1.9219-0.7955 3.5095-1.439l0.0245-0.01c0.9388-0.3805 1.7655-0.7156 2.0276-0.8253 0.7039-0.2985 3.3704-1.7156 3.8446-2.1237 0.4715-0.4094 0.9469-0.9087 1.2309-1.3604 0.2786-0.453-0.0251-1.421-0.3751-1.7512-0.2662-0.2549-1.4751-1.0645-2.1511-1.5172l-7e-4 -4e-4c-0.1957-0.1311-0.3467-0.2323-0.417-0.2812-0.3196-0.2153-1.2666-1.0936-1.2864-1.3023-3e-3 -0.0436-0.0156-0.0854-0.0282-0.1272-0.047-0.1565-0.0943-0.3137 0.3571-0.5753 0.1895-0.11 0.4579-0.2424 0.7405-0.3818 0.5723-0.2823 1.203-0.5934 1.3542-0.8056 0.2298-0.3116 0-0.6788-0.1017-0.7369-0.1017-0.0595-1.4977-0.9113-1.5677-1.0196-0.0727-0.107-0.2325-0.4795 0.1413-0.6115 0.1007-0.0365 0.2309-0.0749 0.3746-0.1172 0.3821-0.1126 0.8603-0.2534 1.1376-0.4626l8e-3 -0.0061c0.382-0.2904 0.688-0.523 0.3037-0.8247-0.2351-0.1862-0.4913-0.3711-0.7621-0.5269-0.1769-0.103-0.3592-0.1929-0.5494-0.2615-0.1094-0.0405-0.2329-0.082-0.359-0.1245l-0.0025-8e-4c-0.2889-0.0972-0.5914-0.199-0.7703-0.3026-0.2417-0.3342-0.2866-0.457-0.0846-0.5085 0.2008-0.0502 1.124-0.5547 1.4687-0.836 0.2098-0.1733 0.2631-0.3998 0.3125-0.61 0.0312-0.1326 0.0609-0.2586 0.1273-0.3607 0.0672-0.1072 0.2169-0.2321 0.3641-0.3549 0.2173-0.1813 0.4292-0.358 0.3623-0.4666-0.0342-0.0539-0.0957-0.1004-0.1602-0.1491-0.1551-0.1172-0.327-0.247-0.174-0.5232 0.1324-0.2441 0.6469-0.6053 1.0725-0.9041l3e-4 -3e-4 2e-4 -1e-4c0.2535-0.178 0.4753-0.3338 0.566-0.4294 0.1332-0.1427 0.1654-0.3133 0.1944-0.4668 0.0234-0.1236 0.0446-0.236 0.1147-0.3138 0.1571-0.1743 0.309-1.0116 0.136-1.3259-0.1743-0.3157-1.0922-1.6153-1.1411-1.6839-0.0277-0.0489-0.556-0.9998-0.416-1.2032 0.053-0.0761 0.1544-0.1666 0.2724-0.272 0.1996-0.1782 0.4468-0.3989 0.5887-0.6644 0.1072-0.1975 0.102-0.3618 0.0972-0.5158-0.0053-0.1724-0.0103-0.3318 0.1432-0.5104 0.2971-0.3368 0.9429-0.5798 1.4607-0.733 0.5098-0.1558 2.1197-1.322 2.3007-1.6284 0.1835-0.3078 0.3235-1.12 0.2364-1.3696-0.0859-0.2496-0.6736-0.9192-0.8809-1.0857-0.0554-0.0458-0.2236-0.1691-0.4442-0.3308-0.5739-0.4209-1.5028-1.1019-1.7231-1.3557-0.0695-0.0796-0.158-0.1591-0.2487-0.2407-0.313-0.2814-0.6526-0.5868-0.3311-0.9994 0.4186-0.5296 0.9086-1.0817 1.5399-1.2719 0.2398-0.0715 0.4778-0.125 0.6811-0.1708l5e-4 -1e-4 3e-4 -1e-4c0.326-0.0733 0.5627-0.1266 0.5741-0.2014 0.0105-0.0695-0.0703-0.2626-0.1541-0.4631v-1e-4c-0.0645-0.1542-0.1308-0.3128-0.1589-0.423-0.0541-0.2562 0.0013-0.5296 0.4028-0.7634 0.3976-0.2311 1.5215-0.8849 1.7288-1.0711 0.1539-0.1402 0.4801-0.0607 0.8174 0.0215 0.1172 0.0286 0.2357 0.0575 0.3488 0.0775 0.3596 0.0634 1.3629-0.0775 1.893-0.152l0.0035-5e-4c0.1089-0.0153 0.1977-0.0278 0.2563-0.035 0.1137-0.0145 0.3741-0.0231 0.6992-0.0337h5e-4c0.6493-0.0212 1.5564-0.0509 2.0685-0.1539 0.6649-0.1371 0.8633-0.4049 0.9785-0.5604l1e-4 -1e-4c0.0168-0.0227 0.0318-0.043 0.0463-0.0602 0.1122-0.132 0.7224-0.795 0.8743-0.7066 0.0171 0.0098 0.0469 0.0278 0.087 0.0519l0.0057 0.0034 4e-4 2e-4c0.0841 0.0506 0.2106 0.1267 0.3573 0.2114 0.4054 0.235 0.968 0.5322 1.2507 0.5401 0.3984 0.0108 0.9866-0.3426 1.2196-0.4826 0.0234-0.0141 0.0432-0.0259 0.0588-0.0351 0.1717-0.1004 1.2098-0.2285 1.6285-0.0964 0.0845 0.0277 0.1941 0.0805 0.3169 0.1518 0.3008 0.1733 0.6841 0.4488 0.976 0.6586l9e-4 7e-4c0.1794 0.1289 0.3242 0.233 0.394 0.2732 0.2299 0.1321 0.6393 0.4807 0.4795 0.6075-0.1638 0.1268-0.7991 0.3659-1.05 0.3183-0.1885-0.0323-0.5285-0.1706-0.8668-0.3084l-0.0023-9e-4c-0.1042-0.0424-0.2083-0.0848-0.3077-0.1239-0.4173-0.1677-0.7937-0.2047-0.8201-0.0885-0.0278 0.1136 0.1796 0.5521 0.453 0.8123 0.1479 0.136 0.3024 0.2641 0.4781 0.3658 0.1585 0.0911 0.3315 0.1598 0.5283 0.1902 0.2693 0.0423 0.7346 0.0124 1.1317-0.0131l0.0023-1e-4c0.2213-0.0142 0.4212-0.027 0.5539-0.0252 0.1518 0.0014 0.2865 0.0436 0.3948 0.1057 0.1546 0.0898 0.2496 0.2219 0.251 0.3394 0.0026 0.1968-0.1929 0.6142-0.4359 0.8361-0.076 0.0699-0.1395 0.1403-0.204 0.2118-0.1438 0.1594-0.2923 0.3241-0.595 0.5-0.3632 0.2114-0.626 0.3883-0.5943 0.4068 0.1971-0.0629 0.8036-0.3411 1.2145-0.5296l0.0072-0.0034c0.164-0.0752 0.2959-0.1357 0.3565-0.1617 0.0467-0.0196 0.1383-0.0622 0.2554-0.1166v-1e-4c0.4194-0.1951 1.1671-0.5429 1.3612-0.5357 0.2199 6e-3 0.5757 0.1038 1.0078 0.2225l0.1227 0.0337c0.1596 0.0437 0.2929 0.0896 0.4252 0.1352h2e-4c0.2716 0.0936 0.5386 0.1856 1.0182 0.2531 0.7211 0.099 2.3786 0.2655 2.7537 0.2998 0.3737 0.0304 1.2876 0.3289 1.6614 0.4623 0.6419 0.3486 1.1292 0.7396 1.2203 0.8703 0.072 0.1043 0.3415 0.3282 0.5577 0.5079l6e-4 5e-4c0.1287 0.107 0.2385 0.1982 0.2764 0.2391 0.0976 0.1027 3.7207 2.2241 4.1966 2.5027l0.0429 0.0252c0.1334 0.0832 2.6705 1.6588 2.7683 1.7156 0.0237 0.0137 0.0891 0.0625 0.1801 0.1304 0.2073 0.1547 0.5471 0.4084 0.8289 0.5709 0.1202 0.07 0.2298 0.1228 0.3143 0.1453 0.3249 0.0885 0.9457 0.3962 1.2758 0.5864 0.1409 0.0875 0.7037 0.418 1.3732 0.8112 1.1885 0.698 2.7132 1.5933 2.8095 1.677 0.1546 0.1347 0.4213 0.4226 0.3117 0.6854-0.1122 0.2668 0.0027 0.9298 0.2721 1.26 0.0685 0.0847 0.1517 0.1694 0.2336 0.2527v1e-4c0.2399 0.2442 0.4686 0.477 0.2854 0.6651-0.0628 0.0656-0.1446 0.1392-0.2333 0.2191l-1e-4 1e-4c-0.2562 0.2308-0.5708 0.5141-0.6581 0.8083-0.0143 0.0499-0.0272 0.0976-0.0395 0.1433-0.0862 0.3197-0.1469 0.5449-0.527 0.7852-0.204 0.1304-0.571 0.3541-0.9347 0.5759l-0.0071 0.0043-0.0012 7e-4c-0.4109 0.2506-0.8162 0.4976-0.976 0.6037-0.1054 0.0689-0.1836 0.1296-0.2689 0.1959-0.1618 0.1257-0.3496 0.2717-0.7983 0.5319-0.6854 0.3975-1.7486 0.9297-2.2835 1.042-0.5323 0.1083-1.2375 0.2509-1.3933 0.2509-0.1172 0.0021-2.3547-0.0171-3.4619-0.0266l-0.602-5e-3 -0.1474-0.0348c-0.3391-0.0802-1.1922-0.2818-1.9169-0.446-0.5484-0.1271-2.1192-0.5978-3.4193-0.9875-0.8352-0.2503-1.5587-0.4672-1.8279-0.5379-0.3254-0.0864-0.8405-0.1784-1.3384-0.2673l-0.0013-3e-4h-2e-4c-0.5522-0.0986-1.0831-0.1934-1.3107-0.2726-0.3831-0.132-1.2864-0.4886-1.684-0.7184-0.2588-0.1783-0.4952-0.3289-0.7277-0.4636-0.2681-0.1559-0.5322-0.288-0.6339-0.2932-0.1519-0.0066-0.8572-0.1506-1.1213-0.3038-0.1321-0.1915-0.1799-0.5401-0.2075-0.7414l-1e-4 -1e-4c-0.011-0.0804-0.0188-0.1373-0.0275-0.1513-0.2034-0.1294-0.5005-0.2378-0.8122-0.1255-0.4028 0.1426-0.6749 0.1242-0.9509 0.0423-0.2761-0.0819-1.713-0.6538-1.956-0.7938-0.2444-0.1413-1.3088-0.8677-1.5532-1.1939-0.2087-0.276-0.5335-0.6749-0.8967-0.8849l-0.1121-0.0437c-0.5823-0.2277-0.9845-0.3849-0.9273-0.0408 0.0471 0.3025 0.4423 0.9294 0.6171 1.2066 0.0359 0.057 0.0625 0.0992 0.0749 0.1208 0.0346 0.059 0.2965 0.2941 0.5773 0.5459l1e-4 2e-4c0.3094 0.2776 0.6414 0.5755 0.7169 0.6808 0.144 0.1981 0.1889 0.3407 0.0766 0.556-0.1083 0.2047-0.0634 0.379 0.0766 0.4596 0.044 0.0211 0.1094 0.0479 0.1845 0.0786 0.1458 0.0597 0.3284 0.1344 0.4627 0.212 0.1576 0.2512 0.1771 0.6141 0.1883 0.8234v1e-4c0.0038 0.0712 0.0067 0.1247 0.0137 0.1498 0.0304 0.1004 0.3606 0.3395 0.6181 0.4887 0.0438 0.0254 0.1641 0.0901 0.3345 0.1818l0.0011 6e-4c0.405 0.2179 1.0922 0.5875 1.7089 0.9442 0.6551 0.379 1.2322 0.7436 1.3009 0.8875 0.0461 0.0991 0.134 0.2192 0.2272 0.3465 0.2298 0.3139 0.4918 0.6718 0.239 0.8672-0.1637 0.1256-0.2347 0.1339-0.2786 0.139-0.0517 6e-3 -0.0657 0.0077-0.1493 0.1912-0.1558 0.3434-0.5679 0.91-0.7079 1.0949-0.144 0.1822-0.5019 0.4411-0.9285 0.5718-0.4292 0.1334-1.013 0.3725-0.8122 0.5719 0.0792 0.0793 0.1968 0.1585 0.3262 0.2325 0.1088 0.0626 0.2247 0.1222 0.3302 0.1764 0.088 0.0452 0.1688 0.0867 0.2324 0.1233 0.2298 0.1334 0.6049 0.3632 0.49 0.5798-0.1136 0.214-0.3103 0.6314-0.1928 0.8625 0.0247 0.0495 0.0554 0.0941 0.0848 0.1368l1e-4 2e-4c0.1069 0.1555 0.1961 0.2852-0.0836 0.5286-0.3539 0.3038-1.0935 1.1332-1.0777 1.2904 9e-4 0.0123 0.0016 0.0247 0.0023 0.0372 0.0066 0.1164 0.0135 0.2402 0.1852 0.3392 0.4372 0.1506 0.7198 0.272 0.9417 0.4001 0.1519 0.0885 0.2774 0.1797 0.3474 0.2589 0.0462 0.0516 0.0792 0.1226 0.1144 0.1985l1e-4 1e-4c0.0605 0.1302 0.1278 0.2752 0.2804 0.3627 0.1056 0.0608 0.2469 0.0938 0.4556 0.0779 0.6511-0.0449 1.2534-0.0039 1.4568 0.1136 0.0624 0.0467 0.1441 0.0981 0.2345 0.1549l1e-4 1e-4c0.2039 0.1283 0.4522 0.2846 0.6252 0.4776 0.2522 0.2747 0.482 1.0157 0.5533 1.3511 0.0187 0.0947 0.0113 0.1768 0.0051 0.2471-0.0098 0.1093-0.017 0.1901 0.0795 0.2456 0.7246 0.0997 1.319-0.0337 1.6955-0.1183h1e-4c0.132-0.0296 0.2371-0.0532 0.3118-0.0587 0.284-0.0212 0.7793 0.2456 0.914 0.3235 0.1307 0.0753 1.388 0.6433 1.8371 0.7172 0.449 0.0713 1.0592-0.0291 1.5729-0.1506 0.5151-0.1228 0.807-0.2483 0.8466-0.4015 0.0149-0.0591 0.0181-0.1739 0.0217-0.308 0.0061-0.2225 0.0136-0.4982 0.0787-0.6614 0.1043-0.2588 0.2602-0.939 0.0885-1.1067-0.103-0.0978-0.3843-0.3513-0.6577-0.5085-0.1796-0.103-0.3553-0.1651-0.4728-0.107-0.2827 0.144-1.2904 0.4755-1.429 0.4412l-0.0368-0.0086c-0.1031-0.0234-0.2901-0.0659-0.4321-0.1473-0.1821-0.2638-0.2594-0.4819-0.311-0.6273-0.0243-0.0687-0.0429-0.1211-0.0641-0.1545-0.0178-0.0286-0.0557-0.096-0.1042-0.1824l-6e-4 -0.0011c-0.1311-0.2334-0.3397-0.605-0.4446-0.7291-0.1413-0.1717-0.7964-0.6908-1.0156-0.8176-0.2206-0.1268-0.3844-0.486-0.2034-0.5256 0.0743-0.0163 0.1774-0.0529 0.2891-0.0925l5e-4 -2e-4 2e-4 -1e-4c0.16-0.0567 0.3376-0.1197 0.4736-0.1384 0.0895-0.0139 0.1904 0.0031 0.3065 0.0227 0.1818 0.0307 0.401 0.0677 0.6734 0.0024 0.4491-0.1044 0.6472-0.2734 0.4213-0.4411-0.2324-0.1664-0.5613-0.4873-0.4266-0.5652l0.0341-0.0201c0.1574-0.0929 0.5185-0.3061 0.7372-0.2401 0.2404 0.0726 0.6604 0.1809 0.9047 0.1717 0.2061-0.0093 0.5732 0.1056 0.7938 0.2324 0.1353 0.1112 0.2457 0.2793 0.3533 0.4431 0.1225 0.1864 0.2413 0.3673 0.3889 0.4523 0.2787 0.1611 1.2521 0.5244 1.676 0.5812 0.4689 0.1809 0.5032 0.2879 0.4847 0.3698-0.0264 0.1254-0.1624 0.3367-0.35 0.379-0.0437 0.0105-0.0948 0.0189-0.15 0.028-0.1867 0.0307-0.4194 0.069-0.5632 0.223-0.1835 0.1954-0.2971 0.3909-0.1888 0.453 0.4391-0.0659 0.8804-0.2252 1.2527-0.3597 0.2626-0.0948 0.4909-0.1772 0.6597-0.2056 0.0365-0.0062 0.0717-0.0123 0.1057-0.0182 0.3444-0.0596 0.5663-0.0981 0.832 0.0221l0.1103 0.0518 5e-4 3e-4c0.545 0.256 2.5149 1.1814 2.8806 1.2832 0.0811 0.0226 0.169 0.0505 0.2604 0.0795l1e-4 1e-4c0.3627 0.1151 0.7807 0.2477 1.0497 0.137 0.1339-0.0558 0.1941-0.1219 0.2491-0.1825 0.0817-0.0898 0.1523-0.1673 0.4363-0.1807 0.1171-0.0058 0.2323-0.0078 0.3442-0.0098h0.0018 1e-4c0.3443-6e-3 0.6568-0.0114 0.8927-0.1249 0.3157-0.1479 0.7396-0.3632 0.6366-0.7661-0.1036-0.3926-0.4536-1.1084-0.4985-1.2001l-0.0034-7e-3c-0.011-0.0186-0.1635-0.2233-0.3594-0.4863l-0.0019-0.0026c-0.3188-0.428-0.7512-1.0086-0.8762-1.1923-0.202-0.2998-0.4926-0.8981-0.276-0.9866 0.1191-0.0511 0.6008-0.3184 1.0247-0.5537l1e-3 -6e-4c0.3325-0.1845 0.6292-0.3492 0.6873-0.3742 0.0911-0.0403 1.1119-0.7059 1.7154-1.0994 0.2452-0.1598 0.4215-0.2748 0.4387-0.2847l0.0083-0.0049c0.0893-0.0528 0.6185-0.3655 1.0192-0.2447 0.416 0.1228 1.4435 0.1571 1.7763 0.0158 0.3262-0.1426 0.984-0.4609 1.2956-0.799 0.3144-0.3368 1.5413-1.5466 1.6628-1.6179l0.0084-0.0049c0.1383-0.0812 0.6665-0.3911 1.0971-0.1945 0.2377 0.1274 0.3384 0.1957 0.429 0.2572h1e-4l0.0239 0.0162 0.0624 0.041c0.0731 0.0481 0.1448 0.0954 0.2189 0.1386 0.1611 0.0924 0.3262 0.1638 0.5137 0.177 0.3696 0.0269 1.4237 0.0213 1.9846 0.0184 0.1267-7e-4 0.2282-0.0013 0.291-0.0013 0.2629-0.0013 0.5706 0.0503 0.7528 0.1546 0.2369 0.2778 0.151 0.4092-0.0349 0.6937l-0.0179 0.0274c-0.2007 0.3051-0.1215 0.4873 0.0396 0.6458 0.1307 0.0796 0.3508 0.0755 0.5651 0.0715 0.1624-3e-3 0.3216-6e-3 0.436 0.0276 0.7436 0.42 0.8836 0.4834 1.0011 0.4807 0.0455-0.0015 0.0877-2e-3 0.127-0.0023h1e-4c0.2232-0.0022 0.3545-0.0034 0.4791-0.2156 0.14-0.2444 0.2074-0.5362 0.1044-0.9272-0.0991-0.3909-0.0159-0.5058 0.3711-0.7303 0.1218-0.0707 0.2568-0.1275 0.3789-0.1789l1e-4 -1e-4h2e-4c0.2631-0.1107 0.4663-0.1962 0.3472-0.3414-0.0631-0.0783-0.1484-0.1631-0.2351-0.2491l-3e-4 -3e-4c-0.1528-0.1517-0.3095-0.3072-0.355-0.4386-0.0726-0.21 0.0674-0.4557 0.424-0.7145 0.3566-0.2589 0.3711-0.2999 0.2258-0.7463-0.1202-0.3711-0.3869-0.5758-0.8016-0.8148-0.3278-0.181-0.6125-0.3112-0.8539-0.4216-0.1972-0.0903-0.3656-0.1673-0.5052-0.2481-0.2483-0.1439-0.4094-0.3011-0.3394-0.4886 0.0805-0.222 0.2641-0.4262 0.4408-0.6226 0.1596-0.1775 0.3136-0.3487 0.3807-0.5211 0.0608-0.1599-0.015-0.2786-0.0845-0.3873-0.0889-0.1393-0.1674-0.2622 0.0647-0.4342 0.2516-0.1862 0.6482-0.28 0.9796-0.3584 0.2165-0.0513 0.4052-0.0959 0.5075-0.1554 0.2562-0.1493 0.0806-0.6788-0.062-0.91-0.1466-0.2337-0.1638-0.7884-0.0199-1.0222 0.14-0.2311 0.6076-1.1028-0.14-1.6337-0.1849-0.1308-0.3513-0.2312-0.5018-0.3183-0.6723-0.3804-0.8334-0.4979-0.9338-0.6921-0.0682-0.1261-0.1763-0.2753-0.2797-0.4178l-1e-4 -2e-4c-0.2289-0.3157-0.434-0.5987-0.1283-0.525 0.2807 0.0677 0.655 0.229 1.0446 0.3968l4e-4 2e-4c0.2261 0.0974 0.4574 0.197 0.6785 0.2819 0.5996 0.2311 1.7883 0.1241 2.3589 0.0396 0.5745-0.0819 2.4815 0.0423 2.8249 0.1242 0.321 0.0805 0.7449 0.2165 0.914 0.3143 0.0767 0.0521 0.1082 0.1727 0.1434 0.3074v1e-4c0.0442 0.169 0.0941 0.36 0.2462 0.4651 0.1029 0.0727 0.3147 0.1953 0.5477 0.3302l0.0013 8e-4 0.0625 0.0362 0.0329 0.0191 5e-4 3e-4c0.3463 0.2007 0.7211 0.418 0.895 0.5511 0.2999 0.2417 0.4174 0.457 0.56 0.7541 0.0171 0.0347 0.033 0.068 0.0484 0.1002 0.1176 0.2461 0.2041 0.4271 0.5592 0.6619 0.4028 0.2628 0.4358 0.5481 0.2192 0.6736-0.2126 0.1241-0.8611 0.3143-1.3181 0.2641-0.1299-0.0143-0.3492-0.0494-0.6051-0.0903l-5e-4 -1e-4c-0.6439-0.1031-1.519-0.2431-1.7835-0.1817l-0.0621 0.0138c-0.3524 0.0782-0.7201 0.1598-1.0843 0.4828-0.1824 0.1617-0.2619 0.3077-0.3332 0.4385-0.0789 0.1449-0.1477 0.2714-0.3351 0.3804-0.1135 0.0659-0.2456 0.1209-0.38 0.1769-0.2879 0.1198-0.5857 0.2437-0.7307 0.4887-0.0285 0.0478-0.0568 0.0925-0.0835 0.1348l-1e-3 0.0014c-0.1721 0.2722-0.2821 0.4461-0.0093 0.7315 0.481 0.294 1.2931 0.5544 1.8078 0.7194 0.2343 0.0751 0.4069 0.1304 0.4585 0.1602 0.1849 0.107 0.5455 0.3804 0.6617 0.8466 0.0142 0.0549 0.0269 0.1074 0.0391 0.1576l2e-4 0.0011c0.0723 0.2986 0.1238 0.5115 0.3464 0.6403 0.512 0.1633 1.441 0.1308 2.009 0.111h1e-4 9e-4c0.1392-0.0049 0.2566-9e-3 0.3409-0.0093l0.0951 1e-4h3e-4c0.502 6e-4 1.643 2e-3 2.0837-0.1004 0.472-0.1044 1.543-0.4134 1.742-0.6102 0.056-0.0558 0.139-0.1159 0.236-0.186 0.252-0.1823 0.598-0.4325 0.803-0.8521 0.284-0.5812 0.626-1.5585 0.48-1.7407-0.147-0.181-0.19-0.4398 0.123-0.6049 0.167-0.089 0.607-0.116 1.052-0.1434 0.387-0.0237 0.777-0.0477 0.995-0.1128 0.469-0.1427 1.052-0.5481 1.05-0.6815 1e-3 -0.044-0.031-0.1523-0.069-0.281v-2e-4c-0.075-0.2575-0.175-0.5966-0.082-0.6671 0.145-0.1043 1.025 0.0291 1.365 0.0938 0.346 0.066 1.063 0.0832 1.966-0.3421 0.374-0.1768 1.07-0.5829 1.788-1.0024 1.014-0.5928 2.075-1.2123 2.341-1.2494 0.156-0.0225 0.306-0.0226 0.466-0.0227 0.307-2e-4 0.649-4e-4 1.126-0.1622 0.712-0.2402 1.638-0.7751 1.791-0.8635l7e-3 -0.0042c0.015-0.0085 0.035-0.0212 0.059-0.0368 0.191-0.1202 0.65-0.4105 0.955-0.234 0.094 0.0534 0.196 0.1155 0.306 0.1817l4e-3 0.0026c0.106 0.064 0.218 0.1317 0.333 0.1987 0.205 0.1189 0.423 0.2338 0.638 0.3196 0.457 0.1836 0.731 0.1744 0.842-0.0079 0.012-0.0199 0.024-0.0379 0.035-0.0545 0.093-0.1374 0.124-0.1843-0.119-0.4434-0.1-0.1039-0.207-0.2016-0.309-0.2945l-1e-3 -6e-4v-2e-4c-0.18-0.1643-0.344-0.3137-0.427-0.4562-0.128-0.2271-0.12-0.6141 0.382-0.6722 0.137-0.0155 0.263-0.0145 0.391-0.0134 0.343 0.0027 0.709 0.0057 1.382-0.3036 0.412-0.1876 0.799-0.3895 1.154-0.575v-1e-4l1e-3 -2e-4c0.445-0.2323 0.84-0.4388 1.176-0.5592 0.078-0.0302 0.159-0.0625 0.241-0.0955l1e-3 -2e-4c0.494-0.1975 1.048-0.4188 1.398-0.3599 0.062 0.0099 0.122 0.0188 0.179 0.0273 0.209 0.0311 0.377 0.0562 0.454 0.1008 0.052 0.0303 0.064 0.0713 0.013 0.1281-0.025 0.0288-0.044 0.0523-0.06 0.0724l-1e-3 2e-4v1e-4c-0.078 0.0959-0.093 0.1153-0.355 0.268-0.151 0.0876-0.38 0.0887-0.603 0.0898-0.195 9e-4 -0.385 0.0018-0.516 0.0595l-0.051 0.0401c-0.289 0.2267-0.423 0.332-0.3 0.4644 0.132 0.1387 0.104 0.2404-0.111 0.4636-0.041 0.0447-0.096 0.0942-0.155 0.1473v3e-4c-0.237 0.2153-0.54 0.4905-0.297 0.7478 0.085 0.0951 0.186 0.1612 0.281 0.2166 0.337 0.1902 0.418 0.2602 0.395 0.391-0.058 0.28-0.072 0.2891-0.522 0.5681l-6e-3 0.0038c-0.397 0.2483-0.184 0.445-0.075 0.507l0.182 0.1203c0.225 0.1624 0.366 0.2601 0.508 0.342 0.187 0.107 0.372 0.1876 0.508 0.1757 0.362-0.0344 0.648-0.2008 0.671-0.3434 0.015-0.1426 0.373-0.7079 0.812-0.5864 0.441 0.1215 0.763 0.2232 1.224 0.3751 0.46 0.1572 0.975 0.2126 1.05 0.0343 0.029-0.0695-8e-3 -0.16-0.051-0.2658-0.066-0.1616-0.146-0.359-0.031-0.5729 0.078-0.1426 0.152-0.2548 0.246-0.3578 0.144-0.1546 0.331-0.288 0.627-0.4596 0.495-0.288 1.923-0.9166 2.285-0.951 0.362-0.0343 2.328-0.0238 2.883 0.0779 0.114 0.0202 0.22 0.0432 0.32 0.065l1e-3 2e-4c0.385 0.0838 0.682 0.1485 1.016-0.0453 0.416-0.2417 2.034-1.3194 2.118-1.3762 0.218-0.0262 0.42-0.0313 0.598-0.0359 0.39-0.01 0.668-0.0171 0.764-0.2336 0.069-0.1498 0.035-0.2482 6e-3 -0.3345-0.032-0.0947-0.06-0.1747 0.06-0.2915 0.222-0.2129 0.999-0.6662 1.305-0.8446l0.026-0.0151c0.288-0.1678 0.778-0.3553 0.951-0.2985 0.193 0.2733 0.265 0.4713 0.319 0.6195 0.055 0.1526 0.091 0.2524 0.221 0.3274 0.051 0.0293 0.114 0.0641 0.182 0.1018l2e-3 0.0011c0.086 0.0471 0.179 0.0989 0.269 0.1507 0.208 0.1188 0.394 0.239 0.4 0.3037 6e-3 0.075-0.095 0.2313-0.19 0.379v4e-4c-0.057 0.0888-0.112 0.1745-0.141 0.2374-0.012 0.025-0.031 0.0582-0.055 0.0975-0.129 0.218-0.369 0.624 0.054 0.868 0.496 0.2866 1.04 0.5679 1.278 0.5428l8e-3 -9e-4c0.239-0.029 0.567-0.0686 0.843-0.2606 0.27-0.1942 0.379-0.3976 0.051-0.6181-0.324-0.2206-0.778-0.836-0.798-1.0328-0.019-0.1994 0.078-0.379 0.316-0.4385 0.097-0.0247 0.184-0.0854 0.276-0.1494 0.128-0.0896 0.265-0.1856 0.453-0.198 0.254-0.0175 0.627 0.0403 0.909 0.0839l3e-3 5e-4c0.077 0.0119 0.147 0.0227 0.205 0.0306 0.276 0.0409 0.84-0.1308 0.937-0.321 0.028-0.0569 0.083-0.1329 0.144-0.2183v-3e-4c0.139-0.1941 0.313-0.4365 0.298-0.6134l-2e-3 -0.0357c-0.017-0.2411-0.032-0.4516-0.27-0.6934-0.046-0.0482-0.088-0.0964-0.128-0.1424v-4e-4c-0.092-0.105-0.173-0.199-0.276-0.2586-0.317-0.0047-0.512 0.02-0.651 0.0376-0.177 0.0224-0.263 0.0333-0.395-0.043-0.263-0.1742-0.405-0.6171-0.476-0.8372-0.013-0.0386-0.023-0.0703-0.031-0.0925-0.061-0.1492-0.421-0.5706-0.654-0.7542-0.227-0.1822-0.47-0.4054-0.199-0.5454 0.095-0.0505 0.184-0.0758 0.269-0.1 0.155-0.0442 0.297-0.0845 0.442-0.2672 0.106-0.132 0.127-0.2443 0.149-0.3584v-1e-4c0.024-0.1279 0.048-0.2581 0.192-0.4207 0.026-0.0292 0.05-0.0571 0.072-0.0834l1e-3 -9e-4c0.213-0.2483 0.311-0.3636 0.751-0.23 0.49 0.1519 2.098 0.317 2.821 0.2245 0.319-0.0397 0.859-0.019 1.441 0.0034 0.755 0.029 1.58 0.0607 2.087-0.0325 0.897-0.169 3.97-0.4622 4.735-0.1954v137.27h-125.86z" fill="#D3EBFF"/>
<path d="m52.414 59.93-20.247 11.689c-2.8423 1.6408-2.8422 4.3012 0 5.942l61.647 35.589" stroke="#478CC8" stroke-dasharray="4.46 4.46" stroke-linecap="round" stroke-linejoin="round" stroke-width=".64819"/>
<rect transform="matrix(.86604 .49997 -.86604 .49997 71.579 29.923)" y=".48612" width="40.25" height="40.25" rx="6.1114" stroke="#478CC8" stroke-width=".97229"/>
<path d="m74.945 28.55c-2.0915-1.2074-5.4825-1.2074-7.574 0l-22.916 13.229c-1.0833 0.6254-1.6055 1.4521-1.5666 2.2716h-0.0793v4.6826h0.0774c-1e-4 0.7913 0.5228 1.5827 1.5686 2.1864l22.916 13.229c2.0916 1.2074 5.4826 1.2074 7.5741 0l22.916-13.229c1.046-0.6038 1.5689-1.3953 1.5687-2.1868h0.0741v-4.6048h-0.0816c0.0766-0.8446-0.4438-1.7038-1.5612-2.349l-22.916-13.229z" clip-rule="evenodd" fill="url(#at)" fill-rule="evenodd"/>
<g filter="url(#bf)">
<rect transform="matrix(.86604 .49997 -.86604 .49997 71.158 26.364)" width="35.206" height="35.206" rx="4.3728" fill="url(#a)"/>
</g>
<g opacity=".1" style="mix-blend-mode:multiply">
<path d="m71.098 31.021h11.858v0.014c1.9587 0.0245 3.9046 0.4683 5.3993 1.3312 3.077 1.7763 3.077 4.6564 0 6.4328-1.4947 0.8629-3.4406 1.3066-5.3993 1.3312v6e-3h-11.858v-9.1152z" clip-rule="evenodd" fill="url(#y)" fill-rule="evenodd"/>
</g>
<path d="m78.054 23.346h-14.084v12.726c0 1.0395 0.6886 2.0811 2.0637 2.8743 1.375 0.7932 3.1771 1.1898 4.9793 1.1898 1.8021 0 3.6042-0.3966 4.9793-1.1898 1.375-0.7932 2.0614-1.8348 2.0614-2.8743v-12.726z" fill="url(#n)"/>
<path d="m71.014 28.572c1.8021 0 3.6042-0.3966 4.9793-1.1898 1.375-0.7932 2.0614-1.8348 2.0614-2.8743v0.5121c0 1.0395-0.6864 2.0811-2.0614 2.8743-1.3751 0.7932-3.1772 1.1898-4.9793 1.1898-1.8022 0-3.6043-0.3966-4.9793-1.1898-1.3751-0.7932-2.0637-1.8348-2.0637-2.8743v-0.5121c0 1.0395 0.6886 2.0811 2.0637 2.8743 1.375 0.7932 3.1771 1.1898 4.9793 1.1898zm4.9793 0.3987c-1.3751 0.7932-3.1772 1.1898-4.9793 1.1898-1.8022 0-3.6043-0.3966-4.9793-1.1898-1.3751-0.7932-2.0637-1.8348-2.0637-2.8743v0.5121c0 1.0395 0.6886 2.0811 2.0637 2.8743 1.375 0.7932 3.1771 1.1898 4.9793 1.1898 1.8021 0 3.6042-0.3966 4.9793-1.1898 1.375-0.7932 2.0614-1.8348 2.0614-2.8743v-0.5121c0 1.0395-0.6864 2.0811-2.0614 2.8743zm-4.9793 2.7786c1.8021 0 3.6042-0.3966 4.9793-1.1898 1.375-0.7932 2.0614-1.8349 2.0614-2.8743v0.5121c0 1.0394-0.6864 2.0811-2.0614 2.8743-1.3751 0.7932-3.1772 1.1898-4.9793 1.1898-1.8022 0-3.6043-0.3966-4.9793-1.1898-1.3751-0.7932-2.0637-1.8349-2.0637-2.8743v-0.5121c0 1.0394 0.6886 2.0811 2.0637 2.8743 1.375 0.7932 3.1771 1.1898 4.9793 1.1898zm4.9793 0.3987c-1.3751 0.7932-3.1772 1.1898-4.9793 1.1898-1.8022 0-3.6043-0.3966-4.9793-1.1898-1.3751-0.7932-2.0637-1.8348-2.0637-2.8742v0.5121c0 1.0394 0.6886 2.081 2.0637 2.8742 1.375 0.7932 3.1771 1.1898 4.9793 1.1898 1.8021 0 3.6042-0.3966 4.9793-1.1898 1.375-0.7932 2.0614-1.8348 2.0614-2.8742v-0.5121c0 1.0394-0.6864 2.081-2.0614 2.8742zm-4.9793 2.7783c1.8021 0 3.6042-0.3966 4.9793-1.1898 1.375-0.7932 2.0614-1.8348 2.0614-2.8743v0.5121c0 1.0395-0.6864 2.0811-2.0614 2.8743-1.3751 0.7932-3.1772 1.1898-4.9793 1.1898-1.8022 0-3.6043-0.3966-4.9793-1.1898-1.3751-0.7932-2.0637-1.8348-2.0637-2.8743v-0.5121c0 1.0395 0.6886 2.0811 2.0637 2.8743 1.375 0.7932 3.1771 1.1898 4.9793 1.1898zm4.9793 0.399c-1.3751 0.7932-3.1772 1.1898-4.9793 1.1898-1.8022 0-3.6043-0.3966-4.9793-1.1898-1.3751-0.7933-2.0637-1.8349-2.0637-2.8743v0.5121c0 1.0394 0.6886 2.081 2.0637 2.8742 1.375 0.7932 3.1771 1.1898 4.9793 1.1898 1.8021 0 3.6042-0.3966 4.9793-1.1898 1.375-0.7932 2.0614-1.8348 2.0614-2.8742v-0.5121c0 1.0394-0.6864 2.081-2.0614 2.8743zm0 1.5885c-1.3751 0.7932-3.1772 1.1898-4.9793 1.1898-1.8022 0-3.6043-0.3966-4.9793-1.1898-1.3751-0.7932-2.0637-1.8349-2.0637-2.8743v0.5121c0 1.0394 0.6886 2.081 2.0637 2.8743 1.375 0.7932 3.1771 1.1898 4.9793 1.1898 1.8021 0 3.6042-0.3966 4.9793-1.1898 1.375-0.7933 2.0614-1.8349 2.0614-2.8743v-0.5121c0 1.0394-0.6864 2.0811-2.0614 2.8743z" clip-rule="evenodd" fill="url(#f)" fill-rule="evenodd"/>
<path d="m66.034 20.47c1.375-0.7932 3.1771-1.1898 4.9793-1.1898 1.8021 0 3.6043 0.3966 4.9793 1.1898s2.0614 1.8348 2.0614 2.8743c0 1.0394-0.6864 2.081-2.0614 2.8742s-3.1772 1.1898-4.9793 1.1898c-1.8022 0-3.6043-0.3966-4.9793-1.1898-1.3751-0.7932-2.0637-1.8348-2.0637-2.8742 0-1.0395 0.6886-2.0789 2.0637-2.8743z" fill="#fff"/>
<path d="m68.089 21.078c0.8063-0.4663 1.8632-0.6995 2.9222-0.6995 1.0569 0 2.1138 0.2332 2.9223 0.6995 0.8062 0.4663 1.2094 1.0765 1.2094 1.6867 0 0.6101-0.4032 1.2203-1.2094 1.6866-0.8063 0.4663-1.8632 0.6995-2.9223 0.6995-1.059 0-2.1137-0.2332-2.9222-0.6995-0.8062-0.4663-1.2094-1.0765-1.2094-1.6866 0-0.6102 0.4032-1.2204 1.2094-1.6867z" fill="#98DC6A"/>
<path d="m73.933 24.451c-0.8063 0.4663-1.8632 0.6995-2.9222 0.6995-1.0569 0-2.1138-0.2332-2.9222-0.6995-0.8063-0.4664-1.2095-1.0765-1.2095-1.6867v0.5818c0 0.6102 0.4032 1.2204 1.2095 1.6867 0.8062 0.4663 1.8631 0.6995 2.9222 0.6995 1.0568 0 2.1137-0.2332 2.9222-0.6995 0.8063-0.4663 1.2094-1.0765 1.2094-1.6867v-0.5818c0.0022 0.6102-0.4031 1.2203-1.2094 1.6867z" fill="url(#e)"/>
<g opacity=".1" style="mix-blend-mode:multiply">
<path d="m91.637 41.365h-9.9969l6.3441 3.6649-6.3441 3.6618h9.9969l6.3472-3.6618-6.3472-3.6649z" fill="url(#d)"/>
</g>
<path d="m87.926 45.104-6.3494 3.6658v-10.91l6.3494-3.6675v10.911z" fill="#5DA2DE"/>
<path d="m75.227 45.104 6.3494 3.6658v-10.91l-6.3494-3.6675v10.911z" fill="#A6D6FF"/>
<path d="m87.927 34.193-6.3494-3.6658-6.3494 3.6658 6.3494 3.6674 6.3494-3.6674z" fill="#fff"/>
<path d="m86.65 34.364-5.0737-2.9309-5.0737 2.9309 5.0737 2.9292 5.0737-2.9292z" fill="#fff" opacity=".3"/>
<path d="m81.577 31.433-5.0737 2.9309-0.2953-0.1717 5.369-3.0991v0.3399z" fill="#5DA2DE"/>
<path d="m81.577 31.433 5.0737 2.9309 0.2953-0.1717-5.369-3.0991v0.3399z" fill="#A6D6FF"/>
<path d="m85.074 37.726-0.6455 0.3726v-0.6799l0.6455-0.3726v0.6799z" fill="#fff" opacity=".3"/>
<path d="m85.074 39.272-0.6456 0.3743v-0.6816l0.6456-0.3726v0.6799z" fill="#fff" opacity=".3"/>
<path d="m85.074 40.818-0.6456 0.3725v-0.6799l0.6456-0.3743v0.6817z" fill="#fff" opacity=".3"/>
<path d="m85.074 42.364-0.6456 0.3726v-0.68l0.6456-0.3725v0.6799z" fill="#fff" opacity=".3"/>
<path d="m85.074 43.909-0.6456 0.3743v-0.6817l0.6456-0.3725v0.6799z" fill="#fff" opacity=".3"/>
<path d="m85.074 45.456-0.6456 0.3725v-0.6799l0.6456-0.3743v0.6817z" fill="#fff" opacity=".3"/>
<path d="m78.079 37.726 0.6456 0.3726v-0.6799l-0.6456-0.3726v0.6799z" fill="#fff" opacity=".3"/>
<path d="m78.079 39.272 0.6456 0.3743v-0.6816l-0.6456-0.3726v0.6799z" fill="#fff" opacity=".3"/>
<path d="m78.079 40.818 0.6456 0.3725v-0.6799l-0.6456-0.3743v0.6817z" fill="#fff" opacity=".3"/>
<path d="m78.079 42.364 0.6456 0.3726v-0.68l-0.6456-0.3725v0.6799z" fill="#fff" opacity=".3"/>
<path d="m78.079 43.909 0.6456 0.3743v-0.6817l-0.6456-0.3725v0.6799z" fill="#fff" opacity=".3"/>
<path d="m78.079 45.456 0.6456 0.3725v-0.6799l-0.6456-0.3743v0.6817z" fill="#fff" opacity=".3"/>
<g opacity=".1" style="mix-blend-mode:multiply">
<path d="m85.476 47.802h-6.396l-5.8919-3.4011h-13.139l9.0899 5.247h6.396l1.7939 1.0363-8.1899 4.7281h13.139l8.1899-4.7281-4.9919-2.8822z" fill="url(#c)"/>
</g>
<path d="m69.139 55.412-14.082-8.1292v-7.5865l14.082 8.1306v7.5851z" fill="#A6D6FF"/>
<path d="m77.329 50.684-8.19 4.728v-7.585l8.19-4.7295v7.5865z" fill="#5DA2DE"/>
<path d="m72.337 40.215-3.198 1.8474-9.0899-5.2485-4.9919 2.8822 14.082 8.1307 8.19-4.7296-4.992-2.8822z" fill="#fff"/>
<path d="m70.449 49.407-0.4106 0.2372v-1.0006l0.4106-0.2372v1.0006z" fill="#fff" opacity=".3"/>
<path d="m71.445 48.832-0.4106 0.2372v-1.0006l0.4106-0.2372v1.0006z" fill="#fff" opacity=".3"/>
<path d="m72.443 48.256-0.4121 0.2371v-1.0005l0.4121-0.2372v1.0006z" fill="#fff" opacity=".3"/>
<path d="m73.44 47.682-0.4121 0.2372v-1.0006l0.4121-0.2372v1.0006z" fill="#fff" opacity=".3"/>
<path d="m74.436 47.106-0.4106 0.2371v-1.0006l0.4106-0.2371v1.0006z" fill="#fff" opacity=".3"/>
<path d="m70.449 51.315-0.4106 0.2372v-1.0006l0.4106-0.2372v1.0006z" fill="#fff" opacity=".3"/>
<path d="m71.445 50.74-0.4106 0.2372v-1.0006l0.4106-0.2372v1.0006z" fill="#fff" opacity=".3"/>
<path d="m72.443 50.164-0.4121 0.2372v-1.0006l0.4121-0.2371v1.0005z" fill="#fff" opacity=".3"/>
<path d="m73.44 49.589-0.4121 0.2372v-1.0006l0.4121-0.2372v1.0006z" fill="#fff" opacity=".3"/>
<path d="m74.436 49.014-0.4106 0.2372v-1.0006l0.4106-0.2372v1.0006z" fill="#fff" opacity=".3"/>
<path d="m70.449 53.224-0.4106 0.2372v-1.0006l0.4106-0.2372v1.0006z" fill="#fff" opacity=".3"/>
<path d="m71.445 52.648-0.4106 0.2372v-1.0006l0.4106-0.2372v1.0006z" fill="#fff" opacity=".3"/>
<path d="m72.443 52.073-0.4121 0.2372v-1.0006l0.4121-0.2372v1.0006z" fill="#fff" opacity=".3"/>
<path d="m73.44 51.497-0.4121 0.2372v-1.0006l0.4121-0.2372v1.0006z" fill="#fff" opacity=".3"/>
<path d="m74.436 50.922-0.4106 0.2372v-1.0006l0.4106-0.2387v1.0021z" fill="#fff" opacity=".3"/>
<path d="m76.018 46.193 0.4106-0.2372v-1.0005l-0.4106 0.2371v1.0006z" fill="#fff" opacity=".3"/>
<path d="m75.022 46.768 0.4106-0.2372v-1.0006l-0.4106 0.2372v1.0006z" fill="#fff" opacity=".3"/>
<path d="m76.018 48.101 0.4106-0.2372v-1.0021l-0.4106 0.2387v1.0006z" fill="#fff" opacity=".3"/>
<path d="m75.022 48.677 0.4106-0.2372v-1.0006l-0.4106 0.2372v1.0006z" fill="#fff" opacity=".3"/>
<path d="m76.018 50.009 0.4106-0.2371v-1.0021l-0.4106 0.2372v1.002z" fill="#fff" opacity=".3"/>
<path d="m75.022 50.584 0.4106-0.2372v-1.002l-0.4106 0.2386v1.0006z" fill="#fff" opacity=".3"/>
<path d="m67.648 49.329 0.4106 0.2371v-1.002l-0.4106-0.2372v1.0021z" fill="#fff" opacity=".3"/>
<path d="m62.738 45.659v0.6657l4.476 2.5827v-0.6642l-4.476-2.5842z" fill="#fff" opacity=".3"/>
<path d="m62.738 47.567v0.6657l4.476 2.5827v-0.6642l-4.476-2.5842z" fill="#fff" opacity=".3"/>
<path d="m62.738 49.476v0.6642l4.476 2.5842v-0.6642l-4.476-2.5842z" fill="#fff" opacity=".3"/>
<path d="m61.457 44.921v0.6642l-4.476-2.5842v-0.6642l4.476 2.5842z" fill="#fff" opacity=".3"/>
<path d="m61.457 46.83v0.6642l-4.476-2.5842v-0.6642l4.476 2.5842z" fill="#fff" opacity=".3"/>
<path d="m61.457 48.737v0.6642l-4.476-2.5842v-0.6642l4.476 2.5842z" fill="#fff" opacity=".3"/>
<path d="m67.648 51.235 0.4106 0.2387v-1.0021l-0.4106-0.2372v1.0006z" fill="#fff" opacity=".3"/>
<path d="m67.648 53.143 0.4106 0.2371v-1.0005l-0.4106-0.2372v1.0006z" fill="#fff" opacity=".3"/>
<path d="m61.891 46.005 0.4106 0.2371v-1.002l-0.4106-0.2372v1.0021z" fill="#fff" opacity=".3"/>
<path d="m61.891 47.913 0.4106 0.2372v-1.0021l-0.4106-0.2372v1.0021z" fill="#fff" opacity=".3"/>
<path d="m61.891 49.821 0.4106 0.2372v-1.0021l-0.4106-0.2372v1.0021z" fill="#fff" opacity=".3"/>
<path d="m56.136 42.68 0.4106 0.2372v-1.0006l-0.4106-0.2372v1.0006z" fill="#fff" opacity=".3"/>
<path d="m56.136 44.588 0.4106 0.2372v-1.0006l-0.4106-0.2372v1.0006z" fill="#fff" opacity=".3"/>
<path d="m56.136 46.497 0.4106 0.2372v-1.0006l-0.4106-0.2371v1.0005z" fill="#fff" opacity=".3"/>
<path d="m64.133 0.94238c-0.9968 0-1.8049 0.80806-1.8049 1.8048v10.843c0 0.9968 0.8081 1.8049 1.8049 1.8049h4.6537l2.3115 2.3115 2.3115-2.3115h4.1167c0.9968 0 1.8049-0.8081 1.8049-1.8049v-10.843c0-0.99679-0.8081-1.8048-1.8049-1.8048h-13.393z" clip-rule="evenodd" fill="#64B82A" fill-rule="evenodd"/>
<g clip-path="url(#bh)" fill="#fff">
<path d="m72.044 6.8934h1.3329c0.2333 0 0.4478 0.12761 0.5591 0.33256l1.1443 2.107v0.58362c0 0.3514-0.2848 0.6362-0.6362 0.6362h-0.6406c-0.0512 0.5699-0.5281 1.0165-1.1088 1.0165s-1.0576-0.4466-1.1088-1.0165h-1.5995c-0.0511 0.5699-0.528 1.0165-1.1087 1.0165-0.5808 0-1.0577-0.4466-1.1088-1.0165h-0.554c-0.3514 0-0.6362-0.2848-0.6362-0.6362v-0.58362h5.1472c0.1757 0 0.3181-0.14241 0.3181-0.31808v-2.1215z"/>
<path d="m69.979 6.4683 0.643 1e-5c0.076 0 0.1138-0.09215 0.0597-0.14554l-1.5154-1.4951c-0.0335-0.03298-0.0873-0.03261-0.1203 8.2e-4l-1.4747 1.4951c-0.053 0.05372-0.0149 0.14472 0.0605 0.14472l0.6469-1e-5v2.1254h1.7003v-2.1254z"/>
</g>
<path d="m95.061 68.776c-0.9967 0-1.8048 0.8081-1.8048 1.8049v10.843c0 0.9968 0.8081 1.8048 1.8048 1.8048h4.6538l2.3109 2.3112 2.311-2.3112h4.118c0.997 0 1.805-0.808 1.805-1.8048v-10.843c0-0.9968-0.808-1.8049-1.805-1.8049h-13.394z" clip-rule="evenodd" fill="#478CC8" fill-rule="evenodd"/>
<g clip-path="url(#bg)" fill="#fff">
<path d="m102.97 74.726h1.332c0.234 0 0.448 0.1276 0.559 0.3325l1.145 2.1071v0.5836c0 0.3513-0.285 0.6362-0.636 0.6362h-0.641c-0.051 0.5699-0.528 1.0165-1.109 1.0165s-1.057-0.4466-1.109-1.0165h-1.599c-0.051 0.5699-0.528 1.0165-1.1088 1.0165s-1.0576-0.4466-1.1088-1.0165h-0.554c-0.3514 0-0.6362-0.2849-0.6362-0.6362v-0.5836h5.1468c0.176 0 0.319-0.1424 0.319-0.3181v-2.1215z"/>
<path d="m99.208 74.726h-0.6429c-0.076 0-0.1138 0.0921-0.0597 0.1455l1.5151 1.4951c0.034 0.033 0.088 0.0326 0.121-8e-4l1.474-1.4951c0.053-0.0537 0.015-0.1447-0.06-0.1447h-0.647v-2.1254h-1.7005v2.1254z"/>
</g>
<rect transform="matrix(.86604 .49997 -.86604 .49997 103.19 100.28)" y=".48612" width="40.25" height="40.25" rx="6.1114" stroke="#478CC8" stroke-width=".97229"/>
<path d="m106.56 98.903c-2.092-1.2074-5.483-1.2074-7.5742 0l-22.916 13.23c-1.0833 0.625-1.6055 1.452-1.5666 2.271h-0.0793v4.683h0.0774c-1e-4 0.791 0.5228 1.582 1.5686 2.186l22.916 13.23c2.0912 1.207 5.4822 1.207 7.5742 0l22.915-13.23c1.046-0.604 1.569-1.395 1.569-2.187h0.074v-4.604h-0.081c0.076-0.845-0.444-1.704-1.562-2.349l-22.915-13.23z" clip-rule="evenodd" fill="url(#b)" fill-rule="evenodd"/>
<g filter="url(#be)">
<rect transform="matrix(.86604 .49997 -.86604 .49997 102.77 96.718)" width="35.206" height="35.206" rx="4.3728" fill="url(#a)"/>
</g>
<g opacity=".1" style="mix-blend-mode:multiply">
<path d="m114.31 119.87h-13.162l6.553 3.783-6.553 3.783h13.162l6.553-3.783-6.553-3.783z" fill="url(#bc)"/>
</g>
<g opacity=".1" style="mix-blend-mode:multiply">
<path d="m128.27 109.97h-14.224l7.081 4.089-7.081 4.088h14.224l7.081-4.088-7.081-4.089z" fill="url(#bb)"/>
</g>
<g opacity=".1" style="mix-blend-mode:multiply">
<path d="m116.01 103h-14.224l7.082 4.088-7.082 4.089h14.224l7.081-4.089-7.081-4.088z" fill="url(#ba)"/>
</g>
<path d="m109.68 106.6-7.892 4.556v-13.56l7.892-4.5582v13.562z" fill="#5DA2DE"/>
<path d="m93.898 106.6 7.8912 4.556v-13.56l-7.8912-4.5582v13.562z" fill="#A6D6FF"/>
<path d="m97.443 97.425 0.8023 0.4631v-0.8451l-0.8023-0.463v0.845z" fill="#fff" opacity=".3"/>
<path d="m97.443 99.346 0.8024 0.4652v-0.8472l-0.8024-0.4631v0.8451z" fill="#fff" opacity=".3"/>
<path d="m97.443 101.27 0.8024 0.463v-0.845l-0.8024-0.465v0.847z" fill="#fff" opacity=".3"/>
<path d="m97.443 103.19 0.8024 0.463v-0.845l-0.8024-0.463v0.845z" fill="#fff" opacity=".3"/>
<path d="m97.443 105.11 0.8024 0.465v-0.847l-0.8024-0.463v0.845z" fill="#fff" opacity=".3"/>
<path d="m97.443 107.03 0.8024 0.463v-0.845l-0.8024-0.465v0.847z" fill="#fff" opacity=".3"/>
<path d="m106.14 97.425-0.803 0.4631v-0.8451l0.803-0.463v0.845z" fill="#fff" opacity=".3"/>
<path d="m106.14 99.346-0.803 0.4652v-0.8472l0.803-0.4631v0.8451z" fill="#fff" opacity=".3"/>
<path d="m106.14 101.27-0.803 0.463v-0.845l0.803-0.465v0.847z" fill="#fff" opacity=".3"/>
<path d="m106.14 103.19-0.803 0.463v-0.845l0.803-0.463v0.845z" fill="#fff" opacity=".3"/>
<path d="m106.14 105.11-0.803 0.465v-0.847l0.803-0.463v0.845z" fill="#fff" opacity=".3"/>
<path d="m106.14 107.03-0.803 0.463v-0.845l0.803-0.465v0.847z" fill="#fff" opacity=".3"/>
<path d="m109.68 93.033-7.892-4.556-7.891 4.556 7.891 4.5582 7.892-4.5582z" fill="#EEF7FF"/>
<path d="m108.1 93.247-6.306-3.6427-6.3057 3.6427 6.3057 3.6406 6.306-3.6406z" fill="#EEF7FF" opacity=".3"/>
<path d="m101.79 89.604-6.3063 3.6427-0.367-0.2134 6.6733-3.8519v0.4226z" fill="#5DA2DE"/>
<path d="m101.79 89.604 6.306 3.6427 0.367-0.2134-6.673-3.8519v0.4226z" fill="#A6D6FF"/>
<path d="m121.07 114.1-7.023 4.052v-13.856l7.023-4.055v13.859z" fill="#5DA2DE"/>
<path d="m107.02 114.1 7.021 4.052v-13.856l-7.021-4.055v13.859z" fill="#A6D6FF"/>
<path d="m120.37 102.81-5.61 3.239v-0.753l5.61-3.239v0.753z" fill="#fff" opacity=".3"/>
<path d="m120.36 104.52-5.61 3.24v-0.754l5.61-3.239v0.753z" fill="#fff" opacity=".3"/>
<path d="m120.36 106.23-5.61 3.239v-0.753l5.61-3.24v0.754z" fill="#fff" opacity=".3"/>
<path d="m120.36 107.94-5.61 3.239v-0.753l5.61-3.24v0.754z" fill="#fff" opacity=".3"/>
<path d="m120.36 109.65-5.61 3.239v-0.753l5.61-3.239v0.753z" fill="#fff" opacity=".3"/>
<path d="m120.36 111.36-5.61 3.237v-0.751l5.61-3.239v0.753z" fill="#fff" opacity=".3"/>
<path d="m120.36 113.07-5.61 3.237v-0.751l5.61-3.239v0.753z" fill="#fff" opacity=".3"/>
<path d="m107.73 102.81 5.61 3.239v-0.753l-5.61-3.24v0.754z" fill="#fff" opacity=".3"/>
<path d="m107.73 104.52 5.61 3.239v-0.753l-5.61-3.239v0.753z" fill="#fff" opacity=".3"/>
<path d="m107.73 106.23 5.61 3.239v-0.753l-5.61-3.239v0.753z" fill="#fff" opacity=".3"/>
<path d="m107.73 107.94 5.61 3.24v-0.754l-5.61-3.239v0.753z" fill="#fff" opacity=".3"/>
<path d="m107.73 109.65 5.61 3.239v-0.753l-5.61-3.24v0.754z" fill="#fff" opacity=".3"/>
<path d="m107.73 111.36 5.61 3.237v-0.751l-5.61-3.24v0.754z" fill="#fff" opacity=".3"/>
<path d="m107.73 113.07 5.61 3.237v-0.751l-5.61-3.24v0.754z" fill="#fff" opacity=".3"/>
<path d="m122.34 98.52-8.293-4.7866-8.29 4.7866 8.29 4.7866 8.293-4.7866z" fill="#EEF7FF"/>
<path d="m117.64 98.792-3.596-2.0742-3.596 2.0742 3.596 2.0763 3.596-2.0763z" fill="#EEF7FF" opacity=".3"/>
<path d="m109.98 98.52 4.068-2.3496v0.5463l-3.596 2.0743-0.472-0.271z" fill="#5DA2DE"/>
<path d="m118.12 98.52-4.07-2.3496v0.5463l3.596 2.0743 0.474-0.271z" fill="#A6D6FF"/>
<path d="m122.34 98.52-8.293 4.7866v0.984l8.293-4.7868v-0.9838z" fill="#5DA2DE"/>
<path d="m105.76 98.52 8.291 4.7866v0.984l-8.291-4.7868v-0.9838z" fill="#A6D6FF"/>
<path d="m101.13 127.44 6.603-3.812v-5.718l-6.603 3.812v5.718z" fill="#5DA2DE"/>
<path d="m101.13 121.72-6.6023-3.812 6.6023-3.808 6.603 3.808-6.603 3.812z" fill="#F2F2F7"/>
<path d="m101.13 121.72-3.301-5.018 6.603-3.812 3.301 5.019-6.603 3.811z" fill="#C7E5FF"/>
<path d="m97.827 116.7-3.3014 1.207 6.6031-3.809 3.301-1.21-6.6027 3.812z" fill="#E7F4FF"/>
<path d="m97.827 116.7-3.3014 1.207v5.718l6.6023 3.811v-5.717l-3.3009-5.019z" fill="#A6D6FF"/>
<g opacity=".1" style="mix-blend-mode:multiply">
<path d="m100.48 115.24c-1.7455-1.008-4.5744-1.008-6.3203 0-0.9974 0.576-1.425 1.356-1.2828 2.107h-6.453v0.578h6.6812c0.2153 0.352 0.5668 0.683 1.0546 0.964 1.7459 1.008 4.5748 1.008 6.3203 0 1.746-1.008 1.746-2.641 0-3.649z" clip-rule="evenodd" fill="url(#az)" fill-rule="evenodd"/>
</g>
<path d="m86.004 109.96 0.4189 0.243v7.724l-0.4189-0.241v-7.726z" fill="#F3CA98"/>
<path d="m86.845 109.96-0.4216 0.243v7.724l0.4216-0.241v-7.726z" fill="#B89052"/>
<path d="m81.008 107.15c0-2.99 2.4246-5.418 5.4174-5.418 2.9903 0 5.4175 2.425 5.4175 5.418 0 2.99-2.4246 5.417-5.4175 5.417-2.9928 0-5.4174-2.424-5.4174-5.417z" fill="url(#ay)"/>
<g opacity=".1" style="mix-blend-mode:multiply">
<path d="m58.325 84.166 2e-4 1e-4h2e-4c2.2808 0.3031 4.5664 0.6068 6.8459 0.9167l4.0373 2.3292h6.0861l-9e-4 -5e-4 0.1537-0.0923h0.415l0.5304 0.3075-0.1532 0.0919 15.469 8.931h0.3173l0.5303 0.3075-0.1537 0.0922h-0.0017l0.0013 7e-4 -11.675 6.74h-3e-4l-0.1534 0.085h-0.415l-0.1477-0.085h-12.688-3e-4 -0.4146l-0.4024-0.23-0.6662 0.384h-0.7301l-0.2683-0.154h-6e-4l-0.3843-0.223 1.2398-0.715-4.4605-2.575h-1.2756c-0.0576-0.034-0.1172-0.069-0.1768-0.103-0.0595-0.035-0.1191-0.069-0.1767-0.104l0.2612-0.1515c-0.7596-0.1044-1.6525-0.3816-2.2138-0.7014-0.4458-0.2613-0.5764-0.4842-0.415-0.6226 0.0154-0.023 0.0461-0.0384 0.0768-0.0538l0.2666-0.1539h-0.8888c-0.0576-0.0346-0.1171-0.0692-0.1767-0.1037v-1e-4c-0.0596-0.0346-0.1192-0.0691-0.1768-0.1037l0.6298-0.3635-1.8332-1.0579h-1.2179l-3.9659-2.2904 2.4488-1.4145h-3.7935c-0.1922-0.1076-0.3843-0.2152-0.5688-0.3228l0.2009-0.1163c-0.1018 0.0013-0.2173 0.0012-0.3465 0.0011l-0.1312-1e-4c-0.5687 0-2.2135-0.4151-2.7976-0.7456-0.5841-0.3381-0.5764-0.4842-0.415-0.6225 0.0034 0 0.0115-0.0047 0.0228-0.0112 0.014-0.0079 0.0328-0.0188 0.054-0.0272l0.2661-0.1537h-0.8578c-0.7917-0.4612-2.0982-1.2144-2.8899-1.6678l9.6073-5.5492h1.614c0.075 0.0469 0.1529 0.0909 0.2319 0.1355v1e-4c0.0505 0.0285 0.1015 0.0573 0.1524 0.0873h4.7806l0.7934 0.1054z" clip-rule="evenodd" fill="url(#ax)" fill-rule="evenodd"/>
</g>
<path d="m50.983 93.33-3.3261-1.9178v-3.0115l3.3261 1.9178v3.0115z" clip-rule="evenodd" fill="url(#aw)" fill-rule="evenodd"/>
<path d="m70.626 97.697-3.6183-2.0901v-2.6669l3.6183 2.0901 0.1948 1.2885-0.1948 1.3784z" clip-rule="evenodd" fill="url(#av)" fill-rule="evenodd"/>
<path d="m43.807 90.798 2.2249-1.281v-2.5246l-2.2249 1.2811v2.5245z" clip-rule="evenodd" fill="url(#au)" fill-rule="evenodd"/>
<path d="m46.117 92.228c-0.2248 0.1349-0.5469 0.1124-0.8915-0.0899-0.3521-0.2022-0.6667-0.5468-0.8914-0.9439-0.2323-0.397-0.3671-0.839-0.3671-1.2435s0.1423-0.6892 0.3671-0.8166c0.3371-0.1947 0.5618-0.3221 0.8989-0.5169 0.2322-0.1348 0.5469-0.1123 0.8915 0.0899 0.3521 0.2023 0.6667 0.5469 0.8914 0.9439 0.2323 0.3971 0.3671 0.8391 0.3671 1.2436s-0.1423 0.6892-0.3671 0.8165c-0.3371 0.1948-0.5618 0.3222-0.8989 0.5169z" clip-rule="evenodd" fill="#090E06" fill-rule="evenodd"/>
<path d="m45.23 89.224c0.6967 0.4046 1.266 1.3784 1.266 2.1875 0 0.8016-0.5618 1.1312-1.266 0.7267-0.6967-0.4046-1.266-1.3785-1.266-2.1875 0-0.8091 0.5693-1.1312 1.266-0.7267z" clip-rule="evenodd" fill="#1F2C2B" fill-rule="evenodd"/>
<path d="m45.23 89.935c0.3596 0.2023 0.6443 0.7042 0.6443 1.1162 0 0.4121-0.2922 0.5769-0.6443 0.3746-0.3596-0.2023-0.6442-0.7042-0.6442-1.1162s0.2921-0.5843 0.6442-0.3746z" clip-rule="evenodd" fill="#E3D6C9" fill-rule="evenodd"/>
<path d="m45.23 90.1c0.2772 0.1574 0.5019 0.5469 0.5019 0.869 0 0.3222-0.2247 0.4495-0.5019 0.2922-0.2771-0.1573-0.5019-0.5469-0.5019-0.869s0.2248-0.4495 0.5019-0.2922z" clip-rule="evenodd" fill="url(#as)" fill-rule="evenodd"/>
<path d="m45.23 90.272c0.1945 0.1122 0.3517 0.3816 0.3517 0.6061 0 0.2244-0.1572 0.3142-0.3517 0.202s-0.3517-0.3816-0.3517-0.6061 0.1572-0.3143 0.3517-0.202z" clip-rule="evenodd" fill="#E3D6C9" fill-rule="evenodd"/>
<path d="m65.861 99.112 3.6258-2.0901v-2.6669l-3.6258 2.0976v2.6594z" clip-rule="evenodd" fill="url(#ar)" fill-rule="evenodd"/>
<path d="m65.861 100.45-3.6257-2.0902v-2.6669l3.6257 2.0976v2.6595z" clip-rule="evenodd" fill="url(#aq)" fill-rule="evenodd"/>
<path d="m40.998 87.606 0.3746 0.2173 9.3641-5.4087-0.3746-0.2173-9.3641 5.4087z" clip-rule="evenodd" fill="#F7F2EC" fill-rule="evenodd"/>
<path d="m47.2 91.681 2.2174-1.281v-1.678l-2.2174 1.281v1.678z" clip-rule="evenodd" fill="url(#ap)" fill-rule="evenodd"/>
<path d="m47.2 90.041-1.296-1.2735-1.3485-0.7791-1.0862 0.442v2.165l0.3446 0.2023v-1.0788c0-0.9064 0.6368-1.2735 1.4159-0.8165 0.7865 0.4494 1.4158 1.5507 1.4158 2.4571l0.5544 0.3146v-1.6331z" clip-rule="evenodd" fill="#3A4440" fill-rule="evenodd"/>
<path d="m47.201 80.804-4.0902-2.3597-1.7305 4.712v4.6595l-0.3746-0.2172v1.5731c0.7716 0.442 2.0452 1.1762 2.8093 1.6257v-1.0788c0-0.8989 0.6292-1.2735 1.4158-0.8165 0.6518 0.3895 1.3035 0.7491 1.9478 1.1237v-9.2218h0.0224z" clip-rule="evenodd" fill="#ECC56B" fill-rule="evenodd"/>
<path d="m43.103 78.444 9.3641-5.4087 4.0977 2.3672-9.3641 5.4012-4.0977-2.3597z" clip-rule="evenodd" fill="#FFEA80" fill-rule="evenodd"/>
<path d="m44.481 78.691-0.4794-0.2771 0.4794-0.2772h0.6817l0.4794 0.2772-0.4794 0.2771h-0.6817z" clip-rule="evenodd" fill="url(#ao)" fill-rule="evenodd"/>
<path d="m44.961 77.733-0.4794 0.2847-0.4795-0.2847 0.4795-0.2772 0.4794 0.2772z" clip-rule="evenodd" fill="#F9B24C" fill-rule="evenodd"/>
<path d="m44.002 78.416 0.4794 0.2772v-0.6742l-0.4794-0.2847v0.6817z" clip-rule="evenodd" fill="#F18823" fill-rule="evenodd"/>
<path d="m44.961 78.415-0.4794 0.2772v-0.6743l0.4794-0.2846v0.6817z" clip-rule="evenodd" fill="#B35119" fill-rule="evenodd"/>
<path d="m47.238 77.103-0.4794-0.2771 0.4794-0.2772h0.6818l0.4794 0.2772-0.4794 0.2771h-0.6818z" clip-rule="evenodd" fill="url(#an)" fill-rule="evenodd"/>
<path d="m47.717 76.144-0.4794 0.2772-0.4795-0.2772 0.4795-0.2772 0.4794 0.2772z" clip-rule="evenodd" fill="#F9B24C" fill-rule="evenodd"/>
<path d="m46.758 76.827 0.4794 0.2772v-0.6818l-0.4794-0.2771v0.6817z" clip-rule="evenodd" fill="#F18823" fill-rule="evenodd"/>
<path d="m47.717 76.826-0.4794 0.2772v-0.6817l0.4794-0.2772v0.6817z" clip-rule="evenodd" fill="#B35119" fill-rule="evenodd"/>
<path d="m48.444 76.406-0.4869-0.2772 0.4869-0.2772h0.6743l0.4869 0.2772-0.4869 0.2772h-0.6743z" clip-rule="evenodd" fill="url(#am)" fill-rule="evenodd"/>
<path d="m48.924 75.448-0.4794 0.2772-0.4869-0.2772 0.4869-0.2772 0.4794 0.2772z" clip-rule="evenodd" fill="#F9B24C" fill-rule="evenodd"/>
<path d="m47.957 76.13 0.4869 0.2772v-0.6817l-0.4869-0.2772v0.6817z" clip-rule="evenodd" fill="#F18823" fill-rule="evenodd"/>
<path d="m48.924 76.13-0.4794 0.2772v-0.6818l0.4794-0.2771v0.6817z" clip-rule="evenodd" fill="#B35119" fill-rule="evenodd"/>
<path d="m49.643 75.709-0.4794-0.2772 0.4794-0.2772h0.6818l0.4794 0.2772-0.4794 0.2772h-0.6818z" clip-rule="evenodd" fill="url(#al)" fill-rule="evenodd"/>
<path d="m50.122 74.758-0.4795 0.2772-0.4794-0.2772 0.4794-0.2847 0.4795 0.2847z" clip-rule="evenodd" fill="#F9B24C" fill-rule="evenodd"/>
<path d="m49.163 75.432 0.4789 0.2768v-0.6734l-0.4789-0.2769v0.6735z" clip-rule="evenodd" fill="#F18823" fill-rule="evenodd"/>
<path d="m50.121 75.431-0.4789 0.2768v-0.6734l0.4789-0.2768v0.6734z" clip-rule="evenodd" fill="#B35119" fill-rule="evenodd"/>
<path d="m52.414 74.114-0.487-0.2772 0.487-0.2772h0.6742l0.4869 0.2772-0.4869 0.2772h-0.6742z" clip-rule="evenodd" fill="url(#ak)" fill-rule="evenodd"/>
<path d="m52.894 73.156-0.4795 0.2772-0.4869-0.2772 0.4869-0.2772 0.4795 0.2772z" clip-rule="evenodd" fill="#F9B24C" fill-rule="evenodd"/>
<path d="m51.928 73.838 0.487 0.2772v-0.6817l-0.487-0.2772v0.6817z" clip-rule="evenodd" fill="#F18823" fill-rule="evenodd"/>
<path d="m52.894 73.838-0.4794 0.2771v-0.6817l0.4794-0.2772v0.6818z" clip-rule="evenodd" fill="#B35119" fill-rule="evenodd"/>
<path d="m74.177 80.084 0.5163 0.2993v0.404l-0.5163-0.2993v-0.404z" clip-rule="evenodd" fill="#F18823" fill-rule="evenodd"/>
<path d="m74.843 80.295-0.1498 0.0899v0.4045l0.1498-0.0899v-0.4045z" clip-rule="evenodd" fill="#B35119" fill-rule="evenodd"/>
<path d="m74.318 79.995 0.5238 0.2994-0.1496 0.0897-0.5163-0.2993 0.1421-0.0898z" clip-rule="evenodd" fill="#F9B24C" fill-rule="evenodd"/>
<path d="m74.177 92.745 0.5163 0.2993v0.404l-0.5163-0.2993v-0.404z" clip-rule="evenodd" fill="#F18823" fill-rule="evenodd"/>
<path d="m74.843 92.963-0.1498 0.0824v0.4045l0.1498-0.0824v-0.4045z" clip-rule="evenodd" fill="#B35119" fill-rule="evenodd"/>
<path d="m74.318 92.656 0.5238 0.3067-0.1496 0.0823-0.5163-0.2993 0.1421-0.0897z" clip-rule="evenodd" fill="#B35119" fill-rule="evenodd"/>
<path d="m58.423 70.99 0.5163 0.2993v0.404l-0.5163-0.2993v-0.404z" clip-rule="evenodd" fill="#F18823" fill-rule="evenodd"/>
<path d="m59.089 71.201-0.1498 0.0899v0.4045l0.1498-0.0899v-0.4045z" clip-rule="evenodd" fill="#B35119" fill-rule="evenodd"/>
<path d="m58.572 70.9 0.5163 0.2993-0.1497 0.0898-0.5163-0.2993 0.1497-0.0898z" clip-rule="evenodd" fill="#F9B24C" fill-rule="evenodd"/>
<path d="m51.538 94.73h-0.4045l-0.5244-0.2997 0.1498-0.0824h0.4046l0.5243 0.2997-0.1498 0.0824z" clip-rule="evenodd" fill="#706665" fill-rule="evenodd"/>
<path d="m63.802 90.49-1.3933 0.7941v0.4869l1.3933-0.8015v-0.4795z" clip-rule="evenodd" fill="url(#aj)" fill-rule="evenodd"/>
<path d="m62.153 91.134 0.2544 0.1496v0.4864l-0.2544-0.1496v-0.4864z" clip-rule="evenodd" fill="#CE2F17" fill-rule="evenodd"/>
<path d="m63.539 90.339-1.3859 0.7941 0.2547 0.1498 1.3934-0.7941-0.2622-0.1498z" clip-rule="evenodd" fill="#E03118" fill-rule="evenodd"/>
<path d="m64.549 89.846-1.7005 0.9814 2.6968 0.5768 1.4458-1.2211-1.3484-0.7716-1.0937 0.4345z" clip-rule="evenodd" fill="#63645C" fill-rule="evenodd"/>
<path d="m62.85 90.827 1.0937-0.442 1.3485 0.7791 1.0862 1.7005v-0.0075l-3.5284-2.0376v0.0075z" clip-rule="evenodd" fill="#545950" fill-rule="evenodd"/>
<path d="m66.992 90.182-1.7005 0.9814-1.3484-0.7716 1.7005-0.9814 1.3484 0.7716z" clip-rule="evenodd" fill="#63645C" fill-rule="evenodd"/>
<path d="m66.993 90.182-1.7005 0.9814 1.0712 1.7005 1.7005-0.9814-1.0712-1.7005z" clip-rule="evenodd" fill="#444C48" fill-rule="evenodd"/>
<path d="m58.452 94.558-2.2699 1.311v2.0751l2.2699-1.311v-2.0751z" clip-rule="evenodd" fill="#090E06" fill-rule="evenodd"/>
<path d="m58.49 99.368c-0.2247 0.1348-0.5468 0.1123-0.8914-0.0899-0.3521-0.2023-0.6667-0.5469-0.8915-0.9439-0.2247-0.3971-0.3671-0.8391-0.3671-1.2436s0.1424-0.6892 0.3671-0.8165c0.3371-0.1948 0.5619-0.3222 0.899-0.5169 0.2322-0.1349 0.5468-0.1124 0.8914 0.0898 0.3521 0.2023 0.6667 0.5469 0.8915 0.944 0.2247 0.397 0.3671 0.839 0.3671 1.2435s-0.1424 0.6892-0.3671 0.8166c-0.3371 0.1947-0.5619 0.3221-0.899 0.5169z" clip-rule="evenodd" fill="#090E06" fill-rule="evenodd"/>
<path d="m57.598 96.364c0.6966 0.4046 1.266 1.3859 1.266 2.1875s-0.5694 1.1312-1.266 0.7266c-0.6967-0.4045-1.2661-1.3784-1.2661-2.1874 0.0075-0.8016 0.5694-1.1312 1.2661-0.7267z" clip-rule="evenodd" fill="#1F2C2B" fill-rule="evenodd"/>
<path d="m57.598 96.363c0.6218 0.3595 1.1462 1.1836 1.2436 1.9327l-2.4871-1.4383c0.1048-0.6293 0.6217-0.854 1.2435-0.4944z" clip-rule="evenodd" fill="url(#ai)" fill-rule="evenodd"/>
<path d="m57.598 97.076c0.3596 0.2023 0.6443 0.7042 0.6443 1.1162s-0.2922 0.5768-0.6443 0.3746c-0.3596-0.2023-0.6442-0.7042-0.6442-1.1162 0-0.4121 0.2921-0.5769 0.6442-0.3746z" clip-rule="evenodd" fill="#E3D6C9" fill-rule="evenodd"/>
<path d="m57.598 97.075c0.2846 0.1648 0.5244 0.5094 0.6068 0.854l-1.2211-0.7042c0.0974-0.2397 0.3371-0.3071 0.6143-0.1498z" clip-rule="evenodd" fill="url(#ah)" fill-rule="evenodd"/>
<path d="m57.598 97.248c0.2772 0.1573 0.5019 0.5468 0.5019 0.869 0 0.3221-0.2247 0.4494-0.5019 0.2921s-0.5019-0.5468-0.5019-0.869c0-0.3221 0.2247-0.4569 0.5019-0.2921zm0 0.1723c-0.1948-0.1124-0.3521-0.0225-0.3521 0.2022 0 0.2248 0.1573 0.4945 0.3521 0.6068 0.1948 0.1124 0.3521 0.0225 0.3521-0.2022 0-0.2248-0.1573-0.4945-0.3521-0.6068z" clip-rule="evenodd" fill="url(#ag)" fill-rule="evenodd"/>
<path d="m57.598 97.248c0.202 0.1122 0.3741 0.3517 0.4564 0.5986l-0.1721-0.1048c-0.0673-0.1347-0.1646-0.2544-0.2768-0.3217-0.1123-0.0674-0.217-0.0599-0.2769 0l-0.1721-0.1048c0.0674-0.1497 0.2395-0.1871 0.4415-0.0673z" clip-rule="evenodd" fill="url(#af)" fill-rule="evenodd"/>
<path d="m58.175 94.394 0.9439 0.2772 1.3484 0.7716 0.0075 0.2772-2.2998-1.326z" clip-rule="evenodd" fill="#3A4440" fill-rule="evenodd"/>
<path d="m57.534 94.596-1.7005 0.9814 2.6968 0.5693 1.4384-1.2136-1.3485-0.7791-1.0862 0.442z" clip-rule="evenodd" fill="#63645C" fill-rule="evenodd"/>
<path d="m55.838 95.577 1.0863-0.442 1.3484 0.7791 1.0862 1.7005v2.165l-0.3446-0.2023v-1.0787c0-0.9065-0.6367-2.0077-1.4158-2.4572-0.7866-0.4495-1.4159-0.0824-1.4159 0.8166v1.0787l-0.3446-0.2022v-2.1575z" clip-rule="evenodd" fill="#3A4440" fill-rule="evenodd"/>
<path d="m55.838 95.577 1.0862-0.442 1.3485 0.7791 1.0862 1.7005v0.9814l-0.3446-0.2023c-0.045-0.884-0.6667-1.9103-1.4159-2.3448-0.7491-0.4345-1.3634-0.1124-1.4158 0.7117l-0.3521-0.2023 0.0075-0.9813z" clip-rule="evenodd" fill="url(#ae)" fill-rule="evenodd"/>
<path d="m59.973 94.933-1.7005 0.9814-1.3485-0.7791 1.7006-0.9813 1.3484 0.779z" clip-rule="evenodd" fill="#63645C" fill-rule="evenodd"/>
<path d="m59.973 94.933-1.7005 0.9814 1.0937 1.7005 1.7005-0.9813-1.0937-1.7006z" clip-rule="evenodd" fill="#4B5550" fill-rule="evenodd"/>
<path d="m61.067 98.798-1.7005 0.9814v-2.165l1.7005-0.9814v2.165z" clip-rule="evenodd" fill="url(#ad)" fill-rule="evenodd"/>
<path d="m64.476 98.61-1.6856 0.9739-3.873-2.2324 1.6931-0.9739 3.8655 2.2324z" clip-rule="evenodd" fill="#63645C" fill-rule="evenodd"/>
<path d="m48.848 90.318 15.634 9.027 9.3641-5.4087-15.634-9.027-9.3641 5.4087z" clip-rule="evenodd" fill="#000" fill-rule="evenodd"/>
<path d="m74.693 80.385-11.379 6.5699v13.065l11.379-6.5703v-13.065z" clip-rule="evenodd" fill="url(#ac)" fill-rule="evenodd"/>
<path d="m74.266 81.118-5.0566 2.9141v12.084l5.0566-2.9141v-12.084zm-5.4761 3.1613-5.0492 2.9142v12.083l5.0492-2.9141v-12.084z" clip-rule="evenodd" fill="#476223" fill-rule="evenodd"/>
<path d="m47.043 77.561 16.271 9.394 11.379-6.5698-16.271-9.3941-11.379 6.5699z" clip-rule="evenodd" fill="#DFD8CF" fill-rule="evenodd"/>
<path d="m47.89 77.56 15.424 8.8996 10.533-6.0754-15.424-8.9071-10.533 6.0829z" clip-rule="evenodd" fill="#9ED678" fill-rule="evenodd"/>
<path d="m55.673 93.412-3.8655-2.2324-2.2174 1.281 3.8655 2.2324 2.2174-1.281z" clip-rule="evenodd" fill="url(#ab)" fill-rule="evenodd"/>
<path d="m53.456 96.371 2.2174-1.281v-1.678l-2.2174 1.281v1.678z" clip-rule="evenodd" fill="url(#aa)" fill-rule="evenodd"/>
<path d="m53.456 96.371-3.8655-2.2324v-1.678l3.8655 2.2324v1.678z" clip-rule="evenodd" fill="#3A4440" fill-rule="evenodd"/>
<path d="m53.456 95.187-3.8655-2.2324v-0.4944l3.8655 2.2324v0.4944z" clip-rule="evenodd" fill="url(#z)" fill-rule="evenodd"/>
<path d="m47.043 77.56 16.271 9.3941v13.065l-16.271-9.3939v-13.065z" clip-rule="evenodd" fill="#C6BCB1" fill-rule="evenodd"/>
<path d="m47.462 78.295v12.083l15.424 8.9071v-12.083l-15.424-8.9071z" clip-rule="evenodd" fill="#77AB53" fill-rule="evenodd"/>
<path d="m63.314 87.651-0.3745-0.2172-0.1499-0.3745v-0.4046l0.5244 0.2997v0.6966zm0 11.964v0.4044l-0.5244-0.2995v-0.4045l0.5244 0.2996zm-15.604-8.6-0.6667-0.382v-0.4046l0.5244 0.2997 0.1498 0.3746v0.1123h-0.0075zm0-12.78v0.4045l-0.5244-0.2996-0.1498-0.3746v-0.4045l0.5244 0.2997 0.1498 0.3745z" clip-rule="evenodd" fill="#88817F" fill-rule="evenodd"/>
<path d="m62.64 99.396 0.5237 0.3068v0.4039l-0.5237-0.2992v-0.4115z" clip-rule="evenodd" fill="#F18823" fill-rule="evenodd"/>
<path d="m63.314 99.614-0.1498 0.0898v0.4049l0.1498-0.09v-0.4047z" clip-rule="evenodd" fill="#B35119" fill-rule="evenodd"/>
<path d="m62.79 99.315 0.5238 0.2993-0.1497 0.0898-0.5237-0.3068 0.1496-0.0823z" clip-rule="evenodd" fill="#F9B24C" fill-rule="evenodd"/>
<path d="m46.893 90.302 0.5163 0.3067v0.4041l-0.5163-0.2993v-0.4115z" clip-rule="evenodd" fill="#F18823" fill-rule="evenodd"/>
<path d="m47.56 90.52-0.1498 0.0899v0.4045l0.1498-0.0899v-0.4045z" clip-rule="evenodd" fill="#B35119" fill-rule="evenodd"/>
<path d="m47.043 90.22 0.5162 0.2993-0.1496 0.0897-0.5163-0.3067 0.1497-0.0823z" clip-rule="evenodd" fill="#F9B24C" fill-rule="evenodd"/>
<path d="m62.887 87.307-0.0524-0.1424 0.0524 0.03v0.1124zm-15.424-9.012v0.2097l0.2397 0.1424v-0.2098l-0.2397-0.1423z" clip-rule="evenodd" fill="url(#x)" fill-rule="evenodd"/>
<path d="m62.647 86.736 0.5162 0.2993v0.4115l-0.5162-0.3067v-0.4041z" clip-rule="evenodd" fill="#F18823" fill-rule="evenodd"/>
<path d="m63.314 86.955-0.1498 0.0824v0.412l0.1498-0.0899v-0.4045z" clip-rule="evenodd" fill="#B35119" fill-rule="evenodd"/>
<path d="m62.79 86.655 0.5238 0.2993-0.1496 0.0823-0.5163-0.2993 0.1421-0.0823z" clip-rule="evenodd" fill="#F9B24C" fill-rule="evenodd"/>
<path d="m46.893 77.641 0.5163 0.2993v0.4041l-0.5163-0.2993v-0.4041z" clip-rule="evenodd" fill="#F18823" fill-rule="evenodd"/>
<path d="m47.56 77.86-0.1498 0.0824v0.4045l0.1498-0.0824v-0.4045z" clip-rule="evenodd" fill="#B35119" fill-rule="evenodd"/>
<path d="m47.043 77.56 0.5163 0.2993-0.1496 0.0823-0.5163-0.2993 0.1496-0.0823z" clip-rule="evenodd" fill="#F9B24C" fill-rule="evenodd"/>
<path d="m74.693 95.15-11.379 6.5703v0.719l11.379-6.5776v-0.7117z" clip-rule="evenodd" fill="url(#w)" fill-rule="evenodd"/>
<path d="m74.694 95.15-11.379 6.5698-0.382-0.217 11.379-6.5701 0.3821 0.2173z" clip-rule="evenodd" fill="#63645C" fill-rule="evenodd"/>
<path d="m62.932 101.5v0.711l0.3816 0.225v-0.719l-0.3816-0.217z" clip-rule="evenodd" fill="#3A4440" fill-rule="evenodd"/>
<path d="m64.962 101.07-1.3934 0.801v0.719l1.3934-0.801v-0.719z" clip-rule="evenodd" fill="url(#v)" fill-rule="evenodd"/>
<path d="m63.314 101.72 0.2544 0.149v0.711l-0.2544-0.142v-0.718z" clip-rule="evenodd" fill="#CE2F17" fill-rule="evenodd"/>
<path d="m64.7 100.92-1.3858 0.802 0.2547 0.15 1.3933-0.802-0.2622-0.15z" clip-rule="evenodd" fill="#E03118" fill-rule="evenodd"/>
<path d="m74.948 95.3-1.3859 0.8015v0.7117l1.3859-0.8016v-0.7116z" clip-rule="evenodd" fill="url(#u)" fill-rule="evenodd"/>
<path d="m73.308 95.952 0.2544 0.1496v0.7109l-0.2544-0.1497v-0.7108z" clip-rule="evenodd" fill="url(#t)" fill-rule="evenodd"/>
<path d="m74.694 95.15-1.3859 0.8016 0.2547 0.1498 1.3934-0.8015-0.2622-0.1499z" clip-rule="evenodd" fill="url(#s)" fill-rule="evenodd"/>
<path d="m74.693 95.15-10.533 6.0828-0.3746-0.225 10.525-6.0751 0.382 0.2173z" clip-rule="evenodd" fill="url(#r)" fill-rule="evenodd"/>
<path d="m64.699 100.92-0.5388 0.314 0.2619 0.15 0.5388-0.314-0.2619-0.15z" clip-rule="evenodd" fill="url(#q)" fill-rule="evenodd"/>
<path d="m65.479 98.768v1.259l0.3821-0.2177v-1.2585l-0.3821 0.2172z" clip-rule="evenodd" fill="url(#p)" fill-rule="evenodd"/>
<path d="m66.243 98.334v1.2585l-0.3821 0.2173v-1.2586l0.3821-0.2172z" clip-rule="evenodd" fill="url(#o)" fill-rule="evenodd"/>
<path d="m70.626 95.802v1.2585l0.3821-0.2172v-1.266l-0.3821 0.2247z" clip-rule="evenodd" fill="url(#m)" fill-rule="evenodd"/>
<path d="m71.39 95.36v1.2585l-0.382 0.2247v-1.266l0.382-0.2172z" clip-rule="evenodd" fill="url(#l)" fill-rule="evenodd"/>
<path d="m41.799 82.19 0.3368 0.1945v0.3891l-0.3368-0.1946v-0.389z" clip-rule="evenodd" fill="#63645C" fill-rule="evenodd"/>
<path d="m46.376 86.894-0.8007-0.4639v0.202l0.651 0.3741v0.202l0.1497 0.0898v-0.404z" clip-rule="evenodd" fill="#C6BCB1" fill-rule="evenodd"/>
<path d="m41.372 85.928-0.2547-0.1498v1.251l0.2547 0.1499v-1.2511z" clip-rule="evenodd" fill="#F18823" fill-rule="evenodd"/>
<path d="m46.375 86.895-0.8016-0.4644v0.2022l0.1423 0.3746 0.5394 0.3146 0.1124 0.2697 0.1498 0.0824v-0.4045l-0.1423-0.3746z" clip-rule="evenodd" fill="url(#k)" fill-rule="evenodd"/>
<path d="m46.226 86.976-0.8007-0.4565v0.2021l0.651 0.3741v0.202l0.1497 0.0823v-0.404z" clip-rule="evenodd" fill="#E3D6C9" fill-rule="evenodd"/>
<path d="m45.576 86.43 0.8006 0.4639-0.1496 0.0823-0.8006-0.4564 0.1496-0.0898z" clip-rule="evenodd" fill="#F7F2EC" fill-rule="evenodd"/>
<path d="m46.375 86.894-0.1498 0.0824v0.4045l0.1498-0.0824v-0.4045z" clip-rule="evenodd" fill="url(#j)" fill-rule="evenodd"/>
<path d="m41.799 82.19v0.4794c0.1499 0.3895 0.2997 0.7791 0.457 1.1686v1.4234l-0.1124-0.2922-0.3371-0.1948v0.2173-0.1199 0.2547c0.1499 0.3896 0.2997 0.7791 0.457 1.1687v0.2771c0.2472 0.6368 0.4944 1.2736 0.7416 1.9103l0.3371 0.1948v-3.8355l-0.7416-1.9103-0.3371-0.1948-0.1199-0.3071-0.3446-0.2397z" clip-rule="evenodd" fill="url(#i)" fill-rule="evenodd"/>
<path d="m46.376 80.819v5.2214l-2.8167-1.6181v1.281l-1.7605-1.0188v-0.9814l0.0899-0.2472 0.8316-2.2548 0.7491-2.0601 2.9066 1.678z" clip-rule="evenodd" fill="url(#h)" fill-rule="evenodd"/>
<path d="m46.376 83.8v2.2398l-2.8167-1.6181v1.281l-0.3671-0.2097v-1.693h3.1838z" clip-rule="evenodd" fill="#FFEA80" fill-rule="evenodd"/>
<path d="m46.376 85.546-2.3897-1.3709-0.427 0.2472v0.7866l-1.3334-0.7716v-0.9814l0.0899-0.2472 0.8315-2.2548 0.6068-1.6481 2.6219 1.5132v4.727z" clip-rule="evenodd" fill="#816667" fill-rule="evenodd"/>
<path d="m43.694 84.355-0.1273 0.0749v0.7866l-0.457-0.2622v-0.3596c-0.1498-0.3896-0.2997-0.7791-0.457-1.1686v-0.472l0.3371 0.1948 0.1199 0.3071 0.3371 0.1948 0.2472 0.7042z" clip-rule="evenodd" fill="#5C3F41" fill-rule="evenodd"/>
<path d="m42.646 84.684-0.4195-0.2472v-0.9814l0.0899-0.2472 0.8315-2.2548 0.6068-1.6481 2.6219 1.5132v0.3446l-2.0526-1.1836-0.7566 2.0526-0.8315 2.2549-0.0899 0.2472v0.1498z" clip-rule="evenodd" fill="#5C3F41" fill-rule="evenodd"/>
<path d="m43.56 85.209v0.4944l-1.7605-1.0188h0.8615l0.899 0.5244z" clip-rule="evenodd" fill="#FFEA80" fill-rule="evenodd"/>
<path d="m40.945 86.244-0.3446-0.1948v-3.8355l0.3446 0.1948v3.8355z" clip-rule="evenodd" fill="#3A4440" fill-rule="evenodd"/>
<path d="m41.687 81.98-0.3446-0.1948-0.7417 0.427 0.3446 0.1948 0.7417-0.427z" clip-rule="evenodd" fill="#63645C" fill-rule="evenodd"/>
<path d="m42.134 82.385-0.3367-0.1945-0.4564 0.2618 0.3442 0.1946 0.4489-0.2619z" clip-rule="evenodd" fill="#63645C" fill-rule="evenodd"/>
<path d="m41.371 83.222v-0.3966l0.7632-0.4414v0.3891l-0.7632 0.4489z" clip-rule="evenodd" fill="#2A3530" fill-rule="evenodd"/>
<path d="m42.134 82.385-0.3367-0.1945-0.4564 0.2618 0.3442 0.1946 0.4489-0.2619z" clip-rule="evenodd" fill="#63645C" fill-rule="evenodd"/>
<path d="m41.341 82.452 0.3442 0.1946 0.3367-0.1946h-0.6809z" clip-rule="evenodd" fill="#2A3530" fill-rule="evenodd"/>
<path d="m42.136 84.887-0.3367-0.202-0.4565 0.2619 0.3442 0.202 0.449-0.2619z" clip-rule="evenodd" fill="#63645C" fill-rule="evenodd"/>
<path d="m41.372 85.718v-0.3966l0.7632-0.434v0.3891l-0.7632 0.4415z" clip-rule="evenodd" fill="#2A3530" fill-rule="evenodd"/>
<path d="m41.342 84.947 0.3442 0.202 0.3367-0.202h-0.6809z" clip-rule="evenodd" fill="#2A3530" fill-rule="evenodd"/>
<path d="m41.687 81.981v3.8355l-0.7417 0.427v-3.8355l0.7417-0.427z" clip-rule="evenodd" fill="#2A3530" fill-rule="evenodd"/>
<path d="m42.256 84.947h0.854l0.4495 0.2622v0.3671h-0.2248l-1.0787-0.6293z" clip-rule="evenodd" fill="url(#g)" fill-rule="evenodd"/>
<path d="m40.998 87.606 0.3746 0.2172v1.5732l-0.3746-0.2173v-1.5731z" clip-rule="evenodd" fill="#E3D6C9" fill-rule="evenodd"/>
<path d="m49.628 85.85-0.8419 0.4884 0.8419 1.4607v-0.7309l1.4791 0.854v-0.4873l-1.4791-0.854v-0.7309zm2.956 1.2195-0.8419-1.4607v0.7309l-1.4791-0.854v0.4873l1.4791 0.854 1e-4 0.731 0.8418-0.4885z" fill="#fff"/>
<path d="m55.464 91.375-2.292-1.3234-1e-4 -0.5488c0.1592-0.0656 0.3184-0.1313 0.4775-0.1969 0.1607-0.0648 0.31-0.1352 0.448-0.2114 0.291-0.1575 0.4904-0.3006 0.598-0.4293 0.1076-0.1304 0.1614-0.3067 0.1614-0.529 0-0.2031-0.0584-0.3952-0.1751-0.5764-0.1152-0.182-0.2767-0.333-0.4843-0.4529-0.138-0.0797-0.2873-0.1379-0.448-0.1746-0.1607-0.0368-0.3176-0.0416-0.4707-0.0145l-0.0227-0.0131v-0.5514c0.1076 9e-4 0.2509 0.0276 0.4297 0.0801 0.1804 0.0534 0.3548 0.1287 0.523 0.2258 0.3472 0.2004 0.6193 0.4547 0.8163 0.7628 0.1971 0.3063 0.2957 0.6249 0.2957 0.9558 0 0.1487-0.0167 0.2783-0.05 0.3886-0.0319 0.1094-0.0796 0.2034-0.1433 0.2822-0.0591 0.0744-0.1288 0.1409-0.2092 0.1996-0.0788 0.0595-0.175 0.1203-0.2887 0.1824-0.1622 0.0902-0.3297 0.172-0.5025 0.2455-0.1729 0.0718-0.3343 0.1379-0.4844 0.1982l1.8214 1.0517v0.449zm2.8738 0.5591-0.5025-0.2901v1.1001l-0.4365-0.252-1e-4 -1.1002-1.6212-0.9361-1e-4 -0.6039 1.6394-1.259 0.4184 0.2416 1e-4 2.3894 0.5025 0.2901v0.4201zm-0.9391-0.9623-1e-4 -1.7645-1.3119 1.007 1.312 0.7575zm3.6197 3.6102-0.5389-0.3111-0.7208-1.5426-0.7254 0.7076-0.4979-0.2876 0.9913-0.89-0.9823-2.0376 0.5389 0.3112 0.7163 1.5216 0.7185-0.6932 0.5002 0.2889-0.9982 0.8677 0.9983 2.0651z" fill="#fff"/>
<defs>
<filter id="bf" x="42.886" y="27.645" width="56.542" height="32.642" color-interpolation-filters="sRGB" filterUnits="userSpaceOnUse">
<feFlood flood-opacity="0" result="BackgroundImageFix"/>
<feBlend in="SourceGraphic" in2="BackgroundImageFix" result="shape"/>
<feColorMatrix in="SourceAlpha" result="hardAlpha" values="0 0 0 0 0 0 0 0 0 0 0 0 0 0 0 0 0 0 127 0"/>
<feOffset dy="-0.317128"/>
<feComposite in2="hardAlpha" k2="-1" k3="1" operator="arithmetic"/>
<feColorMatrix values="0 0 0 0 1 0 0 0 0 1 0 0 0 0 1 0 0 0 1 0"/>
<feBlend in2="shape" result="effect1_innerShadow"/>
</filter>
<filter id="be" x="74.501" y="97.998" width="56.542" height="32.642" color-interpolation-filters="sRGB" filterUnits="userSpaceOnUse">
<feFlood flood-opacity="0" result="BackgroundImageFix"/>
<feBlend in="SourceGraphic" in2="BackgroundImageFix" result="shape"/>
<feColorMatrix in="SourceAlpha" result="hardAlpha" values="0 0 0 0 0 0 0 0 0 0 0 0 0 0 0 0 0 0 127 0"/>
<feOffset dy="-0.317128"/>
<feComposite in2="hardAlpha" k2="-1" k3="1" operator="arithmetic"/>
<feColorMatrix values="0 0 0 0 1 0 0 0 0 1 0 0 0 0 1 0 0 0 1 0"/>
<feBlend in2="shape" result="effect1_innerShadow"/>
</filter>
<linearGradient id="bd" x1="190.49" x2="25.099" y1="-.54474" y2="176.66" gradientUnits="userSpaceOnUse">
<stop stop-color="#B6DCFF" offset="0"/>
<stop stop-color="#7BB0E0" offset="1"/>
</linearGradient>
<linearGradient id="at" x1="95.756" x2="32.937" y1="64.036" y2="64.036" gradientUnits="userSpaceOnUse">
<stop stop-color="#B1DBFF" offset="0"/>
<stop stop-color="#D1EAFF" offset=".33239"/>
<stop stop-color="#EFF8FF" offset=".39477"/>
<stop stop-color="#D8EDFF" offset=".82832"/>
<stop stop-color="#BDDEFA" offset=".84863"/>
</linearGradient>
<linearGradient id="a" x1="25.427" x2="38.253" y1="41.124" y2="-9.1285" gradientUnits="userSpaceOnUse">
<stop stop-color="#F8FCFF" offset="0"/>
<stop stop-color="#D7ECFF" stop-opacity=".54" offset="1"/>
</linearGradient>
<linearGradient id="y" x1="70.203" x2="83.65" y1="40.137" y2="40.137" gradientUnits="userSpaceOnUse">
<stop stop-color="#39444F" offset="0"/>
<stop stop-color="#39444F" stop-opacity="0" offset="1"/>
</linearGradient>
<linearGradient id="n" x1="63.971" x2="79.263" y1="31.741" y2="31.741" gradientUnits="userSpaceOnUse">
<stop stop-color="#C7E5FF" offset=".26519"/>
<stop stop-color="#71B6F2" offset="1"/>
</linearGradient>
<linearGradient id="f" x1="79.124" x2="66.352" y1="29.084" y2="29.084" gradientUnits="userSpaceOnUse">
<stop stop-color="#55A120" offset="0"/>
<stop stop-color="#82C655" offset="1"/>
</linearGradient>
<linearGradient id="e" x1="76.56" x2="68.31" y1="23.894" y2="23.894" gradientUnits="userSpaceOnUse">
<stop stop-color="#55A120" offset="0"/>
<stop stop-color="#82C655" offset="1"/>
</linearGradient>
<linearGradient id="d" x1="82.359" x2="92.628" y1="48.691" y2="48.691" gradientUnits="userSpaceOnUse">
<stop stop-color="#39444F" offset="0"/>
<stop stop-color="#39444F" stop-opacity="0" offset="1"/>
</linearGradient>
<linearGradient id="c" x1="67.148" x2="81.495" y1="55.412" y2="55.412" gradientUnits="userSpaceOnUse">
<stop stop-color="#39444F" offset="0"/>
<stop stop-color="#39444F" stop-opacity="0" offset="1"/>
</linearGradient>
<linearGradient id="b" x1="127.37" x2="64.551" y1="134.39" y2="134.39" gradientUnits="userSpaceOnUse">
<stop stop-color="#B1DBFF" offset="0"/>
<stop stop-color="#D1EAFF" offset=".33239"/>
<stop stop-color="#EFF8FF" offset=".39477"/>
<stop stop-color="#D8EDFF" offset=".82832"/>
<stop stop-color="#BDDEFA" offset=".84863"/>
</linearGradient>
<linearGradient id="bc" x1="102.02" x2="111.01" y1="127.44" y2="127.44" gradientUnits="userSpaceOnUse">
<stop stop-color="#39444F" offset="0"/>
<stop stop-color="#39444F" stop-opacity="0" offset="1"/>
</linearGradient>
<linearGradient id="bb" x1="114.98" x2="127.23" y1="118.15" y2="118.15" gradientUnits="userSpaceOnUse">
<stop stop-color="#39444F" offset="0"/>
<stop stop-color="#39444F" stop-opacity="0" offset="1"/>
</linearGradient>
<linearGradient id="ba" x1="102.73" x2="116.11" y1="111.18" y2="111.18" gradientUnits="userSpaceOnUse">
<stop stop-color="#39444F" offset="0"/>
<stop stop-color="#39444F" stop-opacity="0" offset="1"/>
</linearGradient>
<linearGradient id="az" x1="87.099" x2="94.609" y1="119.64" y2="119.64" gradientUnits="userSpaceOnUse">
<stop stop-color="#39444F" offset="0"/>
<stop stop-color="#39444F" stop-opacity="0" offset="1"/>
</linearGradient>
<radialGradient id="ay" cx="0" cy="0" r="1" gradientTransform="translate(83.553 105.08) scale(8.8196)" gradientUnits="userSpaceOnUse">
<stop stop-color="#9ED678" offset="0"/>
<stop stop-color="#68A042" offset="1"/>
</radialGradient>
<linearGradient id="ax" x1="60.884" x2="89.048" y1="103.94" y2="102.62" gradientUnits="userSpaceOnUse">
<stop stop-color="#39444F" offset="0"/>
<stop stop-color="#39444F" stop-opacity="0" offset="1"/>
</linearGradient>
<linearGradient id="aw" x1="52.235" x2="62.798" y1="91.701" y2="94.73" gradientUnits="userSpaceOnUse">
<stop stop-color="#1E2822" offset="0"/>
<stop stop-color="#2A3530" offset="1"/>
</linearGradient>
<linearGradient id="av" x1="68.865" x2="68.61" y1="97.306" y2="111.91" gradientUnits="userSpaceOnUse">
<stop stop-color="#1E2822" offset="0"/>
<stop stop-color="#2A3530" offset="1"/>
</linearGradient>
<linearGradient id="au" x1="44.826" x2="42.522" y1="88.965" y2="90.639" gradientUnits="userSpaceOnUse">
<stop stop-color="#1E2822" offset="0"/>
<stop stop-color="#2A3530" offset="1"/>
</linearGradient>
<linearGradient id="as" x1="45.231" x2="45.231" y1="87.928" y2="93.39" gradientUnits="userSpaceOnUse">
<stop stop-color="#BFABA2" offset="0"/>
<stop stop-color="#A8968D" offset="1"/>
</linearGradient>
<linearGradient id="ar" x1="69.107" x2="71.61" y1="99.222" y2="103.56" gradientUnits="userSpaceOnUse">
<stop stop-color="#1E2822" offset="0"/>
<stop stop-color="#2A3530" offset="1"/>
</linearGradient>
<linearGradient id="aq" x1="64.063" x2="63.81" y1="97.269" y2="111.78" gradientUnits="userSpaceOnUse">
<stop stop-color="#1E2822" offset="0"/>
<stop stop-color="#2A3530" offset="1"/>
</linearGradient>
<linearGradient id="ap" x1="47.368" x2="48.574" y1="91.834" y2="89.746" gradientUnits="userSpaceOnUse">
<stop stop-color="#1E2822" offset="0"/>
<stop stop-color="#2A3530" offset="1"/>
</linearGradient>
<linearGradient id="ao" x1="44.926" x2="44.398" y1="78.597" y2="77.681" gradientUnits="userSpaceOnUse">
<stop stop-color="#A27738" offset="0"/>
<stop stop-color="#906828" offset="1"/>
</linearGradient>
<linearGradient id="an" x1="47.712" x2="47.125" y1="77.054" y2="76.039" gradientUnits="userSpaceOnUse">
<stop stop-color="#A27738" offset="0"/>
<stop stop-color="#906828" offset="1"/>
</linearGradient>
<linearGradient id="am" x1="48.886" x2="48.358" y1="76.31" y2="75.394" gradientUnits="userSpaceOnUse">
<stop stop-color="#A27738" offset="0"/>
<stop stop-color="#906828" offset="1"/>
</linearGradient>
<linearGradient id="al" x1="50.118" x2="49.532" y1="75.665" y2="74.65" gradientUnits="userSpaceOnUse">
<stop stop-color="#A27738" offset="0"/>
<stop stop-color="#906828" offset="1"/>
</linearGradient>
<linearGradient id="ak" x1="52.886" x2="52.299" y1="74.068" y2="73.052" gradientUnits="userSpaceOnUse">
<stop stop-color="#A27738" offset="0"/>
<stop stop-color="#906828" offset="1"/>
</linearGradient>
<linearGradient id="aj" x1="62.825" x2="63.5" y1="90.626" y2="91.843" gradientUnits="userSpaceOnUse">
<stop stop-color="#A42517" offset="0"/>
<stop stop-color="#791D10" offset="1"/>
</linearGradient>
<linearGradient id="ai" x1="57.145" x2="56.129" y1="98.166" y2="99.672" gradientUnits="userSpaceOnUse">
<stop stop-color="#1E2822" offset="0"/>
<stop stop-color="#2A3530" offset="1"/>
</linearGradient>
<linearGradient id="ah" x1="57.278" x2="59.013" y1="96.967" y2="99.972" gradientUnits="userSpaceOnUse">
<stop stop-color="#BFABA2" offset="0"/>
<stop stop-color="#A8968D" offset="1"/>
</linearGradient>
<linearGradient id="ag" x1="57.6" x2="57.6" y1="95.708" y2="101.17" gradientUnits="userSpaceOnUse">
<stop stop-color="#BFABA2" offset="0"/>
<stop stop-color="#A8968D" offset="1"/>
</linearGradient>
<linearGradient id="af" x1="56.907" x2="57.499" y1="98.826" y2="97.759" gradientUnits="userSpaceOnUse">
<stop stop-color="#BFABA2" offset="0"/>
<stop stop-color="#A8968D" offset="1"/>
</linearGradient>
<linearGradient id="ae" x1="58.489" x2="57.428" y1="95.551" y2="97.388" gradientUnits="userSpaceOnUse">
<stop stop-color="#1E2822" offset="0"/>
<stop stop-color="#2A3530" offset="1"/>
</linearGradient>
<linearGradient id="ad" x1="59.72" x2="61.691" y1="98.19" y2="98.259" gradientUnits="userSpaceOnUse">
<stop stop-color="#1E2822" offset="0"/>
<stop stop-color="#2A3530" offset="1"/>
</linearGradient>
<linearGradient id="ac" x1="66.188" x2="73.804" y1="82.868" y2="102.71" gradientUnits="userSpaceOnUse">
<stop stop-color="#88817F" offset="0"/>
<stop stop-color="#706665" offset="1"/>
</linearGradient>
<linearGradient id="ab" x1="52.26" x2="51.064" y1="93.58" y2="95.652" gradientUnits="userSpaceOnUse">
<stop stop-color="#1E2822" offset="0"/>
<stop stop-color="#2A3530" offset="1"/>
</linearGradient>
<linearGradient id="aa" x1="54.416" x2="52.478" y1="95.002" y2="96.41" gradientUnits="userSpaceOnUse">
<stop stop-color="#1E2822" offset="0"/>
<stop stop-color="#2A3530" offset="1"/>
</linearGradient>
<linearGradient id="z" x1="51.873" x2="51.15" y1="93.214" y2="94.467" gradientUnits="userSpaceOnUse">
<stop stop-color="#1E2822" offset="0"/>
<stop stop-color="#2A3530" offset="1"/>
</linearGradient>
<linearGradient id="x" x1="36.184" x2="85.334" y1="87.89" y2="74.72" gradientUnits="userSpaceOnUse">
<stop stop-color="#BFABA2" offset="0"/>
<stop stop-color="#978680" offset="1"/>
</linearGradient>
<linearGradient id="w" x1="68.808" x2="70.179" y1="98.453" y2="100.83" gradientUnits="userSpaceOnUse">
<stop stop-color="#1E2822" offset="0"/>
<stop stop-color="#2A3530" offset="1"/>
</linearGradient>
<linearGradient id="v" x1="63.381" x2="64.048" y1="100.23" y2="101.43" gradientUnits="userSpaceOnUse">
<stop stop-color="#A42517" offset="0"/>
<stop stop-color="#791D10" offset="1"/>
</linearGradient>
<linearGradient id="u" x1="73.37" x2="74.037" y1="94.455" y2="95.659" gradientUnits="userSpaceOnUse">
<stop stop-color="#A42517" offset="0"/>
<stop stop-color="#791D10" offset="1"/>
</linearGradient>
<linearGradient id="t" x1="74.622" x2="73.745" y1="96.382" y2="96.382" gradientUnits="userSpaceOnUse">
<stop stop-color="#A42517" offset="0"/>
<stop stop-color="#791D10" offset="1"/>
</linearGradient>
<linearGradient id="s" x1="75" x2="72.782" y1="97.195" y2="93.193" gradientUnits="userSpaceOnUse">
<stop stop-color="#A42517" offset="0"/>
<stop stop-color="#791D10" offset="1"/>
</linearGradient>
<linearGradient id="r" x1="68.618" x2="69.221" y1="97.16" y2="98.054" gradientUnits="userSpaceOnUse">
<stop stop-color="#1E2822" offset="0"/>
<stop stop-color="#2A3530" offset="1"/>
</linearGradient>
<linearGradient id="q" x1="64.995" x2="63.899" y1="101.9" y2="100" gradientUnits="userSpaceOnUse">
<stop stop-color="#A42517" offset="0"/>
<stop stop-color="#791D10" offset="1"/>
</linearGradient>
<linearGradient id="p" x1="65.96" x2="67.477" y1="99.812" y2="102.55" gradientUnits="userSpaceOnUse">
<stop stop-color="#1E2822" offset="0"/>
<stop stop-color="#2A3530" offset="1"/>
</linearGradient>
<linearGradient id="o" x1="65.524" x2="67.398" y1="97.888" y2="102.1" gradientUnits="userSpaceOnUse">
<stop stop-color="#1E2822" offset="0"/>
<stop stop-color="#2A3530" offset="1"/>
</linearGradient>
<linearGradient id="m" x1="71.109" x2="72.627" y1="96.845" y2="99.584" gradientUnits="userSpaceOnUse">
<stop stop-color="#1E2822" offset="0"/>
<stop stop-color="#2A3530" offset="1"/>
</linearGradient>
<linearGradient id="l" x1="70.684" x2="72.555" y1="94.948" y2="99.15" gradientUnits="userSpaceOnUse">
<stop stop-color="#1E2822" offset="0"/>
<stop stop-color="#2A3530" offset="1"/>
</linearGradient>
<linearGradient id="k" x1="46.263" x2="45.665" y1="87.828" y2="85.431" gradientUnits="userSpaceOnUse">
<stop stop-color="#B4874C" offset="0"/>
<stop stop-color="#906828" offset="1"/>
</linearGradient>
<linearGradient id="j" x1="47.345" x2="47.715" y1="87.212" y2="87.237" gradientUnits="userSpaceOnUse">
<stop stop-color="#BFABA2" offset="0"/>
<stop stop-color="#A8968D" offset="1"/>
</linearGradient>
<linearGradient id="i" x1="43.254" x2="41.389" y1="85.412" y2="85.412" gradientUnits="userSpaceOnUse">
<stop stop-color="#B4874C" offset="0"/>
<stop stop-color="#906828" offset="1"/>
</linearGradient>
<linearGradient id="h" x1="45.139" x2="43.994" y1="88.726" y2="82.229" gradientUnits="userSpaceOnUse">
<stop stop-color="#B4874C" offset="0"/>
<stop stop-color="#906828" offset="1"/>
</linearGradient>
<linearGradient id="g" x1="43.336" x2="45.173" y1="84.751" y2="82.561" gradientUnits="userSpaceOnUse">
<stop stop-color="#B4874C" offset="0"/>
<stop stop-color="#906828" offset="1"/>
</linearGradient>
<clipPath id="bh">
<rect transform="translate(65.728 3.0677)" width="10.202" height="10.202" fill="#fff"/>
</clipPath>
<clipPath id="bg">
<rect transform="translate(96.657 70.901)" width="10.202" height="10.202" fill="#fff"/>
</clipPath>
</defs>
</svg>
