<svg width="160" height="160" viewBox="0 0 160 160" fill="none" xmlns="http://www.w3.org/2000/svg">
<path fill-rule="evenodd" clip-rule="evenodd" d="M46.0947 85.0319L28.0476 93.7427L28.113 94.4308L47.5606 104.086L65.6224 94.812L46.0947 85.0319Z" fill="#965E0C"/>
<path fill-rule="evenodd" clip-rule="evenodd" d="M61.9263 93.3843L56.703 90.7872V88.9981L61.9781 91.5117L61.9263 93.3843ZM48.2979 84.9916L53.9461 87.6827L53.8977 89.3917L48.2979 86.6077V84.9916ZM65.333 93.1107L65.3628 92.3874L45.272 82.7845L45.2201 83.5214L45.4353 83.6263L45.5483 83.6804L45.5502 85.242L44.854 84.8952L44.8784 85.6708L45.0204 85.7373L65.1383 95.5496L65.5272 94.9571L64.6298 94.5592L64.7246 92.8201L65.333 93.1107Z" fill="#A56321"/>
<path fill-rule="evenodd" clip-rule="evenodd" d="M28.4342 91.8216V91.1568L45.294 82.7845L49.5769 84.8414L49.4968 85.5233L32.469 93.7427L28.4342 91.8216Z" fill="#AF813E"/>
<path fill-rule="evenodd" clip-rule="evenodd" d="M28.4342 91.1568L45.294 82.7845L49.5769 84.8414L32.474 93.1982L28.4342 91.1568Z" fill="#E0AA5C"/>
<path fill-rule="evenodd" clip-rule="evenodd" d="M33.3811 94.2168L33.4798 93.7145L50.9654 85.6456L55.1213 87.4928V88.0798L37.5115 96.2996L33.3811 94.2168Z" fill="#AF813E"/>
<path fill-rule="evenodd" clip-rule="evenodd" d="M33.4799 93.7145L50.8698 85.4108L55.1214 87.4928L37.5162 95.7574L33.4799 93.7145Z" fill="#E0AA5C"/>
<path fill-rule="evenodd" clip-rule="evenodd" d="M38.5657 96.7768L38.6628 96.2745L56.2633 87.9924L60.3306 89.9824V90.5849L42.6984 98.8596L38.5657 96.7768Z" fill="#AF813E"/>
<path fill-rule="evenodd" clip-rule="evenodd" d="M38.6628 96.2745L56.2633 87.9924L60.3307 89.9824L42.7035 98.3174L38.6628 96.2745Z" fill="#E0AA5C"/>
<path fill-rule="evenodd" clip-rule="evenodd" d="M43.7394 99.3317L43.8373 98.8309L62.6719 91.0376L65.6224 92.3948V93.1548L47.8702 101.416L43.7394 99.3317Z" fill="#C6984F"/>
<path fill-rule="evenodd" clip-rule="evenodd" d="M43.8374 98.831L61.8013 90.6499L65.6225 92.3949L47.8753 100.875L43.8374 98.831Z" fill="#E0AA5C"/>
<path fill-rule="evenodd" clip-rule="evenodd" d="M28.7352 94.2063L31.4186 95.5589V93.5628L28.7333 91.9463L28.7352 94.2063Z" fill="#B77125"/>
<path fill-rule="evenodd" clip-rule="evenodd" d="M36.8768 98.2748L39.6249 99.6734V97.6707L36.9388 96.0558L36.8768 98.2748Z" fill="#B77125"/>
<path fill-rule="evenodd" clip-rule="evenodd" d="M28.4361 94.2063L28.4342 91.9463L31.1184 93.5628V95.5589L28.4361 94.2063Z" fill="#C6984F"/>
<path fill-rule="evenodd" clip-rule="evenodd" d="M36.5769 98.2748L36.6388 96.0558L39.325 97.4908V99.6734L36.5769 98.2748Z" fill="#C6984F"/>
<path fill-rule="evenodd" clip-rule="evenodd" d="M45.0041 99.8124L44.9434 102.035L47.5745 103.297L47.6868 101.146L45.0041 99.8124Z" fill="#B77125"/>
<path fill-rule="evenodd" clip-rule="evenodd" d="M44.6431 102.035L44.7042 99.8124L47.3869 101.146L47.2746 103.297L44.6431 102.035Z" fill="#C6984F"/>
<path fill-rule="evenodd" clip-rule="evenodd" d="M28.0476 93.641L28.0023 94.3759L47.5606 104.086V103.521L28.0476 93.641Z" fill="#F2C77C"/>
<path fill-rule="evenodd" clip-rule="evenodd" d="M28.1637 91.3949L28.113 92.1279L28.3239 92.2316L47.7499 101.661L47.7793 101.103L28.1637 91.3949Z" fill="#F2C77C"/>
<path fill-rule="evenodd" clip-rule="evenodd" d="M28.1637 91.3948L28.4342 91.3038L47.8753 100.875L47.7793 101.103L28.1637 91.3948Z" fill="#C6984F"/>
<path fill-rule="evenodd" clip-rule="evenodd" d="M28.4354 93.4436L47.8753 103.37L47.5606 103.521L28.0476 93.641L28.4354 93.4436Z" fill="#D3A666"/>
<path fill-rule="evenodd" clip-rule="evenodd" d="M47.5605 103.521L65.6224 94.812V95.3554L47.5605 104.086V103.521Z" fill="#C6984F"/>
<path fill-rule="evenodd" clip-rule="evenodd" d="M47.7793 101.103L65.6224 92.5811V93.155L47.7499 101.661L47.7793 101.103Z" fill="#B77125"/>
<path fill-rule="evenodd" clip-rule="evenodd" d="M47.6809 99.6472L32.0052 91.9262V73.441L47.6809 81.33V99.6472Z" fill="#B79E8A"/>
<path fill-rule="evenodd" clip-rule="evenodd" d="M47.6809 99.2602L32.0052 91.5392V73.441L47.6809 81.33V99.2602Z" fill="#DBC2A1"/>
<path fill-rule="evenodd" clip-rule="evenodd" d="M47.6809 82.3097L32.0052 74.2143V73.441L47.6809 81.33V82.3097Z" fill="#B79E8A"/>
<path fill-rule="evenodd" clip-rule="evenodd" d="M32.0052 73.4411L44.5593 67L60.387 74.8724L47.6809 81.33L32.0052 73.4411Z" fill="#E5CEB1"/>
<path fill-rule="evenodd" clip-rule="evenodd" d="M47.6809 99.6472L60.387 93.1898V74.8724L47.6809 81.33V99.6472Z" fill="#A68F7C"/>
<path fill-rule="evenodd" clip-rule="evenodd" d="M47.6809 99.2602L60.387 92.775V75.9459L47.6809 82.3097V99.2602Z" fill="#B79E8A"/>
<path fill-rule="evenodd" clip-rule="evenodd" d="M53.015 71.2058L40.9409 77.9419L38.4807 76.7049L50.627 70.0161L53.015 71.2058Z" fill="#CCAB7F"/>
<path fill-rule="evenodd" clip-rule="evenodd" d="M40.9409 88.6263L38.4807 87.3724V77.5641L40.9409 78.8179V88.6263Z" fill="#9E754B"/>
<path fill-rule="evenodd" clip-rule="evenodd" d="M40.9409 78.8179V77.9419L38.4807 76.705V77.564L40.9409 78.8179Z" fill="#926A45"/>
<path fill-rule="evenodd" clip-rule="evenodd" d="M49.1322 89.3458L53.7001 87.0106V80.927L49.1322 83.2147V89.3458Z" fill="#EAE4DC"/>
<path fill-rule="evenodd" clip-rule="evenodd" d="M49.6309 84.3322L52.9828 82.6923L52.9731 82.3584L49.6309 83.9976V84.3322Z" fill="#B5ABA0"/>
<path fill-rule="evenodd" clip-rule="evenodd" d="M49.6309 85.4068L52.9828 83.7668L52.9731 83.4319L49.6309 85.0733V85.4068Z" fill="#B5ABA0"/>
<path fill-rule="evenodd" clip-rule="evenodd" d="M49.6309 88.268L52.9828 86.628L52.9731 86.2946L49.6309 87.9345V88.268Z" fill="#B5ABA0"/>
<path d="M100.403 147.366C98.6821 148.351 96.5633 148.34 94.8527 147.337L38.0189 114L38.0024 114.058V117.13C38.0024 117.904 38.4176 118.619 39.0907 119.005L94.0019 150.437C96.2422 151.72 98.9967 151.72 101.237 150.437L134.278 131.542L134.328 127.285L100.403 147.366Z" fill="url(#paint0_linear_771:13454)"/>
<path d="M100.298 147.702L133.787 128.532C134.484 128.133 134.484 127.131 133.787 126.732L75.9326 93.6137C75.168 93.176 74.2278 93.176 73.4631 93.6137L38.5303 113.61C37.8335 114.009 37.8335 115.012 38.5303 115.41L94.9415 147.702C96.6002 148.652 98.6393 148.652 100.298 147.702Z" fill="#DEDFDE"/>
<path d="M119.884 123.506C120.398 123.802 121.234 123.8 121.751 123.502C122.269 123.205 122.271 122.723 121.757 122.427C121.243 122.131 120.407 122.133 119.89 122.431C119.373 122.728 119.37 123.21 119.884 123.506Z" fill="#CCDBEA"/>
<path d="M122.487 125.004C123.001 125.3 123.837 125.299 124.354 125.001C124.871 124.703 124.874 124.222 124.36 123.926C123.846 123.63 123.01 123.631 122.493 123.929C121.976 124.227 121.973 124.708 122.487 125.004Z" fill="#CCDBEA"/>
<path d="M125.09 126.503C125.604 126.799 126.44 126.798 126.957 126.5C127.474 126.202 127.477 125.72 126.963 125.424C126.449 125.129 125.613 125.13 125.095 125.428C124.578 125.726 124.576 126.207 125.09 126.503Z" fill="#CCDBEA"/>
<path d="M63.6585 126.006L74.5531 132.28C75.773 132.982 77.9037 132.894 79.3122 132.083L83.3058 129.783C84.7143 128.972 84.8674 127.745 83.6475 127.043L72.7528 120.769C71.5331 120.067 69.4025 120.155 67.9939 120.966L64.0003 123.266C62.5917 124.077 62.4388 125.304 63.6585 126.006Z" fill="#D2D6D6"/>
<path d="M148.647 83.3402C148.217 81.8124 146.93 80.4488 145.477 79.6565L92.1455 51.4405C91.2235 50.9537 90.1415 50.8663 89.153 51.1987L86.9071 51.9542L105.485 60.7637L105.483 60.6944L144.484 81.8743C145.583 82.4713 146.304 83.5169 146.53 84.6816C146.646 85.2799 146.64 85.9077 146.471 86.5263L135.125 127.936C136.511 127.303 137.545 126.088 137.946 124.621L148.675 85.3554C148.861 84.6745 148.831 83.9926 148.647 83.3402Z" fill="#8C969D"/>
<path d="M72.9755 102.106L69.2217 99.9443L72.9562 97.7954L76.71 99.9595L72.9755 102.106Z" fill="#596E81"/>
<path d="M77.4442 104.675L73.6884 102.515L77.4191 100.37L81.1786 102.534L77.4442 104.675Z" fill="#596E81"/>
<path d="M81.9109 107.252L78.1571 105.084L81.8917 102.939L85.6472 105.107L81.9109 107.252Z" fill="#596E81"/>
<path d="M86.3834 109.825L82.6259 107.667L86.3566 105.508L90.1141 107.674L86.3834 109.825Z" fill="#596E81"/>
<path d="M90.8464 112.397L87.0906 110.236L90.8213 108.086L94.5808 110.24L90.8464 112.397Z" fill="#596E81"/>
<path d="M95.3151 114.969L91.5554 112.805L95.2861 110.658L99.0495 112.821L95.3151 114.969Z" fill="#596E81"/>
<path d="M99.778 117.54L96.0242 115.38L99.7587 113.225L103.51 115.393L99.778 117.54Z" fill="#596E81"/>
<path d="M104.247 120.111L100.491 117.951L104.221 115.802L107.983 117.966L104.247 120.111Z" fill="#596E81"/>
<path d="M108.713 122.688L104.96 120.518L108.688 118.371L112.45 120.541L108.713 122.688Z" fill="#596E81"/>
<path d="M113.18 125.259L109.424 123.099L113.157 120.946L116.911 123.11L113.18 125.259Z" fill="#596E81"/>
<path d="M117.649 127.835L113.889 125.67L117.626 123.514L121.379 125.678L117.649 127.835Z" fill="#596E81"/>
<path d="M122.118 130.405L118.358 128.239L122.089 126.09L125.848 128.248L122.118 130.405Z" fill="#596E81"/>
<path d="M68.2216 104.847L64.4639 102.681L68.1965 100.538L71.9561 102.692L68.2216 104.847Z" fill="#596E81"/>
<path d="M72.6884 107.421L68.9269 105.259L72.6652 103.108L76.419 105.274L72.6884 107.421Z" fill="#596E81"/>
<path d="M77.157 109.991L73.3994 107.832L77.1281 105.683L80.8857 107.842L77.157 109.991Z" fill="#596E81"/>
<path d="M81.6237 112.564L77.8643 110.399L81.595 108.25L85.3544 110.413L81.6237 112.564Z" fill="#596E81"/>
<path d="M86.0867 115.138L82.3329 112.97L86.0636 110.822L89.8212 112.99L86.0867 115.138Z" fill="#596E81"/>
<path d="M90.5514 117.71L86.7997 115.549L90.5303 113.396L94.2879 115.563L90.5514 117.71Z" fill="#596E81"/>
<path d="M95.022 120.283L91.2664 118.121L94.9989 115.972L98.7527 118.128L95.022 120.283Z" fill="#596E81"/>
<path d="M99.4849 122.853L95.7292 120.694L99.4658 118.54L103.216 120.706L99.4849 122.853Z" fill="#596E81"/>
<path d="M103.954 125.422L100.198 123.264L103.934 121.113L107.688 123.275L103.954 125.422Z" fill="#596E81"/>
<path d="M108.424 127.998L104.665 125.834L108.399 123.687L112.151 125.849L108.424 127.998Z" fill="#596E81"/>
<path d="M112.889 130.572L109.132 128.404L112.866 126.255L116.62 128.421L112.889 130.572Z" fill="#596E81"/>
<path d="M117.354 133.146L113.598 130.982L117.331 128.829L121.09 130.993L117.354 133.146Z" fill="#596E81"/>
<path d="M63.2924 107.686L59.5367 105.525L63.2693 103.375L67.023 105.535L63.2924 107.686Z" fill="#596E81"/>
<path d="M67.7572 110.26L64.0052 108.093L67.736 105.944L71.4917 108.109L67.7572 110.26Z" fill="#596E81"/>
<path d="M72.2279 112.831L68.4663 110.669L72.2028 108.518L75.9584 110.686L72.2279 112.831Z" fill="#596E81"/>
<path d="M76.6906 115.407L72.9369 113.242L76.6695 111.092L80.4272 113.25L76.6906 115.407Z" fill="#596E81"/>
<path d="M81.1573 117.972L77.4055 115.812L81.1323 113.665L84.8939 115.824L81.1573 117.972Z" fill="#596E81"/>
<path d="M85.6221 120.548L81.8684 118.388L85.6029 116.235L89.3624 118.399L85.6221 120.548Z" fill="#596E81"/>
<path d="M90.0948 123.122L86.3411 120.956L90.0717 118.809L93.8273 120.975L90.0948 123.122Z" fill="#596E81"/>
<path d="M94.5597 125.691L90.804 123.533L94.5346 121.38L98.2942 123.546L94.5597 125.691Z" fill="#596E81"/>
<path d="M99.0264 128.267L95.2726 126.103L99.0071 123.946L102.761 126.116L99.0264 128.267Z" fill="#596E81"/>
<path d="M103.493 130.837L99.7393 128.674L103.47 126.524L107.229 128.682L103.493 130.837Z" fill="#596E81"/>
<path d="M107.962 133.411L104.202 131.246L107.937 129.1L111.692 131.258L107.962 133.411Z" fill="#596E81"/>
<path d="M112.429 135.98L108.671 133.82L112.407 131.669L116.159 133.831L112.429 135.98Z" fill="#596E81"/>
<path d="M84.7737 54.2006L75.391 93.3166L135.359 127.702L146.737 86.1752C147.218 84.4217 146.425 82.569 144.823 81.7021L89.8989 51.9786C87.8724 50.882 85.3522 51.9746 84.7737 54.2006Z" fill="#39444F"/>
<path d="M65.884 133.714L63.9475 132.598C63.6762 132.442 63.4542 132.019 63.4542 131.658C63.4542 131.297 63.6762 131.13 63.9475 131.286L65.884 132.402C66.1553 132.558 66.3772 132.981 66.3772 133.342C66.3772 133.702 66.1553 133.87 65.884 133.714Z" fill="#B8B8B8"/>
<path d="M86.0329 57.854L77.2655 94.4261L133.081 126.431L143.746 87.5666C144.203 85.8992 143.449 84.1376 141.926 83.3133L90.9065 55.7411C88.9795 54.6985 86.583 55.7374 86.0329 57.854Z" fill="#FEFDFF"/>
<path d="M110.171 82.9763L113.936 68.1742L91.0877 55.8478C90.5891 55.5211 89.2619 55.0122 87.9416 55.5899C86.6213 56.1675 86.1193 57.3778 86.0333 57.9108L82.3199 73.3318L99.6492 84.5236L110.171 82.9763Z" fill="#F6F1DC"/>
<path d="M107.798 78.7988L110.686 66.4208L101.145 61.2117L98.1019 76.839L102.176 79.4693L107.798 78.7988Z" fill="#CEE2BB"/>
<path d="M97.6894 91.6411L119.196 104.535L116.566 116.913L87.8901 100.512L89.6952 94.6841L97.6894 91.6411Z" fill="#F6F1DC"/>
<path d="M80.2569 82.0997L87.3228 86.5352L77.9361 91.6927L80.2569 82.0997Z" fill="#F6F1DC"/>
<path d="M120.95 97.8298L113.884 93.6523L122.858 90.6609L120.95 97.8298Z" fill="#F6F1DC"/>
<path d="M123.064 120.678L133.07 126.403L136.629 113.509L125.901 107.99L123.064 120.678Z" fill="#F6F1DC"/>
<path d="M128.325 101.337L138.331 107.062L141.889 94.1682L143.849 87.2056C143.918 86.793 143.942 85.7718 143.488 84.9878C143.034 84.2039 142.921 83.9047 142.25 83.4921L139.517 81.9965L132.296 85.2973L131.162 88.6497L128.325 101.337Z" fill="#F6F1DC"/>
<path d="M122.136 82.9249L117.288 80.243L119.609 71.2689L132.245 78.0769L122.136 82.9249Z" fill="#F6F1DC"/>
<path d="M113.936 68.1742L119.609 71.2687L108.984 112.632L103.414 109.434L113.936 68.1742Z" fill="#FFC870"/>
<path d="M114.424 75.962L115.689 76.6513L106.719 111.333L105.477 110.621L114.424 75.962Z" fill="#FE4B8C"/>
<ellipse rx="1.34096" ry="1.49568" transform="matrix(-1 0 0 1 115.07 75.9106)" fill="#D0021B"/>
<mask id="path-93-inside-1_771:13454" fill="white">
<path fill-rule="evenodd" clip-rule="evenodd" d="M36.3175 51C35.0376 51 34 52.0376 34 53.3175V64.6825C34 65.9624 35.0376 67 36.3175 67H41L44 70L47 67H52.6825C53.9624 67 55 65.9624 55 64.6825V53.3175C55 52.0376 53.9624 51 52.6825 51H36.3175Z"/>
</mask>
<path fill-rule="evenodd" clip-rule="evenodd" d="M36.3175 51C35.0376 51 34 52.0376 34 53.3175V64.6825C34 65.9624 35.0376 67 36.3175 67H41L44 70L47 67H52.6825C53.9624 67 55 65.9624 55 64.6825V53.3175C55 52.0376 53.9624 51 52.6825 51H36.3175Z" fill="white"/>
<path d="M41 67L41.8193 66.1807L41.48 65.8413H41V67ZM44 70L43.1807 70.8193L44 71.6387L44.8193 70.8193L44 70ZM47 67V65.8413H46.52L46.1807 66.1807L47 67ZM35.1587 53.3175C35.1587 52.6775 35.6775 52.1587 36.3175 52.1587V49.8413C34.3976 49.8413 32.8413 51.3976 32.8413 53.3175H35.1587ZM35.1587 64.6825V53.3175H32.8413V64.6825H35.1587ZM36.3175 65.8413C35.6775 65.8413 35.1587 65.3225 35.1587 64.6825H32.8413C32.8413 66.6024 34.3976 68.1587 36.3175 68.1587V65.8413ZM41 65.8413H36.3175V68.1587H41V65.8413ZM44.8193 69.1807L41.8193 66.1807L40.1807 67.8193L43.1807 70.8193L44.8193 69.1807ZM46.1807 66.1807L43.1807 69.1807L44.8193 70.8193L47.8193 67.8193L46.1807 66.1807ZM52.6825 65.8413H47V68.1587H52.6825V65.8413ZM53.8413 64.6825C53.8413 65.3225 53.3225 65.8413 52.6825 65.8413V68.1587C54.6024 68.1587 56.1587 66.6024 56.1587 64.6825H53.8413ZM53.8413 53.3175V64.6825H56.1587V53.3175H53.8413ZM52.6825 52.1587C53.3225 52.1587 53.8413 52.6775 53.8413 53.3175H56.1587C56.1587 51.3976 54.6024 49.8413 52.6825 49.8413V52.1587ZM36.3175 52.1587H52.6825V49.8413H36.3175V52.1587Z" fill="#64B82A" mask="url(#path-93-inside-1_771:13454)"/>
<path fill-rule="evenodd" clip-rule="evenodd" d="M39.7937 59.7432L41.0297 58.5634L43.5016 60.923L47.8276 56.7937L49.0635 57.9735L43.5016 63.2826L39.7937 59.7432Z" fill="#64B82A"/>
<defs>
<linearGradient id="paint0_linear_771:13454" x1="38.0024" y1="132.7" x2="134.328" y2="132.7" gradientUnits="userSpaceOnUse">
<stop offset="0.4092" stop-color="#CCCCCC"/>
<stop offset="0.583333" stop-color="#B8B8B8"/>
<stop offset="0.651042" stop-color="#8C969D"/>
</linearGradient>
</defs>
</svg>
