<svg xmlns="http://www.w3.org/2000/svg" xmlns:xlink="http://www.w3.org/1999/xlink" width="160" height="160" fill="none"><g fill-rule="evenodd"><path opacity=".2" d="M56.73 147.274c-3.152 0-4.722-2.653-4.906-3.83.168.653 1.198 1.14 2.554 1.14l90.478.001c1.596 0 2.75-.674 2.576-1.5v-2.313a.75.75 0 0 0 0-.323l-5.137-24.66.192.08c1.045.587 1.842 1.667 2.12 3.144l5.867 26.74c.184.84-.97 1.525-2.577 1.525l-91.166-.002z" fill="#2d2d2d"/><path d="M144.856 144.586l-90.478-.001c-1.596 0-2.74-.674-2.56-1.5v-2.637l5.804-23.75c.14-.637 1.38-1.152 2.77-1.152l78.787.001c1.39 0 2.623.515 2.756 1.153l5.497 23.75v2.636c.173.827-.98 1.5-2.576 1.5z" fill="#a5a6a4"/><path d="M144.856 141.95H54.378c-1.596 0-2.74-.674-2.56-1.5l5.804-26.387c.14-.638 1.38-1.152 2.77-1.152l78.787.001c1.39 0 2.623.515 2.756 1.153l5.497 26.386c.173.827-.98 1.5-2.576 1.5z" fill="#dedfde"/><path d="M108.88 141.95H90.354c.028-.587.956-1.06 2.075-1.06l14.388.001c1.12 0 2.042.473 2.063 1.06z" fill="#a5a6a4"/><path d="M111.195 139H88.073c-.882 0-1.574-.368-1.544-.822l.467-7.176c.028-.423.737-.764 1.584-.764h22.208c.847 0 1.553.342 1.576.764l.383 7.176c.025.454-.67.823-1.553.823z" fill="#d2d6d6"/><path d="M111.195 139v-.13H88.073c-.414 0-.783-.086-1.037-.218-.127-.065-.225-.14-.287-.218a.36.36 0 0 1-.09-.228l.468-7.196c.005-.07.037-.142.106-.218.102-.113.287-.223.522-.3s.52-.124.826-.124h22.208c.406 0 .778.084 1.04.21.13.064.234.138.302.213s.1.148.103.217l.385 7.193c-.001.075-.028.15-.092.23-.094.116-.27.23-.502.3s-.518.13-.83.13v.26c.45 0 .858-.092 1.162-.248.152-.078.28-.174.372-.287s.15-.25.15-.394v-.03l-.384-7.176c-.007-.142-.073-.27-.17-.378-.147-.162-.366-.285-.63-.372s-.575-.138-.906-.138H88.58c-.44 0-.847.088-1.157.237-.154.074-.286.164-.384.272s-.165.235-.174.377l-.47 7.213c-.001.145.057.28.15.392.14.17.353.3.615.39s.574.142.91.142h23.122V139z" fill="#ccc"/><g fill="#313838"><use xlink:href="#C"/><use xlink:href="#D"/><use xlink:href="#E"/><use xlink:href="#F"/><use xlink:href="#G"/><use xlink:href="#H"/><use xlink:href="#I"/><use xlink:href="#J"/><use xlink:href="#K"/><use xlink:href="#L"/><use xlink:href="#M"/><use xlink:href="#N"/><path d="M68.87 121.672H62.1c-.526 0-.914-.203-.865-.453l.27-1.386c.048-.246.508-.445 1.03-.445h6.683c.52 0 .912.2.875.445l-.2 1.386c-.038.25-.496.453-1.022.453zm6.226 0H72.15c-.526 0-.924-.203-.887-.453l.202-1.386c.036-.246.487-.445 1.007-.445h2.913c.52 0 .918.2.888.445l-.17 1.386c-.03.25-.482.453-1.008.453zm6.226 0h-2.946c-.526 0-.93-.203-.9-.453l.16-1.386c.028-.245.473-.445.994-.445h2.913c.52 0 .924.2.902.445l-.126 1.386c-.023.25-.468.453-.994.453zm6.228 0h-2.946c-.526 0-.936-.203-.915-.453l.117-1.386c.02-.246.46-.444.98-.444H87.7c.52 0 .93.198.916.444l-.084 1.387c-.016.25-.454.452-.98.452zm6.225 0H90.83c-.527 0-.942-.203-.93-.452l.075-1.387c.014-.246.446-.444.966-.444h2.913c.52 0 .937.198.93.444l-.042 1.387c-.008.25-.44.452-.967.452zm6.225 0h-2.946c-.526 0-.948-.203-.942-.452l.032-1.387c.006-.246.433-.444.953-.444H100c.52 0 .942.198.942.444l.001 1.387c0 .25-.427.452-.953.452zm6.227 0h-2.946c-.526 0-.955-.203-.956-.452l-.01-1.387c-.002-.246.42-.444.94-.444h2.914c.52 0 .948.198.956.444l.043 1.387c.007.25-.413.452-.94.452zm6.226 0h-2.946c-.527 0-.96-.203-.97-.452l-.05-1.387c-.01-.246.405-.444.925-.444h2.913c.52 0 .955.198.97.444l.084 1.387c.016.25-.398.452-.925.452zm6.227.001l-2.946-.001c-.526 0-.966-.203-.983-.452l-.094-1.387c-.017-.246.4-.444.912-.444h2.913c.52 0 .96.198.983.444l.127 1.387c.023.25-.386.453-.912.453zm6.225 0h-2.945c-.527 0-.974-.204-.998-.453l-.136-1.387c-.024-.246.378-.444.898-.444h2.913c.52 0 .968.198.997.444l.17 1.387c.03.25-.37.453-.898.453zm6.227 0h-2.946c-.526 0-.98-.203-1-.453l-.18-1.387c-.032-.246.365-.444.885-.444h2.913c.52 0 .973.2 1 .444l.212 1.387c.038.25-.358.453-.884.453zm6.226 0h-2.946c-.526 0-.985-.203-1.025-.453l-.22-1.387c-.04-.245.35-.444.872-.444h2.913c.52 0 .98.2 1.024.444l.253 1.387c.046.25-.343.453-.87.453zm-65.963 2.957H61.55c-.534 0-.926-.2-.876-.465l.277-1.428c.05-.252.517-.457 1.045-.456h9.733c.528 0 .928.204.893.457l-.196 1.427c-.035.256-.497.466-1.03.466zm6.315 0h-3c-.534 0-.94-.2-.906-.466l.187-1.427c.033-.253.488-.457 1.016-.457h2.955c.528 0 .934.204.907.457l-.153 1.427c-.027.256-.483.466-1.017.466zm6.317 0h-3c-.534 0-.946-.2-.92-.466l.143-1.427c.025-.253.474-.457 1.002-.457h2.955c.528 0 .94.204.92.457l-.1 1.427c-.02.256-.47.466-1.002.466zm6.317 0h-3c-.534 0-.952-.2-.934-.466l.1-1.427c.018-.253.46-.457.988-.457h2.954c.528 0 .947.204.935.457l-.067 1.427c-.012.257-.454.466-.988.466zm6.316 0h-3c-.534 0-.96-.2-.95-.466l.056-1.427c.01-.253.446-.457.974-.457h2.955c.528 0 .952.204.95.457l-.023 1.427c-.004.257-.44.466-.975.466zm6.316 0h-2.988c-.534 0-.965-.2-.963-.466l.013-1.427c.003-.253.433-.457.96-.457h2.954c.53 0 .96.205.963.457l.02 1.427c.004.257-.426.466-.96.466zm6.316 0h-3c-.533 0-.97-.2-.976-.466l-.03-1.427c-.006-.252.417-.457.946-.457h2.955c.528 0 .964.205.976.457l.064 1.427c.01.257-.412.466-.946.466zm6.318-.002h-3c-.534 0-.978-.208-1-.465l-.074-1.427c-.013-.252.404-.457.933-.457h2.954c.528 0 .97.205 1 .458l.107 1.426c.02.257-.398.465-.93.465zm6.315.002h-3c-.534 0-.984-.2-1.005-.466l-.117-1.426c-.02-.253.4-.458.918-.458h2.955c.528 0 .977.205 1.004.458l.15 1.426c.027.257-.383.466-.917.466zm6.315 0h-2.988c-.535 0-1-.2-1.02-.466l-.16-1.426c-.028-.253.377-.458.905-.458h2.955c.527 0 .983.205 1.018.458l.194 1.426c.036.257-.37.466-.903.466zm9.633 0h-6.304c-.534 0-.997-.2-1.034-.466l-.204-1.426c-.036-.253.363-.458.9-.458h6.232c.528 0 .994.205 1.04.458l.26 1.426c.047.257-.348.466-.88.466zm-73.868 3.04h-3.032c-.542 0-.94-.215-.888-.48l.286-1.47c.05-.26.526-.47 1.06-.47h2.997c.536 0 .934.2.9.47l-.25 1.47c-.045.264-.52.48-1.063.48zm6.41 0H67.38c-.542 0-.946-.215-.902-.48l.24-1.47c.043-.26.5-.47 1.047-.47h2.998c.536 0 .94.2.904.47l-.206 1.47c-.037.264-.507.48-1.048.48zm6.41 0H73.8c-.542 0-.952-.215-.917-.48l.196-1.47c.035-.26.497-.47 1.033-.47H77.1c.536 0 .947.2.918.47l-.16 1.47c-.03.264-.492.48-1.034.48zm29.864.002H79.883c-.367 0-.65-.147-.63-.325l.183-1.775c.018-.177.327-.32.7-.32h26.496c.363 0 .662.142.667.32l.054 1.775c.006.18-.288.325-.654.325zm6.093 0h-3.033c-.54 0-1-.215-1-.48l-.054-1.47c-.01-.26.416-.47.952-.47h2.997c.536 0 .983.2 1 .47l.1 1.47c.017.264-.4.48-.95.48zm6.408 0h-3.033c-.54 0-.995-.215-1.014-.48l-.1-1.47c-.017-.26.403-.47.938-.47h2.998c.535 0 1 .2 1.013.47l.134 1.47c.024.264-.396.48-.937.48zm7.097 0h-4.4c-.162 0-.3-.064-.307-.144l-.1-.93c-.008-.078.116-.142.277-.142h4.383c.16 0 .3.064.3.142l.113.93c.01.08-.113.144-.275.144zm5.72.001l-3.033-.001c-.542 0-1-.215-1.043-.48l-.188-1.47c-.034-.26.373-.47.9-.47h2.997c.536 0 1.002.2 1.042.47l.223 1.47c.04.264-.366.48-.907.48zm7.097 0h-4.4c-.162 0-.303-.065-.316-.144l-.148-.93c-.012-.078.108-.142.268-.142h4.384c.16 0 .303.064.318.142l.17.93c.015.08-.104.144-.266.144z"/></g><path d="M139.614 62.44H60.2a2.28 2.28 0 0 0-2.281 2.281v46.07a2.28 2.28 0 0 0 2.281 2.281h79.413a2.28 2.28 0 0 0 2.281-2.281v-46.07a2.28 2.28 0 0 0-2.281-2.281z" fill="#242424"/><path d="M136.224 66.475H63.59a1.31 1.31 0 0 0-1.311 1.311v39.943a1.31 1.31 0 0 0 1.311 1.312h72.633a1.31 1.31 0 0 0 1.311-1.312V67.786a1.31 1.31 0 0 0-1.311-1.311z" fill="#353b3b"/><path d="M128.448 113.642H71.113l.13-.733 57.08.001.122.732z" fill="#313838"/><path opacity=".2" d="M141.2 119.356l-82.24-.001c-1.348 0-2.202-.086-2.457-.24l1.11-5.054c.11-.502.902-.928 1.912-1.086.21.064.434.1.666.1h11.014l-.2 1.117h57.523l-.1-.55-.094-.568h11.26a2.28 2.28 0 0 0 .571-.072c.935.175 1.65.584 1.75 1.06l1.01 4.856c-.323.22-.91.402-1.554.432l-.182.005zm-11.35-2.777c-.513 0-.902.193-.87.432l.2 1.35c.034.242.482.44 1.002.44h6.663c.52 0 .904-.197.86-.44l-.247-1.35c-.043-.24-.494-.432-1.008-.432h-6.6zm-6.07 0c-.513 0-.908.193-.882.432l.148 1.35c.027.242.47.44.99.44h2.904c.52 0 .914-.197.88-.44l-.18-1.35c-.032-.24-.474-.432-.988-.432h-2.872zm-6.07 0c-.513 0-.914.193-.895.432l.107 1.35c.02.242.456.44.975.44h2.905c.518 0 .92-.197.894-.44l-.14-1.35c-.024-.24-.46-.432-.974-.432h-2.872zm-6.07 0c-.513 0-.92.193-.908.432l.066 1.348c.012.243.443.44.96.44h2.905c.518 0 .925-.197.907-.44l-.098-1.35c-.017-.24-.448-.432-.96-.432h-2.872zm-6.07 0c-.513 0-.926.193-.922.432l.026 1.348c.004.243.43.44.948.44h2.904c.52 0 .93-.197.92-.44l-.057-1.348c-.01-.24-.435-.432-.948-.432h-2.872zm-6.07 0c-.513 0-.932.193-.934.432l-.016 1.348c-.003.243.416.44.935.44h2.904c.52 0 .938-.197.935-.44l-.016-1.348c-.003-.24-.422-.432-.935-.432h-2.872zm-6.07 0c-.513 0-.937.193-.948.432l-.056 1.348c-.01.243.402.44.92.44h2.905c.52 0 .943-.197.947-.44l.026-1.348c.004-.24-.41-.432-.922-.432h-2.872zm-6.07 0c-.513 0-.944.193-.96.432l-.098 1.348c-.018.242.39.44.908.44h2.905c.52 0 .95-.198.96-.44l.066-1.348c.012-.24-.395-.432-.908-.432h-2.872zm-6.07 0c-.513 0-.95.193-.974.432l-.14 1.348c-.025.242.375.44.894.44h2.904c.52 0 .956-.198.975-.44l.107-1.348c.02-.24-.382-.432-.895-.432H81.29zm-6.07-.001c-.513 0-.955.194-.987.433l-.18 1.348c-.032.242.362.44.88.44h2.904c.52 0 .962-.198.988-.44l.148-1.348c.026-.24-.37-.432-.882-.432l-2.873-.001zm-6.07 0c-.513 0-.96.194-1 .433l-.22 1.348c-.04.242.35.44.868.44H71.7c.52 0 .967-.198 1-.44l.19-1.348c.033-.24-.355-.433-.87-.433H69.15zm-6.07 0c-.513 0-.967.194-1.013.433l-.262 1.347c-.047.243.335.44.854.44h2.905c.52 0 .973-.198 1.015-.44l.23-1.348c.04-.24-.342-.433-.855-.433h-2.873z" fill="#2d2d2d"/><g fill="#2b3131"><use xlink:href="#C"/><use xlink:href="#D"/><use xlink:href="#E"/><use xlink:href="#F"/><use xlink:href="#G"/><use xlink:href="#H"/><use xlink:href="#I"/><use xlink:href="#J"/><use xlink:href="#K"/><use xlink:href="#L"/><use xlink:href="#M"/><use xlink:href="#N"/></g><path d="M139.614 113.418h-11.26l-.028-.507h10.845a2.46 2.46 0 0 1 1.064.243l-.05.04c-.182.146-.373.223-.57.223zm-68.4 0H60.2c-.232 0-.455-.107-.666-.306-.042-.04-.083-.08-.124-.13.215-.045.422-.074.6-.074h11.234l-.03.51z" fill="#1f1f1f"/><path d="M128.448 113.642l-.002-.006-57.332-.001.13-.726 57.08.001.028.164.094.568z" fill="#2b3131"/><path d="M128.538 114.19H71.015l.098-.55 57.335.001.1.55z" fill="#a2a8a8"/><path d="M128.448 113.653l-57.335-.001.001-.008 57.334.01z" fill="#2b3131"/></g><mask id="A" mask-type="alpha" maskUnits="userSpaceOnUse" x="64" y="61" width="78" height="60"><path d="M139.854 61.3H66.78a1.85 1.85 0 0 0-1.85 1.844l-.198 55.74c-.004 1.02.82 1.844 1.837 1.844h73.076a1.85 1.85 0 0 0 1.85-1.844l.198-55.74c.004-1.018-.82-1.844-1.837-1.844z" fill="#fff"/></mask><g mask="url(#A)" fill-rule="evenodd"><path opacity=".606" d="M80.78 112.36c-.816 0-1.477-.66-1.477-1.477V62.447h48.32v48.435c0 .816-.66 1.477-1.477 1.477H80.78zm19.127-48.605c-.37 0-.67.278-.67.62s.3.62.67.62.67-.278.67-.62-.3-.62-.67-.62z" fill="#2d2d2d"/><path d="M99.908 64.995c-.37 0-.67-.278-.67-.62s.3-.62.67-.62.67.278.67.62-.3.62-.67.62z" fill="#2b2b2b"/></g><g fill-rule="evenodd"><path d="M124.573 49.912c1.504 0 2.724 1.22 2.724 2.725v9.81h-5.45v-9.81c0-1.505 1.22-2.725 2.725-2.725z" fill="#d8d8d8"/><path d="M74.622 50.89v54.97c0 .7.566 1.265 1.263 1.265l46.508.006c.702 0 1.272-.568 1.275-1.27V50.89c0-.42.235-.745.705-.98H75.606a.98.98 0 0 0-.984.979z" fill="#fff"/></g><path d="M116.398 54.453H81.884c-1.003 0-1.817.813-1.817 1.816v9.083c0 1.003.813 1.816 1.817 1.816h34.514a1.82 1.82 0 0 0 1.817-1.816V56.27a1.82 1.82 0 0 0-1.817-1.816z" fill="#478cc8"/><g fill="#b5aba0"><path d="M118.215 70.802H80.068v1.816h38.147v-1.816zm0 5.448h-17.257v1.816h17.257V76.25zm-3.633 4.542h-13.624v1.817h13.624v-1.817zm3.633 4.542h-17.257v1.817h17.257v-1.817zm-3.633 4.54h-13.624v1.817h13.624v-1.817zm-17.257 4.54H80.068v1.817h17.257v-1.817zm-3.633 3.634H80.068v1.817h13.624V98.05z"/><path opacity=".3" d="M118.215 94.416h-17.257v1.816h17.257v-1.816zm-3.633 3.634h-13.624v1.816h13.624V98.05z"/></g><path opacity=".6" d="M113.673 103.045c2.76 0 4.996-2.237 4.996-4.996s-2.237-4.995-4.996-4.995-4.995 2.236-4.995 4.995 2.237 4.996 4.995 4.996z" stroke="#478cc8"/><path opacity=".6" d="M113.673 101.682c2.007 0 3.633-1.626 3.633-3.633s-1.626-3.633-3.633-3.633-3.633 1.626-3.633 3.633 1.627 3.633 3.633 3.633z" fill="#478cc8"/><path d="M95.508 76.25H81.884c-1.003 0-1.817.813-1.817 1.816v10.9c0 1.003.813 1.817 1.817 1.817h13.624c1.003 0 1.816-.813 1.816-1.817v-10.9c0-1.003-.813-1.816-1.816-1.816z" fill="#eeab44"/><defs ><path id="C" d="M65.56 118.8h-2.905c-.52 0-.9-.198-.854-.44l.262-1.347c.046-.24.5-.433 1.013-.433h2.873c.513 0 .896.194.856.433l-.23 1.348c-.04.242-.496.44-1.015.44z"/><path id="D" d="M71.7 118.8h-2.905c-.52 0-.907-.198-.868-.44l.22-1.348c.04-.24.487-.433 1-.433h2.873c.513 0 .902.194.87.433l-.19 1.348c-.034.242-.482.44-1 .44z"/><path id="E" d="M77.84 118.8h-2.904c-.52 0-.913-.198-.88-.44l.18-1.348c.032-.24.474-.433.987-.433l2.873.001c.513 0 .908.193.882.432l-.148 1.348c-.027.242-.47.44-.988.44z"/><path id="F" d="M83.977 118.8h-2.904c-.52 0-.92-.198-.894-.44l.14-1.348c.025-.24.46-.432.974-.432h2.872c.513 0 .914.193.895.432l-.107 1.348c-.02.242-.456.44-.975.44z"/><path id="G" d="M90.116 118.8H87.21c-.52 0-.925-.198-.908-.44l.098-1.348c.017-.24.448-.432.96-.432h2.872c.513 0 .92.193.908.432l-.066 1.348c-.012.242-.442.44-.96.44z"/><path id="H" d="M96.255 118.8H93.35c-.52 0-.932-.197-.92-.44l.056-1.348c.01-.24.435-.432.948-.432h2.872c.513 0 .926.193.922.432l-.026 1.348c-.004.243-.428.44-.947.44z"/><path id="I" d="M102.393 118.8H99.49c-.52 0-.937-.197-.934-.44l.016-1.348c.003-.24.42-.432.935-.432h2.872c.513 0 .932.193.935.432l.016 1.348c.003.243-.416.44-.935.44z"/><path id="J" d="M108.532 118.8h-2.905c-.518 0-.943-.197-.947-.44l-.026-1.348c-.004-.24.41-.432.922-.432h2.872c.513 0 .938.194.948.432l.057 1.348c.01.243-.402.44-.92.44z"/><path id="K" d="M114.67 118.8h-2.905c-.518 0-.95-.197-.96-.44l-.066-1.348c-.012-.238.395-.432.908-.432h2.872c.513 0 .944.194.96.432l.098 1.35c.018.242-.39.44-.907.44z"/><path id="L" d="M120.8 118.8h-2.905c-.52 0-.955-.197-.975-.44l-.107-1.35c-.02-.238.382-.432.895-.432h2.872c.514 0 .95.194.975.432l.14 1.35c.025.242-.376.44-.894.44z"/><path id="M" d="M126.948 118.8h-2.904c-.52 0-.962-.197-.99-.44l-.148-1.35c-.026-.238.37-.432.882-.432h2.872c.514 0 .956.194.988.432l.18 1.35c.033.242-.362.44-.88.44z"/><path id="N" d="M136.846 118.8h-6.663c-.52 0-.968-.197-1.002-.44l-.2-1.348c-.033-.24.356-.432.87-.432h6.6c.513 0 .965.193 1.008.432l.247 1.348c.045.243-.34.44-.86.44z"/></defs></svg>