<svg xmlns="http://www.w3.org/2000/svg" width="160" height="160" fill="none"><g clip-path="url(#A)"><g class="J"><path d="M143.115 122.375c-.406-.324-.864-.575-1.285-.765v-2.6l1.285-.09v3.453zm-1.285-7v-47.58c0-.41-.163-.8-.452-1.09s-.682-.452-1.09-.452h-16.23v-1.766a2.55 2.55 0 0 0-2.549-2.55h-5.36c.147-.406.23-.842.23-1.298a3.84 3.84 0 0 0-3.197-3.785 3.84 3.84 0 0 1 3.12.852c.426.36.77.81 1.005 1.316a3.84 3.84 0 0 1 .356 1.617c0 .456-.083.892-.23 1.298h5.36a2.55 2.55 0 0 1 2.549 2.55v1.766h16.23c.41 0 .8.163 1.09.452s.452.68.452 1.09v47.528c-.052-.02-.107-.03-.163-.026l-1.122.078zm-29.29-53.07c-.442-.001-.866-.176-1.178-.49a1.67 1.67 0 0 1-.29-1.964c.13-.242.317-.448.545-.6a1.67 1.67 0 0 1 .764-.272c.273-.027.548.015.8.12a1.67 1.67 0 0 0-.744.614c-.182.274-.28.595-.28.923a1.67 1.67 0 0 0 1.024 1.538 1.66 1.66 0 0 1-.642.128zm14.818 83.076H92.186l.243-1.308h34.336l.327.807.267.5z" class="D E"/><path d="M140.287 144.074H84.794a1.54 1.54 0 0 1-1.543-1.543V67.796a1.54 1.54 0 0 1 1.543-1.543h55.493c.41 0 .8.163 1.09.452s.452.68.452 1.09v74.736a1.54 1.54 0 0 1-1.543 1.543z" fill="#3c3c3b"/><path d="M86.123 141.202h52.836V69.125H86.123v72.077z" class="B"/><path d="M112.54 62.306c-.442 0-.866-.176-1.178-.49a1.67 1.67 0 0 1 0-2.356c.312-.312.736-.488 1.178-.49a1.67 1.67 0 0 1 1.178.489c.312.312.488.736.488 1.178a1.67 1.67 0 0 1-1.666 1.667zm8.967-.368h-5.36c.147-.407.23-.842.23-1.3 0-.504-.1-1.003-.292-1.47s-.476-.89-.833-1.245a3.83 3.83 0 0 0-1.245-.832 3.84 3.84 0 0 0-1.469-.292c-.504 0-1.004.1-1.47.292s-.89.476-1.246.832a3.85 3.85 0 0 0-.832 1.245 3.84 3.84 0 0 0-.292 1.469c0 .457.083.892.23 1.3h-5.36a2.55 2.55 0 0 0-1.802.747c-.478.478-.746 1.126-.747 1.802v5.92h23.033v-5.92a2.55 2.55 0 0 0-2.549-2.549z" fill="#c6c6c6"/><path d="M101.025 70.406v-4.12h23.032v2.69h-23.032v1.43z" fill="#bfbfbf"/><path d="M101.025 70.406h23.032v-1.43h-23.032v1.43z" fill="#a3a3a3"/><path d="M100.754 90.672c.002 2.818-2.28 5.104-5.097 5.106s-5.105-2.28-5.107-5.097 2.28-5.104 5.097-5.107 5.104 2.28 5.107 5.097" class="F"/><path d="M94.72 93.314a.94.94 0 0 1-.386-.082c-.12-.055-.23-.134-.318-.234l-1.39-1.573c-.162-.187-.243-.43-.226-.676a.94.94 0 0 1 .988-.874.94.94 0 0 1 .643.308l.785.887 2.555-2.148c.094-.083.203-.146.322-.186a.94.94 0 0 1 .727.054.94.94 0 0 1 .291.231c.08.096.14.207.178.326s.05.245.037.37-.05.245-.11.355-.14.207-.24.285l-3.254 2.737c-.17.142-.382.22-.602.22z" class="B"/><path d="M105.022 89.63H135.4v-2.113h-30.378v2.113zm0 4.21h22.83v-2.113h-22.83v2.113z" class="G"/><path d="M100.754 103.7c.002 2.818-2.28 5.104-5.097 5.107s-5.105-2.28-5.107-5.097 2.28-5.105 5.097-5.108 5.104 2.28 5.107 5.097" class="F"/><path d="M94.72 106.33a.92.92 0 0 1-.386-.082.95.95 0 0 1-.318-.234l-1.39-1.574c-.083-.092-.147-.2-.188-.316a.94.94 0 0 1-.052-.365.93.93 0 0 1 .093-.356c.054-.112.13-.212.223-.294a.94.94 0 0 1 .319-.185c.117-.04.242-.056.365-.048a.94.94 0 0 1 .647.322l.785.888 2.555-2.148a.94.94 0 0 1 .321-.178.92.92 0 0 1 .365-.041c.123.01.243.044.352.1s.207.135.286.23a.94.94 0 0 1 .216.687c-.01.122-.046.242-.103.35a.93.93 0 0 1-.23.286l-3.254 2.738c-.176.147-.4.22-.602.22z" class="B"/><path d="M105.022 102.646H135.4v-2.113h-30.378v2.113zm0 4.2h22.83v-2.113h-22.83v2.113z" class="G"/><path d="M100.754 116.708c.002 2.818-2.28 5.104-5.097 5.107s-5.105-2.28-5.107-5.097 2.28-5.105 5.097-5.108 5.104 2.28 5.107 5.098" class="F"/><path d="M94.72 119.35c-.133.001-.265-.028-.386-.082s-.23-.135-.318-.234l-1.39-1.574a.93.93 0 0 1-.184-.316c-.04-.116-.057-.24-.05-.362s.04-.244.093-.354.13-.2.222-.29a.93.93 0 0 1 .679-.234c.123.008.243.04.354.094a.94.94 0 0 1 .291.221l.785.888 2.555-2.148c.094-.083.203-.146.322-.186a.94.94 0 0 1 .369-.047c.125.01.246.044.358.1a.92.92 0 0 1 .291.231.94.94 0 0 1 .216.696c-.012.125-.05.245-.11.355s-.14.207-.24.285l-3.254 2.737a.94.94 0 0 1-.602.221" class="B"/><path d="M105.022 115.664H135.4v-2.112h-30.378v2.112zm0 4.2h22.83v-2.113h-22.83v2.113z" class="G"/><path d="M100.754 129.726c.002 2.818-2.28 5.104-5.097 5.107s-5.105-2.28-5.107-5.098a5.1 5.1 0 0 1 5.097-5.106c2.818-.004 5.104 2.28 5.107 5.097" class="F"/><path d="M94.72 132.367a.95.95 0 0 1-.386-.082c-.12-.054-.23-.135-.318-.234l-1.39-1.574c-.162-.186-.243-.43-.226-.676a.94.94 0 0 1 .988-.873.94.94 0 0 1 .643.307l.785.888 2.555-2.148c.19-.153.434-.225.678-.2a.94.94 0 0 1 .625.33c.157.187.236.428.218.672a.94.94 0 0 1-.314.634l-3.254 2.737c-.17.142-.382.22-.602.22z" class="B"/><path d="M105.022 128.682H135.4v-2.113h-30.378v2.113zm0 4.21h22.83v-2.112h-22.83v2.112z" class="G"/></g><path d="M131.488 75.148h-37.77a.92.92 0 0 0-.921.921v3.685a.92.92 0 0 0 .921.921h37.772a.92.92 0 0 0 .921-.921V76.07a.92.92 0 0 0-.921-.921z" fill="#eeab44"/><g class="J"><path d="M89.458 173.227h-1.566L89.44 159.3l-1.225-.136.254-2.28-1.6-.178c.075-.796.235-1.826.547-3.23 2.155-2.306 3.118-6.588 3.646-9.402h1.365l-.243 1.308c-.537 2.707-1.445 6.123-3.17 8.094-.292 1.405-.442 2.434-.512 3.23l1.496.177-.237 2.28 1.146.136-1.45 13.928z" class="D E"/><path d="M92.43 144.074h-1.365l.473-2.447c.035-.126.064-.267.1-.424h1.33c-.02.142-.05.284-.084.424-.09.34-.2.962-.324 1.754l-.12.693" fill="#313231"/><g class="E"><path d="M92.957 141.202h-1.33c.088-.547.12-1.275.12-2.09l-.21-5.684.001-.014v-.013l.001-.01.04-.585c.363.48.808.892 1.314 1.218l.063 7.178zm1.42-16.413c.196-.914.332-2.047.41-3.047.28.048.57.073.864.073h.004l.255-.007-.35 2.82c-.408.007-.806.062-1.186.16z" class="D"/><path d="M95.652 121.815c-.295 0-.584-.025-.864-.073.083-1.056.103-1.966.063-2.32l-.01-.082a.93.93 0 0 0 .483-.212l.487-.41c.09.25.143.493.165.703.038.36.017 1.3-.064 2.385l-.255.007h-.004z" class="D"/><path d="M94.84 119.34c-.108-.748-.612-1.857-1.904-2.163a1.96 1.96 0 0 1 .623-.08c1.308.025 1.967.85 2.25 1.623l-.487.4a.93.93 0 0 1-.483.212zm-1.946 14.684c-.506-.326-.95-.738-1.314-1.218.174-1.803.75-2.96 1-3.763.286-.892.764-1.53 1.433-3.058.134-.307.252-.723.354-1.196a5.1 5.1 0 0 1 1.186-.16c-.102.54-.223 1.014-.363 1.356l-1.342 3.06-.01.03a.94.94 0 0 0-.644-.147.93.93 0 0 0-.58.313.94.94 0 0 0 .003 1.237l.57.646-.048.2-.001.002-.064.302-.001.005-.056.3-.007.044-.048.315v.016l-.044.364-.03.333-.004.065-.02.358.02.595z" class="D"/></g><path d="M93.197 131.124l-.57-.646a.94.94 0 0 1-.005-1.239c.15-.172.357-.283.583-.313a.94.94 0 0 1 .645.149l-.628 1.96-.023.09z" fill="#d1d3d4"/><path d="M144.07 118.36c-.298 0-.553-.26-.57-.592l-.077-1.422c-.022-.35.216-.648.537-.67l.035-.002c.3 0 .553.26.57.592l.078 1.422c.02.346-.223.648-.537.67-.01.001-.023.001-.036.001z" fill="#629291"/><path d="M141.22 173.227h-2.71l-7.152-15.835.996-.56-.947-2.04 1.146-.645c-.624-1.308-1.285-2.493-1.926-3.076-1.33-1.213-3.586-3.557-4.698-5.687h1.43c1.226 2.13 3.71 4.474 5.18 5.687.704.583 1.432 1.767 2.12 3.075l-1.263.646.06.117.985 1.924-1.097.56 7.88 15.835zm1.894-54.305v-3.6a.45.45 0 0 1 .267.395l.155 2.722c.018.248-.156.462-.378.48l-.044.003z" class="D E"/><path d="M141.83 119.01v-3.635l1.122-.078c.056-.004.11.005.163.026v3.598l-1.285.09z" fill="#507979"/><path d="M126.765 144.074H125.4l-.205-.693-.527-2.178h1.3l.806 2.87zm12.193-24.864v-3.635l2.872-.2V119l-2.872.2z" fill="#313231"/><path d="M125.96 141.202h-1.3l-1.47-7.262-.001-.01-.005-.03-.003-.013-.01-.045-.001-.01-.2-.94h1.13l.234 1.07v.002l.001.003v.002l.001.001h0c.35 1.112.942 4.426 1.614 7.232v-.001zm-3.295-10.423h-.997c-.576-.458-1.216-1.057-1.146-1.462l.14-.635h.894l-.154.635a.34.34 0 0 0-.006.064c0 .402.665.963 1.268 1.398zm-1.077-4.2h-.897l-.176-.427c.398-.135.73-.32.73-.32l.343.747zm-2.496-.292c-.217 0-.404-.07-.505-.27-.283-.56-.463-.84-.484-1.168-.006-.087-.001-.174.016-.26.077-.468.797-2.648.602-3.874v-.001l-.07-.094c-.203-.01-.378-.186-.387-.418l-.003-.06-.055-.062-4.38.665-1.15-.862h5.992l.75.833c.216 1.224-.58 3.405-.664 3.873a.98.98 0 0 0-.016.26c.02.33.22.607.533 1.168.054.097.13.163.225.206-.138.038-.276.063-.404.063zm19.194-7.02l-.873-.838-.046-.063-1.926-2.536 3.518-.245v3.635l-.673.046v.001zm-21.312-1.496h-3.55l.22-.215 2.802.033a1.53 1.53 0 0 1-.01-.746c.087-.346.294-.6.54-.627.296-.035 1.206-.246 2.082-.542h.732c-.965.297-1.968.508-2.296.542-.27.028-.5.28-.594.627-.03.115-.047.232-.047.35 0 .185.037.382.12.577zm10.25-4.21h-1.42l1.27-.265c.576-.152 1.367-.73 2.328-.73a2.33 2.33 0 0 1 .801.141l.016.006c-.63.18-1.17.48-1.597.58-.2.05-.73.144-1.4.266z" class="D E"/><path d="M119.8 115.664h-.732c.624-.21 1.23-.465 1.585-.73.63-.47 3.44-1.04 5.16-1.383h1.42c-1.895.342-4.992.912-5.687 1.382-.39.265-1.06.52-1.747.73h.001zm-1.124 4.2h-5.992l-.803-.6 1.55-1.512h3.55c.05.12.118.237.205.35.267.35.635.488.995.53l.01.19-.01-.188c.098.01.195.016.29.016.378 0 .707-.076.842-.078h.012l.002.001c.02.001.04.007.057.017h.001c.09.058.12.237.12.528-.14-.03-.28-.044-.422-.04-.286.008-.64.18-.607.458.013.107.084.2.155.28l.043.05zm-4.38-1.24l-.026.001c-.224.018-.398.222-.398.47l.001.03c.014.25.2.437.426.437h.026c.234-.015.4-.236.396-.496l.001-.002c-.014-.25-.2-.438-.426-.438zm7.27 10.05h-.894c.146-.6.322-1.266.246-1.52l-.09-.257-.038-.107-.09-.23h.897l.1.23.043.105.098.257a.53.53 0 0 1 .02.16c0 .315-.157.86-.292 1.36zm2.553 4.2h-1.13l-.1-.436-.105-.4-.015-.05-.007-.024-.022-.072-.006-.02-.023-.073-.004-.01-.028-.08v-.003l-.058-.145-.003-.002a.65.65 0 0 0-.024-.052l-.007-.013-.02-.036-.008-.01-.02-.028-.007-.01-.025-.026-.83-.622h.997l.912.622c.1.065.2.298.288.6l.133.455.112.436z" fill="#787b7e"/><path d="M94.022 125.985l-1.434 3.058c-.286.892-.966 2.22-1.05 4.387.085 2.63.424 6.668 0 8.197s-1.105 8.622-4.12 11.85c-.595 2.676-.637 3.992-.595 4.927s-.127 3.674-.127 3.674h-13.76l.19-5.224c.32-3.123 1.274-10.258.446-14.718-.892-4.905-2.166-12.615-1.975-14.144.638-1.91 7.52-11.66 11.66-12.742v9.81c.137.553.244 1.113.32 1.677.113.845.145 1.735-.046 2.42a1.38 1.38 0 0 1-.034.116c-.005.02-.012.037-.018.055.268.187.407.285.646.073a1.53 1.53 0 0 0 .15-.158c.34-.403 1.72-2.335 2.07-3.292s1.53-4.14 1.91-4.905 1.784-4.014 4.014-3.95c1.848.033 2.485 1.466 2.58 2.326s-.16 5.033-.828 6.562z" class="H"/><path d="M73.805 149.565c.15-2.58.16-5.268-.223-7.373.382 2.105.373 4.793.223 7.373z" fill="#7eb4b2"/><path d="M78.633 155.356c-.35 0-.703-.022-1.052-.042l-3.56-.037-.718-.08.5-5.633c.15-2.58.16-5.268-.223-7.373v-.01-.003l-.002-.008v-.005l-.003-.014-.003-.017c-.83-4.57-1.993-11.574-1.994-13.746a3.37 3.37 0 0 1 .021-.403l.001-.003v-.002l.003-.01c.16-.46.662-1.35 1.39-2.454.827.187 1.644.415 2.4.776 1.07.503 2.044 1.3 2.527 2.38.462 1.03.435 2.206.672 3.3s.904 2.273 2.016 2.472c.115.022.23.03.34.03 1.56 0 2.79-1.884 4.426-1.968.037-.002.073-.003.1-.003.907 0 1.752.584 2.257 1.343.528.8.745 1.744.88 2.684.693 4.796-.54 9.842-3.37 13.778-.213.294-.436.586-.723.81-.872.68-2.278.7-2.782 1.684-.186.363-.2.8-.354 1.167-.272.67-.957 1.097-1.66 1.264-.363.084-.734.1-1.108.1z" fill="#f2c59d"/><path d="M91.627 141.202c.088-.547.12-1.275.12-2.09 0 .814-.032 1.542-.12 2.1v-.001z" fill="#c2c4c5"/><path d="M86.87 156.706l-3.773-.42.02-.16c.09-.717.197-1.437.424-2.124.78-2.358 2.863-4.04 4.034-6.23.95-1.775 1.263-3.81 1.562-5.798.133-.896.27-1.797.264-2.703-.013-2.318-.903-4.836.275-6.832.564-.96 1.484-1.573 2.46-2.144-.27.784-.54 1.785-.597 3.094v.001.01.005.01l-.001.014.21 5.683c0 .815-.032 1.542-.12 2.1l-.1.424c-.12.435-.263 1.325-.474 2.447-.53 2.814-1.49 7.096-3.646 9.403-.312 1.403-.472 2.433-.547 3.23z" fill="#e0b48d"/><path d="M90.518 120.665c-.54-.304-.207-2.054.16-2.468s.924-.86 1.752-.75c.844.254 1.784.526 1.816 2.007-.128 1.4-.43 2.405-.7 2.437-.7-.128-2.77-1.083-3.026-1.227" fill="#f2e0c7"/><path d="M83.573 126.715l-.004-.02z" fill="#2a2a29"/><path d="M83.573 126.715l-.004-.02h-.007l-.02.001c-.173-.228-.3-.48-.406-.75-.245-.675-.326-1.416-.688-2.035-.34-.58-.896-1-1.444-1.4l.86.376c.157.07.333.137.5.137.077 0 .15-.014.22-.05.288-.145.32-.534.323-.856a13.04 13.04 0 0 1 .349-2.837v5.768l.234 1.117.08.518.004.02z" fill="#a8876a"/><path d="M83.302 129.2c-.04 0-.077-.004-.116-.01-.184-.032-.345-.137-.502-.24l-2.968-1.943c-.43-.28-.872-.568-1.373-.683-.287-.066-.585-.073-.87-.145s-.572-.226-.7-.49c.048-.01.096-.013.144-.013.224 0 .44.1.66.18s.44.18.67.18h.015c.038-.001.08-.005.106-.033.032-.033.03-.086.024-.132a6.2 6.2 0 0 0-.117-.7c-.022-.095-.042-.2.008-.28.037-.06.105-.088.176-.088a.31.31 0 0 1 .195.071c.107.1.156.23.2.36.47 1.132 1.6 1.852 2.75 2.277a1.32 1.32 0 0 0 .446.101c.078 0 .155-.013.227-.046.21-.096.295-.442.09-.552.305-.277.752-.307 1.166-.32l.032.04c.055.413.092.836.092 1.24 0 .424-.04.83-.138 1.18a.71.71 0 0 1-.228.04z" class="C"/><path d="M83.576 126.738l-.032-.04.02-.001h.007l.004.02.003.023z" class="I"/><path d="M83.87 129.522c.078 0 .158-.035.253-.12-.095.084-.174.12-.252.12z" fill="#333332"/><path d="M81.395 131.622c-.283 0-.56-.132-.775-.318-.246-.212-.424-.487-.598-.76.043-.03.094-.044.146-.043.058 0 .118.016.17.042.1.048.18.126.27.192.146.11.31.187.487.23s.36.053.538.025c.028-.004.057-.01.075-.03.026-.03.02-.073.007-.1-.07-.197-.303-.324-.316-.534-.007-.136.1-.263.21-.326s.262-.076.4-.08c.087-.001.176-.001.257-.032.145-.055.234-.198.36-.288.197-.14.46-.138.685-.223.064-.024.125-.056.182-.093-.005.02-.012.037-.018.055l.013.01c.153.107.264.183.378.184h.002c.078-.001.158-.036.253-.12a4.67 4.67 0 0 1-.46.593c-.4.44-.87.813-1.337 1.183-.245.194-.507.396-.818.437a.88.88 0 0 1-.115.007" class="C"/><path d="M88.47 156.884l-1.816 16.343H69.645l2.023-18.21 16.8 1.868" class="B"/><path d="M88.216 159.163l-5.3-.375.255-2.493 5.3.59-.253 2.28z" fill="#ededed"/><path d="M148.245 150.78c-3.384 2.02-11.32 7.898-11.32 7.898-1.097-1.94-2.804-6.297-4.387-7.607s-4.352-3.936-5.445-6.19-2.208-9.196-2.747-10.9c0 0-.155-.802-.348-1.515-.135-.5-.29-.96-.42-1.055-.318-.23-2.303-1.418-2.175-2.084s.542-1.804.426-2.155a3.48 3.48 0 0 0-.098-.257c-.013-.034-.027-.07-.043-.105-.18-.425-.443-.978-.443-.978s-1.583.885-1.974.186c-.314-.56-.512-.838-.533-1.168-.007-.087-.001-.174.016-.26.085-.47.88-2.65.664-3.874l-.001-.002-.002-.013.082-1.493.001-.07c.001-.36-.045-.548-.192-.545-.293.003-1.497.355-2.127-.47-.325-.428-.38-.907-.278-1.278.095-.347.323-.6.594-.628.56-.058 3.102-.636 4.042-1.272s6.285-1.455 7.086-1.647 1.986-1.066 3.447-.588c1.323.433 3.642 3.375 4.964 5.194l.333.463.046.063c.873.853 1.978 1.885 2.647 2.398.186.142.338.243.44.3l.026.01c.45.178 3.748 1.023 3.744 3.42s-.045 10.29.238 13.362 2.218 10.55 3.737 12.878z" class="H"/><path d="M123.576 131.4c-.307-.223-2.18-1.345-2.18-2.02 0-.022.002-.043.006-.065.113-.585.446-1.535.446-1.994a.53.53 0 0 0-.02-.16l-.098-.257 1.846 4.497" class="C"/><path d="M119.417 120.707l-.001-.002c-.222-.29-.504-.556-.75-.83h.797l-.05.817.002.014.001.002z" fill="#b3b4b5"/><path d="M119.463 119.874h-.797l-.043-.05c-.07-.08-.142-.172-.155-.28-.032-.277.32-.45.607-.458h.04c.13 0 .257.014.38.04v.03l-.001.04-.033.675z" fill="#67696c"/><path d="M121.687 126.8l-.1-.23-.343-.747s-.332.185-.73.32c-.225.075-.47.134-.688.134-.122 0-.235-.018-.33-.062s-.175-.115-.225-.207c-.314-.56-.512-.837-.533-1.167.062-.156.134-.306.22-.45l.303-.464c.315-.527.41-1.145.5-1.747.03-.188.057-.377.04-.566-.025-.34-.18-.633-.385-.905l-.001-.002-.002-.013.05-.818.033-.675.001-.04-.001.04.254-.004c.326.107.636.28.93.458l.115.668.032.197c.097.627-.096 1.803-.102 3.18v.1l.05 1.11c.24.413.568 1.106.914 1.89l-.003.002z" class="C"/><path d="M129.466 128.132c-.24-.315-.443-.66-.6-1.023-.357-.802-.598-1.787-.875-3.02l-.233-1.05a11 11 0 0 0-1.423-3.445c.237.008.477.016.705.062v.001c.086.016.17.04.253.07.574.2.94.745 1.425 1.105.3.22.636.37.988.496l1.4.486.044.022-.002.001.03.024c.012.02.018.044.017.067 0 .016-.002.033-.004.05l-.008.147c0 .435.18.858.213 1.296l.006.17-.038.8.007.18c.054.678.46 1.27.64 1.922.012.046.024.093.024.14 0 .015-.002.03-.004.044-.014.074-.06.133-.12.183a1.06 1.06 0 0 1-.148.099c-.45.252-.933.437-1.39.677l-.917.496zm-.966-10.46c-.065 0-.13-.01-.192-.022l-.388-.068c.387-.21.622-.61.836-.988l.966-1.706-.092.57a2.05 2.05 0 0 1-.068.311c-.042.126-.1.243-.165.365-.184.403-.228.86-.46 1.24-.077.126-.185.248-.33.285-.036.01-.072.013-.108.013z" fill="#a8876a"/><path d="M119.497 119.13c0-.29-.03-.47-.118-.527.09.057.12.236.118.526v.001zm-1.324-.486c-.36-.043-.728-.182-.995-.53.267.35.635.488.995.53z" fill="#67696c"/><path d="M119.75 119.195a2.48 2.48 0 0 0-.253-.067c.001-.3-.03-.47-.118-.526l-.002-.001h0c-.018-.01-.038-.016-.058-.018h-.014c-.135.002-.464.078-.84.078a2.4 2.4 0 0 1-.291-.017c-.36-.044-.728-.182-.995-.53a1.69 1.69 0 0 1-.205-.351 1.47 1.47 0 0 1-.12-.577c0-.124.017-.242.046-.35.294.188.68.28 1.033.35l2.474.357.804.006c-.528.372-.622 1.012-.58 1.643l-.787.007h-.093zm6.205-.165c-.57-.796-1.14-1.376-1.543-1.73l.973-.083.673-.036c.523 0 1.033.087 1.397.427.042.037.08.078.103.13.067.15-.022.324-.126.454-.346.433-.877.696-1.42.824l-.058.013z" class="C"/><path d="M119.496 119.16v-.03h.001v.03" fill="#585a5c"/><path d="M119.496 119.2v-.04l.001-.03c.086.018.17.04.253.067l-.254.004" fill="#b08e6f"/><path d="M141.242 122.383c-.883-.222-1.66-.72-2.384-1.257-.227-.167-.45-.34-.7-.474-.224-.118-.464-.202-.704-.286-1.026-.354-2.077-.715-3.174-.715h-.016c-.265 0-.534.023-.785.114-.404.145-.723.45-1.03.747l-1.342 1.3c-.45-.2-.937-.315-1.4-.48-.352-.126-.69-.276-.988-.496-.486-.36-.85-.895-1.425-1.106-.082-.03-.167-.054-.254-.07l-.32-.413c-.048-.063-.097-.155-.04-.216.03-.034.078-.04.124-.046l9.42-1.044.666-.05.147.004.38.527 2.647 2.398c.186.142.338.243.44.3l.742 1.276z" class="C"/><path d="M129.706 121.33c-.352-.126-.7-.276-.988-.496-.486-.36-.85-.895-1.425-1.105-.082-.03-.167-.054-.253-.07v-.001c.087.018.172.04.254.072.574.2.94.745 1.425 1.105.3.22.636.37.988.496" class="I"/><path d="M131.92 126.86a.32.32 0 0 0 .119-.183c.002-.014.004-.03.004-.044 0-.047-.012-.094-.024-.14-.18-.653-.585-1.243-.64-1.922l-.007-.18.038-.8-.006-.17c-.032-.44-.213-.862-.213-1.297a1.45 1.45 0 0 1 .008-.147.27.27 0 0 0 .004-.049c.001-.023-.005-.047-.017-.067-.007-.01-.016-.02-.027-.025.323-.226.704-.41 1.076-.41a1.02 1.02 0 0 1 .352.061c.25.1.445.276.63.46.51.5 1.01 1.016 1.404 1.61.12.183.232.38.25.596.032.42-.3.785-.616 1.064a6.58 6.58 0 0 1-.891.636c-.247.147-.504.278-.724.463-.173.146-.32.326-.513.446-.065.04-.134.073-.207.096z" class="C"/><path d="M131.92 126.86c.058-.05.106-.11.12-.183-.013.074-.06.133-.12.183zm.122-.227a.56.56 0 0 0-.023-.14c-.18-.653-.585-1.244-.64-1.922.054.678.46 1.27.64 1.922a.56.56 0 0 1 .023.14zm-.63-3.04l-.006-.17c-.032-.438-.213-.86-.213-1.296 0 .435.18.858.213 1.296l.006.17zm-.207-1.662c.001-.023-.005-.047-.017-.067l-.03-.024.002-.001c.01.006.02.015.027.025.012.02.018.044.017.067z" class="I"/><path d="M134.005 131.32c-.012-.01-.026-.02-.04-.03a.13.13 0 0 0-.029-.014c-.796-.264-1.67-.8-3.4-2.175-.216-.138-.42-.295-.608-.47l.35-.014c.466 0 .943.065 1.41.083.4.015.805-.004 1.198.06s.788.222 1.032.525c.324.403.326.97.308 1.488-.004.114-.01.23-.053.337a.53.53 0 0 1-.166.209z" class="C"/><path d="M119.385 120.613l26.958-1.694c.06-.004.116-.02.17-.046a.44.44 0 0 0 .225-.259c.02-.056.027-.115.023-.174l-.17-2.723c-.008-.118-.063-.228-.15-.307a.45.45 0 0 0-.324-.112l-26.954 1.698c-.058.003-.116.018-.17.044a.45.45 0 0 0-.139.106.44.44 0 0 0-.088.151c-.02.056-.027.115-.023.173l.168 2.723c.012.248.23.436.474.42z" fill="#1d1d1b"/><path d="M118.75 117.6l.077 1.232-3.826.242v-.002a.45.45 0 0 0-.046-.177.47.47 0 0 0-.111-.146.48.48 0 0 0-.158-.091c-.058-.02-.12-.028-.182-.024-.256.02-.452.238-.437.498l-2.195.14 1.95-1.727 4.927.055z" fill="gray"/><path d="M118.826 118.832l.078 1.23-4.882.673-2.15-1.464 2.195-.14c.016.26.237.45.498.436s.45-.236.436-.496l3.825-.24z" fill="#b3b3b3"/><path d="M147.225 115.678c.167-.01.33.047.456.157s.202.266.214.433l.084 1.422c.01.167-.047.33-.158.456a.63.63 0 0 1-.433.214c-.167.01-.33-.047-.456-.157a.64.64 0 0 1-.214-.433l-.084-1.422c-.005-.083.004-.167.03-.245s.07-.152.124-.215.12-.113.197-.15a.62.62 0 0 1 .239-.061z" fill="#575756"/><path d="M143.378 154.023l-6.454 4.654c-1.097-1.94-2.804-6.297-4.387-7.607s-4.352-3.936-5.445-6.19-2.208-9.196-2.747-10.9c0 0-.45-2.34-.768-2.57l-2.802-6.493-.05-1.21.103-3.18-.033-.197c-.15-.834-.454-2.167.416-2.777.792-.56 1.808-.935 2.614-.626a1.56 1.56 0 0 1 .43.25c.665.547 2.015 1.9 2.904 4.013.255.6.455 1.223.597 1.86.71 3.17 1.008 4.912 2.78 6.064 1.73 1.374 2.604 1.9 3.4 2.175a.21.21 0 0 1 .081.053c1 .91 5.835 12.355 5.835 12.355l3.526 10.336z" class="H"/><path d="M124.34 118.55c-.012.604-.272 1.216-.748 1.61-.223.188-.487.32-.75.445-.505.236-1.12.437-1.592.165-.188-.1-.324-.277-.454-.45-.15-.834-.454-2.167.416-2.777.792-.56 1.808-.935 2.614-.626.326.48.53 1.05.516 1.63" fill="#f2e0c7"/><path d="M134.658 154.144c-.688-1.308-1.417-2.492-2.12-3.075-1.584-1.3-4.352-3.935-5.445-6.188s-2.208-9.196-2.747-10.9l-.347-1.515a9.92 9.92 0 0 0-.134-.455c-.098-.302-.198-.535-.287-.6l-1.888-4.603-.914-1.9-.05-1.21c3.677 3.027 5.708 7.702 6.282 12.428.147 1.22.21 2.454.487 3.648.555 2.392 1.942 4.49 3.327 6.52.55.802 1.116 1.617 1.913 2.19.485.348 1.04.595 1.544.92 1.115.72 1.93 1.795 2.722 2.847l.38.506-.507.258-2.217 1.134" fill="#e0b48d"/><path d="M133.395 154.79l7.485 14.64 15.906-6.022-8.34-16.315-15.05 7.697z" class="B"/><path d="M163.328 173.227H141.22l-7.88-15.834 17.245-8.816 6.975 13.644 5.766 11.006z" fill="#4c4c4c"/><path d="M148.006 153.044a1.52 1.52 0 0 0 .37.469c.153.13.33.23.52.3a1.55 1.55 0 0 0 .593.07c.2-.016.396-.072.574-.163s.338-.217.468-.37a1.52 1.52 0 0 0 .29-.521c.063-.19.086-.392.07-.592a1.53 1.53 0 0 0-1.053-1.333 1.53 1.53 0 0 0-1.166.093c-.362.185-.635.505-.76.89a1.53 1.53 0 0 0 .093 1.166zm1.972 3.858c.1.18.215.343.368.475a1.51 1.51 0 0 0 .523.297 1.52 1.52 0 0 0 1.175-.09c.18-.092.34-.22.47-.374s.23-.332.29-.526a1.55 1.55 0 0 0 .065-.597c-.018-.202-.076-.398-.17-.577a1.53 1.53 0 0 0-.891-.746 1.54 1.54 0 0 0-1.159.096 1.53 1.53 0 0 0-.673 2.042z" fill="#9f9f9f"/><path d="M133.455 154.907l-.06-.117 1.263-.646-1.263.647.06.116z" fill="#5b8887"/><path d="M134.658 154.145l2.217-1.134-2.217 1.134z" fill="#d0a783"/><path d="M134.44 156.83l-1.044-2.04 3.48-1.78.508-.258 1.125 2-4.07 2.08z" fill="#ededed"/><path d="M148.91 173.227h-7.688l-7.88-15.834 5.166-2.64 10.4 18.475z" fill="#3b3b3b"/><path d="M67 173.227h20.892L89.44 159.3l-19.795-1.57L67 173.227z" fill="#4c4c4c"/><path d="M81.084 173.227h6.81L89.44 159.3l-6.525-.51-1.83 14.44z" fill="#3b3b3b"/><path d="M73.622 161.76a1.54 1.54 0 0 1-.37.469c-.153.13-.33.23-.52.3a1.55 1.55 0 0 1-.593.07c-.2-.016-.395-.072-.574-.163a1.52 1.52 0 0 1-.469-.37c-.13-.153-.23-.33-.3-.52s-.085-.392-.07-.592.07-.396.163-.574a1.53 1.53 0 0 1 2.057-.666c.362.185.634.505.76.89a1.53 1.53 0 0 1-.093 1.166zm-.683 4.227a1.54 1.54 0 0 1-.367.475c-.153.132-.33.234-.523.297s-.395.088-.596.073-.4-.072-.58-.164-.34-.22-.47-.374a1.52 1.52 0 0 1-.291-.525c-.06-.194-.083-.397-.066-.598a1.54 1.54 0 0 1 .17-.576 1.53 1.53 0 0 1 .891-.747c.384-.12.8-.086 1.158.097s.63.5.756.883a1.53 1.53 0 0 1-.083 1.159z" fill="#9f9f9f"/></g></g><defs><clipPath id="A"><path d="M0 0h160v160H0z" class="B"/></clipPath></defs></svg>