<svg xmlns="http://www.w3.org/2000/svg" width="160" height="160" fill="none"><g clip-path="url(#A)"><g class="b"><path d="M181.415 80.724L150.25 98.77 98.82 69.05l31.093-18.088" class="P"/><g class="Q"><path d="M98.82 70.977l51.43 29.77v-1.926L98.82 69.05v1.927z"/><path d="M150.06 100.88l31.164-18.046v-1.927L150.06 98.953v1.926z"/></g><path d="M150.25 98.822L98.82 69.05l31.093-18.088-28.786 17.945 49.123 29.915z" class="R"/><path d="M152.66 73.79l7.898-4.484 7.9 4.484-7.9 4.508-7.898-4.508z" class="M"/><path d="M160.558 78.3l-7.898-4.508v8.67l7.898 4.51V78.3z" class="N"/><path d="M152.66 73.79l7.898 4.14 7.885-4.134-7.885 4.5-7.898-4.508z" class="S"/><path d="M156.32 71.73l1.6-.91 7.898 4.484-1.6.908-7.898-4.483z" class="T"/><g class="U"><path d="M157.1 71.285l.04-.023 7.898 4.484-.04.023-7.898-4.484zm-4.434 2.51l7.892 4.505v.046l-7.102-4.053-.8-.497z"/></g><path d="M155.245 81.737l-2.138-1.22v1.552l2.138 1.218v-1.55z" class="V"/><path d="M109.866 57.353l12.077-6.856 12.077 6.856-12.077 6.894-12.077-6.894z" class="M"/><path d="M121.943 64.247l12.077-6.894v13.26l-12.077 6.894v-13.26z" class="Y"/><path d="M121.943 64.247l-12.077-6.894v13.26l12.077 6.894v-13.26z" class="N"/><path d="M109.866 57.353l12.077 6.332L134 57.364l-12.057 6.883-12.077-6.894z" class="S"/><path d="M121.943 64.247l12.077-6.894-11.408 7.167-.67 12.987v-13.26z" class="W"/><path d="M115.463 54.198l2.445-1.39 12.078 6.856-2.446 1.39-12.077-6.856z" class="T"/><path d="M127.556 61.052l2.408-1.373v3.064l-2.408 1.373v-3.064z" class="Z"/><g class="U"><path d="M116.655 53.52l.06-.035 12.077 6.856-.06.035-12.077-6.856z"/><path d="M134.012 57.357l-12.07 6.89v.07l10.86-6.2 1.21-.76z"/><path d="M109.875 57.357l12.068 6.9v.07l-10.86-6.2-1.2-.76zm18.925 2.976l.07 13.222-.063.034-.068-13.22.062-.034z"/></g><path d="M131.176 69.878l2.408-1.373v1.748l-2.408 1.373v-1.748z" fill="#b1927e"/><path d="M113.818 69.503l-3.268-1.864v2.372l3.268 1.864v-2.373z" class="V"/><path d="M128.713 69.554l10.984-6.236 10.985 6.236-10.985 6.27-10.984-6.27z" class="M"/><path d="M139.697 75.824l10.985-6.27v12.06l-10.985 6.27v-12.06z" class="Y"/><path d="M139.697 75.824l-10.984-6.27v12.06l10.984 6.27v-12.06z" class="N"/><path d="M128.713 69.554l10.984 5.76 10.967-5.75-10.967 6.26-10.984-6.27z" class="S"/><path d="M139.697 75.824l10.985-6.27-10.376 6.52-.61 11.81v-12.06z" class="W"/><path d="M133.803 66.685l2.224-1.263 10.984 6.236-2.225 1.263-10.983-6.236z" class="T"/><path d="M144.802 72.92l2.2-1.25v2.787l-2.2 1.25V72.92z" class="Z"/><g class="U"><path d="M134.887 66.07l.055-.032 10.985 6.236-.055.03-10.985-6.235z"/><path d="M150.674 69.56l-10.977 6.265v.064l9.877-5.638 1.1-.69z"/><path d="M128.72 69.56l10.977 6.265v.063l-9.877-5.637-1.1-.7zm17.22 2.705l.068 12.025-.062.032-.07-12.026.063-.03z"/></g><g class="V"><path d="M148.094 80.946l2.2-1.25v1.6l-2.2 1.25v-1.6zm-15.788-.34l-2.972-1.695v2.158l2.972 1.695v-2.158z"/></g><path d="M138.656 71.293l3.22-1.853 10.86-16.43.26-.326.245-.346.23-.366.215-.385.2-.404.186-.423.168-.442.153-.46.136-.48.12-.497.1-.515.084-.533.066-.55.048-.567.03-.584.01-.6-.017-.816-.05-.824-.084-.83-.115-.837-.147-.842-.177-.845-.205-.846-.235-.846-.263-.845-.29-.842-.316-.837-.34-.83-.365-.824-.4-.815-.41-.805-.435-.793-.454-.78-.476-.766-.496-.75-.513-.732-.533-.713-.548-.693-.566-.67-.58-.648-.595-.623-.61-.597-.622-.57-.634-.54-.646-.51-.656-.477-.665-.443-.676-.408-.674-.367-.665-.322-.657-.278-.645-.234-.635-.2-.62-.147-.61-.104-.596-.062-.58-.02-.565.02-.55.062-.532.1-.514.14-.496.18-.475.22-3.22 1.853.475-.22.495-.18.515-.14.53-.1.55-.062.565-.02.58.02.596.062.61.104.62.147.635.2.645.233.656.278.666.322.674.367.675.408.666.443.655.477.646.51.634.54.622.57.6.596.595.623.58.647.566.67.548.693.532.713.514.732.495.75.476.766.455.78.435.793.41.805.39.815.366.824.34.83.316.837.29.842.263.845.234.846.206.846.177.845.146.842.115.837.084.832.05.824.017.816-.01.6-.03.584-.047.567-.066.55-.084.533-.102.515-.12.497-.136.48-.152.46-.17.442-.185.423-.2.404-.216.385-.23.366-.245.346-.26.326-10.86 16.43z" fill="#a20014"/><path d="M138.656 28.236c5.368 3.087 9.72 10.788 9.72 17.2 0 2.504-.663 4.442-1.792 5.69-1.76 1.947-4.655 2.213-7.927.332-5.368-3.087-9.72-10.788-9.72-17.2 0-4.062 1.747-6.632 4.392-7.186 1.53-.32 3.36.034 5.327 1.165zm0 43.058l10.86-16.43c1.42-1.686 2.25-4.23 2.25-7.48 0-8.648-5.87-19.034-13.11-23.197s-13.108-.528-13.108 8.12c0 1.56.192 3.178.547 4.805 2.106 9.627 8.903 24.437 12.56 34.18z" fill="#d0021b"/><path d="M133.328 27.07c-2.644.554-4.39 3.124-4.39 7.186 0 6.412 4.35 14.113 9.72 17.2 3.27 1.88 6.166 1.615 7.927-.332-1.53.32-3.36-.033-5.33-1.164-5.368-3.087-9.718-10.787-9.718-17.2 0-2.505.663-4.443 1.792-5.7z" fill="#a20014"/><path d="M112.15 48.532l7.2-4.087 7.2 4.087-7.2 4.1-7.2-4.1z" class="M"/><path d="M119.35 52.642l7.2-4.1v7.904l-7.2 4.1v-7.904z" class="Y"/><path d="M119.35 52.642l-7.2-4.1v7.904l7.2 4.1v-7.904z" class="N"/><path d="M112.15 48.532l7.2 3.774 7.188-3.768-7.188 4.103-7.2-4.1z" class="S"/><path d="M119.35 52.642l7.2-4.1-6.8 4.273-.4 7.742v-7.904z" class="W"/><path d="M115.486 46.65l1.46-.828 7.2 4.087-1.458.828-7.2-4.087z" class="T"/><path d="M122.695 50.737l1.437-.82v1.827l-1.437.82v-1.827z" class="Z"/><g class="U"><path d="M116.198 46.248l.036-.02 7.2 4.087-.036.02-7.2-4.087z"/><path d="M126.544 48.535l-7.195 4.107v.04l6.474-3.695.72-.453z"/><path d="M112.155 48.535l7.194 4.107v.04l-6.473-3.695-.72-.453zM123.45 50.3l.05 7.882-.045.02-.05-7.882.046-.02z"/></g><g class="V"><path d="M124.853 56l1.436-.818v1.042l-1.436.82V56zm-10.348-.225l-1.948-1.1v1.414l1.948 1.1v-1.414zm10.348-1.245l1.436-.82v1.042l-1.436.82V54.53z"/></g><path d="M133.49 117.32l48.35-28.006 42.444 24.584-48.35 28.007-42.444-24.585z" class="P"/><path d="M133.49 117.32v1.927l42.443 24.586v-1.928L133.49 117.32z" class="Q"/><path d="M133.49 117.32l48.35-28.006-46.032 27.954 40.126 24.637-42.444-24.585z" class="R"/><path d="M154.98 125.085v-8.758l20.727 12.067v8.758l-20.727-12.067z" class="C"/><path d="M175.705 128.394l-20.726-12.067 11.07-6.444 9.656 5.622 14.603-8.502 11.07 6.445-25.672 14.946z" class="D"/><path d="M31.505 105.845l48.35-28.007 36.75 21.734-48.35 28.006-36.75-21.733z" class="P"/><g class="Q"><path d="M31.505 105.845v1.926l36.75 21.734v-1.927l-36.75-21.733z"/><path d="M68.256 127.578v1.927l48.35-28.007v-1.926l-48.35 28.006z"/></g><path d="M68.256 127.578l-33.42-22.04 45.02-27.7-48.35 28.007 36.75 21.733z" class="R"/><path d="M59.13 88.736v17.05l-8.863 5.16V93.897l8.863-5.16z" class="K"/><path d="M50.27 93.897v17.048l-8.863-5.16v-17.05l8.863 5.16z" class="C"/><path d="M41.406 88.736l8.863-5.16 8.862 5.16-8.862 5.16-8.863-5.16z" class="D"/><path d="M83.166 72.924v16.19l-5.47 3.185V76.1l5.47-3.186z" class="K"/><path d="M77.695 76.1v16.188l-5.47-3.184v-16.19l5.47 3.186z" class="C"/><path d="M72.224 72.924l5.47-3.184 5.47 3.185-5.47 3.186-5.47-3.186z" class="D"/><path d="M96.638 96.734v9.06L69.334 121.7v-9.06l27.304-15.896z" class="K"/><path d="M69.334 112.63v9.06l-11.773-6.855v-9.06l11.774 6.855z" class="C"/><path d="M84.864 89.88l11.774 6.855-27.304 15.896-11.774-6.854L84.864 89.88z" class="D"/><g fill="#478cc8"><path d="M69.272 138.192l-4.56-2.64v10.563h18.24l-13.678-7.923z"/><path d="M68.57 138.53L127.11 103a.94.94 0 0 0 .315-1.289.93.93 0 0 0-.319-.317L86.82 77.227a.47.47 0 0 1 .05-.83l8.324-3.72a.47.47 0 0 1 .425.022l50.1 28.8c.45.258.604.83.345 1.28a.94.94 0 0 1-.352.35l-12.393 6.984-58.157 34.72-8.187-4.742c.372-.63.906-1.177 1.585-1.57z"/></g><path opacity=".2" d="M52.122 139.324L23.74 155.357l25.497 14.648 28.443-15.977-25.558-14.704z" fill="#2d2d2d"/><path d="M65.783 146.007v9.676l-17.604 10.18v-9.676l17.605-10.18z" class="W"/><path d="M48.18 156.188v9.676l-17.604-10.18v-9.676l17.604 10.18z" class="N"/><path d="M30.575 146.007l17.604-10.18 17.604 10.18-17.604 10.18-17.604-10.18z" class="M"/><path d="M47.225 147.143l3.308-1.873 11.154-16.607.266-.33.252-.35.237-.37.22-.4.206-.408.2-.428.174-.447.157-.465.14-.485.123-.502.104-.52.086-.54.068-.556.05-.573.03-.59.01-.608-.017-.824-.052-.833-.086-.84-.118-.847-.15-.85-.18-.854-.212-.855-.24-.855-.27-.854-.297-.85-.325-.846-.35-.84-.376-.833-.4-.824-.423-.814-.446-.802-.468-.788-.49-.775-.51-.757-.527-.74-.546-.72-.564-.7-.58-.677-.596-.655-.612-.63-.625-.604-.64-.574-.652-.546-.663-.514-.673-.482-.684-.448-.693-.412-.693-.372-.683-.326-.674-.28-.663-.236-.65-.19-.64-.15-.626-.105-.61-.062-.597-.02-.58.02-.564.063-.546.103-.528.143-.51.18-.49.22-3.307 1.873.488-.22.51-.182.528-.142.546-.103.564-.062.58-.02.596.02.61.063.626.105.64.148.65.192.663.236.674.28.684.326.693.372.693.413.684.448.673.482.663.515.652.545.64.575.625.603.612.63.596.654.58.678.564.7.546.72.528.74.508.758.49.774.468.79.446.802.423.814.4.824.376.833.35.84.324.846.297.852.27.853.24.856.212.855.18.854.15.85.118.847.086.84.05.834.017.824-.01.608-.03.59-.05.573-.068.556-.086.54-.105.52-.123.502-.14.484-.157.466-.173.446-.2.43-.206.408-.222.4-.237.37-.252.35-.266.33-11.154 16.607z" fill="#3167b5"/><path d="M47.225 103.62c5.513 3.12 9.982 10.904 9.982 17.385 0 2.53-.68 4.49-1.84 5.75-1.81 1.968-4.782 2.237-8.14.335-5.513-3.12-9.982-10.904-9.982-17.386 0-4.105 1.794-6.703 4.5-7.263 1.572-.324 3.452.035 5.472 1.178zm0 43.523l11.154-16.608c1.458-1.704 2.31-4.274 2.31-7.56 0-8.74-6.027-19.24-13.463-23.448s-13.463-.534-13.463 8.21c0 2.133.36 4.37 1 6.596 3.01 10.295 8.533 22.536 12.453 32.81z" fill="#478cc8"/><path d="M41.753 102.442c-2.716.56-4.5 3.158-4.5 7.263 0 6.482 4.47 14.266 9.983 17.387 3.36 1.9 6.333 1.632 8.14-.336-1.572.324-3.452-.033-5.473-1.177-5.513-3.12-9.982-10.904-9.982-17.386 0-2.532.682-4.5 1.842-5.75z" fill="#3167b5"/></g><path d="M115.38 121.23l-2.548-1.48 2.548 1.48" fill="#ccc"/><path d="M112.845 122.724l-.014.03-.07.107-.062.107-.07.1-.077.103-.073.098-.074.097-.08.092-.078.088-.17.17-.087.078-.088.078-.184.136-.092.062-.093.06-.096.048-.098.045-.087.043-.092.03-.088.03-.086.024-.088.014-.078.01-.087.005h-.078l-.072-.005-.078-.014-.074-.02-.067-.02-.068-.03-.063-.034 2.55 1.475.067.034.063.03.073.02.072.018.073.015.077.005h.08l.078-.005.086-.01.088-.014.082-.024.093-.025.087-.034.092-.043.2-.093.09-.06.098-.062.092-.07.087-.068.088-.074.086-.082.088-.083.165-.175.078-.092.078-.093.072-.102.073-.102.068-.103.068-.1.063-.108.015-.033.063-.107.053-.107.053-.112.048-.108.05-.112.043-.117.04-.11.033-.112.03-.117.028-.11.024-.114.02-.116.013-.107.015-.112.006-.107v-.22l-.006-.102-.028-.195-.02-.092-.024-.083-.034-.088-.03-.072-.04-.074-.04-.068-.043-.063-.097-.117-.058-.044-.054-.05-.063-.034-2.548-1.48.058.04.058.044.054.05.053.053.05.063.044.058.038.07.04.078.035.072.024.083.048.175.014.098.015.097.006.102v.22l-.006.112-.015.107-.014.11-.02.114-.023.116-.03.112-.027.117-.04.107-.038.116-.044.113-.05.112-.043.11-.058.108-.054.11-.058.108" class="B"/><path d="M109.177 120.635l.115-.193.12-.196.127-.185.13-.184.272-.35.145-.17.146-.16.15-.16.154-.145.162-.146.16-.137.165-.126.165-.12.17-.112.174-.107.17-.093.165-.083.17-.073.165-.063.16-.05.16-.04.15-.03.155-.018.145-.005h.147l.136.01.14.025.13.032.12.04.12.053.117.06 2.553 1.48-.116-.063-.12-.053-.127-.04-.13-.03-.136-.024-.14-.014h-.14l-.15.005-.15.024-.154.024-.16.04-.16.053-.165.06-.165.073-.17.082-.17.093-.17.107-.17.11-.17.123-.165.126-.155.14-.162.14-.154.152-.15.155-.15.16-.14.17-.14.175-.135.176-.13.184-.127.2-.115.2-.117.195-.005.004-.06.098-.048.097-.058.102-.05.102-.053.098-.05.102-.048.102-.044.107-.043.098-.04.107-.043.1-.038.108-.04.1-.035.108-.038.102-.03.107-.033.103-.03.106-.024.107-.024.103-.048.204-.02.107-.014.103-.014.107-.015.102-.014.102-.01.103-.01.204-.004.102v.097l.004.195.01.195.024.18.03.17.034.166.048.156.048.15.064.14.067.132.074.126.08.112.083.107.092.097.102.088.107.083.106.068-2.547-1.475-.11-.073-.107-.078-.098-.087-.09-.098-.088-.107-.077-.116-.078-.12-.063-.132-.06-.142-.057-.15-.045-.155-.033-.165-.034-.176-.02-.18-.01-.2-.005-.194v-.098l.006-.102v-.102l.03-.307.014-.107.02-.1.014-.103.02-.107.02-.102.024-.107.03-.102.028-.107.025-.103.034-.107.03-.1.033-.108.078-.21.04-.103.038-.106.043-.103.088-.205.048-.1.05-.102.048-.103.053-.102.054-.098.053-.102.06-.097" class="a"/><path d="M112.78 122.728c-.33.575-.533 1.227-.533 1.816s.204.997.533 1.187c.336.2.792.166 1.302-.126.503-.297.965-.798 1.295-1.373l.015-.033c.324-.57.52-1.207.52-1.782 0-.584-.204-.998-.534-1.188s-.79-.17-1.295.127c-.5.292-.967.793-1.302 1.372zm-1.052-.617c.6-1.047 1.43-1.962 2.354-2.497.916-.53 1.752-.58 2.357-.23h-.004c.607.345.98 1.095.98 2.16s-.373 2.243-.98 3.295-1.437 1.966-2.353 2.496c-.923.53-1.757.583-2.36.234s-.975-1.1-.975-2.166.372-2.243.975-3.3l.005-.004z" class="O"/><path d="M112.757 122.65c.317-.55.752-1.026 1.233-1.31.48-.277.917-.3 1.233-.12v.005c.315.18.51.57.51 1.124 0 .55-.19 1.154-.495 1.698l-.014.025c-.316.55-.753 1.027-1.233 1.31s-.916.307-1.233.12-.51-.574-.51-1.128c0-.56.194-1.178.51-1.724z" class="E"/><path d="M117.363 120.874l.02.152.64.37-.034-.03-.03-.038-.014-.053-.01-.064-.004-.223-.015-.22-.024-.206-.04-.2-.043-.19-.053-.18-.06-.17-.072-.16-.078-.152-.082-.142-.093-.13-.1-.12-.112-.11-.11-.103-.12-.092-.13-.078-13.19-7.636.12.097.117.098.106.11.103.122.092.132.083.14.077.152.068.16.068.17.048.18.05.2.03.2.028.21.015.214.01.223.004.064.016.053.024.04.038.028 7.3 4.225.038-.015.102-.038.063-.025.16-.05.16-.04.15-.03.155-.018.145-.005h.147l.136.01.14.024.13.033.12.04.12.053.117.06 2.553 1.48h-.004c.465.267.8.78.926 1.49h-.001z" class="B"/><path d="M120.337 113.954l-19.353 11.208v6.224l8.954-5.212.286-.502v-.024c.015-1.22.448-2.57 1.14-3.767.694-1.206 1.655-2.258 2.718-2.87 1.057-.613 2.018-.677 2.712-.277.704.4 1.136 1.256 1.14 2.477l.287.166.398-.234c.475-.273.902-.744 1.213-1.285s.504-1.148.504-1.694v-4.21z" class="F"/><path d="M120.337 113.954l-13.32-7.71-19.43 11.247 13.32 7.714 19.43-11.252z" class="B"/><path d="M98.525 114.757v.462l.033.17.05.165.063.17.078.165.092.166.102.16.12.156.136.16.146.152.16.15.174.142.19.145.205.136.217.132.23.126.238.117.242.11.252.104.262.09.262.083.268.078.276.074.277.057.286.054.287.044.286.04.29.03.296.014.29.014.296.005.29-.005.292-.014.295-.015.293-.03.285-.04.286-.044.287-.054.277-.057.272-.074.275-.078.263-.083.257-.09.252-.103.243-.112.237-.117.23-.126.218-.132.204-.136.19-.146.175-.142.16-.15.15-.152.13-.16.122-.156.106-.16.088-.165.078-.166.062-.17.05-.165.034-.17v-.462l-.033.17-.05.17-.062.164-.078.166-.088.166-.106.16-.12.16-.13.156-.146.15-.165.15-.175.145-.19.142-.204.136-.218.132-.23.125-.237.122-.242.108-.253.102-.258.093-.262.087-.27.073-.276.073-.277.06-.286.053-.287.043-.286.04-.29.025-.297.023-.3.01-.293.004-.295-.006-.292-.01-.587-.048-.285-.04-.287-.043-.286-.053-.277-.064-.276-.068-.267-.073-.262-.087-.262-.093-.253-.102-.242-.107-.238-.12-.23-.128-.217-.13-.205-.136-.19-.142-.174-.145-.16-.152-.145-.15-.136-.156-.12-.16-.102-.16-.093-.166-.077-.165-.062-.165-.05-.172-.034-.17" class="a"/><path d="M108.963 111.905c-2.393-1.383-6.274-1.387-8.672 0-2.393 1.387-2.396 3.64 0 5.022 2.392 1.387 6.28 1.387 8.672 0s2.392-3.635 0-5.022" class="O"/><path d="M104.63 117.51c1.364 0 2.733-.3 3.775-.905s1.563-1.397 1.563-2.185c0-.793-.52-1.586-1.563-2.2s-2.41-.906-3.775-.906-2.737.304-3.78.906-1.562 1.397-1.562 2.2c0 .788.524 1.582 1.563 2.185s2.412.905 3.78.905zm3.155-1.265c-.874.506-2.015.754-3.155.754-1.145 0-2.286-.247-3.16-.754-.868-.505-1.306-1.168-1.306-1.825 0-.666.438-1.323 1.306-1.83.874-.505 2.014-.76 3.16-.76 1.14 0 2.28.253 3.155.76s1.31 1.164 1.31 1.83c0 .657-.436 1.32-1.31 1.825z" class="B"/><path d="M122.75 99.427l-13.892-8.044-.758.452v.472l-2.057 1.197-.418-.238-.757.453v.468l-2.058 1.202-.417-.238-.762.447.005.472-2.053 1.198-.427-.244-.762.453v.466l-2.053 1.202-.422-.248-.762.448v.477l-2.052 1.2-.423-.25-.762.453v.47l-2.058 1.198-.422-.243-.762.448.014 13.314 13.893 8.045v-.01l.762-.452.005-.463 2.058-1.197.417.238.757-.452.004-.463 2.058-1.2.418.243.76-.453.005-.462 2.058-1.202.413.238.76-.448.005-.462 2.058-1.202.413.238.76-.452v-.467l2.058-1.197.413.232.76-.446v-.472l2.057-1.198.418.24.756-.452-.014-13.306" fill="#4b6680"/><g class="G"><path d="M102.572 111.14l-13.893-8.045.014 13.315 13.893 8.045-.014-13.315zm3.242-1.873l-13.894-8.044v.472l13.476 7.8.015 12.848.417.24-.014-13.306z"/></g><path d="M105.396 109.49l-13.476-7.796-2.058 1.198 13.48 7.8 2.053-1.202z" class="L"/><path d="M105.396 109.49l-2.053 1.202.01 12.838 2.058-1.197-.015-12.843z" class="H"/><path d="M106.57 108.815l-13.89-8.044-.762.452 13.894 8.044.756-.452z" class="I"/><path d="M106.575 108.814l-.76.453.014 13.306.757-.453-.01-13.306z" class="J"/><path d="M109.05 107.39l-13.893-8.04v.472l13.476 7.797.014 12.837.418.244-.015-13.3" class="G"/><path d="M108.633 107.622l-13.476-7.8-2.057 1.2 13.48 7.8 2.053-1.198" class="L"/><path d="M108.633 107.623l-2.053 1.196.01 12.838 2.057-1.202-.014-12.832z" class="H"/><path d="M109.812 106.94l-13.894-8.044-.762.453 13.893 8.04.762-.448z" class="I"/><path d="M109.812 106.94l-.762.448.015 13.3.76-.453-.014-13.305z" class="J"/><path d="M112.287 105.514l-13.893-8.04v.468l13.476 7.798.02 12.842.413.238-.015-13.304" class="G"/><path d="M111.87 105.744l-13.477-7.802-2.053 1.202 13.476 7.802 2.053-1.202" class="L"/><path d="M111.87 105.744l-2.053 1.202.014 12.838 2.058-1.202-.02-12.838" class="H"/><path d="M113.048 105.062l-13.893-8.04-.762.454 13.893 8.038.762-.453" class="I"/><path d="M113.048 105.062l-.76.454.014 13.304.762-.447-.015-13.31z" class="J"/><path d="M115.524 103.642l-13.894-8.046v.472l13.477 7.798.02 12.842.413.24-.015-13.305" class="G"/><path d="M115.107 103.87l-13.476-7.802-2.054 1.202 13.476 7.802 2.053-1.202" class="L"/><path d="M115.107 103.87l-2.054 1.202.015 12.838 2.058-1.202-.02-12.838" class="H"/><path d="M116.285 103.188l-13.893-8.04-.762.448 13.894 8.045.76-.454z" class="I"/><path d="M116.285 103.188l-.76.454.014 13.304.762-.452-.015-13.306z" class="J"/><path d="M118.756 101.757l-13.89-8.04v.468l13.47 7.797.02 12.848.413.238-.015-13.31" class="G"/><path d="M118.338 101.986l-13.47-7.8-2.058 1.202 13.476 7.8 2.053-1.202z" class="L"/><path d="M118.338 101.986l-2.053 1.203.015 12.837 2.058-1.195-.02-12.844" class="H"/><path d="M119.518 101.306l-13.894-8.04-.757.453 13.89 8.04.76-.452" class="I"/><path d="M119.518 101.306l-.762.452.014 13.306.762-.448-.015-13.3" class="J"/><path d="M103.333 110.688l-13.893-8.04-.762.448 13.892 8.045.762-.453" class="I"/><path d="M103.333 110.688l-.76.452.014 13.306.762-.452-.015-13.306z" class="J"/><path d="M121.988 99.874l-13.89-8.04v.472l13.47 7.797.02 12.843.417.238-.02-13.31" class="G"/><path d="M121.575 100.11L108.1 92.307l-2.057 1.197 13.475 7.802 2.058-1.197z" class="L"/><path d="M121.575 100.11l-2.058 1.197.015 12.838 2.057-1.197-.014-12.838z" class="H"/><path d="M122.75 99.427l-13.892-8.044-.758.452 13.89 8.04.76-.45z" class="I"/><path d="M122.75 99.427l-.76.448.018 13.3.756-.452-.014-13.306" class="J"/><path d="M102.18 111.355l-13.103-7.587.01 12.43 13.108 7.588-.014-12.43z" class="H"/><path d="M101.93 111.57l-12.608-7.3.01 11.874 12.608 7.3-.01-11.875" class="G"/><path d="M93.216 128.803l-7.488-4.333.005.064.02.048.023.045.035.028 7.265 4.205.072-.03.068-.03v.001zm5.832 3.38l-.573-.335.025.15.63.364-.034-.025-.03-.043-.014-.053-.005-.06z" class="B"/><path d="M96.486 132.165l-2.548-1.48v.005l2.548 1.475z" fill="#ccc"/><path d="M93.954 133.664l-.015.03-.063.107-.068.107-.068.102-.072.103-.078.097-.074.092-.077.093-.082.092-.087.083-.082.083-.088.083-.088.073-.092.072-.093.064-.092.063-.097.06-.092.053-.093.044-.092.038-.093.035-.088.03-.086.018-.083.015-.082.014-.083.005-.082-.005-.073-.005-.078-.014-.074-.014-.067-.025-.064-.03-.067-.034 2.552 1.48.063.033.068.025.068.024.073.02.073.01.155.01.083-.005.083-.01.087-.02.088-.02.087-.03.088-.034.093-.038.09-.045.098-.053.092-.058.093-.058.092-.07.093-.073.086-.073.093-.078.083-.087.082-.083.083-.088.078-.092.078-.098.073-.097.072-.102.068-.102.067-.107.063-.107.014-.03.063-.1.053-.102.053-.113.097-.224.044-.11.038-.117.068-.224.024-.117.03-.112.014-.107.02-.117.01-.11.004-.108.005-.107-.01-.214-.014-.097-.015-.097-.02-.088-.024-.088-.03-.083-.03-.078-.038-.072-.044-.07-.043-.063-.048-.058-.05-.054-.057-.048-.053-.045-.064-.038-2.548-1.475.06.04.06.043.053.05.053.053.05.06.044.064.038.067.04.073.03.078.057.165.02.093.02.097.005.097.01.103v.214l-.01.11-.005.112-.02.113-.02.1-.024.114-.03.11-.03.117-.078.224-.038.11-.048.112-.048.113-.053.112-.06.107-.058.11" class="B"/><path d="M90.284 131.576l.117-.2.12-.2.127-.19.13-.18.136-.18.136-.175.145-.165.146-.166.155-.156.15-.15.16-.142.16-.135.164-.13.17-.122.165-.113.17-.1.175-.098.17-.082.165-.07.165-.063.16-.048.16-.045.156-.03.15-.014.145-.01h.146l.14.015.135.02.13.034.12.044.122.048.117.06 2.552 1.48-.116-.064-.12-.048-.127-.044-.13-.03-.136-.023-.136-.01-.146-.005-.15.01-.15.02-.155.028-.155.04-.16.05-.17.063-.165.068-.165.088-.174.092-.17.107-.17.107-.17.12-.16.132-.164.137-.155.14-.156.155-.15.156-.145.16-.146.17-.14.17-.136.18-.13.185-.126.185-.12.195-.112.195-.06.097-.053.102-.053.098-.053.1-.097.205-.05.102-.043.103-.048.1-.044.103-.038.107-.04.102-.038.107-.034.102-.068.2-.03.107-.028.1-.03.108-.023.107-.024.102-.02.102-.02.107-.02.102-.014.103-.014.102-.01.108-.014.1-.005.102-.005.098-.005.103v.1l.005.195.01.2.025.18.03.17.04.17.044.155.053.152.06.135.068.137.073.12.077.113.093.107.093.097.097.092.106.078.11.073-2.552-1.48-.11-.068-.102-.083-.1-.088-.093-.097-.088-.107-.083-.112-.073-.126-.064-.132-.063-.14-.053-.146-.043-.16-.034-.166-.033-.17-.02-.185-.01-.185-.01-.2.01-.2v-.1l.01-.103.01-.102.01-.102.014-.102.02-.103.02-.107.014-.1.024-.108.02-.103.028-.106.024-.102.03-.107.033-.102.035-.107.03-.107.04-.104.034-.1.043-.108.04-.1.088-.205.043-.102.048-.103.048-.1.053-.103.05-.102.053-.098.053-.1.057-.098" class="a"/><path d="M93.896 133.67c-.335.574-.54 1.226-.54 1.8s.204.998.54 1.192.786.165 1.296-.132c.504-.29.965-.797 1.295-1.37l.014-.03c.325-.568.524-1.205.524-1.78 0-.584-.204-.997-.538-1.192-.33-.2-.79-.166-1.295.126-.5.297-.967.798-1.296 1.378zm-1.058-.618c.6-1.05 1.43-1.967 2.354-2.497s1.75-.584 2.358-.233.976 1.1.976 2.165-.374 2.244-.976 3.295c-.606 1.046-1.44 1.96-2.358 2.492-.923.535-1.753.584-2.354.238-.608-.35-.98-1.1-.98-2.165s.374-2.243.98-3.295z" class="O"/><path d="M93.866 133.586c.316-.55.752-1.027 1.233-1.304.48-.283.916-.307 1.233-.12s.5.574.5 1.133c0 .54-.184 1.15-.496 1.69l-.014.033c-.315.546-.753 1.022-1.233 1.306-.48.272-.916.3-1.232.12-.316-.185-.5-.58-.5-1.135s.194-1.17.5-1.722zm16.35-14.62l-7.242-4.19 7.242 4.195v-.006zm6.08 3.524l-.864-.502.864.502z" class="E"/><path d="M97.918 129.678l-13.194-7.63.12.092.117.103.106.11.097.12.093.138.087.14.08.156.067.16.064.175.053.18.043.2.03.2.03.21.014.22.005.23 7.488 4.332.097-.035.16-.048.16-.045.156-.03.15-.014.145-.01h.146l.14.015.135.02.13.035.12.043.122.05.117.058 2.553 1.48c.475.276.806.798.927 1.528l.573.335-.005-.228-.02-.22-.018-.21-.034-.2-.043-.2-.053-.18-.064-.174-.068-.162-.078-.156-.082-.14-.092-.136-.102-.12-.106-.113-.117-.1-.12-.093-.127-.083" class="B"/><g class="E"><path d="M89.838 137.513l-13.32-7.713.005.063.02.054.023.038.034.03 13.32 7.713-.034-.03-.025-.038-.02-.054-.004-.064zm3.378-8.7L86 124.636l7.202 4.167h.005zm6.114 3.542l-.854-.496v.005l.854.496v-.005z"/><path d="M92.105 120.043l-13.32-7.715-.107.166-.145.25-.045.087-.043.092-.04.088-.038.087-.034.088-.034.093-.028.092-.03.088-.03.09-.024.094-.02.09-1.586 7.485v.015l-.01.04-.005.035-.004.033-.005.035-.01.034-.005.033-.005.035-.004.034v.038l-.01.07v.073l-.005.034v8.074l13.32 7.713V129.4l.005-.035v-.033l.005-.034v-.04l.005-.033.004-.035.005-.034.005-.033.005-.034.01-.035.004-.034.005-.033.01-.04.005-.014 1.58-7.485.024-.093.02-.092.03-.092.028-.088.03-.093.033-.092.034-.088.038-.088.04-.092.088-.176.048-.083.043-.086.053-.083.05-.083.058-.078"/></g><path d="M100.984 125.162V114.83l-.28-.164-7.56 4.374-1.037 1.004a4.02 4.02 0 0 0-.617 1.406l-1.586 7.5-.048.278-.015.276v8.01l.286.166.923-.53.286-.502c0-1.232.432-2.598 1.13-3.8l.014-.025c.695-1.2 1.655-2.248 2.713-2.86s2.028-.677 2.727-.273 1.13 1.27 1.13 2.507l.282.16v.004l1.653-.964v-6.224z" class="F"/><path d="M107.672 123.137l-.66-.38-.04-.015h-.05l-.053.01-.058.025-5.586 3.236-.057.043-.053.05-.05.06-.043.063-.034.073-.03.067-.014.074-.005.068.005 4.91-.35.204 1.08.628-.033-.03-.024-.04-.015-.053-.01-.063v-5.174l.01-.073.015-.073.024-.068.033-.073.045-.063.048-.06.058-.048.054-.04 5.643-3.265.053-.01h.05l.044.015" class="B"/><path d="M101.597 131.464v.604l.286.165 5.6-3.236.28-.487v-5.192l-.28-.157-5.6 3.236-.286.498v4.57z" class="O"/><path d="M98.742 117.663l-4.93 2.856-.606.583-.36.823-1.305 6.157.2.292.077-.034 6.924-4 .287-.497v-6.005l-.287-.165z" fill="#6fc02e"/><path d="M90.518 120.89l-11.356-6.576-1.592 7.48 11.365 6.575 1.58-7.48" fill="#79c732"/><path d="M89.454 125.926l-5.725-3.246-1.078-1.928-2.974-1.683-1.612.403-.495 2.322 11.365 6.575.52-2.443zm2.397.686l-.3 1.47.2.293.077-.034 6.924-4 .287-.497v-1.046l-7.177 3.825" fill="#539d1e"/><path d="M78.72 128.393l.262-.15.073-.054.063-.057.058-.078.043-.082.043-.1.024-.107.015-.12.005-.126-.005-.137-.015-.14-.025-.136-.043-.142-.043-.14-.058-.136-.063-.14-.073-.13-.078-.127-.087-.127-.093-.116-.097-.112-.102-.102-.106-.093-.11-.088-.113-.067-.116-.064-.112-.044-.102-.03-.106-.02h-.098l-.092.01-.087.03-.078.034-.262.155.078-.038.087-.025.092-.01h.097l.102.014.107.03.11.047.112.06.117.074.11.082.108.092.1.107.098.107.093.118.087.126.078.13.067.132.07.136.053.142.048.136.038.14.03.142.014.135.004.136-.004.132-.015.117-.03.11-.038.093-.048.087-.053.073-.07.064-.067.048" fill="#f0b11d"/><path d="M77.93 128.316c.617.354 1.116.068 1.116-.648s-.5-1.582-1.116-1.937-1.116-.068-1.116.647.5 1.582 1.116 1.938" fill="#ffcb05"/><path d="M75.236 128.257l1.28-.74v.705l13.32 7.715 1.296-.75.61.35-1.966 1.136-14.543-8.42" class="X"/><path d="M89.78 136.676l1.966-1.138v2.15l-1.966 1.138v-2.15z" class="F"/><path d="M75.236 130.41v-2.152l14.543 8.418v2.15l-14.543-8.418" class="E"/><path d="M81.506 126.286v3.085l.053.098.73.418v-3.182l-.718-.414-.063-.005zm2.053 4.34v-3.187l-.78-.448v3.178l.78.457zm.5-2.904v3.188l.786.452v-3.183l-.786-.457zm-3.037 1.43v-3.182l-.782-.453v3.182l.782.453zm5.037 2.91v-3.183l-.78-.452v3.18l.78.454z" class="F"/><path d="M88.625 134.112l.267-.156.068-.05.068-.063.053-.073.05-.088.038-.097.03-.107.014-.12.004-.127-.004-.132-.015-.14-.03-.14-.038-.142-.05-.14-.054-.137-.068-.136-.067-.136-.165-.253-.093-.117-.102-.11-.102-.103-.107-.092-.112-.083-.11-.078-.117-.058-.107-.045-.106-.028-.103-.015-.1-.005-.09.015-.087.02-.083.044-.262.15.078-.04.086-.025.093-.01h.097l.102.016.107.034.11.043.117.06.11.073.113.082.106.094.1.1.098.114.093.12.086.12.08.132.073.13.062.137.107.282.034.14.03.136.014.137.004.14-.004.126-.015.117-.03.106-.034.1-.053.086-.053.074-.063.063-.073.053" fill="#f0b11d"/><path d="M87.84 134.03c.617.36 1.11.068 1.11-.643s-.495-1.586-1.11-1.94-1.116-.07-1.116.646.494 1.583 1.116 1.938z" fill="#ffcb05"/><path d="M85.267 128.428l.78.452v2.278l-.78.452v-3.182zm-1.218-.702l.786.453v2.278l-.786.452v-3.183zm-1.272-.735l.782.448v2.278l-.78.452-.001-3.178zm-1.27-.74l.782.454v2.277l-.782.453v-3.184zm-1.276-.734l.782.452v2.273l-.782.457v-3.18" class="B"/><path d="M106.77 125.21l-.22-.12-.03-.02-.024-.024-.02-.034-.02-.03-.02-.038-.01-.05-.004-.044-.005-.053.005-.054.004-.06.01-.057.02-.053.02-.06.02-.054.024-.058.03-.054.034-.053.033-.05.04-.048.038-.045.044-.043.043-.04.045-.03.043-.03.05-.025.043-.018.044-.01.038-.01h.045l.033.006.034.01.035.014.213.127-.034-.02-.034-.01-.04-.005h-.04l-.038.01-.045.01-.043.02-.043.024-.048.03-.05.035-.038.038-.044.04-.04.05-.04.048-.033.05-.03.053-.032.054-.025.053-.024.06-.015.053-.02.06-.01.053-.005.06-.004.054.004.053.005.05.01.043.02.04.014.033.024.03.024.024.035.02z" class="F"/><path d="M107.1 125.18l-.456-.263.456-.783.446.263-.446.784" class="B"/><path d="M91.498 125.473l.538-.316 1.693.978-.544.316-1.688-.978" class="X"/><path d="M93.187 126.45l.544-.316v3.182l-.544.317v-3.182" class="F"/><path d="M91.498 128.656v-3.183l1.69.978v3.183l-1.69-.978" class="E"/><path d="M90.643 127.357l.544-.317.31.18v.627l-.854-.49" class="X"/><path d="M90.643 128.16v-.803l.855.49v.808l-.854-.496" class="E"/><path d="M75.09 115.97l.544-.31 1.688.978-.544.316-1.688-.983" class="X"/><path d="M76.78 116.95l.544-.316v1.086l-.505 2.394-.04.02v-3.184z" class="F"/><path d="M75.09 119.157v-3.188l1.688.983v3.182l-1.688-.978" class="E"/><path d="M79.822 111.325l-.072.05-.073.043-.073.05-.068.053-.068.054-.068.06-.068.058-.07.063-.063.063-.127.136-.062.073-.058.074-.064.078-.053.073-.053.078 13.32 7.713.053-.078.06-.074.06-.077.058-.073.063-.072.063-.07.064-.068.063-.063.068-.063.068-.06.068-.058.068-.054.072-.053.07-.05.073-.045.073-.048 7.56-4.373.107-.04-.058-.03-13.244-7.66-.048-.004-.053.01-.06.03-7.526 4.355" fill="#bdbdbd"/><path d="M97.068 126.48l2.14-1.24.248.14-2.145 1.24-.242-.142" class="B"/><path d="M97.31 126.622l2.145-1.24v.53l-2.145 1.24v-.53" class="O"/><path d="M97.068 127.01v-.53l.243.142v.53l-.242-.14" class="B"/><g class="b"><path d="M93.258 142.715l31.282-18.12 42.444 24.586-31.282 18.12-42.444-24.584z" class="P"/><g class="Q"><path d="M93.258 142.715v1.926l42.444 24.586V167.3l-42.444-24.585z"/><path d="M135.702 167.3v1.928l31.282-18.12v-1.926l-31.282 18.12z"/></g><path d="M93.258 142.715l31.282-18.12-28.45 18.027 39.613 24.678-42.444-24.584z" class="R"/><path d="M145.5 131.615v19.047l-9.9 5.765V137.38l9.9-5.764z" class="K"/><path d="M135.6 137.38v19.048l-9.9-5.765v-19.047l9.9 5.764z" class="C"/><path d="M125.698 131.615l9.9-5.766 9.9 5.766-9.9 5.764-9.9-5.764z" class="D"/><path d="M121.907 156.994v-5.714l13.52 7.872v5.715l-13.52-7.873z" class="C"/><path d="M160.788 144.497v5.714l-25.36 14.656v-5.715l25.36-14.655z" class="K"/><path d="M135.428 159.152l-13.52-7.872 7.22-4.205 6.3 3.668 18.138-10.45 7.222 4.205-25.36 14.655z" class="D"/><path d="M115.46 126.507v16.188l-5.47 3.186v-16.19l5.47-3.185z" class="K"/><path d="M109.988 129.692v16.19l-5.47-3.186v-16.188l5.47 3.185z" class="C"/><path d="M104.517 126.507l5.47-3.185 5.47 3.185-5.47 3.185-5.47-3.185z" class="D"/></g></g><defs><clipPath id="A"><path d="M0 0h160v160H0z" class="C"/></clipPath></defs></svg>