<svg width="160" height="160" viewBox="0 0 160 160" fill="none" xmlns="http://www.w3.org/2000/svg">
<mask id="mask0_647:2" style="mask-type:alpha" maskUnits="userSpaceOnUse" x="0" y="0" width="160" height="160">
<rect width="160" height="160" fill="white"/>
</mask>
<g mask="url(#mask0_647:2)">
<path opacity="0.25" d="M60.7662 116.531L62.6886 115.414L82.8715 127.067L80.9492 128.184L60.7662 116.531Z" fill="#39444F"/>
<path opacity="0.25" d="M51.0901 115.117L53.0125 114L73.1954 125.653L71.2731 126.771L51.0901 115.117Z" fill="#39444F"/>
<path opacity="0.25" d="M52.288 127.402L54.2071 126.284L74.3901 137.937L72.471 139.055L52.288 127.402Z" fill="#39444F"/>
<path d="M60.7662 83.5309L80.9492 95.1841L80.859 127.004L60.6761 115.351L60.7662 83.5309Z" fill="#BADDF9"/>
<path d="M60.7668 83.5309L62.6891 82.4136L82.8721 94.0668L80.9497 95.1841L60.7668 83.5309Z" fill="#E3F1FC"/>
<path d="M80.9492 95.1841L82.8716 94.0668L82.7814 125.887L80.8591 127.004L80.9492 95.1841Z" fill="#8FC9F7"/>
<path d="M78.795 121.955L78.7918 123.005L69.2284 117.483L69.2316 116.433L78.795 121.955Z" fill="#546E7A"/>
<path d="M78.8433 105.018L78.8401 106.068L65.535 98.3848L65.5383 97.3383L78.8433 105.018Z" fill="#546E7A"/>
<path d="M78.8079 117.859L78.8047 118.906L69.238 113.384L69.2413 112.337L78.8079 117.859Z" fill="#546E7A"/>
<path d="M78.8143 115.911L78.8111 116.958L69.2445 111.435L69.2477 110.386L78.8143 115.911Z" fill="#546E7A"/>
<path d="M78.8336 109.149L78.8304 110.196L62.4374 100.732L62.4406 99.6857L78.8336 109.149Z" fill="#546E7A"/>
<path d="M78.8369 107.082L78.8336 108.132L62.4438 98.6681L62.4471 97.6184L78.8369 107.082Z" fill="#546E7A"/>
<path d="M78.8015 120.007L78.7983 121.054L69.2349 115.531V114.485L78.8015 120.007Z" fill="#546E7A"/>
<path d="M78.8272 111.213L78.824 112.263L62.431 102.796L62.4342 101.75L78.8272 111.213Z" fill="#546E7A"/>
<path d="M72.033 95.8796L72.0298 96.9293L62.4632 91.407L62.4664 90.3573L72.033 95.8796Z" fill="#546E7A"/>
<path d="M72.0372 93.9315L72.034 94.9812L62.4706 89.4589L62.4738 88.4092L72.0372 93.9315Z" fill="#546E7A"/>
<path d="M51.0902 82.1174L71.2731 93.7705L71.183 125.591L51 113.937L51.0902 82.1174Z" fill="#BADDF9"/>
<path d="M51.0907 82.1173L53.013 81L73.196 92.6532L71.2737 93.7705L51.0907 82.1173Z" fill="#E3F1FC"/>
<path d="M71.2731 93.7705L73.1955 92.6532L73.1053 124.473L71.183 125.591L71.2731 93.7705Z" fill="#8FC9F7"/>
<path d="M69.1221 120.542L69.1189 121.591L59.5523 116.069L59.5555 115.019L69.1221 120.542Z" fill="#546E7A"/>
<path d="M69.1672 103.604V104.654L55.8622 96.9712L55.8654 95.9247L69.1672 103.604Z" fill="#546E7A"/>
<path d="M69.1318 116.446L69.1286 117.492L59.5652 111.97L59.5684 110.923L69.1318 116.446Z" fill="#546E7A"/>
<path d="M69.1383 114.498L69.135 115.544L59.5684 110.022L59.5716 108.975L69.1383 114.498Z" fill="#546E7A"/>
<path d="M69.1576 107.736L69.1544 108.785L52.7614 99.3186L52.7646 98.2721L69.1576 107.736Z" fill="#546E7A"/>
<path d="M69.164 105.668L69.1608 106.718L52.7678 97.2546L52.771 96.2049L69.164 105.668Z" fill="#546E7A"/>
<path d="M69.1253 118.594L69.1221 119.643L59.5587 114.118L59.5619 113.071L69.1253 118.594Z" fill="#546E7A"/>
<path d="M69.1511 109.8L69.1479 110.849L52.7549 101.383L52.7581 100.336L69.1511 109.8Z" fill="#546E7A"/>
<path d="M62.3569 94.466L62.3537 95.5158L52.7871 89.9935L52.7903 88.9437L62.3569 94.466Z" fill="#546E7A"/>
<path d="M62.3643 92.5179L62.3611 93.5677L52.7945 88.0454L52.7977 86.9957L62.3643 92.5179Z" fill="#546E7A"/>
<path d="M52.288 94.4017L72.471 106.055L72.3808 137.875L52.1979 126.222L52.288 94.4017Z" fill="#BADDF9"/>
<path d="M52.2886 94.4016L54.2077 93.2843L74.3906 104.937L72.4715 106.055L52.2886 94.4016Z" fill="#E3F1FC"/>
<path d="M72.471 106.055L74.3901 104.937L74.3032 136.758L72.3809 137.875L72.471 106.055Z" fill="#8FC9F7"/>
<path d="M70.3168 132.826L70.3136 133.876L60.7502 128.353V127.304L70.3168 132.826Z" fill="#546E7A"/>
<path d="M70.3651 115.889L70.3619 116.938L57.0568 109.256L57.06 108.209L70.3651 115.889Z" fill="#546E7A"/>
<path d="M70.3297 128.73L70.3264 129.777L60.7598 124.254L60.763 123.208L70.3297 128.73Z" fill="#546E7A"/>
<path d="M70.3329 126.782L70.3297 127.828L60.7663 122.306L60.7695 121.26L70.3329 126.782Z" fill="#546E7A"/>
<path d="M70.3522 120.02L70.349 121.066L53.9592 111.603V110.556L70.3522 120.02Z" fill="#546E7A"/>
<path d="M70.3586 117.953L70.3554 119.002L53.9624 109.539L53.9656 108.489L70.3586 117.953Z" fill="#546E7A"/>
<path d="M70.3233 130.878L70.32 131.924L60.7534 126.402L60.7566 125.356L70.3233 130.878Z" fill="#546E7A"/>
<path d="M70.3458 122.084L70.3426 123.134L53.9528 113.667L53.956 112.62L70.3458 122.084Z" fill="#546E7A"/>
<path d="M63.5516 106.75L63.5484 107.8L53.985 102.278L53.9882 101.228L63.5516 106.75Z" fill="#546E7A"/>
<path d="M63.5589 104.802L63.5557 105.852L53.9891 100.33L53.9923 99.28L63.5589 104.802Z" fill="#546E7A"/>
<g opacity="0.35">
<path opacity="0.82" d="M118.119 49L144.842 64.4302L144.723 106.561L118 91.1305L118.119 49Z" fill="#478CC8"/>
</g>
<path d="M136 64.8739L137.642 63.9208L141.509 61.7409L139.867 62.694L136 64.8739Z" fill="#920112"/>
<path d="M143.728 64.9351L145.37 63.9788L149.196 70.6249L147.553 71.578L143.728 64.9351Z" fill="#920112"/>
<path d="M136.045 56.0479L137.688 55.0916L139.629 54L137.987 54.9531L136.045 56.0479Z" fill="#920112"/>
<path d="M137.987 54.9531L139.629 54L143.451 60.6429L141.809 61.5992L137.987 54.9531Z" fill="#920112"/>
<path d="M145.679 59.416L147.322 58.4629L149.237 61.7988L147.595 62.752L145.679 59.416Z" fill="#920112"/>
<path d="M141.809 61.5992L143.451 60.6429L147.322 58.4629L145.679 59.416L141.809 61.5992Z" fill="#920112"/>
<path d="M137.987 54.9531L141.809 61.5992L145.679 59.416L147.595 62.752L143.728 64.9351L147.553 71.578L145.608 72.676L141.786 66.0299L137.919 68.2131L136 64.8739L139.867 62.694L136.045 56.0479L137.987 54.9531Z" fill="#D0021B"/>
<path d="M145.37 63.9788L143.728 64.9351L144.771 66.7415L147.206 67.1666L145.37 63.9788Z" fill="#B5000F"/>
<path d="M134.933 149.476L133.01 150.593C133.484 150.316 133.777 149.733 133.78 148.899L135.702 147.782C135.702 148.616 135.406 149.199 134.933 149.476Z" fill="#39444F"/>
<path d="M90.5062 60.3073L92.4285 59.19C92.9083 58.9099 93.5716 58.9517 94.3058 59.3735L92.3834 60.4909C91.6525 60.0658 90.9859 60.0272 90.5062 60.3073Z" fill="#CCCCCC"/>
<path d="M133.954 87.5292L135.876 86.4119L135.702 147.782L133.783 148.899L133.954 87.5292Z" fill="#596E81"/>
<path d="M92.3867 60.4909L94.3058 59.3735L133.245 81.8588L131.326 82.9729L92.3867 60.4909Z" fill="#596E81"/>
<path d="M131.326 82.9729C132.782 83.8133 133.96 85.8516 133.957 87.5292L133.783 148.899C133.78 150.574 132.592 151.25 131.136 150.409L92.1967 127.927C90.738 127.084 89.5627 125.045 89.5659 123.371L89.7398 62.001C89.743 60.3234 90.928 59.6504 92.3866 60.4909L131.326 82.9729Z" fill="#39444F"/>
<path d="M131.326 82.9729L133.248 81.8555C134.704 82.696 135.882 84.7342 135.879 86.4118L133.957 87.5292C133.96 85.8548 132.782 83.8165 131.326 82.9729Z" fill="#596E81"/>
<path d="M132.012 86.7371L131.857 141.609L91.5076 118.312V63.4404L132.012 86.7371Z" fill="#478CC8"/>
<path opacity="0.3" fill-rule="evenodd" clip-rule="evenodd" d="M126.57 90.2424L103.808 77.1015L103.708 112.985L122.237 123.682C123.095 124.477 123.984 125.14 124.873 125.654C126.86 126.8 128.847 127.203 130.492 126.659L131.155 127.805L131.925 127.367L131.967 112.751C131.774 112.362 131.561 111.969 131.336 111.576C129.977 109.222 128.291 107.285 126.527 105.907L126.57 90.2424ZM126.478 123.573L126.519 108.755C127.655 109.733 128.73 111.026 129.616 112.558C132.205 117.034 132.189 121.867 129.587 123.352C128.696 123.859 127.615 123.909 126.478 123.573ZM131.159 127.808L130.634 128.108V128.684L131.919 130.909L131.928 127.37L131.159 127.808Z" fill="#39444F"/>
<path d="M117.747 92.9542L117.683 115.51L98.3694 104.359L98.4338 81.8033L117.747 92.9542Z" fill="white"/>
<path d="M98.4338 81.8033L100.356 80.6859L119.666 91.8368L117.747 92.9541L98.4338 81.8033Z" fill="white"/>
<path d="M117.747 92.9542L119.666 91.8368L119.605 114.393L117.683 115.51L117.747 92.9542Z" fill="white"/>
<path d="M97.1973 79.4109L118.994 91.9946L118.903 124.484L97.1039 111.901L97.1973 79.4109Z" fill="#BADDF9"/>
<path d="M118.994 91.9946L120.913 90.8773L120.822 123.37L118.9 124.488L118.994 91.9946Z" fill="#8FC9F7"/>
<path d="M97.1979 79.4108L99.1203 78.2935L120.913 90.8773L118.994 91.9946L97.1979 79.4108Z" fill="#E3F1FC"/>
<path d="M108.928 115.897L108.925 117.001L98.3276 110.883L98.3308 109.779L108.928 115.897Z" fill="#64B4F5"/>
<path d="M103.985 110.912L103.982 112.02L98.3308 108.758L98.334 107.65L103.985 110.912Z" fill="#64B4F5"/>
<path d="M111.03 114.982L111.027 116.087L105.376 112.825V111.717L111.03 114.982Z" fill="#64B4F5"/>
<path d="M113.191 114.171L113.188 115.275L98.3372 106.704L98.3404 105.596L113.191 114.171Z" fill="#64B4F5"/>
<path d="M108.928 107.682L108.925 108.79L98.3276 102.672L98.3308 101.564L108.928 107.682Z" fill="#64B4F5"/>
<path d="M103.985 102.701L103.982 103.809L98.3308 100.544L98.334 99.4392L103.985 102.701Z" fill="#64B4F5"/>
<path d="M113.191 105.956L113.188 107.064L98.3372 98.4893L98.3404 97.3848L113.191 105.956Z" fill="#64B4F5"/>
<path d="M103.985 95.9874L103.982 97.095L98.3308 93.8332L98.334 92.7255L103.985 95.9874Z" fill="#64B4F5"/>
<path d="M113.192 99.2428L113.189 100.35L98.3384 91.7756L98.3417 90.6711L113.192 99.2428Z" fill="#64B4F5"/>
<path d="M109.05 110.518L110.972 109.401C108.37 110.886 108.357 115.716 110.943 120.195C112.234 122.432 113.934 124.162 115.634 125.14C117.335 126.123 119.035 126.358 120.336 125.617L118.413 126.734C117.112 127.475 115.409 127.24 113.712 126.258C112.012 125.276 110.315 123.55 109.021 121.312C106.435 116.833 106.448 112 109.05 110.518Z" fill="#DDDFE1"/>
<path d="M120.828 129.182L122.751 128.064L123.414 129.214L121.492 130.331L120.828 129.182Z" fill="#B8B8B8"/>
<path d="M120.162 114.962L122.084 113.845C125.359 119.515 125.575 125.601 122.751 128.064L120.828 129.182C123.652 126.718 123.433 120.632 120.162 114.962Z" fill="#DDDFE1"/>
<path d="M107.343 107.563L109.265 106.445C111.04 105.434 113.364 105.756 115.683 107.096C118.001 108.435 120.32 110.792 122.081 113.845L120.159 114.962C118.394 111.906 116.079 109.552 113.76 108.213C111.442 106.873 109.12 106.551 107.343 107.563Z" fill="#DDDFE1"/>
<path d="M120.162 114.962C123.437 120.633 123.652 126.718 120.828 129.182L121.492 130.331L119.981 131.191L119.318 130.045C117.673 130.589 115.686 130.186 113.699 129.04C111.381 127.7 109.066 125.347 107.301 122.291C103.772 116.179 103.791 109.585 107.343 107.563C109.117 106.551 111.442 106.873 113.76 108.213C116.079 109.552 118.397 111.906 120.162 114.962ZM118.41 126.734C121.012 125.25 121.025 120.42 118.439 115.941C117.148 113.703 115.448 111.974 113.748 110.995C112.047 110.013 110.347 109.778 109.046 110.518C106.445 112.003 106.432 116.833 109.017 121.312C110.309 123.55 112.009 125.279 113.709 126.258C115.409 127.24 117.109 127.475 118.41 126.734Z" fill="white"/>
<path d="M119.46 131.49L121.379 130.373L121.904 130.074L119.981 131.191L119.46 131.49Z" fill="#64B82A"/>
<path d="M119.981 131.191L121.904 130.074L123.414 129.214L121.492 130.331L119.981 131.191Z" fill="#64B82A"/>
<path d="M121.492 130.331L123.414 129.214L123.936 128.914L122.017 130.032L121.492 130.331Z" fill="#64B82A"/>
<path d="M129.883 143.082L131.805 141.965C131.805 142.19 131.805 142.316 131.802 142.541L129.88 143.659C129.883 143.433 129.883 143.305 129.883 143.082Z" fill="#3D7915"/>
<path d="M122.016 130.032L123.939 128.914C124.135 129.027 124.245 129.091 124.441 129.204L122.519 130.321C122.322 130.209 122.213 130.144 122.016 130.032Z" fill="#55A120"/>
<path d="M122.519 130.321L129.883 143.082C129.883 143.308 129.883 143.433 129.88 143.659L127.32 145.114C127.123 145.001 127.014 144.937 126.817 144.824L119.453 132.067C119.453 131.841 119.453 131.716 119.453 131.49L119.978 131.191L121.488 130.331L122.013 130.032C122.213 130.144 122.322 130.209 122.519 130.321Z" fill="#64B82A"/>
<path d="M122.519 130.321L124.438 129.204L131.805 141.965L129.883 143.082L122.519 130.321Z" fill="#55A120"/>
<path d="M108.818 130.716C109.852 131.312 110.686 132.757 110.683 133.946C110.679 135.131 109.839 135.61 108.805 135.015C107.772 134.419 106.938 132.973 106.941 131.788C106.947 130.6 107.788 130.12 108.818 130.716Z" fill="#478CC8"/>
<g opacity="0.25">
<path d="M90 128.231L92.0667 127L134 151.773L131.933 153L90 128.231Z" fill="#39444F"/>
</g>
<mask id="mask1_647:2" style="mask-type:alpha" maskUnits="userSpaceOnUse" x="52" y="94" width="21" height="44">
<path d="M52.288 94.4016L72.471 106.055L72.3808 137.875L52.1979 126.222L52.288 94.4016Z" fill="#BADDF9"/>
</mask>
<g mask="url(#mask1_647:2)">
<path opacity="0.5" d="M64.6327 120.064L53.3531 126.395L49.679 120L47 121.51L53.089 132.114L67.0316 124.238L64.6327 120.064Z" fill="#39444F"/>
</g>
<path d="M40 121.83L42.2669 120.51L44.9491 119L42.679 120.32L40 121.83Z" fill="#9BCB66"/>
<path d="M42.679 120.32L44.9491 119L48.6231 125.398L46.353 126.715L42.679 120.32Z" fill="#64B82A"/>
<path d="M46.089 132.434L46.4078 132.988L60.3665 125.144L60.0316 124.558L46.089 132.434Z" fill="#9BCB66"/>
<path d="M57.6327 120.385L46.3531 126.715L42.679 120.32L40 121.83L46.089 132.434L60.0316 124.558L57.6327 120.385Z" fill="#ADD481"/>
<path d="M57.6327 120.385L59.9028 119.064L62.6366 123.824L60.3665 125.144L57.6327 120.385Z" fill="#64B82A"/>
<path d="M46.3531 126.715L48.6232 125.398L59.9028 119.064L57.6327 120.385L46.3531 126.715Z" fill="#9BCB66"/>
</g>
</svg>
