<svg xmlns="http://www.w3.org/2000/svg" xmlns:xlink="http://www.w3.org/1999/xlink" width="20" height="20" fill="none"><path d="M8.237 0h1.172v3.037H8.237V0zm2.354 0h1.172v3.037h-1.172V0zM8.237 16.963h1.172V20H8.237v-3.037zm2.354 0h1.172V20h-1.172v-3.037zm6.47-7.549H20v1.172h-2.939V9.414zM0 9.414h2.939v1.172H0V9.414zm0-3.53h3.884v1.172H0V5.884zm0 7.06h3.884v1.172H0v-1.172zm16.116-7.06H20v1.172h-3.884V5.884zm0 7.06H20v1.172h-3.884v-1.172zM6.281 4.672L4.66 1.836H1.743V.664H5.34l1.958 3.427-1.017.581zm7.438 0l-1.018-.581L14.66.664h3.597v1.172H15.34l-1.621 2.836z" fill="#39444f"/><use xlink:href="#zzccvvv" fill="#478cc8"/><path d="M5.34 19.336H1.743v-1.172H4.66l1.621-2.836 1.017.581-1.958 3.427zm12.917 0H14.66l-1.958-3.427 1.018-.581 1.621 2.836h2.917v1.172z" fill="#39444f"/><g fill="#478cc8"><use xlink:href="#zzccvvv" x="17.5"/><use xlink:href="#zzccvvv" y="17.5"/></g><path d="M10 17.5a7.5 7.5 0 100-15 7.5 7.5 0 100 15z" fill="#e8f4ff"/><g fill="#478cc8"><path d="M11.176 7.647H9.414v4.706h1.172v-1.179h.59c.973 0 1.764-.791 1.764-1.764s-.791-1.764-1.764-1.764zm0 2.355h-.59V8.819h.59a.593.593 0 010 1.184zM6.704 7.647c-.972 0-1.763.791-1.763 1.763v2.944h1.172v-1.179h1.182v1.179h1.172V9.409c0-.972-.791-1.763-1.763-1.763zm-.591 2.355v-.593a.591.591 0 111.182 0v.593H6.113zm7.592-2.356h1.172v4.707h-1.172V7.646z"/><use xlink:href="#zzccvvv" x="17.5" y="17.5"/></g><defs><path id="zzccvvv" d="M1.25 2.5a1.25 1.25 0 100-2.5 1.25 1.25 0 100 2.5z"/></defs></svg>