<svg xmlns="http://www.w3.org/2000/svg" width="103" height="33" fill="none"><path fill="#000" d="M5.851 33c-.235 0-.465 0-.699-.01a8.91 8.91 0 01-1.445-.138 4.258 4.258 0 01-1.28-.466 4.202 4.202 0 01-1.078-.866 4.522 4.522 0 01-.79-1.189 5.228 5.228 0 01-.419-1.41 11.637 11.637 0 01-.128-1.593C.007 27.148 0 26.55 0 26.55V6.44s.007-.59.012-.759A11.48 11.48 0 01.14 4.088c.074-.492.215-.968.419-1.413A4.6 4.6 0 012.429.609 4.25 4.25 0 013.706.146 8.89 8.89 0 015.155.01L5.85 0h91.294l.706.01c.48.007.96.053 1.435.14.449.083.884.24 1.291.465.397.225.76.516 1.075.865.319.35.585.754.791 1.195.201.443.341.916.413 1.404.082.531.128 1.068.138 1.606v.759c.006.318.006.622.006.928V25.63c0 .308 0 .61-.006.914v.792c-.01.528-.055 1.054-.135 1.575-.071.494-.21.974-.413 1.421a4.668 4.668 0 01-.786 1.18 4.223 4.223 0 01-2.369 1.338 8.797 8.797 0 01-1.445.139 26.65 26.65 0 01-.694.009h-.838L5.852 33z"/><path fill="#fff" d="M38.026 21.92h-3.62l-.887 2.414h-1.592l3.546-9.017h1.508l3.627 9.017h-1.676l-.906-2.414zm-3.166-1.226h2.703l-.968-2.583c-.132-.356-.263-.75-.393-1.182a38.42 38.42 0 01-.38 1.17l-.962 2.595zm6.464-1.432c0-.498-.017-1.045-.05-1.642h1.445c.055.281.093.566.114.852.6-.65 1.286-.976 2.06-.976.44-.003.87.114 1.248.338.383.229.693.585.929 1.07.235.485.353 1.105.352 1.858 0 .784-.134 1.455-.403 2.01a2.87 2.87 0 01-1.127 1.263 3.221 3.221 0 01-1.674.43c-.46 0-.918-.079-1.354-.23v2.776l-1.542.13.002-7.878zm4.054 3.431c.315-.421.471-1.036.471-1.845 0-.75-.13-1.295-.39-1.633a1.241 1.241 0 00-1.039-.508 1.681 1.681 0 00-.83.213 3.12 3.12 0 00-.724.567v3.597c.17.08.35.14.536.177.199.043.402.065.606.065.599 0 1.056-.21 1.37-.631m3.031-3.433c0-.498-.017-1.045-.05-1.642h1.445c.056.281.096.566.12.852.596-.65 1.282-.976 2.057-.976.439-.003.87.114 1.246.338.384.229.694.585.929 1.07.235.485.353 1.105.352 1.858 0 .784-.134 1.455-.403 2.01-.24.525-.632.965-1.126 1.263a3.222 3.222 0 01-1.674.43c-.461 0-.92-.079-1.354-.23v2.775l-1.542.131v-7.878zm4.054 3.431c.315-.421.472-1.036.471-1.845 0-.75-.13-1.295-.39-1.634a1.243 1.243 0 00-1.039-.507 1.681 1.681 0 00-.825.213 3.122 3.122 0 00-.724.567v3.597c.17.08.351.14.536.177.2.043.403.065.606.065.6 0 1.057-.21 1.37-.631m4.952 1.213a3.737 3.737 0 01-1.537-1.578c-.358-.686-.537-1.495-.537-2.427 0-1.011.206-1.87.62-2.579a3.972 3.972 0 011.682-1.593c.71-.355 1.505-.532 2.388-.532a6.382 6.382 0 012.81.64l-.395 1.186c-.82-.39-1.602-.585-2.347-.585-.629 0-1.18.134-1.652.401a2.74 2.74 0 00-1.102 1.18c-.262.518-.393 1.145-.394 1.88a4.51 4.51 0 00.304 1.71c.19.48.523.892.955 1.177.435.29.983.436 1.644.436.302 0 .602-.026.9-.075.287-.046.569-.12.843-.218v-1.82H59.51v-1.195h3.588v3.796a7.995 7.995 0 01-3.32.747c-.908 0-1.694-.183-2.36-.55m11.239.425a5.932 5.932 0 01-.106-.892 2.977 2.977 0 01-.927.719c-.4.201-.842.302-1.29.295a2.441 2.441 0 01-1.06-.227 1.753 1.753 0 01-.758-.686c-.187-.304-.28-.676-.28-1.116 0-.652.234-1.172.704-1.56.47-.387 1.255-.58 2.355-.581.409 0 .817.029 1.223.086v-.13c0-.595-.127-1.012-.381-1.254-.254-.24-.618-.362-1.092-.364-.357.004-.71.052-1.055.144-.339.082-.67.197-.986.343l-.244-1.12c.35-.15.714-.265 1.086-.344a6.322 6.322 0 011.424-.152c.582 0 1.077.088 1.485.265.416.183.755.506.957.912.23.429.344 1.006.344 1.733v2.669c0 .278.017.7.05 1.264l-1.45-.004zm-.924-1.244c.298-.137.565-.331.786-.573v-1.244a9.82 9.82 0 00-1.032-.069c-.637 0-1.077.103-1.322.308a1.034 1.034 0 00-.364.83c0 .332.089.579.265.739.177.16.418.24.722.24a2.19 2.19 0 00.943-.231m3.673-.37v-7.931l1.536-.125v7.781c0 .287.049.49.147.608.097.118.252.177.465.177a1.76 1.76 0 00.406-.068l.181 1.102a2.69 2.69 0 01-.534.137 3.63 3.63 0 01-.596.052c-1.07 0-1.604-.579-1.605-1.736m3.841.003v-7.931l1.535-.125v7.781c0 .287.049.49.147.608.098.118.253.177.465.177a1.76 1.76 0 00.406-.068l.18 1.102a2.65 2.65 0 01-.534.137 3.624 3.624 0 01-.596.052c-1.069 0-1.603-.579-1.603-1.736m9.127-1.543h-4.406c.071 1.406.743 2.109 2.017 2.11a4.29 4.29 0 00.971-.116c.326-.076.644-.179.952-.309l.337 1.052c-.754.366-1.6.55-2.54.55-.717 0-1.321-.135-1.812-.405a2.605 2.605 0 01-1.108-1.166c-.247-.506-.37-1.116-.37-1.83 0-.743.13-1.382.392-1.917a2.854 2.854 0 011.094-1.226 3.079 3.079 0 011.62-.423c.637 0 1.17.148 1.596.445.426.295.757.708.951 1.187.212.52.317 1.076.31 1.637l-.004.41zm-1.504-.977c-.029-.536-.164-.937-.406-1.205-.241-.267-.565-.401-.968-.401a1.298 1.298 0 00-.977.404c-.26.27-.43.67-.509 1.201h2.86zm2.747-.891c0-.37-.017-.931-.05-1.687h1.445c.026.188.05.412.07.67.02.258.037.47.046.631.155-.261.331-.51.527-.743.17-.2.375-.366.606-.492.243-.129.514-.194.79-.19.206-.003.412.022.611.075l-.193 1.332a1.704 1.704 0 00-.5-.069 1.64 1.64 0 00-.949.275c-.27.183-.56.486-.868.911v4.313h-1.535v-5.026zm4.97 7.776a3.77 3.77 0 01-.555-.134l.28-1.12c.105.03.236.057.394.084.148.026.299.04.45.04.682 0 1.194-.437 1.535-1.313l.1-.249-2.485-6.77h1.653l1.249 3.783c.162.487.293.984.392 1.488.117-.486.255-.971.413-1.457l1.267-3.814h1.555l-2.478 6.801c-.233.644-.485 1.163-.757 1.557a2.64 2.64 0 01-.958.877c-.367.19-.811.286-1.333.286a4.223 4.223 0 01-.724-.06"/><path fill="#C8102E" fill-rule="evenodd" d="M20.475 6.508h-8.708c-4.103 0-5.603 1.495-5.603 5.585v8.68c0 4.088 1.5 5.585 5.603 5.585h8.705c4.102 0 5.605-1.497 5.605-5.585v-8.68c0-4.09-1.5-5.585-5.603-5.585" clip-rule="evenodd"/><path fill="#fff" d="M10.107 16.434h.528v2.595h-.528v-1.053H8.914v1.053h-.528v-2.595h.528v1.047h1.193v-1.047zm2.976 1.483c0 .423-.21.648-.592.648-.381 0-.595-.232-.595-.666v-1.463h-.528v1.481c0 .73.407 1.149 1.116 1.149.71 0 1.127-.426 1.127-1.167v-1.465h-.528v1.483zm6.105.3l-.592-1.785h-.43l-.591 1.784-.576-1.784h-.562l.908 2.594h.437l.591-1.704.593 1.704h.44l.907-2.594h-.551l-.574 1.784zm2.071-.307h.964v-.472h-.964v-.531h1.395v-.473h-1.918v2.591h1.966v-.47h-1.446l.003-.645zm2.075 1.113h.522v-2.589h-.522v2.59zm-8.678-.538l-.237.54h-.54l1.148-2.593h.465l1.142 2.593h-.55l-.234-.54h-1.194zm.196-.468h.798l-.401-.923-.397.923zm1.272-4.887a3.324 3.324 0 01-2.343-.969 3.302 3.302 0 01-.972-2.335h.469c0 .753.3 1.474.834 2.007a2.851 2.851 0 004.025 0 2.833 2.833 0 00.834-2.007h.468a3.303 3.303 0 01-.972 2.336 3.324 3.324 0 01-2.343.968zm15.603-6.338h2.782l-.078.67h-1.888v1.295h1.78v.628h-1.78v1.436h1.989l-.07.675h-2.735V6.791zm4.698 2.304l-1.467-2.304h.926l.994 1.693 1.047-1.693h.9l-1.454 2.274 1.574 2.431h-.938l-1.125-1.852-1.144 1.852h-.9l1.587-2.401zm3.119-2.304h1.27c.597 0 1.055.121 1.373.364.318.243.477.594.476 1.052.007.287-.067.57-.213.818a1.407 1.407 0 01-.595.536 1.978 1.978 0 01-.878.187 3.438 3.438 0 01-.62-.065v1.812h-.813V6.791zm2.043 2.1c.174-.157.26-.378.26-.664 0-.287-.088-.5-.265-.628-.176-.13-.437-.191-.78-.191h-.444v1.67c.156.028.313.044.47.049.332 0 .585-.079.757-.236m1.886-2.1h.815v4.01h1.953l-.069.694h-2.699V6.791zm4.007 4.475a1.97 1.97 0 01-.793-.832 2.689 2.689 0 01-.275-1.242c-.01-.452.09-.9.292-1.304a2.05 2.05 0 01.841-.86 2.634 2.634 0 011.296-.305c.476 0 .886.098 1.229.295.339.19.613.476.786.823.187.385.28.808.27 1.235a2.78 2.78 0 01-.291 1.322 2.058 2.058 0 01-.841.86 2.611 2.611 0 01-1.283.303 2.442 2.442 0 01-1.23-.295h-.001zm2.116-.578c.23-.154.408-.374.512-.63.118-.292.175-.604.17-.918a2.532 2.532 0 00-.15-.904 1.343 1.343 0 00-.483-.632c-.22-.157-.502-.236-.848-.235a1.449 1.449 0 00-.841.239c-.23.16-.41.381-.518.64-.117.28-.176.581-.173.885-.005.312.05.622.164.913.099.257.272.48.498.638.246.162.537.244.832.234.296.01.587-.07.837-.23zm2.441-3.897h1.477c.539 0 .947.107 1.225.321.278.215.416.521.413.92.005.228-.047.454-.15.658a1.45 1.45 0 01-.372.462c-.136.113-.29.204-.456.268l1.452 2.075h-.945l-1.23-1.865h-.6v1.865h-.814V6.791zm1.276 2.225c.181.004.361-.035.524-.115a.863.863 0 00.483-.81c0-.237-.075-.41-.225-.519-.15-.11-.368-.164-.655-.164h-.59v1.608h.463zm2.96-2.225h2.78l-.078.67h-1.887v1.295h1.78v.628h-1.78v1.436h1.989l-.07.675h-2.734V6.791zm6.621 0h-.815v4.704h.815V6.791zm2.156.678h-1.465l.071-.678h3.676l-.076.679h-1.392v4.026h-.814V7.471zm5.816 3.797a1.968 1.968 0 01-.791-.831 2.69 2.69 0 01-.276-1.243c-.01-.452.09-.9.293-1.304.188-.364.482-.663.843-.859a2.64 2.64 0 011.295-.304c.477 0 .886.098 1.23.295.338.19.611.476.785.823.187.385.28.808.27 1.235a2.78 2.78 0 01-.294 1.316 2.056 2.056 0 01-.842.861 2.61 2.61 0 01-1.282.303 2.445 2.445 0 01-1.23-.292zm2.113-.577c.23-.155.408-.375.512-.631.117-.292.175-.604.17-.918a2.543 2.543 0 00-.15-.904 1.345 1.345 0 00-.482-.632c-.22-.157-.502-.235-.848-.235a1.449 1.449 0 00-.841.239c-.23.16-.41.381-.517.64-.119.28-.178.581-.174.885-.005.312.05.622.163.913.1.257.273.479.499.638.246.162.537.244.831.234.295.009.586-.071.835-.23m2.448-3.897h.936l2.335 3.646c-.02-.347-.03-.667-.03-.96V6.791h.758v4.704h-.906l-2.37-3.705c.023.42.035.792.035 1.117v2.587h-.757V6.792z"/></svg>