<svg width="113" height="36" fill="none" xmlns="http://www.w3.org/2000/svg"><g clip-path="url(#clip0)"><rect x=".634" width="112.602" height="35.866" rx="5.38" fill="#000"/><path d="M25.528 17.175c-.025-2.689 2.2-3.996 2.303-4.057-1.26-1.838-3.214-2.089-3.9-2.109-1.641-.173-3.233.982-4.069.982-.852 0-2.139-.965-3.526-.937-1.785.028-3.455 1.06-4.37 2.666-1.89 3.272-.481 8.08 1.33 10.725.905 1.296 1.964 2.742 3.35 2.691 1.355-.055 1.861-.863 3.497-.863 1.62 0 2.096.863 3.509.83 1.454-.022 2.37-1.3 3.244-2.607 1.047-1.484 1.467-2.947 1.484-3.022-.034-.013-2.825-1.078-2.852-4.3zm-2.67-7.905c.73-.912 1.228-2.153 1.09-3.411-1.056.046-2.375.73-3.135 1.621-.672.786-1.273 2.074-1.117 3.285 1.185.088 2.402-.598 3.162-1.496zm22.285 17.68h-1.894l-1.038-3.26h-3.607l-.988 3.26h-1.844l3.573-11.1h2.207l3.59 11.1zm-3.245-4.628l-.938-2.898c-.1-.297-.285-.994-.56-2.092h-.033c-.11.473-.285 1.17-.527 2.091l-.922 2.899h2.98zm12.434.528c0 1.361-.368 2.437-1.104 3.227-.659.703-1.477 1.054-2.453 1.054-1.055 0-1.812-.378-2.273-1.135h-.034v4.216H46.69V21.58c0-.854-.023-1.733-.066-2.634h1.564l.1 1.269h.033c.593-.956 1.493-1.433 2.7-1.433.945 0 1.733.373 2.363 1.12.633.747.948 1.73.948 2.948zm-1.812.065c0-.78-.175-1.421-.527-1.928-.384-.526-.9-.79-1.548-.79-.439 0-.837.147-1.194.438a2.03 2.03 0 00-.7 1.144c-.054.221-.082.4-.082.542v1.335c0 .582.179 1.073.536 1.475.357.4.82.602 1.39.602.67 0 1.192-.259 1.565-.774.373-.518.56-1.2.56-2.044zm11.018-.065c0 1.361-.368 2.437-1.104 3.227-.659.703-1.476 1.054-2.454 1.054-1.054 0-1.811-.378-2.272-1.135h-.033v4.216h-1.778V21.58c0-.854-.023-1.733-.066-2.634h1.564l.099 1.269h.033c.593-.956 1.492-1.433 2.7-1.433.944 0 1.732.373 2.364 1.12.63.747.947 1.73.947 2.948zm-1.812.065c0-.78-.176-1.421-.528-1.928-.384-.526-.899-.79-1.547-.79-.44 0-.838.147-1.195.438-.357.291-.59.673-.698 1.144-.055.221-.084.4-.084.542v1.335c0 .582.179 1.073.535 1.475.357.4.82.602 1.393.602.67 0 1.19-.259 1.564-.774.373-.518.56-1.2.56-2.044zm12.104.922c0 .945-.327 1.713-.985 2.306-.724.647-1.73.972-3.024.972-1.195 0-2.152-.23-2.877-.692l.412-1.482a4.88 4.88 0 002.571.71c.67 0 1.191-.153 1.566-.455.373-.3.559-.707.559-1.212 0-.45-.154-.83-.462-1.137-.306-.308-.817-.594-1.531-.859-1.944-.724-2.915-1.786-2.915-3.182 0-.912.34-1.66 1.022-2.243.68-.583 1.585-.874 2.718-.874 1.01 0 1.849.176 2.519.527l-.444 1.45c-.626-.34-1.334-.51-2.125-.51-.626 0-1.115.154-1.465.46a1.32 1.32 0 00-.444 1.007c0 .438.169.801.51 1.087.295.263.833.548 1.615.856.956.385 1.655.834 2.107 1.349.448.512.674 1.154.674 1.922zm5.88-3.557h-1.96v3.886c0 .988.345 1.482 1.037 1.482.318 0 .582-.027.79-.083l.05 1.35c-.35.131-.812.197-1.383.197-.703 0-1.252-.214-1.648-.643-.395-.429-.593-1.148-.593-2.158v-4.034h-1.168v-1.335h1.168v-1.465l1.747-.527v1.992h1.96v1.338zm8.844 2.603c0 1.23-.352 2.24-1.055 3.03-.737.813-1.714 1.218-2.933 1.218-1.174 0-2.11-.39-2.807-1.167-.697-.78-1.046-1.763-1.046-2.948 0-1.24.36-2.256 1.079-3.046.717-.79 1.686-1.186 2.905-1.186 1.174 0 2.12.39 2.832 1.17.684.755 1.025 1.73 1.025 2.928zm-1.846.057c0-.739-.157-1.371-.476-1.9-.373-.639-.907-.956-1.597-.956-.715 0-1.258.32-1.63.957-.32.529-.477 1.172-.477 1.932 0 .739.156 1.372.477 1.898.384.639.92.957 1.615.957.678 0 1.211-.326 1.597-.974.327-.537.491-1.177.491-1.914zm7.626-2.43a3.09 3.09 0 00-.56-.049c-.626 0-1.11.235-1.45.71-.296.416-.445.943-.445 1.58v4.2h-1.777l.017-5.484c0-.922-.022-1.762-.067-2.52h1.55l.065 1.532h.049c.189-.527.484-.951.89-1.27a2.15 2.15 0 011.285-.428c.164 0 .312.012.444.033v1.696zm7.953 2.06c0 .318-.021.587-.065.806h-5.335c.021.791.279 1.396.774 1.814.45.372 1.031.558 1.746.558.789 0 1.511-.125 2.159-.378l.278 1.234c-.757.33-1.65.495-2.683.495-1.241 0-2.215-.366-2.925-1.095-.708-.73-1.061-1.711-1.061-2.94 0-1.206.33-2.21.99-3.012.69-.856 1.623-1.284 2.797-1.284 1.154 0 2.028.428 2.621 1.284.468.678.704 1.518.704 2.518zm-1.696-.462c.012-.528-.104-.982-.345-1.367-.308-.495-.78-.742-1.417-.742-.581 0-1.054.241-1.415.725-.296.384-.472.846-.527 1.383l3.704.001zM37.817 7.248a2.225 2.225 0 012.367 2.5c0 1.606-.869 2.53-2.367 2.53H36v-5.03h1.817zm-1.036 4.318h.949a1.581 1.581 0 001.658-1.809A1.585 1.585 0 0037.73 7.96h-.949v3.607zm4.285-1.188a1.798 1.798 0 113.58 0 1.797 1.797 0 11-3.58 0zm2.81 0c0-.823-.37-1.304-1.018-1.304-.652 0-1.018.481-1.018 1.304 0 .83.366 1.307 1.018 1.307.648 0 1.018-.48 1.018-1.307zm5.53 1.9h-.778l-.784-2.796h-.06l-.78 2.796h-.77l-1.047-3.796h.76l.68 2.896h.056l.78-2.896h.72l.78 2.896h.059l.677-2.896h.749l-1.042 3.796zm1.922-3.796h.72v.603h.057a1.136 1.136 0 011.133-.676A1.235 1.235 0 0154.55 9.82v2.458h-.749v-2.27c0-.61-.265-.913-.819-.913a.871.871 0 00-.906.962v2.22h-.75V8.483zM55.745 7h.75v5.278h-.75V7zm1.791 3.378a1.798 1.798 0 113.58 0 1.8 1.8 0 11-3.58 0zm2.81 0c0-.823-.37-1.304-1.019-1.304-.651 0-1.017.481-1.017 1.304 0 .83.366 1.307 1.017 1.307.649 0 1.019-.48 1.019-1.307zm1.559.826c0-.683.509-1.077 1.412-1.133l1.028-.06v-.327c0-.4-.265-.627-.777-.627-.418 0-.708.153-.791.422h-.725c.076-.652.69-1.07 1.55-1.07.952 0 1.489.473 1.489 1.275v2.594h-.721v-.534h-.06a1.277 1.277 0 01-1.14.596 1.146 1.146 0 01-1.265-1.136zm2.44-.324v-.317l-.927.059c-.523.035-.76.213-.76.547 0 .342.297.54.704.54a.896.896 0 00.983-.83zm1.731-.502c0-1.2.616-1.96 1.575-1.96a1.25 1.25 0 011.164.667h.056V7h.75v5.278h-.718v-.6h-.06a1.319 1.319 0 01-1.192.662c-.965 0-1.575-.76-1.575-1.962zm.773 0c0 .805.38 1.29 1.015 1.29.631 0 1.021-.492 1.021-1.287 0-.79-.394-1.29-1.021-1.29-.631 0-1.015.489-1.015 1.287zm5.871 0a1.798 1.798 0 113.58 0 1.8 1.8 0 01-1.79 1.973 1.799 1.799 0 01-1.79-1.973zm2.81 0c0-.823-.37-1.304-1.019-1.304-.65 0-1.017.481-1.017 1.304 0 .83.366 1.307 1.017 1.307.649 0 1.019-.48 1.019-1.307zm1.775-1.896h.721v.603h.056a1.137 1.137 0 011.133-.676A1.234 1.234 0 0180.53 9.82v2.458h-.75v-2.27c0-.61-.264-.913-.818-.913a.87.87 0 00-.907.962v2.22h-.749V8.483zm7.457-.945v.962h.823v.631h-.823v1.952c0 .398.164.572.537.572.095 0 .19-.006.285-.018v.625c-.134.024-.27.036-.407.038-.833 0-1.165-.293-1.165-1.025V9.13h-.603V8.5h.603v-.963h.75zM86.608 7h.742v2.092h.06a1.168 1.168 0 011.157-.68 1.25 1.25 0 011.307 1.415v2.45h-.75v-2.265c0-.607-.282-.914-.811-.914a.886.886 0 00-.956.963v2.217h-.75V7zm7.635 4.253a1.541 1.541 0 01-1.645 1.098 1.724 1.724 0 01-1.754-1.96 1.75 1.75 0 011.75-1.982c1.057 0 1.694.721 1.694 1.913v.262h-2.68v.042a1.005 1.005 0 001.01 1.087.91.91 0 00.903-.46h.722zm-2.636-1.223h1.918a.916.916 0 00-.935-.984.97.97 0 00-.983.984z" fill="#fff"/></g><defs><clipPath id="clip0"><path fill="#fff" d="M.634 0H113v35.866H.634z"/></clipPath></defs></svg>