<svg fill="none" xmlns="http://www.w3.org/2000/svg" viewBox="0 0 21 20"><g clip-path="url(#clip0)"><path d="M20.5 15.898a2.93 2.93 0 01-2.93 2.93h-4.687a.58.58 0 01-.586-.586.58.58 0 01.586-.586h4.687c.973 0 1.758-.785 1.758-1.758 0-.972-.785-1.757-1.758-1.757h-1.172a.58.58 0 01-.585-.586.58.58 0 01.585-.586h1.172a2.93 2.93 0 012.93 2.93zm-9.96 1.758H4.894l-.293 1.172h5.937a.586.586 0 100-1.172zm1.757-7.031h4.101l-.273-1.172h-3.828a2.346 2.346 0 00-2.344 2.344 2.346 2.346 0 002.344 2.344h1.758a.585.585 0 100-1.172h-1.758a1.173 1.173 0 01-1.172-1.172c0-.646.526-1.172 1.172-1.172z" fill="#39444F"/><path d="M16.398 0a4.106 4.106 0 00-4.101 4.102c0 .89.293 1.77.82 2.46l2.813 3.829a.562.562 0 00.468.234.562.562 0 00.47-.234l2.812-3.829c.527-.69.82-1.57.82-2.46A4.106 4.106 0 0016.398 0zm0 5.86a1.755 1.755 0 01-1.757-1.758c0-.973.785-1.758 1.757-1.758.973 0 1.758.785 1.758 1.758 0 .972-.785 1.757-1.758 1.757z" fill="#478CC8"/><path d="M4.602 8.281A4.106 4.106 0 00.5 12.383c0 .89.293 1.77.82 2.46l2.813 3.75a.562.562 0 00.469.235.562.562 0 00.468-.234l2.813-3.75a4.09 4.09 0 00.82-2.461A4.106 4.106 0 004.602 8.28zm0 5.86a1.755 1.755 0 01-1.758-1.758c0-.973.785-1.758 1.758-1.758.972 0 1.757.785 1.757 1.758 0 .972-.785 1.758-1.757 1.758zM11.71 20a1.76 1.76 0 01-1.757-1.758c0-.97.789-1.758 1.758-1.758.97 0 1.758.789 1.758 1.758A1.76 1.76 0 0111.71 20zm4.688-7.746a1.72 1.72 0 00-1.171-.457c-.973 0-1.758.785-1.758 1.758 0 .972.785 1.758 1.758 1.758a1.72 1.72 0 001.171-.458 1.72 1.72 0 00.586-1.3 1.72 1.72 0 00-.586-1.301z" fill="#D0021B"/></g><defs><clipPath id="clip0"><path fill="#fff" transform="translate(.5)" d="M0 0h20v20H0z"/></clipPath></defs></svg>