<svg width="113" height="36" fill="none" xmlns="http://www.w3.org/2000/svg"><g clip-path="url(#clip0)"><rect width="112.602" height="35.866" rx="5.38" fill="#000"/><path d="M56.635 19.434c-2.002 0-3.587 1.502-3.587 3.587a3.56 3.56 0 003.587 3.587c2.002 0 3.586-1.502 3.586-3.587-.083-2.085-1.668-3.587-3.586-3.587zm0 5.755c-1.084 0-2.002-.917-2.002-2.168 0-1.251.917-2.169 2.002-2.169 1.084 0 2.002.834 2.002 2.169 0 1.251-1.001 2.168-2.002 2.168zm-7.84-5.755c-2.003 0-3.587 1.502-3.587 3.587a3.56 3.56 0 003.586 3.587c2.002 0 3.587-1.502 3.587-3.587s-1.585-3.587-3.587-3.587zm0 5.755c-1.085 0-2.003-.917-2.003-2.168 0-1.251.918-2.169 2.002-2.169 1.085 0 2.002.834 2.002 2.169 0 1.251-.917 2.168-2.002 2.168zm-9.176-4.67v1.501h3.587c-.083.834-.417 1.501-.834 1.918-.5.5-1.335 1.085-2.753 1.085-2.252 0-3.92-1.752-3.92-4.004s1.752-4.003 3.92-4.003c1.168 0 2.086.5 2.753 1.084l1.084-1.085c-.917-.834-2.085-1.5-3.753-1.5-3.003 0-5.589 2.501-5.589 5.504 0 3.003 2.586 5.505 5.589 5.505 1.668 0 2.836-.5 3.837-1.585 1-1 1.334-2.419 1.334-3.503 0-.334 0-.667-.083-.917h-5.172zm37.785 1.167c-.334-.834-1.168-2.252-3.003-2.252-1.835 0-3.336 1.418-3.336 3.587 0 2.002 1.5 3.587 3.503 3.587 1.585 0 2.585-1.001 2.92-1.585l-1.169-.834c-.417.584-.917 1-1.751 1-.75 0-1.335-.333-1.752-1.084l4.754-2.002-.166-.417zm-4.838 1.252c0-1.335 1.084-2.086 1.835-2.086.584 0 1.168.334 1.335.75l-3.17 1.335zm-3.92 3.42h1.585V15.93h-1.585v10.426zm-2.503-6.09c-.417-.417-1.084-.834-1.918-.834-1.752 0-3.42 1.585-3.42 3.587 0 2.002 1.585 3.503 3.42 3.503.834 0 1.501-.417 1.835-.834h.083v.5c0 1.335-.75 2.086-1.918 2.086-.917 0-1.585-.668-1.752-1.252l-1.334.584c.417.918 1.418 2.086 3.17 2.086 1.834 0 3.336-1.085 3.336-3.67v-6.34h-1.502v.584zm-1.835 4.921c-1.084 0-2.001-.917-2.001-2.168 0-1.251.917-2.169 2.001-2.169 1.085 0 1.919.918 1.919 2.169s-.834 2.168-1.919 2.168zm20.352-9.258h-3.753v10.426h1.585v-3.92h2.168c1.752 0 3.42-1.251 3.42-3.253 0-2.002-1.668-3.253-3.42-3.253zm.084 5.005h-2.252v-3.587h2.252c1.167 0 1.835 1.001 1.835 1.752 0 .834-.668 1.835-1.835 1.835zm9.592-1.502c-1.085 0-2.336.5-2.753 1.585l1.418.584c.334-.584.834-.75 1.418-.75.834 0 1.585.5 1.668 1.334v.083c-.25-.167-.917-.417-1.585-.417-1.5 0-3.002.834-3.002 2.336 0 1.418 1.25 2.335 2.585 2.335 1.085 0 1.585-.5 2.002-1h.084v.833h1.501v-4.003c-.167-1.919-1.585-2.92-3.336-2.92zm-.167 5.755c-.5 0-1.251-.25-1.251-.917 0-.834.917-1.084 1.668-1.084.667 0 1 .167 1.418.333-.084.918-.918 1.668-1.835 1.668zm8.841-5.505l-1.751 4.505h-.084l-1.835-4.505h-1.668l2.753 6.34-1.585 3.503h1.585l4.253-9.843h-1.668zm-14.013 6.673h1.585V15.931h-1.584v10.426z" fill="#fff"/><g clip-path="url(#clip1)" fill="#fff" stroke="#fff" stroke-width=".2" stroke-miterlimit="10"><path d="M39.216 9.942c0 .71-.21 1.277-.634 1.691-.473.499-1.099.753-1.86.753a2.559 2.559 0 01-1.868-.761c-.516-.508-.77-1.142-.77-1.894 0-.744.254-1.378.77-1.886a2.558 2.558 0 011.868-.76c.364 0 .71.067 1.04.21.33.145.592.33.795.567l-.448.448c-.338-.397-.795-.6-1.387-.6-.532 0-.997.186-1.386.567-.39.372-.584.854-.584 1.454s.195 1.09.584 1.462a1.95 1.95 0 001.386.567c.567 0 1.04-.186 1.42-.567.246-.245.39-.591.423-1.031h-1.843v-.609h2.46c.017.135.034.262.034.39zm3.898-2.122h-2.317v1.606h2.08v.61h-2.08v1.606h2.308v.625h-2.959V7.194h2.96v.626h.008zm2.748 4.447h-.651V7.82h-1.42v-.626h3.483v.626h-1.42v4.447h.008zm3.939 0V7.194h.651v5.073h-.65zm3.543 0h-.66V7.82h-1.42v-.626h3.483v.626h-1.42v4.447h.017zm8.014-.651c-.498.516-1.115.77-1.86.77-.743 0-1.36-.254-1.86-.77-.498-.516-.743-1.141-.743-1.877 0-.735.245-1.37.743-1.877.5-.515 1.117-.769 1.86-.769.736 0 1.353.254 1.86.77.5.515.753 1.14.753 1.876-.009.736-.254 1.361-.752 1.877zm-3.238-.423c.372.38.837.567 1.379.567.54 0 1.006-.186 1.378-.567.371-.38.566-.862.566-1.454s-.186-1.073-.566-1.454a1.856 1.856 0 00-1.379-.566c-.54 0-1.006.186-1.378.566-.372.38-.566.862-.566 1.454s.186 1.074.566 1.454zm4.896 1.074V7.194h.794l2.469 3.949h.025l-.025-.981V7.194h.651v5.073h-.676l-2.579-4.134h-.025l.025.98v3.162h-.66v-.008z"/></g><path d="M8.508 7.59c-.25.25-.417.667-.417 1.168V27.19c0 .5.166.918.417 1.168l.083.083L18.934 18.1v-.167L8.508 7.59z" fill="#01BCE4"/><path d="M22.27 21.603l-3.42-3.42v-.167l3.42-3.42.084.084 4.087 2.335c1.167.668 1.167 1.752 0 2.42l-4.17 2.168z" fill="#FFBD00"/><path d="M22.354 21.52l-3.504-3.504L8.508 28.36c.417.417 1 .417 1.751.083l12.095-6.922z" fill="#FF3A44"/><path d="M22.354 14.513L10.175 7.59c-.75-.417-1.335-.333-1.752.084L18.85 18.1l3.503-3.587z" fill="#06E775"/><path opacity=".2" d="M22.27 21.436L10.176 28.36c-.667.417-1.251.334-1.668 0l.083.083c.417.334 1.001.418 1.668 0l12.011-7.006z" fill="#000"/><path opacity=".12" d="M8.508 28.276c-.25-.25-.417-.668-.417-1.168v.083c0 .5.166.918.417 1.168v-.083zM26.44 19.1l-4.17 2.336.084.084 4.087-2.336c.584-.334.834-.75.834-1.168 0 .417-.25.751-.834 1.085z" fill="#000"/><path d="M10.176 7.674l16.265 9.258c.5.334.834.667.834 1.084 0-.417-.25-.834-.834-1.167L10.176 7.59C9.008 6.923 8.09 7.507 8.09 8.841v.084c0-1.335.917-1.919 2.085-1.251z" fill="#fff"/></g><defs><clipPath id="clip0"><path fill="#fff" d="M0 0h112.352v35.866H0z"/></clipPath><clipPath id="clip1"><path fill="#fff" d="M34 7h33.014v5.47H34z"/></clipPath></defs></svg>