<?xml version="1.0" encoding="UTF-8"?> <svg xmlns="http://www.w3.org/2000/svg" width="24" height="24" viewBox="0 0 24 24" fill="none"> <g filter="url(#filter0_ii)"> <g clip-path="url(#clip0)"> <rect x="3" y="3" width="18" height="18" rx="4" fill="white"></rect> <rect x="-1.5" y="-1.5" width="27" height="27" fill="url(#paint0_linear)"></rect> <circle opacity="0.5" cx="16.3438" cy="16.4062" r="2.84375" fill="url(#paint1_radial)"></circle> <path opacity="0.12" d="M25.4375 16.7447L16.4428 7.75L7.6875 16.5053L16.6822 25.5H25.4375V16.7447Z" fill="url(#paint2_linear)"></path> <path opacity="0.12" d="M25.4375 16.6831L16.3794 7.625L7.5625 16.4419L16.6206 25.5H25.4375V16.6831Z" fill="url(#paint3_linear)"></path> <path opacity="0.12" d="M25.4375 16.6214L16.3161 7.5L7.4375 16.3786L16.5589 25.5H25.4375V16.6214Z" fill="url(#paint4_linear)"></path> <path opacity="0.12" d="M25.4375 16.5598L16.2527 7.375L7.3125 16.3152L16.4973 25.5H25.4375V16.5598Z" fill="url(#paint5_linear)"></path> <path opacity="0.12" d="M25.4375 16.4981L16.1894 7.25L7.1875 16.2519L16.4356 25.5H25.4375V16.4981Z" fill="url(#paint6_linear)"></path> <path opacity="0.12" d="M25.4375 16.4364L16.1261 7.125L7.0625 16.1886L16.3739 25.5H25.4375V16.4364Z" fill="url(#paint7_linear)"></path> <circle cx="12.4375" cy="12.4375" r="7.25" fill="url(#paint8_radial)"></circle> <path fill-rule="evenodd" clip-rule="evenodd" d="M17.5288 15.5492C17.5109 15.4958 17.5181 15.4373 17.5475 15.3893C18.1517 14.4024 18.5 13.2419 18.5 12C18.5 8.41015 15.5899 5.5 12 5.5C8.41015 5.5 5.5 8.41015 5.5 12C5.5 15.5899 8.41015 18.5 12 18.5C13.2316 18.5 14.3831 18.1575 15.3647 17.5625C15.4124 17.5336 15.4705 17.5265 15.5235 17.5441L18.1748 18.4255C18.3215 18.4743 18.4608 18.3347 18.4118 18.1881L17.5288 15.5492Z" fill="white"></path> <path fill-rule="evenodd" clip-rule="evenodd" d="M15.4877 17.4198C15.4514 17.4074 15.4114 17.4124 15.379 17.4329C12.8763 19.0183 9.55272 18.7451 7.40408 16.5965C4.90835 14.1007 4.94295 10.0198 7.48136 7.48136C10.0198 4.94295 14.1007 4.90835 16.5965 7.40408C18.752 9.5596 19.02 12.8976 17.4176 15.403C17.3968 15.4355 17.3917 15.4759 17.4043 15.5124L18.3227 18.1773C18.3566 18.2757 18.2625 18.37 18.1641 18.3363L15.4877 17.4198Z" fill="#FAFAFA"></path> <path fill-rule="evenodd" clip-rule="evenodd" d="M9.78488 8.41237L9.75348 8.39305L9.72235 8.41279C9.19229 8.74872 8.7327 9.2041 8.3889 9.75973L8.3695 9.79108L8.38917 9.82227C8.52526 10.0381 8.55903 10.3138 8.45624 10.5682C8.35344 10.8227 8.13763 10.9975 7.8898 11.0582L7.85399 11.067L7.84617 11.103C7.71516 11.7063 7.72067 12.3171 7.84646 12.897L7.85427 12.933L7.89008 12.9418C8.13778 13.0026 8.35347 13.1774 8.45622 13.4318C8.55896 13.686 8.52528 13.9616 8.38937 14.1774L8.36973 14.2086L8.38914 14.2399C8.71971 14.7738 9.1704 15.2381 9.72197 15.5875L9.75312 15.6072L9.78451 15.5878C10.0018 15.454 10.2778 15.4231 10.5312 15.5286C10.7845 15.634 10.9571 15.8516 11.0152 16.1001L11.0236 16.136L11.0596 16.1442C11.692 16.2885 12.3337 16.2821 12.9404 16.1439L12.9764 16.1357L12.9848 16.0998C13.043 15.8515 13.2155 15.634 13.4688 15.5286C13.722 15.4231 13.9979 15.454 14.2151 15.5876L14.2465 15.607L14.2776 15.5872C14.8077 15.2513 15.2673 14.7959 15.6111 14.2403L15.6305 14.2089L15.6108 14.1777C15.4747 13.9619 15.4409 13.6862 15.5437 13.4318C15.6465 13.1773 15.8624 13.0025 16.1102 12.9417L16.146 12.933L16.1538 12.8969C16.2848 12.2937 16.2793 11.6829 16.1535 11.103L16.1457 11.067L16.1099 11.0582C15.8622 10.9974 15.6465 10.8226 15.5437 10.5682C15.441 10.3139 15.4747 10.0384 15.6106 9.82259L15.6302 9.7914L15.6108 9.76005C15.2803 9.22621 14.8296 8.76189 14.278 8.41253L14.2469 8.3928L14.2155 8.41214C13.9982 8.546 13.7221 8.5769 13.4688 8.47144C13.2155 8.36599 13.0429 8.14837 12.9847 7.89994L12.9763 7.86404L12.9404 7.85584C12.3079 7.71152 11.6663 7.71786 11.0595 7.85613L11.0236 7.86432L11.0152 7.90021C10.957 8.14853 10.7844 8.36602 10.5312 8.47143C10.278 8.57683 10.0021 8.54603 9.78488 8.41237ZM11.0778 14.4027L11.158 14.4335V12.8915H12.7997V14.4477L12.8789 14.4189C13.867 14.0598 14.573 13.1124 14.573 12C14.573 10.579 13.421 9.42706 12 9.42706C10.579 9.42706 9.42708 10.579 9.42708 12C9.42708 13.0961 10.1125 14.032 11.0778 14.4027ZM14.8739 12C14.8739 13.5872 13.5872 14.8739 12 14.8739C10.4128 14.8739 9.12614 13.5872 9.12614 12C9.12614 10.4128 10.4128 9.12612 12 9.12612C13.5872 9.12612 14.8739 10.4128 14.8739 12ZM11.9789 10.6995C12.4322 10.6995 12.7997 11.067 12.7997 11.5204C12.7997 11.9737 12.4322 12.3412 11.9789 12.3412C11.5255 12.3412 11.158 11.9737 11.158 11.5204C11.158 11.067 11.5255 10.6995 11.9789 10.6995Z" fill="white"></path> <path fill-rule="evenodd" clip-rule="evenodd" d="M9.75581 8.46558C9.98827 8.60862 10.2838 8.64171 10.5551 8.5288C10.8263 8.41589 11.0111 8.18284 11.0734 7.91706C11.6712 7.78083 12.3034 7.77459 12.9265 7.91677C12.9887 8.18267 13.1735 8.41585 13.4449 8.52881C13.7163 8.64178 14.012 8.60859 14.2446 8.46533C14.7879 8.8095 15.232 9.26695 15.5577 9.79296C15.4122 10.0239 15.376 10.3191 15.4861 10.5915C15.5962 10.864 15.8273 11.0512 16.0925 11.1162C16.2164 11.6877 16.2218 12.2894 16.0928 12.8837C15.8275 12.9487 15.5962 13.1359 15.4861 13.4085C15.376 13.681 15.4123 13.9764 15.5579 14.2074C15.2192 14.7548 14.7665 15.2034 14.2442 15.5344C14.0117 15.3914 13.7161 15.3583 13.4449 15.4712C13.1736 15.5841 12.9888 15.8172 12.9266 16.0829C12.3287 16.2192 11.6965 16.2254 11.0735 16.0832C11.0112 15.8173 10.8264 15.5841 10.5551 15.4712C10.2837 15.3582 9.98794 15.3914 9.75541 15.5347C9.21203 15.1905 8.76799 14.733 8.44227 14.207C8.58773 13.976 8.6239 13.6809 8.51384 13.4085C8.40377 13.136 8.17265 12.9488 7.90754 12.8838C7.7836 12.3123 7.77818 11.7106 7.90724 11.1163C8.17249 11.0513 8.40374 10.8641 8.51386 10.5915C8.62397 10.319 8.5877 10.0236 8.44205 9.79262C8.78075 9.24523 9.23353 8.79658 9.75581 8.46558ZM12 14.9305C13.6185 14.9305 14.9305 13.6184 14.9305 12C14.9305 10.3815 13.6185 9.06952 12 9.06952C10.3816 9.06952 9.06954 10.3815 9.06954 12C9.06954 13.6184 10.3816 14.9305 12 14.9305ZM11.0997 14.3457V12.8318H12.858V14.3615C13.8228 14.0109 14.5119 13.0859 14.5119 12C14.5119 10.6128 13.3873 9.48817 12 9.48817C10.6128 9.48817 9.48819 10.6128 9.48819 12C9.48819 13.07 10.1572 13.9837 11.0997 14.3457ZM12.858 11.5208C12.858 11.0352 12.4644 10.6416 11.9789 10.6416C11.4933 10.6416 11.0997 11.0352 11.0997 11.5208C11.0997 12.0063 11.4933 12.3999 11.9789 12.3999C12.4644 12.3999 12.858 12.0063 12.858 11.5208Z" fill="#39444F"></path> <rect x="-1.5" y="-1.5" width="27" height="27" fill="url(#paint9_radial)"></rect> </g> </g> <defs> <filter id="filter0_ii" x="3" y="3" width="18" height="18" filterUnits="userSpaceOnUse" color-interpolation-filters="sRGB"> <feFlood flood-opacity="0" result="BackgroundImageFix"></feFlood> <feBlend mode="normal" in="SourceGraphic" in2="BackgroundImageFix" result="shape"></feBlend> <feColorMatrix in="SourceAlpha" type="matrix" values="0 0 0 0 0 0 0 0 0 0 0 0 0 0 0 0 0 0 127 0" result="hardAlpha"></feColorMatrix> <feOffset dy="0.125"></feOffset> <feComposite in2="hardAlpha" operator="arithmetic" k2="-1" k3="1"></feComposite> <feColorMatrix type="matrix" values="0 0 0 0 1 0 0 0 0 1 0 0 0 0 1 0 0 0 0.24 0"></feColorMatrix> <feBlend mode="normal" in2="shape" result="effect1_innerShadow"></feBlend> <feColorMatrix in="SourceAlpha" type="matrix" values="0 0 0 0 0 0 0 0 0 0 0 0 0 0 0 0 0 0 127 0" result="hardAlpha"></feColorMatrix> <feOffset dy="-0.125"></feOffset> <feComposite in2="hardAlpha" operator="arithmetic" k2="-1" k3="1"></feComposite> <feColorMatrix type="matrix" values="0 0 0 0 0 0 0 0 0 0 0 0 0 0 0 0 0 0 0.08 0"></feColorMatrix> <feBlend mode="normal" in2="effect1_innerShadow" result="effect2_innerShadow"></feBlend> </filter> <linearGradient id="paint0_linear" x1="-1.5" y1="-1.5" x2="25.5" y2="25.5" gradientUnits="userSpaceOnUse"> <stop stop-color="#F6C134"></stop> <stop offset="1" stop-color="#E8BB43"></stop> </linearGradient> <radialGradient id="paint1_radial" cx="0" cy="0" r="1" gradientUnits="userSpaceOnUse" gradientTransform="translate(16.3438 16.4062) rotate(90) scale(2.84375)"> <stop stop-opacity="0.17"></stop> <stop offset="0.932292" stop-opacity="0"></stop> </radialGradient> <linearGradient id="paint2_linear" x1="12.1406" y1="10.5215" x2="18.3799" y2="18.4424" gradientUnits="userSpaceOnUse"> <stop offset="0.348066" stop-color="#3E2723" stop-opacity="0.15"></stop> <stop offset="0.685083" stop-color="#3E2723" stop-opacity="0.02"></stop> <stop offset="1" stop-color="#3E2723" stop-opacity="0"></stop> </linearGradient> <linearGradient id="paint3_linear" x1="11.9845" y1="10.3654" x2="18.3302" y2="18.3927" gradientUnits="userSpaceOnUse"> <stop offset="0.348066" stop-color="#3E2723" stop-opacity="0.15"></stop> <stop offset="0.685083" stop-color="#3E2723" stop-opacity="0.02"></stop> <stop offset="1" stop-color="#3E2723" stop-opacity="0"></stop> </linearGradient> <linearGradient id="paint4_linear" x1="11.9842" y1="10.5208" x2="18.2805" y2="18.343" gradientUnits="userSpaceOnUse"> <stop offset="0.348066" stop-color="#3E2723" stop-opacity="0.15"></stop> <stop offset="0.685083" stop-color="#3E2723" stop-opacity="0.02"></stop> <stop offset="1" stop-color="#3E2723" stop-opacity="0"></stop> </linearGradient> <linearGradient id="paint5_linear" x1="12.015" y1="10.3647" x2="18.2308" y2="18.2933" gradientUnits="userSpaceOnUse"> <stop offset="0.348066" stop-color="#3E2723" stop-opacity="0.15"></stop> <stop offset="0.685083" stop-color="#3E2723" stop-opacity="0.02"></stop> <stop offset="1" stop-color="#3E2723" stop-opacity="0"></stop> </linearGradient> <linearGradient id="paint6_linear" x1="11.9836" y1="10.4266" x2="18.1811" y2="18.2436" gradientUnits="userSpaceOnUse"> <stop offset="0.348066" stop-color="#3E2723" stop-opacity="0.15"></stop> <stop offset="0.685083" stop-color="#3E2723" stop-opacity="0.02"></stop> <stop offset="1" stop-color="#3E2723" stop-opacity="0"></stop> </linearGradient> <linearGradient id="paint7_linear" x1="12.0767" y1="10.582" x2="18.1314" y2="18.1939" gradientUnits="userSpaceOnUse"> <stop offset="0.348066" stop-color="#3E2723" stop-opacity="0.15"></stop> <stop offset="0.685083" stop-color="#3E2723" stop-opacity="0.02"></stop> <stop offset="1" stop-color="#3E2723" stop-opacity="0"></stop> </linearGradient> <radialGradient id="paint8_radial" cx="0" cy="0" r="1" gradientUnits="userSpaceOnUse" gradientTransform="translate(12.4375 12.4375) rotate(90) scale(7.25)"> <stop stop-opacity="0.48"></stop> <stop offset="0.953125" stop-opacity="0"></stop> </radialGradient> <radialGradient id="paint9_radial" cx="0" cy="0" r="1" gradientUnits="userSpaceOnUse" gradientTransform="translate(5.625 5.625) rotate(45) scale(18.0312)"> <stop stop-color="white" stop-opacity="0.32"></stop> <stop offset="0.353591" stop-color="white" stop-opacity="0.16"></stop> <stop offset="1" stop-color="white" stop-opacity="0"></stop> </radialGradient> <clipPath id="clip0"> <rect x="3" y="3" width="18" height="18" rx="4" fill="white"></rect> </clipPath> </defs> </svg> 