<svg xmlns="http://www.w3.org/2000/svg" width="103" height="33" fill="none"><path fill="#000" d="M0 4.714C0 2.111 1.942 0 4.337 0h94.326C101.058 0 103 2.11 103 4.714v23.572c0 2.603-1.942 4.714-4.337 4.714H4.337C1.942 33 0 30.89 0 28.286V4.714z"/><path fill="#07F" d="M9.123 26.46c1.661 1.638 4.334 1.638 9.68 1.638h.946c5.346 0 8.02 0 9.68-1.638 1.661-1.638 1.661-4.274 1.661-9.545v-.932c0-5.272 0-7.908-1.66-9.545C27.768 4.8 25.095 4.8 19.748 4.8h-.945c-5.347 0-8.02 0-9.681 1.638-1.66 1.637-1.66 4.273-1.66 9.545v.932c0 5.271 0 7.907 1.66 9.545z"/><path fill="#fff" fill-rule="evenodd" d="M25.703 20.285l-1.596-.393a.457.457 0 01-.335-.423l-.2-5.794a1.81 1.81 0 00-1.237-1.556.082.082 0 00-.09.032c-.02.03-.013.07.015.091.15.114.56.485.56 1.125l-.002 7.575c0 .732-.7 1.268-1.424 1.09l-1.621-.4a.46.46 0 01-.311-.417l-.2-5.794a1.81 1.81 0 00-1.238-1.556.082.082 0 00-.09.032c-.02.03-.012.07.016.091.15.114.56.485.56 1.125l-.002 6.314h.001v1.262c0 .732-.701 1.268-1.424 1.09l-4.58-1.128a1.41 1.41 0 01-1.082-1.362v-7.587c0-.732.7-1.268 1.424-1.09l2.885.71v-1.367c0-.732.701-1.268 1.424-1.09l2.885.71v-1.367c0-.731.701-1.268 1.424-1.09l4.58 1.128a1.41 1.41 0 011.082 1.362v7.587c0 .732-.7 1.268-1.424 1.09z" clip-rule="evenodd"/><path fill="#fff" d="M44.929 26.452h-1.806l-2.865-3.944H38.75v3.944h-1.537V16.078h3.701c.717 0 1.358.138 1.925.412a3.115 3.115 0 011.314 1.148c.318.48.477 1.035.477 1.663 0 .785-.244 1.457-.731 2.016-.488.549-1.14.912-1.955 1.088l2.985 4.047zm-6.178-8.976v3.65h2.163c.637 0 1.15-.167 1.537-.5a1.67 1.67 0 00.597-1.325c0-.54-.199-.976-.597-1.31-.388-.343-.9-.515-1.537-.515h-2.163zM49.007 26.6c-.547 0-1.04-.133-1.477-.398a2.883 2.883 0 01-1.03-1.118 3.47 3.47 0 01-.373-1.619v-4.62h1.462v4.503c0 .578.165 1.05.493 1.412.328.363.751.545 1.268.545.538 0 .985-.187 1.343-.56.358-.372.538-.838.538-1.397v-4.503h1.462v7.607H51.65l-.344-1.147a2.61 2.61 0 01-.985.956 2.616 2.616 0 01-1.313.338zm9.138 0c-.965 0-1.805-.246-2.522-.737a3.746 3.746 0 01-1.447-2.03l1.477-.235c.289.549.632.956 1.03 1.22.398.256.885.383 1.462.383.587 0 1.065-.127 1.433-.382.368-.265.552-.623.552-1.074 0-.334-.104-.613-.313-.839a2.177 2.177 0 00-.761-.544c-.309-.138-.712-.29-1.21-.457a11.758 11.758 0 01-1.64-.647 3.122 3.122 0 01-1.09-.912c-.288-.403-.433-.913-.433-1.53 0-.58.145-1.085.433-1.516a2.88 2.88 0 011.224-1.015 4.133 4.133 0 011.73-.354c.886 0 1.647.23 2.284.692.637.451 1.09 1.074 1.358 1.869l-1.448.235c-.199-.451-.482-.794-.85-1.03-.368-.245-.801-.368-1.299-.368-.537 0-.98.128-1.328.383a1.174 1.174 0 00-.522 1.015c0 .324.1.598.298.824.21.226.463.407.762.545.308.137.716.294 1.223.47a10.88 10.88 0 011.612.663c.438.215.806.524 1.104.927.299.402.448.907.448 1.515 0 .589-.16 1.104-.478 1.545-.308.441-.736.785-1.283 1.03-.537.236-1.14.353-1.806.353zm9.745-1.414l-.135 1.266h-1.358c-.806 0-1.418-.196-1.836-.589-.417-.392-.626-.956-.626-1.692v-4.046h-1.329v-1.28h1.329l.403-2.207h1.059v2.207h2.358v1.28h-2.358v4.046c0 .677.333 1.015 1 1.015h1.492zm4.877 1.414c-.786 0-1.488-.168-2.104-.501-.617-.334-1.1-.8-1.448-1.398-.348-.598-.523-1.28-.523-2.045 0-.765.175-1.447.523-2.046a3.655 3.655 0 011.448-1.398c.616-.343 1.318-.514 2.104-.514.785 0 1.487.171 2.103.514.618.334 1.1.8 1.448 1.398.348.599.523 1.28.523 2.046 0 .765-.175 1.447-.523 2.045a3.65 3.65 0 01-1.448 1.398c-.616.333-1.318.5-2.103.5zm0-1.325c.756 0 1.367-.24 1.835-.721.478-.48.717-1.114.717-1.898 0-.785-.24-1.418-.717-1.898-.468-.491-1.08-.736-1.835-.736-.757 0-1.368.245-1.836.736-.468.48-.701 1.113-.701 1.898 0 .775.233 1.407.701 1.898.468.48 1.08.72 1.836.72zm5.641 1.177v-7.607h1.06l.313 1.089c.229-.383.513-.657.85-.824.339-.177.742-.265 1.21-.265h.358l.12 1.383h-.837c-.536 0-.94.152-1.208.456-.269.304-.403.716-.403 1.236v4.532h-1.463zm12.272-3.855c0 .196-.005.348-.015.456h-6.373c.08.677.349 1.216.807 1.619.457.402 1.04.603 1.745.603a2.9 2.9 0 001.299-.28c.388-.196.681-.451.88-.765l1.374.22a3.275 3.275 0 01-1.449 1.59 4.363 4.363 0 01-2.193.56c-.766 0-1.452-.168-2.06-.501a3.673 3.673 0 01-1.417-1.413c-.339-.598-.508-1.275-.508-2.03 0-.765.17-1.447.508-2.046a3.599 3.599 0 011.403-1.398c.597-.343 1.278-.514 2.044-.514.756 0 1.433.171 2.03.514.607.334 1.079.8 1.418 1.398.338.589.507 1.251.507 1.987zm-3.955-2.62c-.587 0-1.094.172-1.522.516-.418.343-.697.804-.836 1.383h4.716c-.13-.57-.408-1.025-.836-1.369-.418-.353-.925-.53-1.522-.53zM39.388 12.1a2.75 2.75 0 01-1.41-.365 2.634 2.634 0 01-.983-1.03 3.114 3.114 0 01-.348-1.481c0-.55.116-1.04.348-1.474.238-.438.563-.78.975-1.022a2.705 2.705 0 011.41-.373c.565 0 1.067.143 1.505.428.444.28.76.66.951 1.141l-.808.127a1.593 1.593 0 00-.658-.69 1.86 1.86 0 00-.966-.253c-.37 0-.7.09-.99.27-.286.18-.51.43-.674.752a2.413 2.413 0 00-.238 1.094c0 .417.08.787.238 1.109.164.317.39.565.681.745.29.18.623.269.999.269.37 0 .697-.085.982-.253a1.71 1.71 0 00.666-.73l.808.127a2.49 2.49 0 01-.975 1.173c-.449.29-.953.436-1.513.436zm6.628-.08h-1.023l-1.513-1.695h-.245v1.696h-.777V7.925h.776V9.58h.238l1.45-1.655h.935l-1.759 1.98 1.918 2.116zm1.846-4.175c.507 0 .906.166 1.196.5.296.327.444.786.444 1.378v2.297h-.555l-.182-.641a1.652 1.652 0 01-.53.515 1.49 1.49 0 01-.801.206c-.275 0-.52-.056-.737-.167a1.258 1.258 0 01-.507-.46 1.276 1.276 0 01-.182-.673c0-.385.153-.694.46-.927.306-.232.75-.348 1.33-.348h.927c-.02-.323-.11-.57-.269-.745a.803.803 0 00-.634-.27c-.2 0-.378.048-.53.143a.944.944 0 00-.35.373l-.72-.12c.105-.327.309-.586.61-.776.3-.19.644-.285 1.03-.285zm-.262 3.597c.333 0 .602-.108.808-.325.212-.222.317-.525.317-.911v-.047h-.903c-.687 0-1.03.205-1.03.617 0 .201.074.362.222.484.148.121.343.182.586.182zm4.945-.911a1.9 1.9 0 01-.452.135 2.874 2.874 0 01-.515.047c-.49 0-.868-.137-1.133-.411-.264-.275-.396-.663-.396-1.165V7.925h.777v1.212c0 .586.282.88.847.88.344 0 .634-.061.872-.183v-1.91h.776v4.097h-.776v-1.49zm3.302-2.686c.507 0 .906.166 1.197.5.295.327.443.786.443 1.378v2.297h-.554l-.183-.641a1.652 1.652 0 01-.53.515 1.49 1.49 0 01-.8.206c-.275 0-.521-.056-.738-.167a1.257 1.257 0 01-.507-.46 1.275 1.275 0 01-.182-.673c0-.385.153-.694.46-.927.306-.232.75-.348 1.33-.348h.928c-.021-.323-.111-.57-.27-.745a.803.803 0 00-.634-.27c-.2 0-.377.048-.53.143a.943.943 0 00-.349.373l-.72-.12a1.4 1.4 0 01.61-.776c.3-.19.644-.285 1.03-.285zm-.261 3.597c.333 0 .602-.108.808-.325.211-.222.317-.525.317-.911v-.047h-.904c-.686 0-1.03.205-1.03.617 0 .201.075.362.222.484.148.121.344.182.587.182zm3.914.578h-1.148V7.925h.752v3.225h.12l1.655-3.225h1.149v4.096h-.753V8.805h-.119L59.5 12.02zm.698-4.627c-.344 0-.632-.09-.864-.269-.227-.185-.362-.46-.404-.824h.634a.612.612 0 00.198.388.7.7 0 00.436.127c.18 0 .322-.042.428-.127a.573.573 0 00.198-.388h.641c-.047.365-.187.64-.42.824-.227.18-.51.27-.847.27zm4.529 4.627h-.777V8.639h-1.418v-.713h3.613v.713h-1.418v3.383zm5.741-2.075c0 .105-.002.187-.008.245h-3.383c.043.365.185.655.428.872.243.216.552.325.927.325.259 0 .489-.05.69-.151.205-.106.361-.243.467-.412l.729.119a1.76 1.76 0 01-.769.856c-.348.2-.737.3-1.165.3-.406 0-.77-.09-1.093-.269a1.965 1.965 0 01-.753-.76 2.207 2.207 0 01-.269-1.094c0-.412.09-.779.27-1.101.179-.322.427-.573.744-.753a2.114 2.114 0 011.086-.277c.401 0 .76.092 1.077.277.322.18.573.43.753.753.18.317.27.673.27 1.07zm-2.1-1.41a1.24 1.24 0 00-.807.277 1.34 1.34 0 00-.444.744h2.504a1.28 1.28 0 00-.444-.736 1.2 1.2 0 00-.808-.286zm5.586 3.485h-1.148V7.926h.752v3.224h.12l1.655-3.224h1.149v4.096h-.753V8.804h-.119l-1.656 3.217zm5.671-2.091c.216.063.396.18.538.348a.896.896 0 01.214.61c0 .228-.066.434-.198.618a1.39 1.39 0 01-.57.436 2.112 2.112 0 01-.848.159c-.433 0-.805-.1-1.117-.301a1.453 1.453 0 01-.618-.824l.72-.12c.175.381.51.571 1.007.571.275 0 .483-.05.626-.15a.507.507 0 00.222-.436.468.468 0 00-.206-.396c-.132-.1-.346-.15-.642-.15h-.539v-.682h.54c.253 0 .445-.048.578-.143a.441.441 0 00.206-.38.485.485 0 00-.222-.412.867.867 0 00-.531-.159c-.206 0-.391.05-.555.151a.969.969 0 00-.372.412l-.721-.127c.121-.354.33-.626.626-.816.3-.195.65-.293 1.046-.293.285 0 .541.05.768.15.233.1.412.24.539.42.132.18.198.38.198.603 0 .227-.063.42-.19.578a.998.998 0 01-.5.333z"/></svg>